<svg width="32" height="32" viewBox="0 0 32 32" fill="none" xmlns="http://www.w3.org/2000/svg">
<g clip-path="url(#clip0_274_2211)">
<path fill-rule="evenodd" clip-rule="evenodd" d="M18.0368 25.5716C17.3368 24.4769 17.1568 22.913 17.1658 21.1901L17.1856 17.4387L17.2033 14.0662C17.2041 14.0571 17.2045 14.0479 17.2045 14.0387V9.64048C17.2045 9.35369 17.3221 9.09281 17.5113 8.90347C17.7007 8.71419 17.9615 8.59667 18.2483 8.59667C18.535 8.59667 18.7959 8.71419 18.9853 8.90347C19.1745 9.09281 19.2921 9.35369 19.2921 9.64048V14.0387C19.2921 14.2018 19.4243 14.334 19.5874 14.334C19.7505 14.334 19.8828 14.2018 19.8828 14.0387V9.64048V7.53486C19.8828 7.24815 20.0003 6.98727 20.1896 6.798C20.3789 6.60865 20.6399 6.49113 20.9266 6.49113C21.2133 6.49113 21.4742 6.60865 21.6635 6.798C21.8528 6.98727 21.9703 7.24815 21.9703 7.53486V14.0387C21.9703 14.2018 22.1026 14.334 22.2656 14.334C22.4288 14.334 22.561 14.2018 22.561 14.0387V7.53486V5.84263C22.561 5.55592 22.6785 5.29497 22.8678 5.10569C23.0571 4.91635 23.3181 4.79883 23.6048 4.79883C23.8915 4.79883 24.1525 4.91635 24.3417 5.10569C24.531 5.29497 24.6485 5.55592 24.6485 5.84263V9.07214V14.0387C24.6485 14.2018 24.7808 14.334 24.9439 14.334C25.107 14.334 25.2392 14.2018 25.2392 14.0387V9.07214C25.2392 8.78543 25.3568 8.52448 25.5461 8.33521C25.7354 8.14586 25.9963 8.02834 26.283 8.02834C26.5697 8.02834 26.8307 8.14586 27.02 8.33521C27.2092 8.52448 27.3268 8.78543 27.3268 9.07214V14.0387C27.3268 14.0472 27.3271 14.0556 27.3279 14.0639L27.3112 17.2079V17.7996L27.3065 17.8003C28.4592 17.6242 29.2291 15.567 29.8383 14.649C29.8867 14.5761 29.9363 14.5064 29.987 14.4403C30.2394 14.1114 30.5158 13.8756 30.804 13.7814C31.0675 13.6953 31.3548 13.7319 31.6587 13.9336C31.6909 13.9549 31.7234 13.9782 31.7561 14.0033C33.2008 15.1119 27.8225 24.1408 26.2306 25.5968C25.1922 26.5465 23.8642 27.1679 22.0107 27.1935C22 27.1927 21.9892 27.1925 21.9783 27.1929L21.9783 27.1939C19.9206 27.2714 18.7175 26.6359 18.0368 25.5716Z" fill="#8D1B3D"/>
<path fill-rule="evenodd" clip-rule="evenodd" d="M13.9632 25.5716C14.6632 24.4769 14.8432 22.913 14.8341 21.1901L14.8144 17.4387L14.7967 14.0662C14.7959 14.0571 14.7955 14.0479 14.7955 14.0387V9.64048C14.7955 9.35369 14.6779 9.09281 14.4887 8.90347C14.2993 8.71419 14.0384 8.59667 13.7517 8.59667C13.4649 8.59667 13.2041 8.71419 13.0147 8.90347C12.8255 9.09281 12.7079 9.35369 12.7079 9.64048V14.0387C12.7079 14.2018 12.5757 14.334 12.4126 14.334C12.2495 14.334 12.1172 14.2018 12.1172 14.0387V9.64048V7.53486C12.1172 7.24815 11.9997 6.98727 11.8104 6.798C11.6211 6.60865 11.3601 6.49113 11.0734 6.49113C10.7867 6.49113 10.5258 6.60865 10.3365 6.798C10.1472 6.98727 10.0297 7.24815 10.0297 7.53486V14.0387C10.0297 14.2018 9.89742 14.334 9.73435 14.334C9.57121 14.334 9.439 14.2018 9.439 14.0387V7.53486V5.84263C9.439 5.55592 9.32148 5.29497 9.13221 5.10569C8.94286 4.91635 8.68191 4.79883 8.3952 4.79883C8.10848 4.79883 7.84753 4.91635 7.65826 5.10569C7.46899 5.29497 7.35147 5.55592 7.35147 5.84263V9.07214V14.0387C7.35147 14.2018 7.21919 14.334 7.05612 14.334C6.89298 14.334 6.76077 14.2018 6.76077 14.0387V9.07214C6.76077 8.78543 6.64317 8.52448 6.4539 8.33521C6.26463 8.14586 6.00368 8.02834 5.71697 8.02834C5.43025 8.02834 5.1693 8.14586 4.98003 8.33521C4.79076 8.52448 4.67316 8.78543 4.67316 9.07214V14.0387C4.67316 14.0472 4.67287 14.0556 4.67213 14.0639L4.68881 17.2079V17.7996L4.69354 17.8003C3.54078 17.6242 2.77092 15.567 2.16169 14.649C2.11334 14.5761 2.06373 14.5064 2.01302 14.4403C1.76056 14.1114 1.48418 13.8756 1.19599 13.7814C0.932454 13.6953 0.645149 13.7319 0.34131 13.9336C0.309125 13.9549 0.276571 13.9782 0.243869 14.0033C-1.20077 15.1119 4.17754 24.1408 5.76938 25.5968C6.80779 26.5465 8.1358 27.1679 9.98932 27.1935C9.99995 27.1927 10.0108 27.1925 10.0217 27.1929L10.0217 27.1939C12.0794 27.2714 13.2825 26.6359 13.9632 25.5716Z" fill="#8D1B3D" fill-opacity="0.65"/>
</g>
<defs>
<clipPath id="clip0_274_2211">
<rect width="32" height="32" fill="white"/>
</clipPath>
</defs>
</svg>
