<svg width="20" height="20" viewBox="0 0 20 20" fill="none" xmlns="http://www.w3.org/2000/svg">
<path d="M15 10.625C14.8422 10.625 14.6854 10.6363 14.5291 10.6534C15.5676 9.98901 16.25 8.82874 16.25 7.5C16.25 5.43213 14.5679 3.75 12.5 3.75C10.4321 3.75 8.75 5.43213 8.75 7.5C8.75 7.72522 8.7735 7.94708 8.81226 8.16559C6.85059 8.41919 5.29053 9.97314 5.03632 11.9348C4.81842 11.8951 4.59778 11.875 4.375 11.875C2.30713 11.875 0.625 13.5571 0.625 15.625C0.625 17.6929 2.30713 19.375 4.375 19.375H15C17.4124 19.375 19.375 17.4124 19.375 15C19.375 12.5876 17.4124 10.625 15 10.625ZM12.5 5C13.8785 5 15 6.12152 15 7.5C15 8.74115 14.1061 9.75525 12.9169 9.95117C12.254 9.03137 11.2534 8.38562 10.108 8.19092C10.0439 7.96631 10 7.73712 10 7.5C10 6.12152 11.1215 5 12.5 5ZM15 18.125H4.375C2.99652 18.125 1.875 17.0035 1.875 15.625C1.875 14.2465 2.99652 13.125 4.375 13.125C4.71985 13.125 5.05981 13.1982 5.38483 13.3426C5.58563 13.4314 5.81665 13.3896 5.99579 13.2639C6.17523 13.1378 6.27441 12.908 6.25916 12.6892C6.25488 12.6263 6.25 12.5638 6.25 12.5C6.25 10.777 7.65198 9.375 9.375 9.375C10.8734 9.375 12.1637 10.4425 12.4426 11.9138C12.4808 12.1149 12.6154 12.2849 12.8024 12.3682C12.9892 12.4512 13.2056 12.438 13.381 12.3312C13.8727 12.0328 14.4324 11.875 15 11.875C16.723 11.875 18.125 13.277 18.125 15C18.125 16.723 16.723 18.125 15 18.125ZM11.875 1.875V1.25C11.875 0.904846 12.1548 0.625 12.5 0.625C12.8452 0.625 13.125 0.904846 13.125 1.25V1.875C13.125 2.22015 12.8452 2.5 12.5 2.5C12.1548 2.5 11.875 2.22015 11.875 1.875ZM7.63855 3.52264C7.39441 3.2785 7.39441 2.88269 7.63824 2.63855C7.88239 2.39441 8.2782 2.39471 8.52234 2.63824L8.96454 3.08014C9.20868 3.32428 9.20868 3.72009 8.96484 3.96423C8.84277 4.0863 8.68256 4.14734 8.52264 4.14734C8.36273 4.14734 8.20282 4.0863 8.08075 3.96454L7.63855 3.52264ZM5.62469 7.5C5.62469 7.15485 5.90454 6.875 6.24969 6.875H6.87531C7.22046 6.875 7.50031 7.15485 7.50031 7.5C7.50031 7.84515 7.22046 8.125 6.87531 8.125H6.24969C5.90454 8.125 5.62469 7.84515 5.62469 7.5ZM17.4997 7.5C17.4997 7.15485 17.7795 6.875 18.1247 6.875H18.7503C19.0955 6.875 19.3753 7.15485 19.3753 7.5C19.3753 7.84515 19.0955 8.125 18.7503 8.125H18.1247C17.7795 8.125 17.4997 7.84515 17.4997 7.5ZM16.0352 3.96423C15.7913 3.72009 15.7913 3.32428 16.0355 3.08014L16.4777 2.63824C16.7218 2.39471 17.1176 2.39441 17.3618 2.63855C17.6056 2.88269 17.6056 3.2785 17.3615 3.52264L16.9193 3.96454C16.7972 4.0863 16.6373 4.14734 16.4774 4.14734C16.3174 4.14734 16.1572 4.0863 16.0352 3.96423Z" fill="#4F4F4F"/>
</svg>
