<svg width="18" height="18" viewBox="0 0 18 18" fill="none" xmlns="http://www.w3.org/2000/svg">
<path d="M8.93857 5.1168C8.83417 5.3118 8.84557 5.5488 8.96857 5.7324L10.021 7.3116L9.48517 9.4542C9.42817 9.6816 9.50917 9.921 9.69217 10.0674C9.87457 10.2144 10.1266 10.2402 10.336 10.1358L12.4678 9.0702L14.5996 10.1358C14.6848 10.179 14.7766 10.2 14.8678 10.2C15.0016 10.2 15.1348 10.1556 15.2428 10.068C15.4258 9.9216 15.5062 9.6816 15.4498 9.4548L14.914 7.3122L15.9664 5.733C16.0894 5.5488 16.1008 5.3124 15.9964 5.1174C15.8926 4.9218 15.6892 4.8 15.4678 4.8H13.9888L12.967 3.267C12.7444 2.9328 12.1912 2.9328 11.9686 3.267L10.9468 4.8H9.46777C9.24697 4.8 9.04357 4.9218 8.93857 5.1168ZM11.2678 6C11.4682 6 11.6554 5.8998 11.767 5.733L12.4678 4.6818L13.1686 5.733C13.2802 5.8998 13.4674 6 13.6678 6H14.3464L13.7686 6.867C13.675 7.0074 13.6444 7.1808 13.6858 7.3452L13.9696 8.4798L12.7366 7.8636C12.652 7.821 12.5602 7.8 12.4678 7.8C12.3754 7.8 12.2836 7.821 12.1996 7.863L10.9666 8.4792L11.2504 7.3446C11.2912 7.1808 11.2612 7.0068 11.1676 6.8664L10.5892 6H11.2678ZM17.3128 12.3792C17.0944 12.1998 16.7806 12.1974 16.5592 12.372C15.3802 13.3062 13.9654 13.8 12.4678 13.8C8.82877 13.8 5.86777 10.839 5.86777 7.2C5.86777 4.581 7.41997 2.2086 9.82297 1.1556C10.0756 1.0446 10.1932 0.7746 10.147 0.5034C10.1002 0.2316 9.84757 0.0246 9.57277 0.00480001C9.53797 0.00180001 9.50317 0 9.46777 0C4.50517 0 0.467773 4.0374 0.467773 9C0.467773 13.9626 4.50517 18 9.46777 18C12.847 18 15.9112 16.1292 17.4646 13.1172C17.5942 12.8664 17.5312 12.5592 17.3128 12.3792ZM9.46777 16.8C5.16697 16.8 1.66777 13.3008 1.66777 9C1.66777 5.5428 3.92857 2.604 7.05757 1.5846C5.55817 3.0294 4.66777 5.0436 4.66777 7.2C4.66777 11.5008 8.16697 15 12.4678 15C13.2964 15 14.104 14.8722 14.8714 14.6232C13.4434 16.0014 11.5228 16.8 9.46777 16.8Z" fill="#4F4F4F"/>
</svg>
