<svg width="20" height="20" viewBox="0 0 20 20" fill="none" xmlns="http://www.w3.org/2000/svg">
<path d="M10.625 2.5V1.25C10.625 0.904541 10.3455 0.625 10 0.625C9.65454 0.625 9.375 0.904541 9.375 1.25V2.5C9.375 2.84546 9.65454 3.125 10 3.125C10.3455 3.125 10.625 2.84546 10.625 2.5ZM4.375 8.75C4.375 9.09546 4.09546 9.375 3.75 9.375H2.5C2.15454 9.375 1.875 9.09546 1.875 8.75C1.875 8.40454 2.15454 8.125 2.5 8.125H3.75C4.09546 8.125 4.375 8.40454 4.375 8.75ZM5.58044 4.95605C5.42053 4.95605 5.26062 4.89502 5.13855 4.77295L4.25476 3.88855C4.01062 3.64441 4.01062 3.24829 4.25476 3.00476C4.4989 2.76062 4.89441 2.76062 5.13855 3.00476L6.02234 3.88916C6.26648 4.1333 6.26648 4.52942 6.02234 4.77295C5.90027 4.89502 5.74036 4.95605 5.58044 4.95605ZM14.8602 4.77295C14.7382 4.89502 14.5782 4.95605 14.4183 4.95605C14.2584 4.95605 14.0985 4.89502 13.9764 4.77295C13.7323 4.52881 13.7323 4.13269 13.9764 3.88916L14.8615 3.00476C15.1056 2.76062 15.5011 2.76062 15.7452 3.00476C15.9894 3.2489 15.9894 3.64502 15.7452 3.88855L14.8602 4.77295ZM17.5 9.375H16.2488C15.9033 9.375 15.6238 9.09546 15.6238 8.75C15.6238 8.40454 15.9033 8.125 16.2488 8.125H17.5C17.8455 8.125 18.125 8.40454 18.125 8.75C18.125 9.09546 17.8455 9.375 17.5 9.375ZM0.625 11.25C0.625 11.5955 0.904541 11.875 1.25 11.875H18.75C19.0955 11.875 19.375 11.5955 19.375 11.25C19.375 10.9045 19.0955 10.625 18.75 10.625H13.949C14.2261 10.0452 14.375 9.40613 14.375 8.75C14.375 6.33789 12.4121 4.375 10 4.375C7.58789 4.375 5.625 6.33789 5.625 8.75C5.625 9.40613 5.77393 10.0452 6.05103 10.625H1.25C0.904541 10.625 0.625 10.9045 0.625 11.25ZM12.478 10.625H7.52197C7.10999 10.0873 6.875 9.43481 6.875 8.75C6.875 7.02698 8.27698 5.625 10 5.625C11.723 5.625 13.125 7.02698 13.125 8.75C13.125 9.43481 12.89 10.0873 12.478 10.625ZM7.94189 15.8081L9.375 17.2412V13.75C9.375 13.4045 9.65454 13.125 10 13.125C10.3455 13.125 10.625 13.4045 10.625 13.75V17.2412L12.0581 15.8081C12.3022 15.564 12.6978 15.564 12.9419 15.8081C13.186 16.0522 13.186 16.4478 12.9419 16.6919L10.4419 19.1919C10.3198 19.314 10.1599 19.375 10 19.375C9.84009 19.375 9.68018 19.314 9.55811 19.1919L7.05811 16.6919C6.81396 16.4478 6.81396 16.0522 7.05811 15.8081C7.30225 15.564 7.69775 15.564 7.94189 15.8081Z" fill="#4F4F4F"/>
</svg>
