<svg width="20" height="20" viewBox="0 0 20 20" fill="none" xmlns="http://www.w3.org/2000/svg">
<path d="M5.6125 12.5C5.61687 12.4994 5.62062 12.4994 5.625 12.5H14.375C14.72 12.5 15 12.2206 15 11.875C15 9.11813 12.7569 6.875 10 6.875C7.2875 6.875 5.0725 9.04625 5.00187 11.7419C4.9925 11.7844 4.9875 11.8294 4.9875 11.875C4.9875 12.2206 5.2675 12.5 5.6125 12.5ZM13.6981 11.25H6.3025C6.60125 9.47875 8.14563 8.125 10.0006 8.125C11.8556 8.125 13.3994 9.47875 13.6981 11.25Z" fill="#4F4F4F"/>
<path d="M10 5.625C10.345 5.625 10.625 5.34562 10.625 5V3.125C10.625 2.77938 10.345 2.5 10 2.5C9.655 2.5 9.375 2.77938 9.375 3.125V5C9.375 5.34562 9.655 5.625 10 5.625Z" fill="#4F4F4F"/>
<path d="M14.8612 7.63828C15.0212 7.63828 15.1812 7.57703 15.3031 7.45516L16.6287 6.12953C16.8731 5.88516 16.8731 5.49016 16.6287 5.24578C16.3844 5.00141 15.9894 5.00141 15.745 5.24578L14.4194 6.57141C14.175 6.81578 14.175 7.21078 14.4194 7.45516C14.5419 7.57703 14.7012 7.63828 14.8612 7.63828Z" fill="#4F4F4F"/>
<path d="M16.875 12.5H18.75C19.095 12.5 19.375 12.2206 19.375 11.875C19.375 11.5294 19.095 11.25 18.75 11.25H16.875C16.53 11.25 16.25 11.5294 16.25 11.875C16.25 12.2206 16.53 12.5 16.875 12.5Z" fill="#4F4F4F"/>
<path d="M1.25011 12.5H3.12573C3.47073 12.5 3.75073 12.2206 3.75073 11.875C3.75073 11.5294 3.47073 11.25 3.12573 11.25H1.25011C0.905107 11.25 0.625108 11.5294 0.625108 11.875C0.625108 12.2206 0.905107 12.5 1.25011 12.5Z" fill="#4F4F4F"/>
<path d="M5.13949 7.63891C5.29949 7.63891 5.45949 7.57766 5.58137 7.45578C5.82574 7.21141 5.82574 6.81641 5.58137 6.57203L4.25512 5.24578C4.01074 5.00141 3.61574 5.00141 3.37137 5.24578C3.12699 5.49016 3.12699 5.88516 3.37137 6.12953L4.69762 7.45578C4.81949 7.57766 4.97949 7.63891 5.13949 7.63891Z" fill="#4F4F4F"/>
<path d="M2.5 15H17.5C17.845 15 18.125 14.7206 18.125 14.375C18.125 14.0294 17.845 13.75 17.5 13.75H2.5C2.155 13.75 1.875 14.0294 1.875 14.375C1.875 14.7206 2.155 15 2.5 15Z" fill="#4F4F4F"/>
<path d="M3.75 17.5H16.25C16.595 17.5 16.875 17.2206 16.875 16.875C16.875 16.5294 16.595 16.25 16.25 16.25H3.75C3.405 16.25 3.125 16.5294 3.125 16.875C3.125 17.2206 3.405 17.5 3.75 17.5Z" fill="#4F4F4F"/>
</svg>
