<svg width="20" height="20" viewBox="0 0 20 20" fill="none" xmlns="http://www.w3.org/2000/svg">
<g clip-path="url(#clip0_274_1854)">
<path d="M10 15.625C13.1019 15.625 15.625 13.1019 15.625 10C15.625 6.89813 13.1019 4.375 10 4.375C6.89812 4.375 4.375 6.89813 4.375 10C4.375 13.1019 6.89812 15.625 10 15.625ZM10 5.625C12.4119 5.625 14.375 7.58812 14.375 10C14.375 12.4119 12.4119 14.375 10 14.375C7.58813 14.375 5.625 12.4119 5.625 10C5.625 7.58812 7.58813 5.625 10 5.625Z" fill="#A7805A"/>
<path d="M9.9248 3.72461C10.2698 3.72461 10.5498 3.44523 10.5498 3.09961V1.22461C10.5498 0.878984 10.2698 0.599609 9.9248 0.599609C9.5798 0.599609 9.2998 0.878984 9.2998 1.22461V3.09961C9.2998 3.44523 9.5798 3.72461 9.9248 3.72461Z" fill="#A7805A"/>
<path d="M14.786 5.73789C14.946 5.73789 15.106 5.67664 15.2279 5.55477L16.5535 4.22914C16.7979 3.98477 16.7979 3.58977 16.5535 3.34539C16.3092 3.10102 15.9142 3.10102 15.6698 3.34539L14.3442 4.67102C14.0998 4.91539 14.0998 5.31039 14.3442 5.55477C14.4667 5.67664 14.626 5.73789 14.786 5.73789Z" fill="#A7805A"/>
<path d="M16.7998 10.5996H18.6748C19.0198 10.5996 19.2998 10.3202 19.2998 9.97461C19.2998 9.62898 19.0198 9.34961 18.6748 9.34961H16.7998C16.4548 9.34961 16.1748 9.62898 16.1748 9.97461C16.1748 10.3202 16.4548 10.5996 16.7998 10.5996Z" fill="#A7805A"/>
<path d="M1.17516 10.5996H3.05078C3.39578 10.5996 3.67578 10.3202 3.67578 9.97461C3.67578 9.62898 3.39578 9.34961 3.05078 9.34961H1.17516C0.830156 9.34961 0.550156 9.62898 0.550156 9.97461C0.550156 10.3202 0.830156 10.5996 1.17516 10.5996Z" fill="#A7805A"/>
<path d="M5.0643 5.73852C5.2243 5.73852 5.3843 5.67727 5.50617 5.55539C5.75055 5.31102 5.75055 4.91602 5.50617 4.67164L4.17992 3.34539C3.93555 3.10102 3.54055 3.10102 3.29617 3.34539C3.0518 3.58977 3.0518 3.98477 3.29617 4.22914L4.62242 5.55539C4.7443 5.67727 4.9043 5.73852 5.0643 5.73852Z" fill="#A7805A"/>
<path d="M9.99219 16.3145C9.64719 16.3145 9.36719 16.5939 9.36719 16.9395L9.36719 18.8145C9.36719 19.1601 9.64719 19.4395 9.99219 19.4395C10.3372 19.4395 10.6172 19.1601 10.6172 18.8145L10.6172 16.9395C10.6172 16.5939 10.3372 16.3145 9.99219 16.3145Z" fill="#A7805A"/>
<path d="M5.13096 14.3012C4.97096 14.3012 4.81096 14.3625 4.68908 14.4844L3.36346 15.81C3.11908 16.0544 3.11908 16.4494 3.36346 16.6937C3.60783 16.9381 4.00283 16.9381 4.24721 16.6937L5.57283 15.3681C5.81721 15.1237 5.81721 14.7287 5.57283 14.4844C5.45033 14.3625 5.29096 14.3012 5.13096 14.3012Z" fill="#A7805A"/>
<path d="M14.8527 14.2996C14.6927 14.2996 14.5327 14.3609 14.4108 14.4828C14.1664 14.7271 14.1664 15.1221 14.4108 15.3665L15.7371 16.6928C15.9814 16.9371 16.3764 16.9371 16.6208 16.6928C16.8652 16.4484 16.8652 16.0534 16.6208 15.809L15.2946 14.4828C15.1727 14.3609 15.0127 14.2996 14.8527 14.2996Z" fill="#A7805A"/>
</g>
<defs>
<clipPath id="clip0_274_1854">
<rect width="20" height="20" fill="white" transform="matrix(-1 0 0 1 20 0)"/>
</clipPath>
</defs>
</svg>
