<svg width="18" height="44" viewBox="0 0 18 44" fill="none" xmlns="http://www.w3.org/2000/svg">
<g clip-path="url(#clip0_6317_3941)">
<mask id="mask0_6317_3941" style="mask-type:luminance" maskUnits="userSpaceOnUse" x="0" y="0" width="18" height="44">
<path d="M18.0001 0H0.279541V44H18.0001V0Z" fill="white"/>
</mask>
<g mask="url(#mask0_6317_3941)">
<path d="M8.76448 12.3673C6.56818 12.5553 4.91626 14.4724 4.91626 16.6903V25.4489H13.3635V16.5963C13.3635 14.1153 11.2611 12.1418 8.76448 12.3673ZM9.53411 21.6147H8.74569V16.6151C8.74569 16.4083 8.89587 16.2016 9.10236 16.1828C9.3464 16.164 9.53411 16.3519 9.53411 16.5775V21.6147Z" fill="#8D1B3D"/>
<path d="M6.83082 35.5233L9.53396 32.8168L6.83082 30.1102L4.12769 32.8168L6.83082 35.5233Z" fill="#D5CCA1"/>
<path d="M9.53402 40.1657H8.74561V35.5233H4.91616V40.1469H4.12776V16.5963C4.12776 15.2054 4.69091 13.9461 5.59196 13.044C6.41791 12.217 7.50667 11.6907 8.72684 11.5967L5.61073 8.45789C2.47584 9.81114 0.279541 12.9499 0.279541 16.5963V43.9999H17.9813V30.8995H9.53402V40.1657ZM13.3823 35.1286C13.3823 34.903 13.5888 34.715 13.8139 34.7338C14.0204 34.7526 14.1706 34.9405 14.1706 35.1661V40.1657H13.3823V35.1286ZM15.4096 10.3186C14.6211 9.52922 13.7013 8.89017 12.6689 8.45789L9.55279 11.5779C12.1433 11.7847 14.1706 13.9461 14.1706 16.5963V26.2571H4.91616V30.0914H18.0001V16.5963C18.0001 14.1341 17.0052 11.9162 15.4096 10.3186Z" fill="#8D1B3D"/>
<path d="M9.1399 10.845L11.843 8.13843L9.1399 5.43188L6.43677 8.13843L9.1399 10.845C9.1399 10.8638 9.1399 10.8638 9.1399 10.845Z" fill="#D5CCA1"/>
<path d="M9.1399 5.43187L11.843 2.72534L9.1399 0L6.43677 2.70653L9.1399 5.43187Z" fill="#D5CCA1"/>
</g>
</g>
<defs>
<clipPath id="clip0_6317_3941">
<rect width="17.7205" height="44" fill="white" transform="translate(0.279541)"/>
</clipPath>
</defs>
</svg>
