<svg width="18" height="20" viewBox="0 0 18 20" fill="none" xmlns="http://www.w3.org/2000/svg">
<path d="M16.5001 4.16683H14.0001V3.3335C14.0001 2.67046 13.7367 2.03457 13.2678 1.56573C12.799 1.09689 12.1631 0.833496 11.5001 0.833496H6.50008C5.83704 0.833496 5.20116 1.09689 4.73231 1.56573C4.26347 2.03457 4.00008 2.67046 4.00008 3.3335V4.16683H1.50008C1.27907 4.16683 1.06711 4.25463 0.910826 4.41091C0.754545 4.56719 0.666748 4.77915 0.666748 5.00016C0.666748 5.22118 0.754545 5.43314 0.910826 5.58942C1.06711 5.7457 1.27907 5.8335 1.50008 5.8335H1.55008L2.14175 15.2585C2.20757 16.3182 2.67545 17.3128 3.44984 18.0392C4.22422 18.7655 5.24668 19.1689 6.30841 19.1668H11.7084C12.7701 19.1689 13.7926 18.7655 14.567 18.0392C15.3414 17.3128 15.8093 16.3182 15.8751 15.2585L16.4501 5.8335H16.5001C16.7211 5.8335 16.9331 5.7457 17.0893 5.58942C17.2456 5.43314 17.3334 5.22118 17.3334 5.00016C17.3334 4.77915 17.2456 4.56719 17.0893 4.41091C16.9331 4.25463 16.7211 4.16683 16.5001 4.16683ZM5.66675 3.3335C5.66675 3.11248 5.75455 2.90052 5.91083 2.74424C6.06711 2.58796 6.27907 2.50016 6.50008 2.50016H11.5001C11.7211 2.50016 11.9331 2.58796 12.0893 2.74424C12.2456 2.90052 12.3334 3.11248 12.3334 3.3335V4.16683H5.66675V3.3335ZM14.2001 15.1585C14.1598 15.7937 13.8787 16.3896 13.4141 16.8248C12.9496 17.2599 12.3366 17.5014 11.7001 17.5002H6.30008C5.66358 17.5014 5.05056 17.2599 4.58602 16.8248C4.12148 16.3896 3.84039 15.7937 3.80008 15.1585L3.21675 5.8335H14.7834L14.2001 15.1585Z" fill="#E33C3C"/>
<path d="M7.33333 8.3335C7.11232 8.3335 6.90036 8.42129 6.74408 8.57757C6.5878 8.73385 6.5 8.94582 6.5 9.16683V14.1668C6.5 14.3878 6.5878 14.5998 6.74408 14.7561C6.90036 14.9124 7.11232 15.0002 7.33333 15.0002C7.55435 15.0002 7.76631 14.9124 7.92259 14.7561C8.07887 14.5998 8.16667 14.3878 8.16667 14.1668V9.16683C8.16667 8.94582 8.07887 8.73385 7.92259 8.57757C7.76631 8.42129 7.55435 8.3335 7.33333 8.3335Z" fill="#E33C3C"/>
<path d="M10.6668 8.3335C10.4458 8.3335 10.2339 8.42129 10.0776 8.57757C9.92129 8.73385 9.8335 8.94582 9.8335 9.16683V14.1668C9.8335 14.3878 9.92129 14.5998 10.0776 14.7561C10.2339 14.9124 10.4458 15.0002 10.6668 15.0002C10.8878 15.0002 11.0998 14.9124 11.2561 14.7561C11.4124 14.5998 11.5002 14.3878 11.5002 14.1668V9.16683C11.5002 8.94582 11.4124 8.73385 11.2561 8.57757C11.0998 8.42129 10.8878 8.3335 10.6668 8.3335Z" fill="#E33C3C"/>
</svg>
