<svg width="21" height="20" viewBox="0 0 21 20" fill="none" xmlns="http://www.w3.org/2000/svg">
<g clip-path="url(#clip0_6398_122)">
<path d="M6.87695 8.56445H8.10742V9.79492H6.87695V8.56445Z" fill="#4F4F4F"/>
<path d="M9.06445 8.56445H10.2949V9.79492H9.06445V8.56445Z" fill="#4F4F4F"/>
<path d="M13.4395 8.56445H14.6699V9.79492H13.4395V8.56445Z" fill="#4F4F4F"/>
<path d="M4.68945 12.9395H5.91992V14.1699H4.68945V12.9395Z" fill="#4F4F4F"/>
<path d="M9.06445 12.9395H10.2949V14.1699H9.06445V12.9395Z" fill="#4F4F4F"/>
<path d="M4.68945 10.752H5.91992V11.9824H4.68945V10.752Z" fill="#4F4F4F"/>
<path d="M6.87695 12.9395H8.10742V14.1699H6.87695V12.9395Z" fill="#4F4F4F"/>
<path d="M11.252 8.56445H12.4824V9.79492H11.252V8.56445Z" fill="#4F4F4F"/>
<path d="M4.68945 8.56445H5.91992V9.79492H4.68945V8.56445Z" fill="#4F4F4F"/>
<path d="M11.252 14.1699H12.1748C12.2569 13.9378 12.3599 13.7136 12.4824 13.5V12.9395H11.252V14.1699Z" fill="#4F4F4F"/>
<path d="M11.9563 15.127H4.21094C4.08403 15.127 3.96232 15.0765 3.87258 14.9868C3.78284 14.8971 3.73242 14.7753 3.73242 14.6484V8.08594C3.73242 7.95903 3.78284 7.83732 3.87258 7.74758C3.96232 7.65784 4.08403 7.60742 4.21094 7.60742H15.1484C15.2753 7.60742 15.3971 7.65784 15.4868 7.74758C15.5765 7.83732 15.627 7.95903 15.627 8.08594V11.4563C15.762 11.4429 15.8988 11.4355 16.0371 11.4355C16.5522 11.436 17.0625 11.5342 17.541 11.7248V6.65039H1.81836V15.7422C1.81879 16.0865 1.95577 16.4166 2.19926 16.6601C2.44274 16.9036 2.77285 17.0406 3.11719 17.041H12.2248C12.0342 16.5625 11.936 16.0522 11.9355 15.5371C11.9355 15.3988 11.9429 15.262 11.9563 15.127Z" fill="#4F4F4F"/>
<path d="M9.06445 10.752H10.2949V11.9824H9.06445V10.752Z" fill="#4F4F4F"/>
<path d="M13.4395 11.9824H14C14.2138 11.8599 14.4382 11.7569 14.6705 11.6748V10.752H13.44L13.4395 11.9824Z" fill="#4F4F4F"/>
<path d="M6.87695 10.752H8.10742V11.9824H6.87695V10.752Z" fill="#4F4F4F"/>
<path d="M11.252 10.752H12.4824V11.9824H11.252V10.752Z" fill="#4F4F4F"/>
<path d="M17.541 3.71094C17.5406 3.3666 17.4036 3.03649 17.1601 2.79301C16.9166 2.54952 16.5865 2.41254 16.2422 2.41211H15.3535V3.50586C15.3535 3.63277 15.3031 3.75448 15.2134 3.84422C15.1236 3.93396 15.0019 3.98438 14.875 3.98438C14.7481 3.98438 14.6264 3.93396 14.5366 3.84422C14.4469 3.75448 14.3965 3.63277 14.3965 3.50586V2.41211H13.166V3.50586C13.166 3.63277 13.1156 3.75448 13.0259 3.84422C12.9361 3.93396 12.8144 3.98438 12.6875 3.98438C12.5606 3.98438 12.4389 3.93396 12.3491 3.84422C12.2594 3.75448 12.209 3.63277 12.209 3.50586V2.41211H7.15039V3.50586C7.15039 3.63277 7.09998 3.75448 7.01024 3.84422C6.9205 3.93396 6.79879 3.98438 6.67188 3.98438C6.54496 3.98438 6.42325 3.93396 6.33351 3.84422C6.24377 3.75448 6.19336 3.63277 6.19336 3.50586V2.41211H4.96289V3.50586C4.96289 3.63277 4.91248 3.75448 4.82274 3.84422C4.733 3.93396 4.61129 3.98438 4.48438 3.98438C4.35746 3.98438 4.23575 3.93396 4.14601 3.84422C4.05627 3.75448 4.00586 3.63277 4.00586 3.50586V2.41211H3.11719C2.77285 2.41254 2.44274 2.54952 2.19926 2.79301C1.95577 3.03649 1.81879 3.3666 1.81836 3.71094V5.69336H17.541V3.71094Z" fill="#4F4F4F"/>
<path d="M4.96289 1.79688C4.96289 1.66996 4.91248 1.54825 4.82274 1.45851C4.733 1.36877 4.61129 1.31836 4.48438 1.31836C4.35746 1.31836 4.23575 1.36877 4.14601 1.45851C4.05627 1.54825 4.00586 1.66996 4.00586 1.79688V2.41211H4.96289V1.79688Z" fill="#4F4F4F"/>
<path d="M7.15039 1.79688C7.15039 1.66996 7.09998 1.54825 7.01024 1.45851C6.9205 1.36877 6.79879 1.31836 6.67188 1.31836C6.54496 1.31836 6.42325 1.36877 6.33351 1.45851C6.24377 1.54825 6.19336 1.66996 6.19336 1.79688V2.41211H7.15039V1.79688Z" fill="#4F4F4F"/>
<path d="M13.166 1.79687C13.166 1.66996 13.1156 1.54825 13.0259 1.45851C12.9361 1.36877 12.8144 1.31836 12.6875 1.31836C12.5606 1.31836 12.4389 1.36877 12.3491 1.45851C12.2594 1.54825 12.209 1.66996 12.209 1.79687V2.41211H13.166V1.79687Z" fill="#4F4F4F"/>
<path d="M15.3535 1.79688C15.3535 1.66996 15.3031 1.54825 15.2134 1.45851C15.1236 1.36877 15.0019 1.31836 14.875 1.31836C14.7481 1.31836 14.6264 1.36877 14.5366 1.45851C14.4469 1.54825 14.3965 1.66996 14.3965 1.79688V2.41211H15.3535V1.79688Z" fill="#4F4F4F"/>
<path d="M16.0371 12.3926C15.4152 12.3926 14.8072 12.577 14.2901 12.9225C13.773 13.2681 13.3699 13.7592 13.1319 14.3337C12.8939 14.9083 12.8317 15.5406 12.953 16.1506C13.0743 16.7606 13.3738 17.3209 13.8136 17.7606C14.2534 18.2004 14.8137 18.4999 15.4236 18.6212C16.0336 18.7426 16.6659 18.6803 17.2405 18.4423C17.8151 18.2043 18.3062 17.8012 18.6517 17.2841C18.9972 16.767 19.1816 16.159 19.1816 15.5371C19.1816 14.7031 18.8503 13.9033 18.2606 13.3136C17.6709 12.7239 16.8711 12.3926 16.0371 12.3926ZM17.4653 15.1491L15.9184 16.6959C15.874 16.7404 15.8213 16.7756 15.7632 16.7997C15.7051 16.8237 15.6429 16.8361 15.5801 16.8361C15.5172 16.8361 15.455 16.8237 15.3969 16.7997C15.3389 16.7756 15.2861 16.7404 15.2417 16.6959L14.4681 15.9227C14.3784 15.8329 14.328 15.7111 14.328 15.5842C14.328 15.4572 14.3785 15.3355 14.4683 15.2458C14.558 15.156 14.6798 15.1056 14.8067 15.1056C14.9337 15.1057 15.0554 15.1561 15.1452 15.2459L15.5799 15.6809L16.7891 14.4723C16.8335 14.4279 16.8862 14.3926 16.9443 14.3685C17.0024 14.3444 17.0646 14.3321 17.1274 14.3321C17.1903 14.3321 17.2525 14.3444 17.3106 14.3685C17.3687 14.3926 17.4214 14.4279 17.4658 14.4723C17.5554 14.5622 17.6057 14.6839 17.6056 14.8108C17.6055 14.9377 17.555 15.0594 17.4653 15.1491Z" fill="#4F4F4F"/>
</g>
<defs>
<clipPath id="clip0_6398_122">
<rect width="17.5" height="17.5" fill="white" transform="translate(1.75 1.25)"/>
</clipPath>
</defs>
</svg>
