<svg width="242" height="242" viewBox="0 0 242 242" fill="none" xmlns="http://www.w3.org/2000/svg">
<path d="M240.845 119.345C241.774 185.597 188.838 240.059 122.61 240.988C56.3817 241.916 1.93963 188.96 1.01204 122.71C0.0830353 56.4579 53.0194 1.99608 119.247 1.06673C185.475 0.137392 239.918 53.0929 240.845 119.345Z" stroke="#BDBDBD" stroke-width="1.0841" stroke-miterlimit="10"/>
<path d="M231.237 119.48C232.092 180.424 183.396 230.521 122.475 231.376C61.5525 232.232 11.4742 183.518 10.6205 122.575C9.76533 61.6305 58.4601 11.5341 119.383 10.68C180.304 9.82459 230.382 58.537 231.237 119.48Z" stroke="#BDBDBD" stroke-width="0.8118" stroke-miterlimit="10"/>
<path d="M187.228 120.097C187.741 156.726 158.474 186.837 121.857 187.352C85.239 187.865 55.14 158.588 54.6258 121.957C54.113 85.3272 83.3796 55.2173 119.996 54.7029C156.615 54.1899 186.715 83.4671 187.228 120.097Z" stroke="#BDBDBD" stroke-width="0.4879" stroke-miterlimit="10"/>
<path d="M181.848 120.173C182.321 153.83 155.428 181.497 121.783 181.969C88.1374 182.442 60.4816 155.538 60.01 121.883C59.5384 88.2247 86.4313 60.5576 120.076 60.0872C153.719 59.614 181.376 86.5167 181.848 120.173Z" stroke="#BDBDBD" stroke-width="0.4483" stroke-miterlimit="10"/>
<path d="M169.548 120.345C169.926 147.207 148.462 169.288 121.609 169.666C94.7572 170.042 72.684 148.572 72.3076 121.709C71.9312 94.8479 93.3935 72.7667 120.245 72.3902C147.098 72.0122 169.172 93.4837 169.548 120.345Z" stroke="#BDBDBD" stroke-width="0.3578" stroke-miterlimit="10"/>
<path d="M171.193 28.1357C169.71 30.9664 168.232 33.7971 166.758 36.632" stroke="#BDBDBD" stroke-width="0.7562" stroke-miterlimit="10"/>
<path d="M171.193 28.1357C169.71 30.9664 168.232 33.7971 166.758 36.632" stroke="#BDBDBD" stroke-width="0.7562" stroke-miterlimit="10"/>
<path d="M73.3254 204.102C71.8424 206.932 70.3651 209.763 68.8906 212.598" stroke="#BDBDBD" stroke-width="0.7562" stroke-miterlimit="10"/>
<path d="M212.239 171.537C209.411 170.055 206.58 168.576 203.746 167.101" stroke="#BDBDBD" stroke-width="0.7562" stroke-miterlimit="10"/>
<path d="M36.3389 73.6337C33.5092 72.1501 30.6796 70.6723 27.8457 69.1973" stroke="#BDBDBD" stroke-width="0.7562" stroke-miterlimit="10"/>
<path d="M61.9609 208.396C63.6556 205.689 65.3474 202.977 67.035 200.266" stroke="#BDBDBD" stroke-width="0.7562" stroke-miterlimit="10"/>
<path d="M173.049 40.467C174.743 37.76 176.435 35.0501 178.123 32.3374" stroke="#BDBDBD" stroke-width="0.7562" stroke-miterlimit="10"/>
<path d="M32.0469 62.2642C34.7529 63.9594 37.4618 65.6533 40.1736 67.34" stroke="#BDBDBD" stroke-width="0.7562" stroke-miterlimit="10"/>
<path d="M199.912 173.392C202.618 175.087 205.327 176.779 208.039 178.467" stroke="#BDBDBD" stroke-width="0.7562" stroke-miterlimit="10"/>
<path d="M55.6387 203.877C57.5294 201.3 59.4144 198.724 61.2965 196.144" stroke="#BDBDBD" stroke-width="0.7562" stroke-miterlimit="10"/>
<path d="M178.789 44.591C180.678 42.0147 182.563 39.4384 184.448 36.8564" stroke="#BDBDBD" stroke-width="0.7562" stroke-miterlimit="10"/>
<path d="M36.5625 55.9395C39.1379 57.8294 41.7146 59.7165 44.2929 61.5994" stroke="#BDBDBD" stroke-width="0.7562" stroke-miterlimit="10"/>
<path d="M195.793 179.133C198.367 181.023 200.944 182.91 203.523 184.793" stroke="#BDBDBD" stroke-width="0.7562" stroke-miterlimit="10"/>
<path d="M49.7188 198.952C51.7913 196.522 53.8595 194.089 55.9263 191.652" stroke="#BDBDBD" stroke-width="0.7562" stroke-miterlimit="10"/>
<path d="M184.16 49.0815C186.233 46.6516 188.301 44.2188 190.368 41.7817" stroke="#BDBDBD" stroke-width="0.7562" stroke-miterlimit="10"/>
<path d="M41.4844 50.0166C43.9149 52.0884 46.3468 54.1603 48.7815 56.2264" stroke="#BDBDBD" stroke-width="0.7562" stroke-miterlimit="10"/>
<path d="M191.303 184.507C193.732 186.58 196.165 188.651 198.6 190.717" stroke="#BDBDBD" stroke-width="0.7562" stroke-miterlimit="10"/>
<path d="M38.3535 187.051C40.7769 184.972 43.2003 182.89 45.6208 180.805" stroke="#BDBDBD" stroke-width="0.7562" stroke-miterlimit="10"/>
<path d="M194.465 59.928C196.891 57.849 199.313 55.7687 201.734 53.6826" stroke="#BDBDBD" stroke-width="0.7562" stroke-miterlimit="10"/>
<path d="M53.3828 38.647C55.4596 41.0726 57.5406 43.4969 59.6259 45.9155" stroke="#BDBDBD" stroke-width="0.7562" stroke-miterlimit="10"/>
<path d="M180.459 194.816C182.536 197.242 184.617 199.665 186.702 202.085" stroke="#BDBDBD" stroke-width="0.7562" stroke-miterlimit="10"/>
<path d="M33.7812 181.017C36.3495 179.117 38.9135 177.216 41.4775 175.309" stroke="#BDBDBD" stroke-width="0.7562" stroke-miterlimit="10"/>
<path d="M198.605 65.4231C201.175 63.5246 203.738 61.6219 206.303 59.7163" stroke="#BDBDBD" stroke-width="0.7562" stroke-miterlimit="10"/>
<path d="M59.4141 34.0742C61.3119 36.6434 63.2139 39.2098 65.1202 41.7733" stroke="#BDBDBD" stroke-width="0.7562" stroke-miterlimit="10"/>
<path d="M174.965 198.96C176.863 201.529 178.766 204.095 180.671 206.658" stroke="#BDBDBD" stroke-width="0.7562" stroke-miterlimit="10"/>
<path d="M43.6133 193.026C45.8747 190.771 48.1333 188.511 50.3891 186.25" stroke="#BDBDBD" stroke-width="0.7562" stroke-miterlimit="10"/>
<path d="M189.693 54.4829C191.956 52.2278 194.215 49.9698 196.471 47.7075" stroke="#BDBDBD" stroke-width="0.7562" stroke-miterlimit="10"/>
<path d="M47.4082 43.9102C49.664 46.1724 51.9197 48.4332 54.1812 50.6884" stroke="#BDBDBD" stroke-width="0.7562" stroke-miterlimit="10"/>
<path d="M185.902 190.044C188.158 192.305 190.415 194.565 192.677 196.821" stroke="#BDBDBD" stroke-width="0.7562" stroke-miterlimit="10"/>
<path d="M29.5898 174.567C32.2902 172.86 34.9878 171.149 37.6824 169.436" stroke="#BDBDBD" stroke-width="0.7562" stroke-miterlimit="10"/>
<path d="M202.4 71.2973C205.101 69.5907 207.798 67.8812 210.493 66.1675" stroke="#BDBDBD" stroke-width="0.7562" stroke-miterlimit="10"/>
<path d="M65.8613 29.8823C67.5673 32.5823 69.2762 35.2808 70.9908 37.9764" stroke="#BDBDBD" stroke-width="0.7562" stroke-miterlimit="10"/>
<path d="M169.092 202.755C170.798 205.454 172.507 208.152 174.221 210.849" stroke="#BDBDBD" stroke-width="0.7562" stroke-miterlimit="10"/>
<path d="M25.582 167.226C28.4102 165.738 31.2342 164.248 34.0553 162.751" stroke="#BDBDBD" stroke-width="0.7562" stroke-miterlimit="10"/>
<path d="M206.029 77.9821C208.858 76.4943 211.681 75.0037 214.504 73.5088" stroke="#BDBDBD" stroke-width="0.7562" stroke-miterlimit="10"/>
<path d="M73.2012 25.8706C74.6884 28.6984 76.1785 31.5248 77.6743 34.3469" stroke="#BDBDBD" stroke-width="0.7562" stroke-miterlimit="10"/>
<path d="M162.41 206.385C163.896 209.211 165.388 212.036 166.882 214.86" stroke="#BDBDBD" stroke-width="0.7562" stroke-miterlimit="10"/>
<path d="M22.5176 160.456C25.4438 159.172 28.3644 157.883 31.2849 156.59" stroke="#BDBDBD" stroke-width="0.7562" stroke-miterlimit="10"/>
<path d="M208.797 84.1434C211.723 82.8588 214.644 81.57 217.566 80.2769" stroke="#BDBDBD" stroke-width="0.7562" stroke-miterlimit="10"/>
<path d="M79.9688 22.8066C81.2515 25.7339 82.5399 28.6555 83.8339 31.5757" stroke="#BDBDBD" stroke-width="0.7562" stroke-miterlimit="10"/>
<path d="M156.254 209.156C157.538 212.08 158.826 215.002 160.118 217.925" stroke="#BDBDBD" stroke-width="0.7562" stroke-miterlimit="10"/>
<path d="M19.6816 152.7C22.6988 151.648 25.7131 150.594 28.7245 149.533" stroke="#BDBDBD" stroke-width="0.7562" stroke-miterlimit="10"/>
<path d="M211.359 91.199C214.377 90.1478 217.389 89.0924 220.404 88.0327" stroke="#BDBDBD" stroke-width="0.7562" stroke-miterlimit="10"/>
<path d="M87.7188 19.9692C88.7713 22.9875 89.8268 26.0029 90.8865 29.0154" stroke="#BDBDBD" stroke-width="0.7562" stroke-miterlimit="10"/>
<path d="M149.199 211.718C150.249 214.733 151.306 217.749 152.367 220.763" stroke="#BDBDBD" stroke-width="0.7562" stroke-miterlimit="10"/>
<path d="M17.5273 145.03C20.6155 144.208 23.6994 143.384 26.7833 142.554" stroke="#BDBDBD" stroke-width="0.7562" stroke-miterlimit="10"/>
<path d="M213.299 98.1781C216.386 97.357 219.471 96.5317 222.556 95.7021" stroke="#BDBDBD" stroke-width="0.7562" stroke-miterlimit="10"/>
<path d="M15.918 136.952C19.0601 136.374 22.1994 135.793 25.3387 135.206" stroke="#BDBDBD" stroke-width="0.7562" stroke-miterlimit="10"/>
<path d="M214.746 105.525C217.89 104.948 221.026 104.366 224.168 103.781" stroke="#BDBDBD" stroke-width="0.7562" stroke-miterlimit="10"/>
<path d="M14.9844 129.305C18.1606 128.956 21.334 128.606 24.5074 128.25" stroke="#BDBDBD" stroke-width="0.7562" stroke-miterlimit="10"/>
<path d="M215.576 112.482C218.752 112.134 221.926 111.785 225.101 111.43" stroke="#BDBDBD" stroke-width="0.7562" stroke-miterlimit="10"/>
<path d="M14.6094 121.333C17.8027 121.228 20.9931 121.117 24.185 121.002" stroke="#BDBDBD" stroke-width="0.7562" stroke-miterlimit="10"/>
<path d="M215.898 119.731C219.092 119.625 222.281 119.515 225.474 119.4" stroke="#BDBDBD" stroke-width="0.7562" stroke-miterlimit="10"/>
<path d="M14.8262 113.543C18.018 113.674 21.2071 113.8 24.3989 113.921" stroke="#BDBDBD" stroke-width="0.7562" stroke-miterlimit="10"/>
<path d="M215.684 126.812C218.875 126.942 222.064 127.068 225.258 127.19" stroke="#BDBDBD" stroke-width="0.7562" stroke-miterlimit="10"/>
<path d="M15.7266 105.021C18.8957 105.409 22.0663 105.794 25.2382 106.173" stroke="#BDBDBD" stroke-width="0.7562" stroke-miterlimit="10"/>
<path d="M214.844 134.558C218.014 134.946 221.185 135.331 224.355 135.712" stroke="#BDBDBD" stroke-width="0.7562" stroke-miterlimit="10"/>
<path d="M17.0996 97.5649C20.2332 98.1814 23.3683 98.7908 26.5033 99.3974" stroke="#BDBDBD" stroke-width="0.7562" stroke-miterlimit="10"/>
<path d="M213.582 141.333C216.717 141.949 219.851 142.561 222.986 143.166" stroke="#BDBDBD" stroke-width="0.7562" stroke-miterlimit="10"/>
<path d="M19.0527 90.0605C22.1324 90.9057 25.2135 91.7453 28.2959 92.5791" stroke="#BDBDBD" stroke-width="0.7562" stroke-miterlimit="10"/>
<path d="M211.789 148.15C214.87 148.996 217.95 149.835 221.032 150.669" stroke="#BDBDBD" stroke-width="0.7562" stroke-miterlimit="10"/>
<path d="M21.5664 82.6758C24.5764 83.7468 27.5865 84.8108 30.5979 85.8705" stroke="#BDBDBD" stroke-width="0.7562" stroke-miterlimit="10"/>
<path d="M209.484 154.859C212.496 155.929 215.504 156.994 218.517 158.055" stroke="#BDBDBD" stroke-width="0.7562" stroke-miterlimit="10"/>
<path d="M24.5332 75.6841C27.458 76.9687 30.3857 78.2476 33.3133 79.5222" stroke="#BDBDBD" stroke-width="0.7562" stroke-miterlimit="10"/>
<path d="M206.771 161.208C209.696 162.491 212.623 163.773 215.552 165.048" stroke="#BDBDBD" stroke-width="0.7562" stroke-miterlimit="10"/>
<path d="M94.9766 17.9155C95.809 20.9991 96.6485 24.0827 97.4908 27.1635" stroke="#BDBDBD" stroke-width="0.7562" stroke-miterlimit="10"/>
<path d="M142.6 213.567C143.433 216.65 144.27 219.734 145.112 222.816" stroke="#BDBDBD" stroke-width="0.7562" stroke-miterlimit="10"/>
<path d="M102.24 16.4053C102.854 19.54 103.475 22.6748 104.1 25.8067" stroke="#BDBDBD" stroke-width="0.7562" stroke-miterlimit="10"/>
<path d="M135.992 214.922C136.609 218.057 137.227 221.193 137.85 224.325" stroke="#BDBDBD" stroke-width="0.7562" stroke-miterlimit="10"/>
<path d="M109.338 15.4375C109.737 18.6064 110.143 21.7766 110.552 24.9427" stroke="#BDBDBD" stroke-width="0.7562" stroke-miterlimit="10"/>
<path d="M129.537 215.788C129.939 218.956 130.343 222.127 130.752 225.294" stroke="#BDBDBD" stroke-width="0.7562" stroke-miterlimit="10"/>
<path d="M116.672 14.9458C116.848 18.136 117.034 21.3247 117.222 24.5135" stroke="#BDBDBD" stroke-width="0.7562" stroke-miterlimit="10"/>
<path d="M122.867 216.217C123.048 219.407 123.229 222.597 123.417 225.786" stroke="#BDBDBD" stroke-width="0.7562" stroke-miterlimit="10"/>
<path d="M125.873 15.0522C125.771 18.2453 125.679 21.4397 125.588 24.6327" stroke="#BDBDBD" stroke-width="0.7562" stroke-miterlimit="10"/>
<path d="M114.502 216.098C114.404 219.291 114.306 222.484 114.215 225.678" stroke="#BDBDBD" stroke-width="0.7562" stroke-miterlimit="10"/>
<path d="M134.286 15.8569C133.929 19.0329 133.58 22.2089 133.234 25.3834" stroke="#BDBDBD" stroke-width="0.7562" stroke-miterlimit="10"/>
<path d="M106.855 215.346C106.502 218.522 106.149 221.696 105.803 224.874" stroke="#BDBDBD" stroke-width="0.7562" stroke-miterlimit="10"/>
<path d="M141.73 17.147C141.146 20.2874 140.571 23.4307 140 26.5726" stroke="#BDBDBD" stroke-width="0.7562" stroke-miterlimit="10"/>
<path d="M100.089 214.158C99.508 217.3 98.9299 220.44 98.3574 223.585" stroke="#BDBDBD" stroke-width="0.7562" stroke-miterlimit="10"/>
<path d="M150.049 19.2529C149.212 22.3365 148.384 25.4216 147.559 28.5066" stroke="#BDBDBD" stroke-width="0.7562" stroke-miterlimit="10"/>
<path d="M92.532 212.224C91.6968 215.307 90.8658 218.391 90.0391 221.479" stroke="#BDBDBD" stroke-width="0.7562" stroke-miterlimit="10"/>
<path d="M157.654 21.8291C156.586 24.8417 155.525 27.8542 154.467 30.8668" stroke="#BDBDBD" stroke-width="0.7562" stroke-miterlimit="10"/>
<path d="M85.624 209.863C84.5572 212.874 83.4933 215.886 82.4336 218.901" stroke="#BDBDBD" stroke-width="0.7562" stroke-miterlimit="10"/>
<path d="M163.857 24.4297C162.598 27.3655 161.347 30.3056 160.1 33.2457" stroke="#BDBDBD" stroke-width="0.7562" stroke-miterlimit="10"/>
<path d="M79.9911 207.486C78.7354 210.424 77.481 213.361 76.2324 216.302" stroke="#BDBDBD" stroke-width="0.7562" stroke-miterlimit="10"/>
<path d="M30.5 42.022L38.9179 42.4753L37.5301 34.8516L30.5 42.022Z" fill="#BDBDBD"/>
<path d="M214.736 196.385L206.318 195.931L207.706 203.556L214.736 196.385Z" fill="#BDBDBD"/>
<path d="M193.559 25.3364L193.56 33.7687L201.096 31.9711L193.559 25.3364Z" fill="#BDBDBD"/>
<path d="M48.2682 216.578L48.2668 208.146L40.7324 209.945L48.2682 216.578Z" fill="#BDBDBD"/>
<path d="M133.294 240.598L127.662 234.323L123.254 240.695L133.294 240.598Z" fill="#BDBDBD"/>
<path d="M240.361 103.499L234.4 109.463L241 113.521L240.361 103.499Z" fill="#BDBDBD"/>
<path d="M2.44533 135.955L8.40434 129.991L1.80469 125.933L2.44533 135.955Z" fill="#BDBDBD"/>
<path d="M66.5469 13.7465L74.1849 17.3133L75.7446 9.72363L66.5469 13.7465Z" fill="#BDBDBD"/>
<path d="M179.77 225.799L172.132 222.232L170.572 229.822L179.77 225.799Z" fill="#BDBDBD"/>
<path d="M224.024 59.2275L220.875 67.0488L228.536 68.1984L224.024 59.2275Z" fill="#BDBDBD"/>
<path d="M17.8196 182.299L20.9674 174.476L13.3066 173.328L17.8196 182.299Z" fill="#BDBDBD"/>
<path d="M159.332 7.02344L162.21 14.9484L168.68 10.6854L159.332 7.02344Z" fill="#BDBDBD"/>
<path d="M87.7102 236.364L84.8308 228.439L78.3633 232.702L87.7102 236.364Z" fill="#BDBDBD"/>
<path d="M238.235 149.222L230.48 152.527L235.086 158.758L238.235 149.222Z" fill="#BDBDBD"/>
<path d="M5.43359 90.3861L13.1881 87.0836L8.58426 80.8511L5.43359 90.3861Z" fill="#BDBDBD"/>
<path d="M178.591 60.1357L119.727 105.914L120.677 119.021L133.302 119.496L178.591 60.1357Z" fill="#E0E0E0" stroke="#E0E0E0" stroke-width="0.7562" stroke-miterlimit="10"/>
<path d="M120.678 119.021L133.303 119.496L178.592 60.1357" fill="#F1F1F1"/>
<path d="M61.7949 178.748L120.659 132.97L119.709 119.864L107.082 119.388L61.7949 178.748Z" fill="#E0E0E0" stroke="#E0E0E0" stroke-width="0.7562" stroke-miterlimit="10"/>
<path d="M119.709 119.864L107.082 119.388L61.7949 178.748" fill="#F1F1F1"/>
<path d="M179.477 177.861L133.716 118.976L120.615 119.926L120.139 132.558L179.477 177.861Z" fill="#E0E0E0" stroke="#E0E0E0" stroke-width="0.7562" stroke-miterlimit="10"/>
<path d="M120.615 119.926L120.139 132.558L179.477 177.861" fill="#F1F1F1"/>
<path d="M60.9082 61.0239L106.67 119.908L119.771 118.957L120.247 106.327L60.9082 61.0239Z" fill="#E0E0E0" stroke="#E0E0E0" stroke-width="0.7562" stroke-miterlimit="10"/>
<path d="M119.771 118.957L120.247 106.327L60.9082 61.0239" fill="#F1F1F1"/>
<path d="M119.362 9.44238L107.121 107.238L120.249 118.596L132.491 107.238L119.362 9.44238Z" fill="#E0E0E0" stroke="#E0E0E0" stroke-width="0.9992" stroke-miterlimit="10"/>
<path d="M120.251 118.596L132.493 107.238L119.363 9.44238" fill="#F1F1F1"/>
<path d="M121.02 229.441L133.262 131.647L120.132 120.289L107.891 131.647L121.02 229.441Z" fill="#E0E0E0" stroke="#E0E0E0" stroke-width="0.9992" stroke-miterlimit="10"/>
<path d="M120.132 120.289L107.891 131.647L121.02 229.441" fill="#F1F1F1"/>
<path d="M230.151 118.613L132.391 106.367L121.037 119.501L132.391 131.747L230.151 118.613Z" fill="#E0E0E0" stroke="#E0E0E0" stroke-width="0.9992" stroke-miterlimit="10"/>
<path d="M121.037 119.501L132.391 131.748L230.151 118.613" fill="#F1F1F1"/>
<path d="M10.2324 120.272L107.991 132.518L119.347 119.384L107.991 107.137L10.2324 120.272Z" fill="#E0E0E0" stroke="#E0E0E0" stroke-width="0.9992" stroke-miterlimit="10"/>
<path d="M119.347 119.384L107.991 107.137L10.2324 120.272" fill="#F1F1F1"/>
<path d="M114.053 1.09947L119.684 7.37467L124.091 1L114.053 1.09947Z" fill="#BDBDBD"/>
</svg>
