<svg width="16" height="16" viewBox="0 0 16 16" fill="none" xmlns="http://www.w3.org/2000/svg">
<path d="M14 9V10C14 11.1 13.1 12 12 12H3.7L4.85 13.15C5.05 13.35 5.05 13.65 4.85 13.85C4.65 14.05 4.35 14.05 4.15 13.85L2.15 11.85C1.95 11.65 1.95 11.35 2.15 11.15L4.15 9.15C4.35 8.95 4.65 8.95 4.85 9.15C5.05 9.35 5.05 9.65 4.85 9.85L3.7 11H12C12.55 11 13 10.55 13 10V9C13 8.7 13.2 8.5 13.5 8.5C13.8 8.5 14 8.7 14 9ZM2.5 7.5C2.8 7.5 3 7.3 3 7V6C3 5.45 3.45 5 4 5H12.3L11.15 6.15C10.95 6.35 10.95 6.65 11.15 6.85C11.35 7.05 11.65 7.05 11.85 6.85L13.85 4.85C14.05 4.65 14.05 4.35 13.85 4.15L11.85 2.15C11.65 1.95 11.35 1.95 11.15 2.15C10.95 2.35 10.95 2.65 11.15 2.85L12.3 4H4C2.9 4 2 4.9 2 6V7C2 7.3 2.2 7.5 2.5 7.5Z" fill="#8D1B3D"/>
</svg>
