<svg width="22" height="22" viewBox="0 0 22 22" fill="none" xmlns="http://www.w3.org/2000/svg">
<path d="M10.7128 21.9999H3.90874C3.55225 22 3.20221 21.9048 2.89489 21.7241C2.58757 21.5434 2.33414 21.2839 2.16084 20.9723C1.98754 20.6608 1.90068 20.3086 1.90925 19.9522C1.91781 19.5958 2.0215 19.2482 2.20957 18.9453L2.66903 18.2046C1.61109 16.9698 0.837409 15.5175 0.402714 13.9506C-0.031981 12.3837 -0.117069 10.7404 0.153467 9.13699C0.516363 6.96172 1.52862 4.94704 3.05733 3.35752C4.58603 1.76799 6.5597 0.677942 8.71917 0.230498C10.3765 -0.118523 12.0919 -0.0805589 13.7321 0.341438C15.3723 0.763436 16.8931 1.55809 18.1761 2.66361C19.4592 3.76912 20.4699 5.1557 21.1298 6.7155C21.7896 8.2753 22.0808 9.96629 21.9806 11.657C21.7735 14.4919 20.492 17.1409 18.398 19.0631C16.3039 20.9853 13.5551 22.0358 10.7128 21.9999ZM10.9872 2.00289C10.3583 2.00328 9.73102 2.06641 9.11467 2.19137C7.35243 2.55694 5.74198 3.447 4.49488 4.74465C3.24777 6.04229 2.42235 7.68682 2.12705 9.46218C1.90347 10.7777 1.97342 12.1264 2.33191 13.4117C2.6904 14.697 3.32856 15.8872 4.20073 16.8971C4.47505 17.2225 4.63906 17.6266 4.66916 18.0512C4.69925 18.4758 4.59388 18.8989 4.3682 19.2598L3.90874 20H10.7128C13.0449 20.0362 15.3028 19.181 17.0257 17.6089C18.7487 16.0368 19.8066 13.8664 19.9835 11.5407C20.0577 10.3145 19.8798 9.08613 19.461 7.93128C19.0422 6.77643 18.3912 5.71961 17.5483 4.82597C16.7054 3.93233 15.6884 3.22081 14.56 2.73528C13.4315 2.24975 12.2156 2.0005 10.9872 2.00289Z" fill="#333333"/>
<path d="M11.9999 15.8753H10.9999C10.7347 15.8753 10.4804 15.77 10.2929 15.5824C10.1053 15.3949 9.99997 15.1406 9.99997 14.8753V10.8754C9.73477 10.8754 9.48042 10.7701 9.29289 10.5826C9.10535 10.395 9 10.1407 9 9.87546C9 9.61025 9.10535 9.35591 9.29289 9.16837C9.48042 8.98084 9.73477 8.87549 9.99997 8.87549H10.9999C11.2652 8.87549 11.5195 8.98084 11.707 9.16837C11.8946 9.35591 11.9999 9.61025 11.9999 9.87546V13.8754C12.2651 13.8754 12.5195 13.9807 12.707 14.1683C12.8945 14.3558 12.9999 14.6101 12.9999 14.8753C12.9999 15.1406 12.8945 15.3949 12.707 15.5824C12.5195 15.77 12.2651 15.8753 11.9999 15.8753Z" fill="#333333"/>
<path d="M11 7.62542C11.6903 7.62542 12.2499 7.06579 12.2499 6.37546C12.2499 5.68512 11.6903 5.12549 11 5.12549C10.3096 5.12549 9.75 5.68512 9.75 6.37546C9.75 7.06579 10.3096 7.62542 11 7.62542Z" fill="#333333"/>
</svg>
