<svg width="16" height="14" viewBox="0 0 16 14" fill="none" xmlns="http://www.w3.org/2000/svg">
<path d="M7.99967 13L7.93297 12.8999C7.46988 12.2053 7.23833 11.858 6.93241 11.6065C6.66158 11.3839 6.34952 11.2169 6.01408 11.1151C5.63517 11 5.21775 11 4.38289 11H3.46634C2.7196 11 2.34624 11 2.06102 10.8547C1.81014 10.7268 1.60616 10.5229 1.47833 10.272C1.33301 9.98677 1.33301 9.6134 1.33301 8.86667V3.13333C1.33301 2.3866 1.33301 2.01323 1.47833 1.72801C1.60616 1.47713 1.81014 1.27316 2.06102 1.14532C2.34624 1 2.7196 1 3.46634 1H3.73301C5.22648 1 5.97322 1 6.54365 1.29065C7.04541 1.54631 7.45336 1.95426 7.70903 2.45603C7.99967 3.02646 7.99967 3.77319 7.99967 5.26667M7.99967 13V5.26667M7.99967 13L8.06638 12.8999C8.52947 12.2053 8.76102 11.858 9.06694 11.6065C9.33777 11.3839 9.64983 11.2169 9.98527 11.1151C10.3642 11 10.7816 11 11.6165 11H12.533C13.2797 11 13.6531 11 13.9383 10.8547C14.1892 10.7268 14.3932 10.5229 14.521 10.272C14.6663 9.98677 14.6663 9.6134 14.6663 8.86667V3.13333C14.6663 2.3866 14.6663 2.01323 14.521 1.72801C14.3932 1.47713 14.1892 1.27316 13.9383 1.14532C13.6531 1 13.2797 1 12.533 1H12.2663C10.7729 1 10.0261 1 9.4557 1.29065C8.95393 1.54631 8.54599 1.95426 8.29032 2.45603C7.99967 3.02646 7.99967 3.77319 7.99967 5.26667" stroke="#8D1B3D" stroke-width="1.5" stroke-linecap="round" stroke-linejoin="round"/>
</svg>
