<svg width="20" height="20" viewBox="0 0 20 20" fill="none" xmlns="http://www.w3.org/2000/svg">
<path d="M16.4475 5.48469C17.2582 4.67991 17.258 3.37746 16.4475 2.57275L15.4698 1.60212C14.661 0.799294 13.3452 0.799294 12.5365 1.60212L3.41097 10.6615C2.88556 11.1831 2.53832 11.8725 2.43324 12.6027L1.94434 16L5.36646 15.5147C6.102 15.4104 6.79648 15.0656 7.32188 14.544L16.4475 5.48469ZM5.20347 10.8232L11.0699 4.99937L13.0254 6.94064L7.15896 12.7645L5.20347 10.8232ZM3.57392 14.3823L3.80207 12.7969C3.85423 12.4345 4.00602 12.0891 4.23521 11.8033L6.1718 13.7258C5.88395 13.9533 5.53598 14.104 5.17094 14.1558L3.57392 14.3823ZM15.4698 4.51402L14.0031 5.97001L12.0477 4.02874L13.5143 2.57279C13.7838 2.30518 14.2224 2.30518 14.492 2.57279L15.4697 3.54342C15.74 3.81171 15.7399 4.2459 15.4698 4.51402Z" fill="#828282"/>
<path d="M1 18H18V19H1V18Z" fill="#828282"/>
</svg>
