<svg width="20" height="20" viewBox="0 0 20 20" fill="none" xmlns="http://www.w3.org/2000/svg">
<g clip-path="url(#clip0_303_29646)">
<path d="M13.3334 6.66647V10.8331C13.3334 11.4962 13.5968 12.1321 14.0656 12.6009C14.5344 13.0697 15.1703 13.3331 15.8334 13.3331C16.4964 13.3331 17.1323 13.0697 17.6011 12.6009C18.07 12.1321 18.3334 11.4962 18.3334 10.8331V9.99981C18.3332 8.119 17.6969 6.29354 16.5278 4.82025C15.3586 3.34696 13.7255 2.3125 11.8939 1.88506C10.0623 1.45762 8.13997 1.66234 6.43948 2.46595C4.739 3.26955 3.36036 4.62477 2.52774 6.31124C1.69513 7.99772 1.4575 9.91626 1.8535 11.7549C2.2495 13.5936 3.25584 15.2442 4.70889 16.4384C6.16193 17.6326 7.97622 18.3001 9.85675 18.3324C11.7373 18.3648 13.5735 17.76 15.0667 16.6165M13.3334 9.99981C13.3334 11.8408 11.841 13.3331 10 13.3331C8.15908 13.3331 6.6667 11.8408 6.6667 9.99981C6.6667 8.15886 8.15908 6.66647 10 6.66647C11.841 6.66647 13.3334 8.15886 13.3334 9.99981Z" stroke="#333333" stroke-width="1.5" stroke-linecap="round" stroke-linejoin="round"/>
</g>
<defs>
<clipPath id="clip0_303_29646">
<rect width="20" height="20" fill="white"/>
</clipPath>
</defs>
</svg>
