<svg width="360" height="100" viewBox="0 0 360 100" fill="none" xmlns="http://www.w3.org/2000/svg">
<g clip-path="url(#clip0_303_30371)">
<g opacity="0.15">
<g clip-path="url(#clip1_303_30371)">
<path d="M10.4199 28.606C15.8241 28.1202 20.376 32.3707 20.376 37.7192V57.3384H2.08789V37.9331C2.08789 33.1357 5.6771 29.0098 10.417 28.606H10.4199ZM11.1084 36.2808L11.1016 36.2817C10.3141 36.3531 9.83203 37.0967 9.83203 37.7622V49.6245H12.6318V37.6763C12.6318 36.9276 12.042 36.2986 11.2656 36.2769L11.1084 36.2808Z" stroke="#D5CCA1"/>
<path d="M11.4219 74.584L5.95898 80.0283L0.495117 74.584L5.95898 69.1387L11.4219 74.584Z" stroke="white"/>
<path d="M9.21094 25.9834C6.72395 26.3933 4.50745 27.5669 2.77734 29.291C0.629408 31.4316 -0.712816 34.42 -0.712891 37.7188V91.7432H2.08691V81.2344H9.83105V91.7861H12.6309V70.7266H30.9199V99.5H-8.5V37.7188C-8.49989 29.7579 -3.75287 22.8901 3.0625 19.8203L9.21094 25.9834ZM21.9453 78.4424C21.1458 78.3761 20.418 79.0266 20.418 79.8379V91.7861H23.2188V79.9229C23.2186 79.2008 22.7243 78.5126 21.9492 78.4424H21.9453ZM19.4023 19.8164C21.5715 20.7681 23.5149 22.132 25.1943 23.8057C28.7473 27.3466 30.9628 32.2612 30.9629 37.7188V67.8896H2.08691V60.1758H23.2188V37.7188C23.2186 31.7893 18.919 26.8941 13.252 25.9453L19.4023 19.8164Z" stroke="#D5CCA1"/>
<path d="M16.6934 18.4966L11.2305 23.9409L5.7666 18.4966L11.2305 13.0513L16.6934 18.4966Z" stroke="white"/>
<path d="M16.6953 6.19238L11.2314 11.6377L5.76562 6.15137L11.2295 0.707031L16.6953 6.19238Z" stroke="white"/>
</g>
<g clip-path="url(#clip2_303_30371)">
<path d="M52.8823 28.606C58.2865 28.1202 62.8384 32.3707 62.8384 37.7192V57.3384H44.5503V37.9331C44.5503 33.1357 48.1395 29.0098 52.8794 28.606H52.8823ZM53.5708 36.2808L53.564 36.2817C52.7765 36.3531 52.2944 37.0967 52.2944 37.7622V49.6245H55.0942V37.6763C55.0942 36.9276 54.5044 36.2986 53.728 36.2769L53.5708 36.2808Z" stroke="#D5CCA1"/>
<path d="M53.8843 74.584L48.4214 80.0283L42.9575 74.584L48.4214 69.1387L53.8843 74.584Z" stroke="white"/>
<path d="M51.6733 25.9834C49.1863 26.3933 46.9698 27.5669 45.2397 29.291C43.0918 31.4316 41.7496 34.42 41.7495 37.7188V91.7432H44.5493V81.2344H52.2935V91.7861H55.0933V70.7266H73.3823V99.5H33.9624V37.7188C33.9625 29.7579 38.7095 22.8901 45.5249 19.8203L51.6733 25.9834ZM64.4077 78.4424C63.6082 78.3761 62.8804 79.0266 62.8804 79.8379V91.7861H65.6812V79.9229C65.681 79.2008 65.1867 78.5126 64.4116 78.4424H64.4077ZM61.8647 19.8164C64.0339 20.7681 65.9773 22.132 67.6567 23.8057C71.2097 27.3466 73.4252 32.2612 73.4253 37.7188V67.8896H44.5493V60.1758H65.6812V37.7188C65.681 31.7893 61.3814 26.8941 55.7144 25.9453L61.8647 19.8164Z" stroke="#D5CCA1"/>
<path d="M59.1558 18.4966L53.6929 23.9409L48.229 18.4966L53.6929 13.0513L59.1558 18.4966Z" stroke="white"/>
<path d="M59.1577 6.19238L53.6938 11.6377L48.228 6.15137L53.6919 0.707031L59.1577 6.19238Z" stroke="white"/>
</g>
<g clip-path="url(#clip3_303_30371)">
<path d="M96.6665 28.606C91.3516 28.1213 86.8608 32.3632 86.8608 37.7192V57.3384H104.874V37.9331C104.874 33.1295 101.332 29.009 96.6694 28.606H96.6665ZM95.9907 36.2808L96.1411 36.3022C96.8403 36.4464 97.2544 37.1443 97.2544 37.7622V49.6245H94.48V37.6763C94.48 36.8852 95.1383 36.2145 95.9907 36.2808Z" stroke="#D5CCA1"/>
<path d="M95.6831 74.584L101.063 80.0234L106.444 74.584L101.063 69.1436L95.6831 74.584Z" stroke="white"/>
<path d="M97.8638 25.9834C100.317 26.3943 102.502 27.5699 104.208 29.2939C106.325 31.4351 107.648 34.4223 107.648 37.7188V91.7432H104.874V81.2344H97.2544V91.7861H94.48V70.7266H76.4673V99.5H115.309V37.7188C115.309 29.7571 110.631 22.8931 103.921 19.8232L97.8638 25.9834ZM85.3042 78.4424C86.1042 78.375 86.8179 79.0339 86.8179 79.8379V91.7861H84.0435V79.9229C84.0436 79.2072 84.5271 78.5137 85.3003 78.4424H85.3042ZM87.8101 19.8184C85.6763 20.7694 83.764 22.1323 82.1108 23.8037C78.6093 27.344 76.4244 32.259 76.4243 37.7188V67.8896H104.874V60.1758H84.0435V37.7188C84.0436 31.7957 88.2779 26.896 93.8706 25.9453L87.8101 19.8184Z" stroke="#D5CCA1"/>
<path d="M90.4878 18.4966L95.8677 23.936L101.249 18.4966L95.8677 13.0562L90.4878 18.4966Z" stroke="white"/>
<path d="M90.4858 6.19238L95.8677 11.6328L101.25 6.15234L95.8696 0.711914L90.4858 6.19238Z" stroke="white"/>
</g>
<g clip-path="url(#clip4_303_30371)">
<path d="M137.229 28.606C142.633 28.1202 147.185 32.3707 147.185 37.7192V57.3384H128.897V37.9331C128.897 33.1357 132.486 29.0098 137.226 28.606H137.229ZM137.917 36.2808L137.911 36.2817C137.123 36.3531 136.641 37.0967 136.641 37.7622V49.6245H139.441V37.6763C139.441 36.9276 138.851 36.2986 138.075 36.2769L137.917 36.2808Z" stroke="#D5CCA1"/>
<path d="M138.231 74.584L132.768 80.0283L127.304 74.584L132.768 69.1387L138.231 74.584Z" stroke="white"/>
<path d="M136.02 25.9834C133.533 26.3933 131.317 27.5669 129.586 29.291C127.438 31.4316 126.096 34.42 126.096 37.7188V91.7432H128.896V81.2344H136.64V91.7861H139.44V70.7266H157.729V99.5H118.309V37.7188C118.309 29.7579 123.056 22.8901 129.872 19.8203L136.02 25.9834ZM148.754 78.4424C147.955 78.3761 147.227 79.0266 147.227 79.8379V91.7861H150.028V79.9229C150.028 79.2008 149.533 78.5126 148.758 78.4424H148.754ZM146.211 19.8164C148.381 20.7681 150.324 22.132 152.003 23.8057C155.556 27.3466 157.772 32.2612 157.772 37.7188V67.8896H128.896V60.1758H150.028V37.7188C150.028 31.7893 145.728 26.8941 140.061 25.9453L146.211 19.8164Z" stroke="#D5CCA1"/>
<path d="M143.502 18.4966L138.04 23.9409L132.576 18.4966L138.04 13.0513L143.502 18.4966Z" stroke="white"/>
<path d="M143.504 6.19238L138.041 11.6377L132.575 6.15137L138.039 0.707031L143.504 6.19238Z" stroke="white"/>
</g>
<g clip-path="url(#clip5_303_30371)">
<path d="M181.014 28.606C175.699 28.1213 171.208 32.3632 171.208 37.7192V57.3384H189.221V37.9331C189.221 33.1295 185.679 29.009 181.017 28.606H181.014ZM180.338 36.2808L180.488 36.3022C181.187 36.4464 181.602 37.1443 181.602 37.7622V49.6245H178.827V37.6763C178.827 36.8852 179.485 36.2145 180.338 36.2808Z" stroke="#D5CCA1"/>
<path d="M180.03 74.584L185.41 80.0234L190.791 74.584L185.41 69.1436L180.03 74.584Z" stroke="white"/>
<path d="M182.211 25.9834C184.664 26.3943 186.849 27.5699 188.555 29.2939C190.673 31.4351 191.995 34.4223 191.995 37.7188V91.7432H189.221V81.2344H181.602V91.7861H178.827V70.7266H160.814V99.5H199.656V37.7188C199.656 29.7571 194.978 22.8931 188.269 19.8232L182.211 25.9834ZM169.651 78.4424C170.451 78.375 171.165 79.0339 171.165 79.8379V91.7861H168.391V79.9229C168.391 79.2072 168.874 78.5137 169.647 78.4424H169.651ZM172.157 19.8184C170.023 20.7694 168.111 22.1323 166.458 23.8037C162.956 27.344 160.772 32.259 160.771 37.7188V67.8896H189.221V60.1758H168.391V37.7188C168.391 31.7957 172.625 26.896 178.218 25.9453L172.157 19.8184Z" stroke="#D5CCA1"/>
<path d="M174.835 18.4966L180.215 23.936L185.596 18.4966L180.215 13.0562L174.835 18.4966Z" stroke="white"/>
<path d="M174.833 6.19238L180.215 11.6328L185.598 6.15234L180.217 0.711914L174.833 6.19238Z" stroke="white"/>
</g>
<g clip-path="url(#clip6_303_30371)">
<path d="M222.898 28.606C217.583 28.1213 213.092 32.3632 213.092 37.7192V57.3384H231.105V37.9331C231.105 33.1295 227.564 29.009 222.901 28.606H222.898ZM222.222 36.2808L222.373 36.3022C223.072 36.4464 223.486 37.1443 223.486 37.7622V49.6245H220.711V37.6763C220.711 36.8852 221.37 36.2145 222.222 36.2808Z" stroke="#D5CCA1"/>
<path d="M221.917 74.584L227.296 80.0234L232.677 74.584L227.296 69.1436L221.917 74.584Z" stroke="white"/>
<path d="M224.095 25.9834C226.549 26.3943 228.734 27.5699 230.439 29.2939C232.557 31.4351 233.879 34.4223 233.879 37.7188V91.7432H231.105V81.2344H223.486V91.7861H220.711V70.7266H202.699V99.5H241.541V37.7188C241.54 29.7571 236.863 22.8931 230.153 19.8232L224.095 25.9834ZM211.536 78.4424C212.336 78.375 213.049 79.0339 213.049 79.8379V91.7861H210.275V79.9229C210.275 79.2072 210.759 78.5137 211.532 78.4424H211.536ZM214.042 19.8184C211.908 20.7694 209.995 22.1323 208.342 23.8037C204.841 27.344 202.656 32.259 202.656 37.7188V67.8896H231.105V60.1758H210.275V37.7188C210.275 31.7957 214.509 26.896 220.102 25.9453L214.042 19.8184Z" stroke="#D5CCA1"/>
<path d="M216.719 18.4966L222.099 23.936L227.48 18.4966L222.099 13.0562L216.719 18.4966Z" stroke="white"/>
<path d="M216.717 6.19238L222.099 11.6328L227.482 6.15234L222.101 0.711914L216.717 6.19238Z" stroke="white"/>
</g>
<g clip-path="url(#clip7_303_30371)">
<path d="M264.78 28.606C259.465 28.1213 254.975 32.3632 254.975 37.7192V57.3384H272.987V37.9331C272.987 33.1295 269.446 29.009 264.783 28.606H264.78ZM264.104 36.2808L264.255 36.3022C264.954 36.4464 265.368 37.1443 265.368 37.7622V49.6245H262.594V37.6763C262.594 36.8852 263.252 36.2145 264.104 36.2808Z" stroke="#D5CCA1"/>
<path d="M263.801 74.584L269.181 80.0234L274.562 74.584L269.181 69.1436L263.801 74.584Z" stroke="white"/>
<path d="M265.979 25.9834C268.433 26.3943 270.618 27.5699 272.323 29.2939C274.441 31.4351 275.764 34.4223 275.764 37.7188V91.7432H272.989V81.2344H265.37V91.7861H262.596V70.7266H244.583V99.5H283.425V37.7188C283.425 29.7571 278.747 22.8931 272.037 19.8232L265.979 25.9834ZM253.42 78.4424C254.22 78.375 254.934 79.0339 254.934 79.8379V91.7861H252.159V79.9229C252.159 79.2072 252.643 78.5137 253.416 78.4424H253.42ZM255.926 19.8184C253.792 20.7694 251.88 22.1323 250.227 23.8037C246.725 27.344 244.54 32.259 244.54 37.7188V67.8896H272.989V60.1758H252.159V37.7188C252.159 31.7957 256.394 26.896 261.986 25.9453L255.926 19.8184Z" stroke="#D5CCA1"/>
<path d="M258.602 18.4966L263.981 23.936L269.362 18.4966L263.981 13.0562L258.602 18.4966Z" stroke="white"/>
<path d="M258.6 6.19238L263.981 11.6328L269.364 6.15234L263.983 0.711914L258.6 6.19238Z" stroke="white"/>
</g>
<g clip-path="url(#clip8_303_30371)">
<path d="M306.665 28.606C301.35 28.1213 296.859 32.3632 296.859 37.7192V57.3384H314.872V37.9331C314.872 33.1295 311.33 29.009 306.667 28.606H306.665ZM305.989 36.2808L306.139 36.3022C306.838 36.4464 307.252 37.1443 307.252 37.7622V49.6245H304.478V37.6763C304.478 36.8852 305.136 36.2145 305.989 36.2808Z" stroke="#D5CCA1"/>
<path d="M305.685 74.584L311.065 80.0234L316.446 74.584L311.065 69.1436L305.685 74.584Z" stroke="white"/>
<path d="M307.864 25.9834C310.317 26.3943 312.502 27.5699 314.208 29.2939C316.325 31.4351 317.648 34.4223 317.648 37.7188V91.7432H314.874V81.2344H307.254V91.7861H304.48V70.7266H286.467V99.5H325.309V37.7188C325.309 29.7571 320.631 22.8931 313.921 19.8232L307.864 25.9834ZM295.304 78.4424C296.104 78.375 296.818 79.0339 296.818 79.8379V91.7861H294.043V79.9229C294.044 79.2072 294.527 78.5137 295.3 78.4424H295.304ZM297.81 19.8184C295.676 20.7694 293.764 22.1323 292.111 23.8037C288.609 27.344 286.424 32.259 286.424 37.7188V67.8896H314.874V60.1758H294.043V37.7188C294.044 31.7957 298.278 26.896 303.871 25.9453L297.81 19.8184Z" stroke="#D5CCA1"/>
<path d="M300.486 18.4966L305.866 23.936L311.247 18.4966L305.866 13.0562L300.486 18.4966Z" stroke="white"/>
<path d="M300.484 6.19238L305.866 11.6328L311.249 6.15234L305.868 0.711914L300.484 6.19238Z" stroke="white"/>
</g>
<g clip-path="url(#clip9_303_30371)">
<path d="M348.549 28.606C343.234 28.1213 338.744 32.3632 338.744 37.7192V57.3384H356.756V37.9331C356.756 33.1295 353.215 29.009 348.552 28.606H348.549ZM347.874 36.2808L348.024 36.3022C348.723 36.4464 349.137 37.1443 349.137 37.7622V49.6245H346.363V37.6763C346.363 36.8852 347.021 36.2145 347.874 36.2808Z" stroke="#D5CCA1"/>
<path d="M347.57 74.584L352.95 80.0234L358.331 74.584L352.95 69.1436L347.57 74.584Z" stroke="white"/>
<path d="M349.749 25.9834C352.202 26.3943 354.387 27.5699 356.092 29.2939C358.21 31.4351 359.533 34.4223 359.533 37.7188V91.7432H356.758V81.2344H349.139V91.7861H346.365V70.7266H328.352V99.5H367.194V37.7188C367.194 29.7571 362.516 22.8931 355.806 19.8232L349.749 25.9834ZM337.189 78.4424C337.989 78.375 338.703 79.0339 338.703 79.8379V91.7861H335.928V79.9229C335.928 79.2072 336.412 78.5137 337.185 78.4424H337.189ZM339.695 19.8184C337.561 20.7694 335.649 22.1323 333.996 23.8037C330.494 27.344 328.309 32.259 328.309 37.7188V67.8896H356.758V60.1758H335.928V37.7188C335.928 31.7957 340.163 26.896 345.755 25.9453L339.695 19.8184Z" stroke="#D5CCA1"/>
<path d="M342.371 18.4966L347.75 23.936L353.131 18.4966L347.75 13.0562L342.371 18.4966Z" stroke="white"/>
<path d="M342.369 6.19238L347.75 11.6328L353.133 6.15234L347.752 0.711914L342.369 6.19238Z" stroke="white"/>
</g>
</g>
</g>
<defs>
<clipPath id="clip0_303_30371">
<rect width="360" height="100" fill="white"/>
</clipPath>
<clipPath id="clip1_303_30371">
<rect width="40.4624" height="100" fill="white" transform="translate(-9)"/>
</clipPath>
<clipPath id="clip2_303_30371">
<rect width="40.4624" height="100" fill="white" transform="translate(33.4624)"/>
</clipPath>
<clipPath id="clip3_303_30371">
<rect width="39.8844" height="100" fill="white" transform="matrix(-1 0 0 1 115.809 0)"/>
</clipPath>
<clipPath id="clip4_303_30371">
<rect width="40.4624" height="100" fill="white" transform="translate(117.809)"/>
</clipPath>
<clipPath id="clip5_303_30371">
<rect width="39.8844" height="100" fill="white" transform="matrix(-1 0 0 1 200.156 0)"/>
</clipPath>
<clipPath id="clip6_303_30371">
<rect width="39.8844" height="100" fill="white" transform="matrix(-1 0 0 1 242.041 0)"/>
</clipPath>
<clipPath id="clip7_303_30371">
<rect width="39.8844" height="100" fill="white" transform="matrix(-1 0 0 1 283.925 0)"/>
</clipPath>
<clipPath id="clip8_303_30371">
<rect width="39.8844" height="100" fill="white" transform="matrix(-1 0 0 1 325.809 0)"/>
</clipPath>
<clipPath id="clip9_303_30371">
<rect width="39.8844" height="100" fill="white" transform="matrix(-1 0 0 1 367.694 0)"/>
</clipPath>
</defs>
</svg>
