<svg width="21" height="20" viewBox="0 0 21 20" fill="none" xmlns="http://www.w3.org/2000/svg">
<path d="M2.51905 1.25C2.09433 1.25 1.75 1.59433 1.75 2.01905V4.49709C1.75 4.78023 1.97955 5.00978 2.2627 5.00978H3.28809V2.01905C3.28809 1.59433 2.94377 1.25 2.51905 1.25Z" fill="#4F4F4F"/>
<path d="M17.9856 16.6992H6.87711V17.981C6.87711 18.256 6.81473 18.5168 6.70361 18.75H17.302C17.9627 18.75 18.4983 18.2144 18.4983 17.5537V17.2119C18.4983 16.9288 18.2687 16.6992 17.9856 16.6992Z" fill="#4F4F4F"/>
<path d="M16.4475 9.52997C14.0133 11.2004 11.7126 11.3984 11.5951 11.4075L11.1879 11.4388L9.94552 12.6811C9.74529 12.8814 9.42069 12.8814 9.22046 12.6811C9.02023 12.4809 9.02023 12.1563 9.22046 11.9561L10.4628 10.7138L10.4941 10.3065C10.5052 10.1627 10.7985 6.75268 13.7239 3.8273C14.61 2.94125 15.572 2.40665 16.4475 2.086V2.01905C16.4475 1.59433 16.1032 1.25 15.6784 1.25H4.14014C4.25126 1.48324 4.31363 1.74397 4.31363 2.01905V17.981C4.31363 18.4058 4.65796 18.7501 5.08268 18.7501C5.5074 18.7501 5.85173 18.4058 5.85173 17.981V16.1866C5.85173 15.9034 6.08128 15.6739 6.36442 15.6739H16.4475V9.52997Z" fill="#4F4F4F"/>
<path d="M18.7103 2.65218C17.8219 2.70181 15.9962 3.00502 14.4489 4.55237C12.6362 6.36507 11.935 8.3824 11.6704 9.50606L15.0209 6.15558C15.2211 5.95535 15.5457 5.95535 15.7459 6.15558C15.9462 6.35581 15.9462 6.68041 15.7459 6.88064L12.3955 10.2311C13.5191 9.9665 15.5364 9.26533 17.3491 7.45264C18.8965 5.90528 19.1997 4.07963 19.2493 3.1912C19.2663 2.88706 19.0145 2.63519 18.7103 2.65218Z" fill="#4F4F4F"/>
</svg>
