<svg width="24" height="24" viewBox="0 0 24 24" fill="none" xmlns="http://www.w3.org/2000/svg">
<path d="M19.7324 4.96875C19.7324 2.25511 17.5242 0 14.8105 0C13.7531 0 12.765 0.452484 11.998 1.26684C11.231 0.452484 10.243 0 9.18555 0C6.47191 0 4.26367 2.25511 4.26367 4.96875C4.26367 7.69819 6.26659 9.10716 8.58611 10.7393C9.54259 11.4122 10.5321 12.1085 11.5373 12.9805L11.9973 13.3801L12.4581 12.9812C13.5945 11.9979 14.6753 11.2282 15.6283 10.5491C17.921 8.91698 19.7324 7.62745 19.7324 4.96875ZM14.1074 7.07812H12.7012V8.48438H11.2949V7.07812H9.88867V5.67188H11.2949V4.26562H12.7012V5.67188H14.1074V7.07812Z" fill="#8D1B3D"/>
<path d="M23.1543 6.43115C21.7199 6.43115 21.3497 13.0968 21.3215 13.2374C21.1787 14.2141 20.4906 15.6599 19.3287 16.5305L16.2832 18.7417L15.44 17.6157L18.4855 15.4051C19.6919 14.5006 20.2418 12.9562 18.734 12.9562C17.3836 12.9562 14.8594 14.5196 14.1111 15.1398C13.2175 15.8804 12.7012 16.9808 12.7012 18.1415V23.9999H16.9199C16.9199 23.3249 17.2855 22.589 17.848 21.8858C18.4387 21.1124 19.2824 20.3249 20.1542 19.5233C21.8136 17.9624 23.5339 16.3593 23.759 14.7281C23.8926 13.6323 24.0035 11.753 23.998 10.0781C23.9919 8.20237 23.833 6.49176 23.1543 6.43115Z" fill="#8D1B3D" fill-opacity="0.65"/>
<path d="M9.71957 15.0093C7.73672 13.6452 6.23212 12.9562 5.26181 12.9562C3.75403 12.9562 4.30387 14.5006 5.51029 15.4051L8.55581 17.6157L7.71262 18.7417L4.66711 16.5305C3.50507 15.6599 2.81704 14.2141 2.67422 13.2374C2.64604 13.0968 2.27578 6.43115 0.841357 6.43115C0.0538568 6.50146 -0.0305183 8.79365 0.0117161 10.9874C0.0398879 12.5905 0.166404 14.1515 0.236669 14.7281C0.461716 16.3593 2.18203 17.9624 3.8414 19.5233C4.71328 20.3249 5.55698 21.1124 6.14765 21.8858C6.71011 22.589 7.07573 23.3249 7.07573 23.9999H11.2945V18.1695C11.2946 16.9273 10.7114 15.7572 9.71957 15.0093Z" fill="#8D1B3D" fill-opacity="0.65"/>
</svg>
