<svg width="76" height="44" viewBox="0 0 76 44" fill="none" xmlns="http://www.w3.org/2000/svg">
<rect width="76" height="44" rx="22" fill="url(#paint0_linear_2436_1428)"/>
<path d="M35.9977 29.3275V24.3275H39.9977V29.3275C39.9977 29.8775 40.4477 30.3275 40.9977 30.3275H43.9977C44.5477 30.3275 44.9977 29.8775 44.9977 29.3275V22.3275H46.6977C47.1577 22.3275 47.3777 21.7575 47.0277 21.4575L38.6677 13.9275C38.2877 13.5875 37.7077 13.5875 37.3277 13.9275L28.9677 21.4575C28.6277 21.7575 28.8377 22.3275 29.2977 22.3275H30.9977V29.3275C30.9977 29.8775 31.4477 30.3275 31.9977 30.3275H34.9977C35.5477 30.3275 35.9977 29.8775 35.9977 29.3275Z" fill="white"/>
<defs>
<linearGradient id="paint0_linear_2436_1428" x1="38" y1="0" x2="38" y2="44" gradientUnits="userSpaceOnUse">
<stop stop-color="#FFD77F"/>
<stop offset="1" stop-color="#FF9F43"/>
</linearGradient>
</defs>
</svg>
