<svg width="28" height="62" viewBox="0 0 28 62" fill="none" xmlns="http://www.w3.org/2000/svg">
<path d="M14.5817 19.2935C11.2085 18.9859 8.34863 21.6783 8.34863 25.091V37.8755H19.8012V25.2323C19.8012 22.2589 17.6772 19.7121 14.8605 19.3239L14.5852 19.2935H14.5817ZM14.1772 23.8689L14.1856 23.8701C14.8784 23.9339 15.2637 24.5802 15.2637 25.119V33.2756H12.8861V25.0618C12.8873 24.4297 13.3815 23.8841 14.0432 23.8654L14.1772 23.8689Z" stroke="#D5CCA1"/>
<path d="M14.3271 49.6115L17.5328 52.8526L20.7385 49.6115L17.5328 46.3691L14.3271 49.6115Z" stroke="#D5CCA1"/>
<path d="M15.9364 17.1214C17.4262 17.4681 18.7556 18.2298 19.8134 19.2994C21.2696 20.7718 22.1778 22.8254 22.1778 25.0899V61.2924H19.8014V54.3019H15.2639V61.3203H12.8863V47.3126H1.43497V65.9215H26.744V25.0899C26.744 19.9669 23.7729 15.5407 19.4927 13.5041L15.9364 17.1214ZM7.02544 51.9149C7.71347 51.857 8.32014 52.4182 8.32014 53.1078V61.3203H5.94371V53.1638C5.94371 52.6163 6.29432 52.0521 6.8974 51.9323L7.02064 51.9149H7.02544ZM8.65997 13.5029C7.33894 14.1169 6.14713 14.9738 5.11208 16.0208C2.83019 18.3276 1.40625 21.5305 1.40625 25.0899V44.894H19.8014V40.2941H5.94371V25.0899C5.94371 21.1956 8.60972 17.9402 12.2114 17.0946L8.65997 13.5029Z" stroke="#D5CCA1"/>
<path d="M10.8701 12.3028L14.0746 15.5439L17.2814 12.3028L14.0746 9.06055L10.8701 12.3028Z" stroke="#D5CCA1"/>
<path d="M10.8687 4.11837L14.0743 7.35948L17.2836 4.09267L14.0767 0.851562L10.8687 4.11837Z" stroke="#D5CCA1"/>
</svg>
