<svg width="16" height="16" viewBox="0 0 16 16" fill="none" xmlns="http://www.w3.org/2000/svg">
<g clip-path="url(#clip0_274_1903)">
<path d="M8 0C9.59065 0.00211004 11.1155 0.634929 12.2403 1.75969C13.3651 2.88445 13.9979 4.40935 14 6C14 10.3075 8.41 15.7025 8.1725 15.93C8.1263 15.9749 8.06442 16 8 16C7.93558 16 7.8737 15.9749 7.8275 15.93C7.59 15.7025 2 10.3075 2 6C2.00211 4.40935 2.63493 2.88445 3.75969 1.75969C4.88445 0.634929 6.40935 0.00211004 8 0ZM8 8.75C8.5439 8.75 9.07558 8.58871 9.52782 8.28654C9.98005 7.98437 10.3325 7.55488 10.5407 7.05238C10.7488 6.54988 10.8033 5.99695 10.6972 5.4635C10.591 4.93005 10.3291 4.44005 9.94454 4.05546C9.55995 3.67086 9.06995 3.40895 8.5365 3.30284C8.00305 3.19673 7.45012 3.25119 6.94762 3.45933C6.44512 3.66747 6.01563 4.01995 5.71346 4.47218C5.41129 4.92442 5.25 5.4561 5.25 6C5.25044 6.72921 5.54031 7.42843 6.05594 7.94406C6.57157 8.45969 7.27079 8.74956 8 8.75Z" fill="#A7805A"/>
</g>
<defs>
<clipPath id="clip0_274_1903">
<rect width="16" height="16" fill="white" transform="matrix(-1 0 0 1 16 0)"/>
</clipPath>
</defs>
</svg>
