<svg width="42" height="100" viewBox="0 0 42 100" fill="none" xmlns="http://www.w3.org/2000/svg">
<g clip-path="url(#clip0_303_30457)">
<path d="M20.1463 28.1078C15.1547 28.535 11.4004 32.8921 11.4004 37.9327V57.8387H30.5988V37.7191C30.5988 32.0805 25.8205 27.5952 20.1463 28.1078ZM21.8955 49.1245H20.1037V37.7618C20.1037 37.2919 20.445 36.8221 20.9143 36.7793C21.4689 36.7366 21.8955 37.1638 21.8955 37.6764V49.1245Z" fill="#D5CCA1"/>
<path d="M15.7524 80.7351L21.8959 74.5838L15.7524 68.4326L9.60889 74.5838L15.7524 80.7351Z" fill="white"/>
<path d="M21.8957 91.2859H20.1039V80.7348H11.4006V91.2432H9.60873V37.719C9.60873 34.558 10.8886 31.696 12.9365 29.6456C14.8136 27.766 17.2881 26.5699 20.0612 26.3564L12.9791 19.2227C5.85438 22.2983 0.862793 29.432 0.862793 37.719V100H41.0941V70.2265H21.8957V91.2859ZM30.6416 79.8378C30.6416 79.3252 31.1109 78.898 31.6229 78.9407C32.0922 78.9834 32.4335 79.4106 32.4335 79.9232V91.2859H30.6416V79.8378ZM35.2493 23.4516C33.4574 21.6575 31.3669 20.2051 29.0204 19.2227L21.9384 26.3136C27.8259 26.7835 32.4335 31.696 32.4335 37.719V59.6755H11.4006V68.3897H41.1368V37.719C41.1368 32.1231 38.8756 27.0825 35.2493 23.4516Z" fill="#D5CCA1"/>
<path d="M20.9999 24.6476L27.1434 18.4964L20.9999 12.3452L14.8564 18.4964L20.9999 24.6476C20.9999 24.6904 20.9999 24.6904 20.9999 24.6476Z" fill="white"/>
<path d="M20.9999 12.3452L27.1434 6.19393L20.9999 0L14.8564 6.15122L20.9999 12.3452Z" fill="white"/>
</g>
<defs>
<clipPath id="clip0_303_30457">
<rect width="40.274" height="100" fill="white" transform="translate(0.862793)"/>
</clipPath>
</defs>
</svg>
