<svg width="21" height="20" viewBox="0 0 21 20" fill="none" xmlns="http://www.w3.org/2000/svg">
<path d="M18 8.125C18 13.8419 10.9845 19.093 10.6857 19.3138C10.6319 19.3536 10.5669 19.375 10.5 19.375C10.4331 19.375 10.3681 19.3536 10.3143 19.3138C10.0155 19.093 3 13.8419 3 8.125C3 6.13588 3.79018 4.22822 5.1967 2.8217C6.60322 1.41518 8.51088 0.625 10.5 0.625C12.4891 0.625 14.3968 1.41518 15.8033 2.8217C17.2098 4.22822 18 6.13588 18 8.125ZM16.125 8.125C16.125 7.01248 15.7951 5.92494 15.177 4.99992C14.5589 4.07489 13.6804 3.35392 12.6526 2.92818C11.6248 2.50243 10.4938 2.39104 9.40262 2.60808C8.31147 2.82512 7.30919 3.36085 6.52252 4.14752C5.73585 4.93419 5.20012 5.93647 4.98308 7.02762C4.76604 8.11876 4.87743 9.24976 5.30318 10.2776C5.72892 11.3054 6.44989 12.1839 7.37492 12.802C8.29994 13.4201 9.38748 13.75 10.5 13.75C11.9913 13.7483 13.4211 13.1551 14.4756 12.1006C15.5301 11.0461 16.1233 9.61632 16.125 8.125Z" fill="#4F4F4F"/>
<path d="M13.6013 11.6262C13.617 11.5883 13.625 11.5476 13.625 11.5066C13.6247 11.258 13.5259 11.0197 13.3501 10.844C13.1744 10.6682 12.9361 10.5694 12.6875 10.5691H8.3125C8.06394 10.5694 7.82564 10.6682 7.64989 10.844C7.47413 11.0197 7.37527 11.258 7.375 11.5066C7.37498 11.5476 7.38304 11.5883 7.39874 11.6262C7.41444 11.6641 7.43745 11.6986 7.46648 11.7276C7.4955 11.7566 7.52996 11.7797 7.56788 11.7954C7.60581 11.811 7.64646 11.8191 7.6875 11.8191H13.3125C13.3535 11.8191 13.3942 11.811 13.4321 11.7954C13.47 11.7797 13.5045 11.7566 13.5335 11.7276C13.5625 11.6986 13.5856 11.6641 13.6013 11.6262Z" fill="#4F4F4F"/>
<path d="M13.3125 9.00659C13.3166 9.33488 13.2336 9.65838 13.0719 9.94409H7.92813C7.76639 9.65838 7.68336 9.33488 7.6875 9.00659C7.6875 7.86179 8.41923 7.37398 9.06525 6.94331L9.06875 6.94097C9.53227 6.63196 9.97027 6.3356 10.1875 5.8168V5.51149C10.0111 5.4497 9.85727 5.33638 9.74599 5.18619C9.6347 5.03601 9.57106 4.85587 9.5633 4.66911C9.55554 4.48235 9.60402 4.29756 9.70247 4.13866C9.80092 3.97976 9.94479 3.85407 10.1155 3.77786C10.1529 3.76089 10.1934 3.75148 10.2345 3.75016C10.2756 3.74884 10.3165 3.75565 10.355 3.77019C10.3934 3.78472 10.4286 3.80671 10.4586 3.83488C10.4885 3.86305 10.5126 3.89685 10.5295 3.93435C10.5464 3.97185 10.5557 4.01231 10.5569 4.05341C10.5581 4.09451 10.5511 4.13545 10.5365 4.17387C10.5218 4.21228 10.4998 4.24744 10.4715 4.27731C10.4432 4.30717 10.4094 4.33117 10.3718 4.34793C10.3257 4.36858 10.2853 4.40013 10.2541 4.43986C10.2229 4.47959 10.2018 4.52632 10.1926 4.57601C10.1835 4.62571 10.1866 4.67688 10.2016 4.72512C10.2166 4.77336 10.2432 4.81722 10.2789 4.85293C10.3147 4.88864 10.3586 4.91512 10.4068 4.9301C10.4551 4.94507 10.5062 4.94809 10.5559 4.93889C10.6056 4.9297 10.6523 4.90856 10.692 4.8773C10.7317 4.84604 10.7632 4.8056 10.7838 4.75946C10.818 4.68407 10.8807 4.62531 10.9581 4.59606C11.0355 4.56682 11.1214 4.56947 11.1969 4.60345C11.2723 4.63743 11.3312 4.69996 11.3607 4.77732C11.3901 4.85468 11.3877 4.94055 11.3539 5.01611C11.3017 5.13105 11.2268 5.23427 11.1338 5.3196C11.0408 5.40493 10.9315 5.47061 10.8125 5.51271V5.8168C11.0297 6.3356 11.4677 6.63196 11.9313 6.94097L11.9348 6.94331C12.5808 7.37398 13.3125 7.86179 13.3125 9.00659Z" fill="#4F4F4F"/>
</svg>
