<svg width="28" height="28" viewBox="0 0 28 28" fill="none" xmlns="http://www.w3.org/2000/svg">
<path d="M3.01562 12.9141H24.9844C25.5453 12.9141 26 13.3688 26 13.9297C26 14.4906 25.5453 14.9453 24.9844 14.9453H3.01562C2.45469 14.9453 2 14.4906 2 13.9297C2 13.3688 2.45469 12.9141 3.01562 12.9141Z" fill="#828282"/>
<path d="M3.01562 4.92969H24.9844C25.5453 4.92969 26 5.37739 26 5.92969C26 6.48199 25.5453 6.92969 24.9844 6.92969H3.01562C2.45469 6.92969 2 6.48199 2 5.92969C2 5.37739 2.45469 4.92969 3.01562 4.92969Z" fill="#828282"/>
<path d="M3.01562 21.0391H24.9844C25.5453 21.0391 26 21.4938 26 22.0547C26 22.6156 25.5453 23.0703 24.9844 23.0703H3.01562C2.45469 23.0703 2 22.6156 2 22.0547C2 21.4938 2.45469 21.0391 3.01562 21.0391Z" fill="#828282"/>
</svg>
