<svg width="24" height="24" viewBox="0 0 24 24" fill="none" xmlns="http://www.w3.org/2000/svg">
<path d="M12 4.73438C11.6116 4.73438 11.2969 4.41962 11.2969 4.03125V3.09375C11.2969 2.70538 11.6116 2.39062 12 2.39062C12.3884 2.39062 12.7031 2.70538 12.7031 3.09375V4.03125C12.7031 4.41962 12.3884 4.73438 12 4.73438Z" fill="#8D1B3D"/>
<path d="M8.01647 5.80213C7.7733 5.80213 7.5371 5.67615 7.40691 5.45039L6.93816 4.6385C6.74388 4.30231 6.85906 3.8722 7.19542 3.67811C7.53179 3.48383 7.96172 3.59919 8.15581 3.93537L8.62456 4.74726C8.81883 5.08363 8.70366 5.51374 8.3673 5.70783C8.25652 5.77174 8.13567 5.80213 8.01647 5.80213Z" fill="#8D1B3D"/>
<path d="M5.09844 8.71904C4.97923 8.71904 4.8582 8.68865 4.74761 8.62456L3.93553 8.15581C3.59935 7.96172 3.48418 7.53179 3.67827 7.19542C3.87236 6.85906 4.30248 6.74388 4.63866 6.93816L5.45073 7.40691C5.78691 7.601 5.90209 8.03093 5.70799 8.3673C5.57781 8.59288 5.34142 8.71904 5.09844 8.71904Z" fill="#8D1B3D"/>
<path d="M4.03125 12.7031H3.09375C2.70538 12.7031 2.39062 12.3884 2.39062 12C2.39062 11.6116 2.70538 11.2969 3.09375 11.2969H4.03125C4.41962 11.2969 4.73438 11.6116 4.73438 12C4.73438 12.3884 4.41962 12.7031 4.03125 12.7031Z" fill="#8D1B3D"/>
<path d="M20.9062 12.7031H19.9688C19.5804 12.7031 19.2656 12.3884 19.2656 12C19.2656 11.6116 19.5804 11.2969 19.9688 11.2969H20.9062C21.2946 11.2969 21.6094 11.6116 21.6094 12C21.6094 12.3884 21.2946 12.7031 20.9062 12.7031Z" fill="#8D1B3D"/>
<path d="M18.9022 8.71904C18.6592 8.71904 18.4228 8.59288 18.2926 8.3673C18.0983 8.03093 18.2137 7.601 18.5499 7.40691L19.3618 6.93816C19.6981 6.74388 20.1281 6.85906 20.3223 7.19542C20.5164 7.53179 20.4013 7.96172 20.0649 8.15581L19.253 8.62456C19.1424 8.68865 19.0214 8.71904 18.9022 8.71904Z" fill="#8D1B3D"/>
<path d="M15.9838 5.80213C15.8645 5.80213 15.7437 5.77174 15.6329 5.70783C15.2966 5.51356 15.1814 5.08363 15.3757 4.74726L15.8444 3.93537C16.0385 3.59919 16.4684 3.48383 16.8048 3.67811C17.1412 3.8722 17.2563 4.30231 17.0621 4.6385L16.5933 5.45039C16.4631 5.67615 16.2269 5.80213 15.9838 5.80213Z" fill="#8D1B3D"/>
<path d="M17.6233 13.6501C17.7797 13.1197 17.8597 12.566 17.8597 12C17.8597 8.7691 15.2312 6.14062 12.0003 6.14062C8.81226 6.14062 6.21088 8.70007 6.14258 11.872C7.38843 11.4944 8.71667 11.2969 10.0784 11.2969C12.8834 11.2969 15.5498 12.1408 17.6233 13.6501Z" fill="#8D1B3D"/>
<path d="M23.2969 21.6094H12.0469C11.6585 21.6094 11.3438 21.2946 11.3438 20.9062C11.3438 19.4418 12.0187 18.0729 13.2442 17.0515C14.4327 16.0611 16.0052 15.5156 17.6719 15.5156C19.3385 15.5156 20.911 16.0611 22.0995 17.0515C23.3251 18.0729 24 19.4418 24 20.9062C24 21.2946 23.6852 21.6094 23.2969 21.6094Z" fill="#8D1B3D" fill-opacity="0.65"/>
<path d="M12.3441 15.9712C13.3757 15.1115 14.6387 14.5285 16.0052 14.2667C14.3026 13.2583 12.2402 12.7031 10.0781 12.7031C7.41486 12.7031 4.90466 13.5381 3.0097 15.0538C1.06897 16.6066 0 18.685 0 20.9062C0 21.2946 0.314758 21.6094 0.703125 21.6094H10.0583C9.98035 21.3893 9.9375 21.1527 9.9375 20.9062C9.9375 19.017 10.7921 17.2645 12.3441 15.9712Z" fill="#8D1B3D" fill-opacity="0.65"/>
</svg>
