<svg width="18" height="18" viewBox="0 0 18 18" fill="none" xmlns="http://www.w3.org/2000/svg">
<path d="M8.81653 0.626174C8.78407 0.625111 8.75029 0.628283 8.71545 0.637106C7.73246 0.889971 7.03237 1.78897 7.03125 2.81295C7.03126 3.85781 7.75105 4.73634 8.7193 4.98714V5.54031C8.09684 6.51047 6.70109 7.15866 5.39539 7.97651C4.7291 8.39386 4.08689 8.86345 3.60571 9.4778C3.12455 10.0922 2.8125 10.8589 2.8125 11.8135C2.8125 13.082 3.1769 14.0009 3.58155 14.6244H14.4174C14.8223 14.0009 15.1886 13.082 15.1886 11.8135C15.1886 10.8589 14.8744 10.0922 14.3932 9.4778C13.912 8.86345 13.272 8.39386 12.6057 7.97651C11.3015 7.15958 9.90541 6.51194 9.2818 5.54362V5.0613C10.2989 5.06024 11.1863 4.37484 11.4494 3.39742C11.5912 3.12236 11.2496 2.85337 11.0154 3.05573C10.7644 3.26146 10.4496 3.37566 10.125 3.37601C9.34502 3.37601 8.7193 2.7481 8.7193 1.96812C8.71048 1.63394 8.85344 1.31639 9.03681 1.07933C9.1963 0.873128 9.04372 0.634625 8.81653 0.626174ZM3.65516 15.1869C3.19258 15.1869 2.8125 15.5697 2.8125 16.0323V17.1551C2.81222 17.2297 2.84157 17.3013 2.89411 17.3543C2.94665 17.4072 3.01806 17.4372 3.09265 17.4375H14.9063C14.9434 17.4376 14.9802 17.4304 15.0145 17.4162C15.0488 17.4021 15.08 17.3813 15.1062 17.3551C15.1325 17.3288 15.1533 17.2976 15.1674 17.2633C15.1815 17.229 15.1887 17.1922 15.1886 17.1551V16.0323C15.1886 15.5697 14.8063 15.1869 14.3438 15.1869H3.65516Z" fill="#8D1B3D"/>
</svg>
