<svg width="24" height="24" viewBox="0 0 24 24" fill="none" xmlns="http://www.w3.org/2000/svg">
<path d="M22.84 16.8393C22.6554 16.6291 22.3562 16.5622 22.0995 16.6734C20.9689 17.1635 19.7663 17.412 18.5251 17.412C13.5644 17.412 9.52861 13.3762 9.52861 8.41546C9.52861 6.03559 10.4494 3.79181 12.1214 2.0973C12.3176 1.89835 12.3634 1.5956 12.2346 1.34758C12.1058 1.09957 11.832 0.962582 11.5562 1.00894C9.00314 1.43623 6.66612 2.76095 4.9756 4.7391C3.26583 6.73964 2.32422 9.29267 2.32422 11.9278C2.32422 13.2424 2.5523 14.5218 2.98873 15.7214C3.86581 14.9758 4.9686 14.569 6.13073 14.569C7.41085 14.569 8.61918 15.0626 9.53295 15.959C10.0732 16.489 10.4761 17.1248 10.7199 17.8258C11.8274 18.4081 12.5501 19.5641 12.5501 20.8602C12.5501 21.6222 12.3 22.3267 11.8779 22.8966C12.377 22.9646 12.8839 23 13.3963 23C15.3478 23 17.2666 22.4851 18.9454 21.5108C20.5734 20.566 21.9441 19.2119 22.9093 17.5951C23.0527 17.3549 23.0247 17.0495 22.84 16.8393Z" fill="#8D1B3D"/>
<path d="M9.12094 23H3.13981C1.95988 23 1 22.0401 1 20.8602C1 19.8602 1.68952 19.0182 2.61812 18.7846C2.74888 18.0639 3.09817 17.4017 3.63085 16.8792C4.30216 16.2206 5.18985 15.8579 6.1304 15.8579C7.07094 15.8579 7.95864 16.2206 8.62994 16.8791C9.16258 17.4017 9.51187 18.0639 9.64267 18.7846C10.5713 19.0182 11.2608 19.8601 11.2608 20.8602C11.2607 22.0401 10.3008 23 9.12094 23Z" fill="#8D1B3D" fill-opacity="0.65"/>
<path d="M19.8436 12.1704H13.8625C12.6826 12.1704 11.7227 11.2105 11.7227 10.0306C11.7227 9.03061 12.4122 8.18864 13.3408 7.9551C13.4715 7.23438 13.8208 6.57211 14.3535 6.04956C15.0248 5.39102 15.9125 5.02832 16.8531 5.02832C17.7936 5.02832 18.6813 5.39098 19.3526 6.04956C19.8852 6.57211 20.2345 7.23434 20.3653 7.9551C21.2939 8.18864 21.9834 9.03057 21.9834 10.0306C21.9834 11.2105 21.0235 12.1704 19.8436 12.1704Z" fill="#8D1B3D" fill-opacity="0.65"/>
</svg>
