<svg width="20" height="20" viewBox="0 0 20 20" fill="none" xmlns="http://www.w3.org/2000/svg">
<path fill-rule="evenodd" clip-rule="evenodd" d="M4.62145 6.49589L1.8122 6.49587C1.60611 6.49587 1.40847 6.57774 1.26275 6.72346C1.11702 6.86918 1.03516 7.06682 1.03516 7.27291V12.7111C1.03516 13.1402 1.38305 13.4881 1.81219 13.4881H4.62145C5.44532 14.2296 8.28415 16.7845 8.28415 16.7845C8.51223 16.9898 8.83977 17.0416 9.12009 16.9168C9.4004 16.7919 9.58099 16.5138 9.58099 16.2069V3.77705C9.58099 3.47019 9.4004 3.19207 9.12009 3.06723C8.83977 2.94238 8.51223 2.99421 8.28415 3.19948L4.62145 6.49592V6.49589ZM4.91962 8.04997C5.11158 8.04997 5.29675 7.97892 5.43943 7.8505L8.02692 5.52176V14.4622L5.43943 12.1334C5.29675 12.005 5.11158 11.934 4.91962 11.934H2.58923V8.04993L4.91962 8.04995V8.04997ZM15.274 8.89308L13.6261 7.24523C13.3229 6.94199 12.8305 6.94199 12.5272 7.24524C12.224 7.5485 12.224 8.04089 12.5272 8.34414L14.1751 9.99197L12.5272 11.6398C12.224 11.943 12.224 12.4354 12.5272 12.7387C12.8305 13.0419 13.3229 13.0419 13.6261 12.7387L15.274 11.0909L16.9219 12.7387C17.2251 13.0419 17.7175 13.0419 18.0208 12.7387C18.324 12.4354 18.324 11.943 18.0208 11.6398L16.3729 9.99197L18.0208 8.34414C18.324 8.04089 18.324 7.5485 18.0208 7.24524C17.7175 6.94199 17.2251 6.94199 16.9219 7.24523L15.274 8.89308Z" fill="#E33C3C"/>
</svg>
