<svg width="360" height="800" viewBox="0 0 360 800" fill="none" xmlns="http://www.w3.org/2000/svg">
<g clip-path="url(#clip0_2411_1632)">
<rect width="360" height="800" fill="url(#paint0_linear_2411_1632)"/>
<path opacity="0.6" d="M-200.182 87.1057C-197.698 83.94 -194.253 82.4827 -190.408 81.9426C-189.646 81.8295 -188.797 82.2692 -187.923 82.4702C-188.373 83.2993 -188.747 84.0028 -189.247 84.945C-188.647 84.9827 -188.198 85.146 -187.973 84.9952C-186.151 83.7139 -184.041 82.6335 -182.655 80.9627C-181.07 79.0658 -179.035 78.3999 -176.975 77.6588C-174.878 76.905 -172.706 76.4904 -170.409 76.9427C-167.825 77.4578 -165.104 77.0306 -162.557 78.1236C-161.234 78.6889 -160.148 79.3044 -159.187 80.4476C-157.863 82.0054 -156.665 83.8144 -154.742 84.6309C-153.656 84.1787 -153.819 83.3872 -154.081 82.8094C-154.717 81.4024 -155.054 79.8446 -155.666 78.513C-157.089 75.4729 -155.691 72.6966 -155.454 69.8449C-155.379 68.8776 -154.455 67.9354 -153.819 67.056C-151.384 63.7019 -149.037 60.2597 -144.681 59.0914C-143.407 58.7522 -142.259 58.5764 -141.011 59.0286C-139.85 59.4432 -138.651 59.7447 -137.266 60.1592C-137.678 62.6215 -139.113 64.9204 -138.427 67.5083C-137.777 68.1867 -136.929 68.6515 -136.342 67.659C-135.655 66.4782 -135.118 65.1465 -134.806 63.8024C-134.195 61.2145 -133.833 58.5512 -131.698 56.6417C-131.498 56.4659 -131.348 56.1895 -131.249 55.9382C-129.451 51.0891 -125.294 48.6897 -121.237 46.1772C-117.542 43.8908 -113.235 43.0366 -109.403 41.0517C-108.579 40.6246 -107.505 40.6874 -106.544 40.5743C-105.72 40.4738 -104.821 40.6372 -104.085 40.3608C-102.949 39.9211 -101.937 40.0718 -100.814 40.298C-99.3159 40.5995 -97.7554 40.6246 -96.2449 40.8633C-95.3087 41.014 -94.1227 41.0392 -93.5235 41.617C-92.1753 42.911 -90.9644 42.2577 -89.4914 41.705C-86.8699 44.0039 -83.8239 45.524 -80.2536 46.0893C-78.1564 46.4159 -77.2951 48.8781 -75.0605 49.456C-73.1381 49.9585 -72.0021 51.7926 -71.4528 53.8152C-71.3529 54.2046 -71.1033 54.7071 -70.7912 54.8453C-67.9325 56.1016 -67.0961 58.9281 -65.5356 61.5411C-66.1973 62.1441 -66.9588 62.7094 -67.5455 63.4255C-67.8576 63.8149 -68.1696 64.5938 -67.9824 64.9204C-67.6828 65.4606 -66.9712 66.1138 -66.4594 66.1013C-64.9489 66.0636 -63.351 65.9631 -61.9654 65.4229C-60.3176 64.7697 -58.8195 64.3174 -57.1717 65.1968C-56.9345 65.3224 -56.61 65.4355 -56.3603 65.3852C-51.5417 64.5184 -48.9701 68.1238 -46.2986 70.9253C-43.2652 74.091 -43.0529 78.2618 -44.0142 82.4576C-44.2264 83.3747 -44.5759 84.2666 -45.0628 85.8118C-44.0391 85.3093 -43.4149 85.2214 -43.2277 84.8822C-42.5661 83.6636 -41.7796 82.4074 -41.5549 81.0758C-41.118 78.5884 -41.0056 76.0382 -40.8309 73.5131C-40.731 72.0559 -41.3177 70.8499 -42.2041 69.6439C-46.1988 64.2295 -51.5916 61.5285 -58.1829 61.0009C-59.4063 60.9004 -60.6172 60.6869 -61.8655 60.5235C-63.5258 56.0513 -65.8977 52.3328 -69.7426 49.7198C-70.3043 49.3429 -70.8661 48.7651 -71.1282 48.1495C-72.2143 45.6119 -74.4363 44.4813 -76.6709 43.3004C-78.6433 42.2577 -80.5283 41.0517 -82.5256 40.0593C-84.3857 39.1297 -86.1583 37.9362 -88.3804 37.8734C-89.1918 37.8483 -89.9907 37.4337 -90.7897 37.1574C-91.314 36.9815 -91.8633 36.793 -92.3376 36.5167C-93.7483 35.7127 -95.3461 35.474 -96.8192 35.7629C-100.776 36.5292 -104.946 34.469 -108.766 36.7302C-109.24 37.0192 -109.789 37.4588 -110.264 37.4212C-112.935 37.1573 -114.97 38.8156 -117.305 39.5693C-122.573 41.2778 -126.542 44.7074 -130 48.8028C-132.047 51.2399 -133.733 53.9785 -135.543 56.5287C-137.053 55.9759 -138.464 55.4483 -140.149 54.8327C-140.099 54.079 -140.099 53.1368 -139.962 52.2072C-139.687 50.4233 -139.425 48.6269 -138.988 46.8807C-138.539 45.0717 -136.716 44.1546 -136.067 42.3205C-134.894 38.9663 -132.497 36.3157 -129.963 33.9288C-127.241 31.3661 -124.433 28.8284 -120.7 27.7606C-120.563 27.7229 -120.425 27.6852 -120.313 27.5973C-116.843 24.9089 -112.623 24.4567 -108.541 23.5145C-105.882 22.9115 -103.248 23.0497 -100.602 23.213C-98.9289 23.3135 -97.2686 23.6276 -95.6208 23.9291C-94.9716 24.0547 -94.3724 24.4316 -93.5235 24.7833C-94.8093 27.4717 -96.5445 29.8711 -96.17 33.1248C-95.5334 32.8736 -95.059 32.8359 -94.8468 32.572C-92.4125 29.7204 -89.7036 27.1199 -87.881 23.7532C-87.3193 22.7231 -86.1833 21.5171 -85.1347 21.3161C-82.2011 20.7508 -80.4783 18.3136 -77.9442 17.2081C-76.6709 16.6554 -75.46 15.7635 -74.1367 15.575C-71.9272 15.261 -69.7176 15.06 -67.6578 14.1052C-67.3083 13.9419 -66.8339 13.9545 -66.4345 14.0298C-61.3911 15.0474 -56.2105 15.5625 -51.4793 17.786C-49.9812 18.4895 -48.5831 19.4066 -47.1226 20.198C-46.5233 20.5246 -45.8742 20.7382 -45.3 20.9769C-44.526 20.3111 -45.0004 19.884 -45.3749 19.5071C-48.3834 16.467 -51.7914 14.1555 -55.8859 12.7485C-59.0567 11.6681 -62.0902 10.2234 -65.4857 9.9596C-65.7229 9.94704 -65.9351 9.64554 -66.1848 9.4571C-66.6342 8.66567 -65.985 8.15061 -65.5856 7.67323C-61.9654 3.37687 -58.2578 -0.806435 -53.152 -3.40687C-52.2907 -3.84655 -51.6041 -4.61286 -50.7677 -5.09024C-49.8065 -5.64299 -48.7828 -6.32136 -47.7342 -6.43442C-45.612 -6.64798 -43.6397 -7.26354 -41.6548 -7.96704C-40.8808 -8.24342 -40.0319 -8.40673 -39.208 -8.43185C-35.0261 -8.57004 -30.8316 -8.34392 -26.6996 -7.77861C-24.4276 -7.47711 -22.2805 -6.22086 -19.9585 -5.34149C-20.1458 -4.2988 -20.1957 -3.45712 -20.4579 -2.6908C-21.519 0.349314 -22.6924 3.35175 -23.7535 6.40443C-24.3402 8.0878 -24.7522 9.80885 -23.9532 12.0952C-23.3915 11.3164 -22.9546 10.9395 -22.8297 10.4872C-21.906 7.09536 -20.77 3.79143 -19.6215 0.474937C-19.0473 -1.19587 -18.111 -2.45212 -17.2621 -3.85911C-15.2273 -7.21329 -12.9553 -10.3037 -9.32265 -12.0875C-8.08678 -14.1603 -5.83975 -14.7633 -3.92978 -15.8814C-1.59538 -17.2381 1.18843 -17.012 3.57277 -18.1552C8.31648 -18.2683 13.0727 -18.419 17.8164 -18.4818C19.2145 -18.507 20.5128 -18.0924 21.8111 -17.3889C23.2342 -16.61 24.882 -16.2708 26.4175 -15.6678C27.8281 -15.1151 29.5508 -14.801 30.5121 -13.796C31.5607 -12.7031 32.9089 -12.4644 33.9325 -11.6855C35.9049 -10.1906 37.5278 -8.21829 39.2255 -6.38417C39.8871 -5.66811 40.2242 -4.58774 40.9607 -4.00986C43.4949 -2.03756 44.2938 0.663378 44.7182 3.67837C44.9554 5.29893 45.4423 6.84411 46.2162 8.3893C47.2524 10.4621 46.8404 12.9872 46.9528 15.3363C47.0402 17.2961 47.3148 19.2433 47.5894 21.1779C47.6269 21.4417 48.1637 21.8311 48.4758 21.8311C48.8128 21.8311 49.3121 21.5296 49.4744 21.2156C50.7477 18.7533 51.1597 15.261 50.523 11.4169C50.3358 10.2737 50.1111 9.21842 50.7852 7.7863C54.7425 8.75361 58.5499 9.87167 61.8955 11.8817C65.1786 13.854 68.3994 16.0775 70.8211 19.193C71.1582 19.6327 71.5702 20.0473 71.8073 20.5372C72.5938 22.1578 75.0905 21.8186 75.4276 24.2431C75.6523 25.8763 77.1503 27.3209 78.0491 28.8661C80.6207 33.3132 82.1936 37.999 81.2074 43.3758C80.7704 43.5642 80.2586 44.0039 79.7718 43.9788C74.2541 43.6019 69.373 45.838 64.4671 47.8103C62.5571 48.5766 60.9342 50.0716 59.1616 51.1896C58.4625 51.6293 57.6885 51.9183 57.1143 52.1946C54.7799 50.7876 52.6702 49.4686 50.5106 48.2374C48.7878 47.2576 46.9153 46.7928 44.9055 46.6671C42.8332 46.529 40.7984 46.0516 38.7262 45.7878C32.11 44.9586 26.1928 46.6169 20.4504 50.0967C17.0924 52.1318 15.2947 55.0086 13.6719 58.2246C12.7356 60.0964 11.9991 62.0813 11.2376 64.0285C10.8506 65.0209 10.6259 66.0636 11.4748 67.6842C11.9617 66.1013 12.2238 65.0335 12.6233 64.0285C13.0352 62.9858 13.6095 62.0185 14.1088 61.0135C17.0674 54.9709 21.8735 51.1896 28.34 49.7449C31.7355 48.9786 35.2308 48.5138 38.7012 48.3882C40.8733 48.3128 43.2452 48.7651 45.2301 49.6444C47.7517 50.7499 50.4606 51.6796 52.4954 53.7398C52.9698 54.2172 53.6689 54.5061 54.3055 54.7699C55.5039 55.2724 56.4652 55.9885 57.1767 57.1191C58.0381 58.4884 59.4487 59.1417 61.0716 59.8326C61.8206 56.9558 59.8357 55.3729 58.5125 53.7398C58.9494 52.0062 60.4224 51.8931 61.4211 51.2273C66.6017 47.7978 72.4814 46.5038 78.5359 46.2903C81.4071 46.1898 84.3158 47.0063 87.2119 47.3581C89.0095 47.5842 90.57 48.1746 92.2053 49.142C96.3124 51.5539 100.27 54.1418 103.99 57.1066C104.826 57.7724 107.473 61.2145 108.072 62.1944C109.32 64.2169 110.618 66.2143 111.929 68.1992C113.44 70.4856 114.226 72.8599 113.989 75.7116C113.839 77.4578 114.576 79.2793 114.813 81.0758C115.112 83.2993 115.287 85.5354 115.612 87.7464C115.687 88.2364 116.124 89.0404 116.436 89.0529C117.035 89.0906 117.909 88.8519 118.233 88.3997C118.857 87.5203 119.182 86.4274 119.594 85.4977C123.551 85.1083 126.847 86.5907 130.118 88.1359C130.492 88.3117 130.854 88.5253 131.166 88.8017C133.663 91.0001 136.135 93.2111 138.569 95.3844C138.506 96.2387 137.982 96.314 137.395 96.2638C133.526 95.9497 129.643 96.3894 125.773 95.9371C124.962 95.8366 124.076 96.2135 123.302 96.0125C121.08 95.4598 118.882 95.6608 116.66 95.7738C115.287 95.8492 113.864 96.1256 112.541 95.397C112.191 95.2085 111.667 95.0327 111.33 95.1583C108.546 96.201 105.787 95.1206 103.016 95.0829C100.07 95.0452 97.1487 95.1206 94.2151 95.4598C92.2802 95.6859 90.3078 95.6357 88.3604 95.5351C86.0135 95.4221 83.7041 94.6558 81.3447 95.6105C80.7829 95.8367 79.984 95.4975 79.2974 95.397C76.1017 94.9698 72.9184 94.6307 69.7351 95.4723C68.6615 95.7613 67.6254 95.6985 66.4644 95.3718C64.8915 94.9196 63.1688 94.9322 61.496 94.907C59.1241 94.8819 56.7648 94.9447 54.3929 95.0703C47.7143 95.4472 41.0356 95.0452 34.3694 94.706C31.8728 95.6482 29.1514 94.4673 26.5923 95.711C25.5312 96.2261 23.8834 95.6859 22.5476 95.4095C20.9997 95.0955 19.5141 95.0327 17.9787 95.3718C17.0299 95.5854 16.1062 95.5603 15.12 95.1708C14.4334 94.8945 13.5221 95.1708 12.7107 95.2588C12.3112 95.2965 11.7744 95.6608 11.5247 95.51C9.48994 94.2287 7.41768 95.4221 5.38289 95.3216C3.58527 95.2211 1.77515 95.9874 0.00250244 95.1457C-0.12233 95.0829 -0.30957 95.0201 -0.409439 95.0703C-3.21822 96.4899 -5.86472 94.995 -8.58611 94.6683C-9.94681 94.505 -11.5072 95.1708 -12.7056 94.7186C-14.9027 93.8769 -16.8002 94.9698 -18.8225 95.0829C-22.4178 95.2839 -25.9756 95.7613 -29.4335 94.2035C-30.0202 93.9397 -30.8816 93.9271 -31.4933 94.1407C-35.8625 95.598 -40.2941 94.392 -44.6883 94.5553C-45.6245 94.593 -46.5233 94.2035 -47.4846 94.7563C-48.683 95.4347 -49.9813 95.2839 -51.0923 94.5553C-52.7276 93.4749 -54.2256 93.3116 -56.2105 93.8267C-59.0068 94.5553 -62.0278 93.8895 -64.874 94.7688C-65.2361 94.8819 -65.7229 94.7688 -66.1099 94.6306C-69.3431 93.5 -72.6512 93.9648 -75.9593 94.0151C-78.3062 94.0528 -80.6281 94.103 -83.025 93.6382C-85.6964 93.1232 -88.5551 93.588 -91.3265 93.6759C-92.0131 93.701 -92.7995 94.1658 -93.3613 93.9648C-96.2075 92.9096 -99.1286 94.2412 -101.987 93.5252C-103.036 93.2613 -104.297 93.299 -105.308 93.6508C-107.967 94.5804 -110.626 94.2538 -113.197 93.701C-117.092 92.8719 -121.012 93.1985 -124.919 93.0855C-129.788 92.9473 -134.657 93.0352 -139.525 93.0478C-141.048 93.0478 -142.584 93.0729 -144.107 93.0855C-145.23 93.098 -146.354 93.1483 -147.465 93.098C-151.796 92.897 -156.116 92.6332 -160.435 92.4448C-162.944 92.3317 -165.453 92.5453 -167.95 91.8669C-168.986 91.578 -170.172 91.9172 -171.295 91.8543C-176.314 91.578 -181.332 91.2513 -186.351 90.9624C-187.973 90.8745 -193.291 90.3217 -197.511 90.171C-198.672 89.9574 -199.833 89.7439 -201.293 89.4675C-200.794 88.5504 -200.644 87.6962 -200.182 87.1057Z" fill="url(#paint1_linear_2411_1632)"/>
<path opacity="0.6" d="M262.181 11.1C263.359 9.68021 264.004 8.38268 264.2 7.11337C264.359 6.05091 264.855 5.1953 265.172 4.23627C266.135 1.37797 267.79 -1.14183 269.304 -3.73687C269.556 -4.16937 269.912 -4.59249 270.323 -4.90277C272.398 -6.45415 274.052 -8.51325 276.455 -9.66033C277.062 -9.9518 277.558 -10.4689 278.1 -10.892C278.306 -11.0519 278.474 -11.3433 278.698 -11.3715C280.811 -11.6536 282.475 -13.0075 284.419 -13.6751C284.821 -13.8161 285.335 -14.0418 285.671 -13.9102C287.747 -13.1016 289.756 -14.1076 291.794 -14.0418C293.177 -13.9948 294.57 -13.9478 295.954 -13.8632C296.898 -13.8067 297.795 -13.5717 298.795 -13.6751C299.571 -13.7597 300.422 -13.2144 301.226 -12.8947C301.861 -12.6409 302.45 -12.246 303.095 -12.0015C304.899 -11.3245 306.666 -10.6099 308.04 -9.1996C308.161 -9.07737 308.292 -8.94574 308.451 -8.87992C312.77 -6.99006 314.695 -3.04111 316.836 0.682198C318.163 2.98576 318.341 5.59962 318.079 8.22286C317.967 9.33233 317.789 10.4418 317.705 11.5607C317.677 11.965 317.836 12.3787 317.901 12.8018C318.649 12.6137 318.696 12.0496 318.752 11.5607C318.939 9.84945 319.079 8.13824 319.229 6.42702C319.276 5.90989 319.313 5.39275 319.35 4.88503C319.406 4.10464 319.864 3.66272 320.594 3.38065C322.603 2.60966 324.576 3.05158 326.538 3.5405C327.212 3.70974 327.866 4.00122 328.501 4.30209C329.464 4.7534 330.315 5.34576 330.792 6.3424C331.334 7.48948 332.362 8.4203 332.483 9.73662C330.838 10.8367 329.174 11.8051 327.698 12.9992C326.707 13.7984 325.996 14.9361 325.006 16.0926C326.258 16.3464 327.025 15.7071 327.8 15.2934C328.408 14.9737 328.894 14.4284 329.446 13.9959C330.894 12.8394 332.465 11.9368 334.325 11.523C335.774 11.2034 337.195 10.7521 338.615 10.3102C341.887 9.29472 345.131 8.34509 348.552 9.77423C349.253 10.0657 350.103 9.98109 350.87 10.1597C354.6 11.0059 357.198 13.4129 359.451 16.243C360.367 17.3901 361.105 18.6688 361.965 19.8629C362.134 20.0979 362.461 20.2296 362.76 20.4458C363.442 19.1671 362.021 18.4525 362.236 17.2208C363.059 16.6567 363.938 16.0361 365.209 16.5157C365.517 16.6285 365.985 16.6943 366.228 16.5439C367.321 15.8575 368.266 16.4687 369.238 16.7789C369.658 16.9106 370.023 17.2491 370.434 17.3149C372.238 17.6157 373.042 18.9697 373.809 20.3142C374.641 21.781 374.977 23.3887 374.463 25.0341C374.164 25.9838 373.827 26.877 372.752 27.4976C371.565 28.1745 370.845 29.4909 369.462 30.0738C366.901 31.1457 364.358 31.9355 361.498 31.2867C359.75 30.8918 358.105 30.2901 356.497 29.5849C355.899 29.3216 355.469 28.7104 354.852 28.1557C354.646 28.1839 354.263 28.1463 353.964 28.2779C351.636 29.2934 349.234 29.5378 346.701 29.331C344.775 29.1712 342.831 29.0771 340.906 28.9737C338.036 28.8233 335.559 27.8643 333.231 26.4727C332.381 25.965 331.53 25.6641 330.558 25.4008C330.091 26.2753 331.371 26.6608 331.175 27.4317C331.072 27.5634 330.997 27.7608 330.866 27.8078C328.623 28.5694 326.38 29.3874 323.949 29.3498C322.351 29.331 320.752 29.2276 319.154 29.2276C317.518 29.2276 316.004 28.607 314.602 28.0147C312.611 27.1685 310.667 26.2282 308.573 25.5983C308.76 23.9341 310.62 23.8589 311.199 22.4767C310.807 22.5426 310.461 22.5144 310.218 22.646C307.554 24.1598 304.899 25.6923 302.226 27.2061C301.927 27.3753 301.562 27.4599 301.226 27.5634C299.113 28.2215 297.01 28.8797 294.888 29.5002C294.383 29.6507 293.841 29.6977 293.318 29.7541C292.43 29.8387 291.542 29.8575 290.663 29.961C288.831 30.1772 287.017 30.243 285.176 30.0644C283.26 29.8763 281.287 30.4311 279.399 29.6037C279.025 29.4438 278.521 29.5285 278.081 29.5567C275.193 29.7165 272.482 28.8985 269.762 28.1651C268.229 27.7514 266.668 27.4411 265.144 27.0086C264.602 26.8488 264.135 26.4539 263.443 26.059C264.957 25.0248 266.088 23.9623 266.593 22.4955C266.238 21.8562 265.78 22.1383 265.406 22.2417C264.2 22.5896 263.097 23.1161 262.312 24.1221C262.097 24.3948 261.873 24.7333 261.574 24.8555C259.947 25.5231 258.554 26.6043 256.956 27.3001C255.666 27.8642 254.301 28.2591 252.955 28.6917C251.534 29.1524 250.076 29.4156 248.581 29.6601C246.664 29.9704 244.72 30.1302 242.813 30.4593C241.991 30.6003 241.243 30.5533 240.448 30.3841C239.588 30.196 238.7 30.1208 237.822 30.008C237.476 29.961 237.074 30.0174 236.775 29.8857C235.382 29.237 233.924 29.0677 232.382 29.0019C231.465 28.9643 230.531 28.4566 229.671 28.0335C228.708 27.554 227.736 27.4129 226.614 27.4505C227.502 29.1994 227.614 29.284 230.662 30.4969C229.259 31.6158 227.474 31.5594 225.857 31.926C224.502 32.2269 223.062 32.1705 221.66 32.2645C220.763 32.3209 219.931 32.1611 219.052 31.9166C218.267 31.7004 217.341 32.1611 216.519 31.6158C216.257 31.4371 215.78 31.3619 215.491 31.4559C214.117 31.8978 213.154 31.2115 212.088 30.5345C211.088 29.8951 209.705 29.8576 209.013 28.6729C208.891 28.4754 208.359 28.419 208.022 28.4284C207.321 28.4378 206.826 28.2121 206.498 27.601C206.414 27.4505 206.321 27.2249 206.19 27.1967C204.302 26.736 203.704 24.9589 202.479 23.8307C201.264 22.7024 200.077 21.5459 198.834 20.4552C198.619 20.2672 198.132 20.1638 197.889 20.2766C197.656 20.38 197.441 20.8031 197.441 21.0852C197.431 22.063 197.796 22.9751 198.432 23.7085C199.899 25.4009 201.002 27.4223 203.161 28.5036C203.9 28.8703 203.732 29.6789 202.928 30.102C201.226 31.0046 199.357 31.0892 197.487 31.1174C196.871 31.1268 196.235 30.9388 195.627 30.9858C193.188 31.1833 191.113 30.243 189.103 29.0866C188.972 29.0113 188.916 28.8045 188.766 28.56C190.14 27.648 191.879 27.1027 192.711 25.4761C192.468 25.429 192.244 25.3162 192.131 25.3726C189.243 26.9898 185.971 27.3941 182.793 28.0147C181.522 28.2591 180.176 28.2686 178.895 28.607C178.521 28.7105 175.409 28.1557 175.072 27.9865C173.979 27.4223 172.894 26.83 171.791 26.3035C171.333 26.0872 170.819 25.9744 170.333 25.824C169.922 25.6923 169.342 25.7111 169.118 25.4385C168.379 24.5358 167.305 24.0939 166.426 23.3982C166.099 23.1443 165.865 22.7494 165.65 22.3827C165.482 22.0912 165.482 21.6587 165.257 21.4425C163.379 19.5714 163.416 17.0516 162.958 14.7574C162.603 13.0086 163.126 11.1752 163.93 9.52976C164.996 7.36724 166.267 5.29873 167.903 3.50289C169.109 2.17716 170.52 1.05831 172.118 0.146286C173.567 -0.681114 175.026 -1.41452 176.689 -1.66838C178.241 -1.89403 179.793 -2.07268 181.354 -2.23252C184.784 -2.58981 187.962 -1.56494 191.066 -0.361446C193.468 0.578785 195.291 2.32762 196.702 4.46194C197.17 5.16711 197.665 5.85347 198.217 6.62446C198.815 5.65602 198.946 4.88504 198.347 4.07644C198.095 3.73796 197.908 3.34307 197.665 2.99518C196.842 1.78229 196.02 0.578777 195.029 -0.869179C193.636 -1.04782 192.29 -1.98804 190.954 -2.94707C189.654 -3.8779 188.168 -4.36684 186.588 -4.6113C185.897 -4.72413 185.196 -4.88395 184.504 -4.88395C183.345 -4.89335 182.653 -5.40107 182.494 -6.50114C182.251 -8.19356 181.251 -9.68854 181.391 -11.5126C181.559 -13.6845 181.765 -15.7718 183.018 -17.6429C183.448 -18.2822 183.756 -19.0062 184.102 -19.6926C185.149 -21.7517 187.205 -22.8329 188.757 -24.4031C189.206 -24.8544 189.981 -25.0331 190.636 -25.2493C191.786 -25.6254 192.945 -25.9733 194.122 -26.2554C194.702 -26.3964 195.319 -26.4528 195.908 -26.3964C197.366 -26.2742 198.834 -26.1425 200.264 -25.8887C201.563 -25.6536 202.713 -25.2493 203.04 -23.6227C203.274 -22.4757 204.012 -21.432 204.461 -20.3225C205.405 -17.9626 206.984 -16.1385 208.929 -14.5025C209.91 -13.6751 210.836 -12.7725 211.967 -12.1425C212.63 -11.7664 213.35 -11.3809 214.247 -12.0767C214.051 -12.3494 213.93 -12.6973 213.687 -12.8571C212.228 -13.8161 210.817 -14.7752 209.948 -16.3736C209.602 -17.0129 208.732 -17.3608 208.312 -17.9814C207.312 -19.4763 206.209 -20.9807 205.582 -22.6355C204.9 -24.4501 204.582 -26.434 204.32 -28.3709C204.068 -30.2232 203.937 -32.113 204.526 -33.9653C204.732 -34.614 204.797 -35.3192 204.825 -36.0056C204.928 -38.3655 205.9 -40.434 207.003 -42.4461C207.452 -43.2547 208.284 -43.8377 208.415 -44.8625C208.443 -45.0788 208.732 -45.2574 208.854 -45.4831C209.518 -46.6208 211.097 -46.8464 211.546 -48.1721C211.967 -49.4226 213.434 -49.6201 214.042 -50.7014C214.182 -50.9458 214.621 -51.0304 214.93 -51.1715C216.108 -51.6792 217.313 -52.1399 218.463 -52.704C220.8 -53.8229 223.343 -54.2742 225.801 -54.9888C226.539 -55.2051 227.287 -55.3555 228.026 -55.5529C228.605 -55.7128 229.147 -55.882 229.783 -55.694C230.166 -55.5811 230.662 -55.5905 231.035 -55.7222C232.073 -56.0983 233.008 -56.1735 233.943 -55.4307C234.167 -55.2521 234.625 -55.2239 234.915 -55.3179C235.625 -55.5623 236.233 -55.4025 236.887 -55.1204C237.336 -54.923 237.915 -54.782 238.373 -54.876C239.888 -55.2145 241.215 -54.7631 242.524 -54.105C242.748 -53.9922 242.982 -53.7947 243.215 -53.7947C244.945 -53.7947 246.263 -52.8545 247.655 -51.9989C248.3 -51.604 249.104 -51.4818 249.786 -51.1527C250.31 -50.8988 251.02 -50.6073 251.189 -50.1654C251.74 -48.6893 252.927 -48.1157 254.086 -47.7208C254.591 -46.837 254.9 -46.0096 255.442 -45.3891C256.47 -44.2138 257.068 -42.8128 257.816 -41.4683C259.04 -39.2776 259.555 -36.8424 260.293 -34.5012C260.714 -33.1567 260.545 -31.6241 260.573 -30.1761C260.602 -28.982 260.489 -27.788 260.527 -26.6033C260.536 -26.3776 260.938 -26.0109 261.181 -25.9827C261.443 -25.9545 261.901 -26.2084 261.985 -26.434C262.854 -28.982 264.995 -30.0351 267.229 -31.0411C270.155 -32.3575 273.118 -32.1036 276.109 -31.389C276.763 -31.2292 277.39 -30.8813 277.988 -30.5616C278.595 -30.2419 279.119 -29.7436 279.745 -29.518C281.325 -28.9444 282.073 -27.7315 282.839 -26.3494C283.456 -25.2305 283.811 -24.0364 284.297 -22.8893C284.989 -21.2345 284.97 -19.4199 284.998 -17.6147C283.765 -16.5992 282.11 -17.0411 280.829 -16.2137C279.614 -15.4333 278.184 -14.982 276.707 -14.3239C275.604 -15.1419 274.361 -15.9128 273.286 -16.8719C271.286 -18.6677 268.809 -19.5703 266.35 -20.2755C263.658 -21.0465 260.816 -20.7832 258.143 -19.8336C254.376 -18.4985 251.291 -16.1855 248.758 -13.1392C248.328 -12.6314 248.076 -11.9827 247.739 -11.3998C245.431 -11.9357 243.159 -12.4622 240.888 -12.9981C238.224 -13.6281 235.513 -13.4494 232.83 -13.252C230.073 -13.0545 227.736 -11.616 225.287 -10.4971C224.978 -10.3561 224.717 -10.121 224.399 -9.98001C222.211 -8.98336 220.342 -7.59181 218.949 -5.64553C217.856 -4.12236 216.491 -2.77784 215.715 -1.03841C215.509 -0.577698 215.023 -0.15461 215.005 0.2967C214.939 1.68824 213.799 2.76013 213.92 4.22688C213.986 5.05429 213.584 5.90989 213.584 6.74669C213.574 8.19465 213.631 9.652 213.808 11.0906C214.032 12.877 214.36 14.654 214.743 16.4123C215.304 18.9979 216.846 21.0758 218.547 23.0597C218.781 23.3324 218.818 23.3041 220.136 23.2571C219.856 22.599 219.697 21.9314 219.332 21.4049C217.463 18.6688 216.977 15.519 216.407 12.4069C216.117 10.8085 216.949 6.65265 217.837 5.26112C218.398 4.3679 217.818 3.5969 217.921 2.64727C218.809 1.64123 219.762 0.625805 220.314 -0.793941C220.781 -1.98803 221.931 -2.9847 222.922 -3.92492C224.016 -4.97798 224.978 -6.13447 226.306 -7.01829C228.456 -8.45684 230.849 -9.21841 233.213 -10.0646C234.298 -10.4595 235.56 -10.7604 236.812 -10.2997C237.195 -10.1586 237.71 -10.1586 238.102 -10.2715C240.925 -11.1459 243.393 -10.0176 245.889 -9.01157C246.608 -8.7201 247.309 -8.37222 248.02 -8.04313C248.338 -7.8927 248.712 -7.79868 248.945 -7.57302C251.488 -5.11902 254.339 -2.92829 256.003 0.2967C256.264 0.795021 256.292 0.776234 257.106 1.02069C257.479 0.475361 257.068 0.0522499 256.872 -0.399063C256.479 -1.34869 256.077 -2.30773 255.647 -3.24796C254.713 -5.32587 253.479 -7.13111 251.404 -8.3064C250.6 -8.75771 249.945 -9.49107 249.142 -10.168C250.02 -11.6912 251.235 -12.7537 252.469 -13.7785C253.198 -14.3897 254.021 -14.8786 254.815 -15.4239C255.526 -15.9129 256.208 -16.477 257.152 -16.4488C257.236 -16.4488 257.349 -16.4676 257.405 -16.5146C259.19 -18.1318 261.527 -17.5206 263.593 -17.972C264.303 -18.1224 265.116 -17.8403 265.873 -17.7181C269.024 -17.2292 271.491 -15.5179 273.697 -13.3742C273.922 -13.1486 273.996 -12.7819 274.174 -12.4246C270.968 -9.9236 268.322 -6.98066 266.191 -3.61463C264.574 -1.05721 263.312 1.70706 262.733 4.65938C262.256 6.59626 261.48 8.59895 262.181 11.1Z" fill="url(#paint2_linear_2411_1632)"/>
<path opacity="0.6" d="M363.605 109.797C364.515 110.556 365.244 111.168 365.962 111.77C366.037 111.833 366.101 111.96 366.176 111.96C367.826 111.928 368.865 112.941 369.83 114.049C370.708 115.062 371.94 115.632 372.701 116.856C373.43 118.027 375.026 118.639 375.144 120.286C376.28 121.267 376.772 122.639 377.469 123.894C377.94 124.739 378.24 125.646 378.122 126.902C377.672 126.67 377.319 126.596 377.126 126.374C375.915 125.002 374.405 123.873 373.655 122.122C373.483 121.721 373.022 121.425 372.647 121.14C372.347 120.908 371.833 120.866 371.662 120.581C370.505 118.629 368.544 117.553 366.872 116.139C366.144 115.526 365.608 114.682 365.008 113.923C364.322 113.047 363.476 112.424 362.319 112.414C361.312 112.403 360.369 112.319 359.565 111.643C359.49 111.58 359.394 111.485 359.319 111.496C357.637 111.77 356.158 110.852 354.605 110.715C352.858 110.556 351.165 110.24 349.473 109.881C349.387 109.86 349.28 109.733 349.215 109.754C347.737 110.261 346.269 110.873 344.758 109.839C343.248 110.187 341.748 110.546 340.226 110.873C339.573 111.01 338.898 111.105 338.223 111.137C336.873 111.189 335.705 111.675 334.88 112.677C333.905 113.87 332.726 114.64 331.205 114.83C330.358 114.936 329.791 115.347 329.223 115.917C327.508 117.626 325.762 119.294 324.037 120.982C323.769 121.246 323.533 121.562 323.362 121.89C322.344 123.947 321.358 126.015 320.351 128.084C320.308 128.168 320.244 128.253 320.233 128.348C319.966 130.236 319.473 132.136 319.537 134.014C319.569 135.08 319.591 136.072 319.333 137.095C319.216 137.56 318.969 138.056 319.044 138.499C319.494 141.221 319.708 143.986 320.63 146.614C320.758 146.972 321.058 147.289 321.091 147.648C321.337 150.349 322.933 152.438 324.326 154.623C325.151 155.91 326.116 157.113 327.251 158.696C326.405 158.611 325.826 158.728 325.548 158.495C324.594 157.683 323.598 156.86 322.901 155.847C321.873 154.338 321.144 152.649 320.212 151.077C319.28 149.515 318.284 147.996 317.951 146.202C317.523 146.139 317.223 146.012 316.955 146.065C313.955 146.635 311.244 147.89 308.705 149.526C308.319 149.779 308.041 150.222 307.741 150.592C307.194 151.257 306.637 151.921 306.144 152.628C305.501 153.567 304.634 154.412 304.655 155.678C304.655 155.857 304.559 156.058 304.462 156.216C303.144 158.453 302.555 160.796 303.326 163.371C303.423 163.708 303.262 164.12 303.209 164.5C303.166 164.785 303.037 165.069 303.048 165.354C303.059 166.389 304.259 167.127 303.776 168.32C303.391 169.28 303.701 170.177 304.194 171.074C304.462 171.549 304.451 172.182 304.58 172.741C304.644 173.015 304.676 173.374 304.859 173.543C305.684 174.313 306.809 174.841 306.851 176.17C307.848 176.677 308.244 177.722 308.973 178.471C309.38 178.882 309.851 179.262 310.366 179.526C311.651 180.191 312.991 180.782 314.298 181.426C315.509 182.016 316.634 182.861 317.909 183.188C319.441 183.589 320.898 184.528 322.708 183.705C323.587 183.304 324.819 183.61 325.88 183.705C327.187 183.831 328.408 183.768 329.598 182.85C329.019 181.658 328.537 180.412 327.851 179.283C326.48 177.025 325.805 174.577 325.419 172.023C325.366 171.665 325.376 171.665 326.319 171.126C326.941 172.414 327.712 173.648 328.141 174.999C329.083 177.933 330.776 180.486 332.137 183.209C332.512 183.958 333.241 184.517 333.744 185.203C335.169 187.134 336.948 188.759 338.469 190.606C339.476 191.83 340.987 192.695 342.369 193.582C343.987 194.616 345.658 195.576 347.383 196.41C348.101 196.758 349.087 196.526 349.858 196.811C350.555 197.064 351.069 197.877 351.765 198.045C352.665 198.267 353.673 198.098 354.99 198.098C355.365 198.351 355.998 199.027 356.758 199.238C357.551 199.449 358.472 199.122 359.33 199.174C360.562 199.259 361.88 198.763 363.026 199.628C363.219 199.776 363.637 199.85 363.83 199.744C365.747 198.773 368.158 199.438 369.915 197.877C370.29 197.539 371.008 197.539 371.576 197.476C373.44 197.275 375.197 196.874 376.515 195.376C376.815 195.038 377.329 194.837 377.779 194.711C378.412 194.531 378.787 194.225 378.958 193.592C379.183 192.759 379.815 192.358 380.629 192.136C382.065 191.746 383.394 191.229 384.133 189.793C384.337 189.403 384.862 189.16 385.226 188.844C385.526 188.591 385.976 188.379 386.072 188.063C386.994 185.182 389.758 183.715 391.344 181.362C391.547 181.056 391.644 180.666 391.762 180.307C392.008 179.537 392.469 178.956 393.208 178.597C394.108 178.872 394.108 179.653 393.937 180.254C393.337 182.333 393.476 184.718 391.558 186.29C390.99 187.81 389.951 188.844 388.462 189.561C387.894 189.836 387.326 190.448 387.122 191.028C386.512 192.769 385.237 193.888 383.801 194.901C383.651 195.006 383.587 195.217 383.49 195.376C384.208 196.093 384.915 196.832 385.654 197.539C386.308 198.151 387.026 198.615 388.001 198.278C388.944 197.961 389.694 198.267 390.412 198.89C390.765 199.196 391.279 199.597 391.654 199.533C394.172 199.122 396.594 200.304 399.101 199.924C401.094 199.618 403.129 199.544 405.09 198.974C406.011 198.7 407.126 198.858 407.929 198.425C411.519 196.494 415.633 195.661 418.933 193.17C420.09 192.294 421.301 191.482 422.415 190.564C423.39 189.762 424.343 189.023 425.479 188.401C426.797 187.683 428.008 186.638 428.886 185.319C429.122 184.961 429.615 184.771 430.161 184.37C430.472 185.963 429.015 186.438 428.608 187.44C428.222 188.379 427.418 189.171 426.711 189.973C425.972 190.817 425.136 191.587 424.29 192.442C425.672 192.949 426.818 193.392 427.986 193.772C428.436 193.919 428.929 194.004 429.411 194.014C430.868 194.046 432.347 193.898 433.74 194.5C436.461 194.13 439.086 195.418 441.818 194.975C442.097 194.932 442.461 195.112 442.665 194.996C443.575 194.458 444.422 194.035 445.622 194.152C446.629 194.247 447.7 193.761 448.718 193.466C449.168 193.339 449.554 193.012 449.993 192.822C450.797 192.495 451.697 192.326 452.404 191.872C453.122 191.408 453.722 190.88 454.6 190.564C455.811 190.131 456.872 189.266 457.986 188.601C457.793 188.274 457.729 188 457.6 187.968C456.861 187.767 455.886 187.852 455.393 187.409C453.84 185.995 451.793 185.488 450.111 184.359C449.811 184.159 449.661 183.758 449.425 183.452C449.136 183.072 448.922 182.502 448.547 182.365C446.929 181.805 446.318 180.381 445.311 179.231C444.379 178.154 443.329 177.173 442.536 175.97C442.108 175.326 442.118 174.725 442.558 173.912C443.04 174.144 443.683 174.239 443.983 174.619C446.308 177.584 449.565 179.389 452.661 181.362C455.436 183.135 458.554 184.348 461.736 185.203C463.75 185.752 465.893 185.942 468.025 185.9C469.772 185.868 471.529 186.047 473.264 185.689C473.929 185.551 474.636 185.499 475.214 185.203C475.889 184.866 476.468 184.813 477.164 185.066C477.518 185.193 478 185.298 478.3 185.161C478.986 184.834 479.554 184.285 480.239 183.958C480.829 183.673 481.514 184.338 482.189 183.789C483.754 182.523 485.897 182.143 487.247 180.529C487.364 180.391 487.568 180.275 487.75 180.233C489.561 179.874 490.396 178.334 491.414 177.12C492.379 175.959 492.85 174.45 494.039 173.395C494.35 173.121 494.35 172.509 494.457 172.034C494.629 171.285 494.564 170.409 494.95 169.797C496.204 167.771 496.354 165.46 496.846 163.244C496.964 162.706 496.954 162.104 496.889 161.556C496.718 160.015 496.675 158.485 497.189 157.134C496.643 155.161 495.4 153.567 495.357 151.573C495.346 151.235 495.068 150.845 494.8 150.581C493.686 149.494 492.818 148.27 492.1 146.909C491.907 146.529 491.457 146.17 491.05 146.033C489.904 145.653 489.122 144.862 488.2 144.155C486.679 142.994 484.836 142.245 483.132 141.327C482.832 141.158 482.532 140.989 482.254 140.841C482.361 140.578 482.404 140.451 482.425 140.451C484.514 140.694 486.657 140.609 488.564 141.844C489.507 142.456 490.707 142.678 491.693 143.036C492.379 142.699 492.475 142.192 492.314 141.749C491.896 140.557 492.411 139.28 491.736 138.077C491.221 137.169 491.093 136.04 489.936 135.607C489.85 135.576 489.754 135.502 489.711 135.428C489.057 134.468 488.554 133.37 487.739 132.579C486.936 131.798 485.789 131.387 484.879 130.701C484.504 130.416 484.279 129.983 483.7 130.004C483.432 130.015 483.025 129.92 482.918 129.73C481.825 127.904 480.068 128.031 478.3 128.115C477.829 128.136 477.164 128.305 476.897 128.063C475.643 126.955 474.282 127.567 472.975 127.735C471.443 127.925 469.932 128.337 468.4 128.537C467.361 128.675 466.568 129.139 465.861 129.825C464.961 133.138 464.929 136.789 462.004 139.311C461.404 138.784 461.34 138.172 461.543 137.475C461.897 136.272 462.261 135.08 462.572 133.866C463.247 131.239 463.568 128.601 463.193 125.878C463.011 124.57 462.979 123.24 462.754 121.921C462.261 119.04 460.707 116.782 458.972 114.566C458.447 113.901 458.104 113.036 457.461 112.551C455.768 111.274 454.043 109.987 452.158 109.005C450.55 108.172 448.729 107.823 446.843 107.887C445.108 107.95 443.361 107.823 441.615 107.834C440.865 107.834 440.104 107.961 439.172 108.045C439.483 109.438 439.74 110.63 440.008 111.823C440.415 113.595 440.875 115.358 441.218 117.141C441.4 118.08 441.604 119.104 441.4 120.001C440.875 122.312 441.55 124.813 440.275 126.997C440.136 127.229 439.954 127.44 439.804 127.651C439.075 127.588 439.172 126.976 438.979 126.606C438.797 126.269 438.625 125.889 438.604 125.52C438.497 124 438.529 122.459 438.336 120.95C438.122 119.357 438.24 117.742 437.79 116.149C437.404 114.788 437.5 113.289 437.243 111.875C437.072 110.957 436.847 109.902 436.258 109.248C435.561 108.478 435.122 107.676 434.94 106.747C434.576 104.9 433.3 103.507 432.54 101.861C432.283 101.302 431.576 100.954 431.093 100.489C430.022 99.4448 428.179 99.1494 427.89 97.3344C426.572 96.8595 425.993 95.8043 425.597 94.5802C425.522 94.3481 425.201 94.1792 424.965 93.9998C423.154 92.5964 421.397 91.1402 419.051 90.5387C417.979 90.2643 416.993 89.4729 416.093 88.7659C415.226 88.0905 414.39 87.584 413.233 87.4996C412.076 87.4258 410.919 87.1831 410.008 86.3178C409.751 86.0751 409.322 85.8851 408.958 85.864C407.019 85.7479 405.144 85.252 403.151 85.2731C401.415 85.2836 399.701 86.0223 397.954 85.4947C396.315 84.9987 394.665 85.3786 393.026 85.4103C392.158 85.4208 391.354 85.4208 390.562 86.054C390.037 86.4655 389.072 86.2861 388.354 86.5288C386.265 87.2569 384.165 87.985 382.14 88.882C380.822 89.4729 379.515 90.2221 378.422 91.1507C377.383 92.0371 376.451 92.9657 375.069 93.3245C374.737 93.4089 374.415 93.7677 374.212 94.0737C373.494 95.1395 372.583 95.9203 371.405 96.5218C370.772 96.8489 370.344 97.6087 369.915 98.2313C369.433 98.9383 369.197 99.8669 368.597 100.447C366.058 102.874 365.126 106.146 363.68 109.153C363.583 109.332 363.626 109.543 363.605 109.797Z" fill="url(#paint3_linear_2411_1632)"/>
<g clip-path="url(#clip1_2411_1632)">
<g clip-path="url(#clip2_2411_1632)">
<path fill-rule="evenodd" clip-rule="evenodd" d="M237.913 406.347C340.653 442.221 371.52 411.432 390.996 384.236C410.471 357.04 416.373 293.637 372.466 265.839C298.439 218.972 350.194 169.38 313.429 119.892C149.84 -100.33 -161.299 266.96 237.913 406.347Z" fill="url(#paint4_linear_2411_1632)"/>
<path fill-rule="evenodd" clip-rule="evenodd" d="M341.873 155.718C341.873 155.718 342.836 200.469 350.452 216.525C358.068 232.581 368.293 247.131 383.657 254.312C399.021 261.493 409.869 257.002 421.093 237.638C432.317 218.275 415.645 199.126 397.27 188.906C378.894 178.686 377.862 167.74 367.253 156.848C353.484 142.713 341.863 147.928 341.873 155.718Z" fill="url(#paint5_linear_2411_1632)"/>
<g clip-path="url(#clip3_2411_1632)">
<path d="M67.3499 243.71C62.6841 241.006 61.0847 235.016 63.7845 230.359C66.4843 225.701 72.4765 224.112 77.1423 226.816L149.279 268.629L149.448 269.774C150.105 274.24 151.024 278.695 152.178 283.017C152.714 285.023 153.321 287.07 153.983 289.1L155.921 295.048L67.3505 243.709L67.3499 243.71Z" fill="#E9FFFF"/>
<path d="M147.077 270.119C147.747 274.671 148.676 279.191 149.862 283.631C150.418 285.715 151.033 287.785 151.703 289.839L68.55 241.64C65.0221 239.595 63.8171 235.083 65.8585 231.561C67.8999 228.039 72.4144 226.842 75.9423 228.887L147.077 270.119ZM151.48 267.139L149.476 265.978L78.3424 224.746C72.5332 221.379 65.0721 223.357 61.7106 229.156C58.3492 234.956 60.3407 242.413 66.1499 245.781L149.303 293.979L160.136 300.258L156.261 288.363C155.613 286.373 155.018 284.368 154.493 282.403C153.363 278.17 152.462 273.804 151.819 269.429L151.48 267.139Z" fill="#336B6C"/>
<path d="M101.427 225.755C96.7613 223.05 95.1618 217.061 97.8616 212.403C100.561 207.745 106.554 206.156 111.219 208.861L150.142 231.422L149.861 233.064C149.564 234.802 149.306 236.536 149.095 238.217C148.66 241.699 148.378 245.27 148.261 248.829L148.129 252.823L101.428 225.754L101.427 225.755Z" fill="#E7EFBD"/>
<path d="M147.5 232.656C147.201 234.406 146.939 236.16 146.718 237.917C146.269 241.504 145.987 245.122 145.867 248.748L102.628 223.685C99.1004 221.64 97.8954 217.128 99.9368 213.606C101.978 210.084 106.493 208.887 110.021 210.932L147.5 232.656ZM152.786 230.188L149.9 228.516L112.42 206.79C106.61 203.423 99.1492 205.402 95.7878 211.201C92.4264 217 94.4179 224.458 100.227 227.825L143.466 252.888L150.39 256.902L150.655 248.913C150.77 245.425 151.046 241.929 151.472 238.519C151.678 236.872 151.931 235.174 152.222 233.471L152.786 230.188Z" fill="#336B6C"/>
<path d="M77.6909 174.289C73.0252 171.584 71.4258 165.595 74.1255 160.937C76.8253 156.279 82.8176 154.69 87.4833 157.395L160.831 199.91L159.862 201.909C157.741 206.286 155.881 210.826 154.332 215.401L153.395 218.169L77.6909 174.289Z" fill="#E9FFFF"/>
<path d="M157.705 200.864C155.535 205.343 153.648 209.948 152.061 214.631L78.8911 172.218C75.3632 170.173 74.1582 165.661 76.1996 162.139C78.2409 158.617 82.7555 157.42 86.2834 159.465L157.705 200.864ZM163.956 198.955L160.104 196.722L88.6835 155.324C82.8743 151.957 75.4131 153.936 72.0517 159.735C68.6903 165.534 70.6818 172.992 76.491 176.359L149.661 218.771L154.726 221.707L156.601 216.17C158.119 211.689 159.942 207.242 162.018 202.954L163.956 198.955Z" fill="#336B6C"/>
<path d="M122.958 162.819C118.293 160.115 116.693 154.125 119.393 149.468C122.093 144.81 128.085 143.221 132.751 145.925L179.547 173.051L177.611 175.24C174.411 178.858 171.396 182.728 168.652 186.744L167.399 188.579L122.958 162.819Z" fill="#E7EFBD"/>
<path d="M175.814 173.652C172.538 177.356 169.48 181.283 166.673 185.392L124.158 160.749C120.631 158.704 119.426 154.192 121.467 150.67C123.508 147.148 128.023 145.951 131.551 147.996L175.814 173.652ZM183.28 172.448L178.215 169.512L133.951 143.855C128.142 140.488 120.68 142.466 117.319 148.266C113.958 154.065 115.949 161.522 121.758 164.89L164.273 189.533L168.125 191.765L170.632 188.096C173.32 184.163 176.273 180.371 179.407 176.827L183.28 172.448Z" fill="#336B6C"/>
<path d="M122.533 124.865C117.867 122.161 116.268 116.171 118.968 111.513C121.668 106.856 127.66 105.267 132.326 107.971L207.001 151.256L203.601 153.356C200.57 155.228 197.612 157.246 194.806 159.355C193.452 160.373 192.076 161.459 190.715 162.581L189.43 163.641L122.533 124.865Z" fill="#E9FFFF"/>
<path d="M202.339 151.319C199.252 153.226 196.254 155.269 193.364 157.441C191.949 158.506 190.556 159.605 189.188 160.734L123.733 122.795C120.205 120.75 119 116.237 121.042 112.716C123.083 109.194 127.598 107.997 131.126 110.041L202.339 151.319ZM211.664 151.193L204.74 147.179L133.526 105.901C127.717 102.533 120.255 104.512 116.894 110.311C113.533 116.11 115.524 123.568 121.333 126.935L186.787 164.875L189.673 166.548L192.242 164.429C193.574 163.329 194.923 162.266 196.249 161.269C198.996 159.205 201.893 157.227 204.862 155.394L211.664 151.193Z" fill="#336B6C"/>
<path d="M184.585 123.125C179.919 120.42 178.32 114.431 181.019 109.773C183.719 105.115 189.711 103.526 194.377 106.231L247.512 137.03L241.388 138.305C239.296 138.74 237.219 139.23 235.212 139.762C230.887 140.909 226.565 142.327 222.364 143.975L221.287 144.397L184.585 123.124L184.585 123.125Z" fill="#E7EFBD"/>
<path d="M240.896 135.961C238.782 136.401 236.679 136.896 234.595 137.449C230.153 138.626 225.769 140.066 221.486 141.748L185.785 121.054C182.257 119.01 181.052 114.497 183.093 110.975C185.135 107.453 189.649 106.256 193.177 108.301L240.896 135.961ZM254.128 138.099L243.295 131.82L195.577 104.161C189.768 100.793 182.307 102.772 178.946 108.571C175.584 114.37 177.576 121.828 183.385 125.195L219.084 145.888L221.089 147.05L223.243 146.204C227.359 144.588 231.594 143.199 235.83 142.076C237.797 141.555 239.832 141.075 241.879 140.648L254.128 138.099Z" fill="#336B6C"/>
<path d="M201.756 344.488C190.7 338.079 180.935 329.94 172.73 320.295C164.802 310.975 158.498 300.454 153.992 289.026C151.964 283.88 150.305 278.542 149.062 273.158C147.338 265.691 146.385 258.031 146.227 250.39C146.11 244.77 146.427 239.094 147.167 233.522C148.007 227.193 149.41 220.897 151.335 214.809C152.859 209.989 154.738 205.22 156.92 200.633C158.229 197.883 159.661 195.161 161.179 192.542C162.697 189.923 164.347 187.327 166.084 184.825C168.98 180.653 172.184 176.651 175.608 172.932C179.933 168.236 184.699 163.889 189.774 160.015C194.241 156.603 199.01 153.507 203.945 150.815C210.653 147.155 217.773 144.176 225.11 141.959C230.399 140.362 235.856 139.147 241.33 138.35C253.486 136.58 265.748 136.821 277.777 139.068C290.222 141.393 302.14 145.822 313.195 152.23C326.089 159.704 337.157 169.464 346.089 181.235C354.236 191.972 360.3 203.962 364.133 216.903L394.164 208.939C398.151 207.882 402.237 207.638 406.308 208.214C410.23 208.77 413.963 210.062 417.397 212.053C420.833 214.045 423.808 216.64 426.24 219.768C428.763 223.014 430.583 226.681 431.647 230.666C432.711 234.651 432.962 238.733 432.391 242.801C431.84 246.72 430.553 250.446 428.566 253.875C426.577 257.305 423.984 260.273 420.857 262.698C417.611 265.216 413.945 267.027 409.958 268.084L364.127 280.238C361.64 288.557 358.158 296.603 353.771 304.172C346.249 317.148 336.406 328.263 324.513 337.204C313.029 345.84 300.126 352.095 286.167 355.797C272.207 359.499 257.892 360.461 243.618 358.656C228.838 356.79 214.754 352.022 201.756 344.488Z" fill="#E9FFFF"/>
<path d="M416.196 214.125C419.363 215.961 422.106 218.354 424.347 221.238C426.673 224.229 428.349 227.609 429.33 231.283C430.311 234.957 430.542 238.719 430.015 242.467C429.507 246.08 428.322 249.515 426.489 252.676C424.657 255.838 422.267 258.574 419.383 260.809C416.393 263.129 413.012 264.798 409.338 265.774L374.139 275.107L368.225 276.676L362.204 278.272C359.79 286.726 356.304 295.021 351.695 302.974C321.584 354.92 254.99 372.58 202.954 342.418C180.838 329.598 164.913 310.204 156.22 288.152C154.228 283.1 152.615 277.909 151.395 272.624C149.712 265.331 148.776 257.865 148.621 250.344C148.507 244.854 148.811 239.337 149.542 233.84C150.358 227.69 151.712 221.566 153.62 215.534C155.103 210.844 156.922 206.209 159.084 201.663C160.354 198.991 161.742 196.349 163.252 193.743C164.762 191.138 166.365 188.621 168.052 186.19C170.923 182.055 174.039 178.174 177.373 174.555C181.659 169.901 186.3 165.683 191.231 161.917C195.638 158.551 200.275 155.546 205.095 152.915C211.697 149.313 218.643 146.414 225.806 144.251C230.997 142.682 236.304 141.501 241.678 140.719C265.134 137.302 289.878 141.481 311.994 154.3C337.804 169.26 355.183 193.176 362.473 219.822L367.678 218.441L372.882 217.061L394.779 211.255C398.455 210.28 402.22 210.055 405.972 210.587C409.589 211.098 413.029 212.29 416.196 214.125ZM418.596 209.985C414.892 207.838 410.869 206.445 406.639 205.847C402.249 205.225 397.843 205.488 393.544 206.628L371.647 212.434L366.442 213.814L365.743 213.999C364.031 208.634 361.918 203.384 359.441 198.343C356.233 191.814 352.382 185.572 347.996 179.791C343.528 173.901 338.456 168.429 332.922 163.523C327.247 158.493 321.014 153.996 314.395 150.16C303.103 143.615 290.929 139.091 278.214 136.716C265.927 134.42 253.399 134.173 240.982 135.982C235.391 136.796 229.817 138.037 224.414 139.669C216.921 141.933 209.647 144.976 202.794 148.714C197.752 151.464 192.882 154.627 188.318 158.114C183.133 162.074 178.264 166.513 173.845 171.312C170.347 175.111 167.073 179.198 164.115 183.461C162.342 186.017 160.657 188.668 159.107 191.342C157.556 194.017 156.094 196.796 154.757 199.605C152.528 204.291 150.61 209.164 149.052 214.087C147.084 220.305 145.652 226.738 144.792 233.205C144.035 238.898 143.713 244.697 143.831 250.438C143.992 258.242 144.967 266.067 146.728 273.695C147.996 279.193 149.691 284.646 151.763 289.903C156.365 301.577 162.806 312.326 170.905 321.847C179.286 331.699 189.262 340.015 200.554 346.56C207.225 350.427 214.284 353.621 221.531 356.053C228.597 358.425 235.927 360.101 243.319 361.035C250.575 361.953 257.964 362.165 265.279 361.667C272.523 361.173 279.758 359.978 286.783 358.115C293.809 356.252 300.683 353.705 307.216 350.546C313.811 347.355 320.116 343.512 325.956 339.121C331.904 334.649 337.428 329.562 342.377 324.006C347.454 318.305 351.984 312.039 355.845 305.379C360.1 298.038 363.522 290.257 366.03 282.215L369.462 281.305L375.376 279.737L410.575 270.404C414.874 269.264 418.828 267.31 422.327 264.596C425.699 261.981 428.496 258.78 430.639 255.083C432.782 251.385 434.17 247.368 434.762 243.142C435.378 238.757 435.109 234.354 433.961 230.058C432.814 225.761 430.852 221.807 428.13 218.307C425.508 214.93 422.3 212.132 418.596 209.985Z" fill="#336B6C"/>
<path d="M224.934 294.577C219.353 291.342 215.364 286.131 213.7 279.903L195.027 209.977C194.382 207.561 194.317 204.998 194.84 202.569C196.099 196.718 200.476 192.128 206.262 190.594C206.512 190.528 206.768 190.468 207.025 190.412C210.878 189.589 214.88 190.227 218.297 192.207C221.964 194.333 224.586 197.757 225.679 201.849L242.396 264.45L397.968 223.195C402.061 222.109 406.336 222.682 410.003 224.808C413.67 226.933 416.291 230.358 417.384 234.449C419.64 242.896 414.599 251.591 406.148 253.833L243.248 297.032C237.02 298.685 230.515 297.812 224.934 294.577Z" fill="#75BFC0"/>
<path d="M408.463 224.856C411.476 226.533 413.85 229.357 414.871 232.931C416.914 240.079 412.773 247.519 405.622 249.55L376.884 257.71L371.353 259.281L365.786 260.862L243.5 295.585C237.915 297.171 232.044 296.488 226.966 293.662C221.889 290.836 218.213 286.205 216.618 280.624L196.728 211.034C196.122 208.916 196.06 206.772 196.458 204.751C197.403 199.952 200.945 195.844 205.977 194.415C206.192 194.354 206.408 194.298 206.623 194.249C209.989 193.468 213.385 194.03 216.217 195.606C219.229 197.283 221.604 200.107 222.625 203.68L241.09 268.283L365.199 233.042L370.428 231.557L375.636 230.078L398.222 223.665C401.799 222.65 405.45 223.18 408.463 224.856ZM410.79 220.674C406.526 218.301 401.596 217.728 396.907 219.06L374.32 225.475L369.112 226.953L363.883 228.438L244.384 262.371L227.235 202.373C225.895 197.685 222.809 193.798 218.546 191.425C214.574 189.215 209.953 188.561 205.536 189.586C205.241 189.654 204.947 189.729 204.663 189.811C201.368 190.747 198.417 192.579 196.129 195.108C193.908 197.563 192.397 200.577 191.757 203.821C191.204 206.629 191.33 209.577 192.121 212.344L212.011 281.934C213.959 288.747 218.443 294.397 224.64 297.846C230.836 301.295 238.002 302.128 244.818 300.193L367.104 265.469L372.671 263.888L378.201 262.318L406.94 254.157C411.63 252.826 415.517 249.748 417.885 245.493C420.254 241.236 420.821 236.312 419.48 231.625C418.139 226.934 415.053 223.047 410.79 220.674Z" fill="#336B6C"/>
</g>
</g>
</g>
</g>
<defs>
<linearGradient id="paint0_linear_2411_1632" x1="188.5" y1="775.722" x2="-197.709" y2="513.925" gradientUnits="userSpaceOnUse">
<stop stop-color="#003F69"/>
<stop offset="1" stop-color="#2D6285"/>
</linearGradient>
<linearGradient id="paint1_linear_2411_1632" x1="-31.3622" y1="-18.4829" x2="-31.3622" y2="96.2757" gradientUnits="userSpaceOnUse">
<stop stop-color="#E0E0E0"/>
<stop offset="1" stop-color="white" stop-opacity="0"/>
</linearGradient>
<linearGradient id="paint2_linear_2411_1632" x1="268.776" y1="-56" x2="268.776" y2="32.2759" gradientUnits="userSpaceOnUse">
<stop stop-color="#E0E0E0"/>
<stop offset="1" stop-color="white" stop-opacity="0"/>
</linearGradient>
<linearGradient id="paint3_linear_2411_1632" x1="400.086" y1="85.2415" x2="400.086" y2="200" gradientUnits="userSpaceOnUse">
<stop stop-color="#E0E0E0"/>
<stop offset="1" stop-color="white" stop-opacity="0"/>
</linearGradient>
<linearGradient id="paint4_linear_2411_1632" x1="316.752" y1="103.056" x2="160.791" y2="372.123" gradientUnits="userSpaceOnUse">
<stop stop-color="white"/>
<stop offset="0.697917" stop-color="#F5FFFF"/>
<stop offset="1" stop-color="#DEFEFF"/>
</linearGradient>
<linearGradient id="paint5_linear_2411_1632" x1="395.485" y1="171.512" x2="356.491" y2="238.785" gradientUnits="userSpaceOnUse">
<stop stop-color="white"/>
<stop offset="0.697917" stop-color="#F5FFFF"/>
<stop offset="1" stop-color="#DEFEFF"/>
</linearGradient>
<clipPath id="clip0_2411_1632">
<rect width="360" height="800" fill="white"/>
</clipPath>
<clipPath id="clip1_2411_1632">
<rect width="360" height="440" fill="white"/>
</clipPath>
<clipPath id="clip2_2411_1632">
<rect width="411" height="311" fill="white" transform="translate(138.961) rotate(30.0982)"/>
</clipPath>
<clipPath id="clip3_2411_1632">
<rect width="366.568" height="229.148" fill="white" transform="translate(137.401 46.9932) rotate(30.0982)"/>
</clipPath>
</defs>
</svg>
