<svg width="100" height="52" viewBox="0 0 100 52" fill="none" xmlns="http://www.w3.org/2000/svg">
<rect width="100" height="52" rx="26" fill="url(#paint0_linear_819_2224)"/>
<path d="M44.3407 26.8333H53.649L49.5823 30.8999C49.2573 31.2249 49.2573 31.7583 49.5823 32.0833C49.9073 32.4083 50.4323 32.4083 50.7573 32.0833L56.249 26.5916C56.574 26.2666 56.574 25.7416 56.249 25.4166L50.7657 19.9166C50.4407 19.5916 49.9157 19.5916 49.5907 19.9166C49.2657 20.2416 49.2657 20.7666 49.5907 21.0916L53.649 25.1666H44.3407C43.8823 25.1666 43.5073 25.5416 43.5073 25.9999C43.5073 26.4583 43.8823 26.8333 44.3407 26.8333Z" fill="#474747"/>
<defs>
<linearGradient id="paint0_linear_819_2224" x1="50" y1="0" x2="50" y2="52" gradientUnits="userSpaceOnUse">
<stop stop-color="#FFD77F"/>
<stop offset="1" stop-color="#FF9F43"/>
</linearGradient>
</defs>
</svg>
