<svg width="20" height="20" viewBox="0 0 20 20" fill="none" xmlns="http://www.w3.org/2000/svg">
<g clip-path="url(#clip0_274_1563)">
<path d="M19.4141 2.34375H16.3864C16.1141 1.00812 14.9305 0 13.5156 0C12.1008 0 10.9171 1.00812 10.6449 2.34375H0.585938C0.262344 2.34375 0 2.60609 0 2.92969C0 3.25328 0.262344 3.51562 0.585938 3.51562H10.6449C10.9171 4.85125 12.1008 5.85938 13.5156 5.85938C14.9305 5.85938 16.1141 4.85125 16.3864 3.51562H19.4141C19.7377 3.51562 20 3.25328 20 2.92969C20 2.60609 19.7377 2.34375 19.4141 2.34375ZM13.5156 4.6875C12.5465 4.6875 11.7581 3.89922 11.7578 2.9302C11.7578 2.93004 11.7579 2.92988 11.7579 2.92969C11.7579 2.92949 11.7578 2.92934 11.7578 2.92918C11.7581 1.96016 12.5465 1.17188 13.5156 1.17188C14.4849 1.17188 15.2734 1.96043 15.2734 2.92969C15.2734 3.89895 14.4849 4.6875 13.5156 4.6875Z" fill="#333333"/>
<path d="M19.4141 9.41406H9.35512C9.08293 8.07844 7.89922 7.07031 6.48438 7.07031C5.06953 7.07031 3.88586 8.07844 3.61363 9.41406H0.585938C0.262344 9.41406 0 9.67641 0 10C0 10.3236 0.262344 10.5859 0.585938 10.5859H3.61363C3.88582 11.9216 5.06953 12.9297 6.48438 12.9297C7.89922 12.9297 9.08289 11.9216 9.35512 10.5859H19.4141C19.7377 10.5859 20 10.3236 20 10C20 9.67641 19.7377 9.41406 19.4141 9.41406ZM6.48438 11.7578C5.51527 11.7578 4.72684 10.9695 4.72656 10.0005C4.72656 10.0004 4.7266 10.0002 4.7266 10C4.7266 9.9998 4.72656 9.99965 4.72656 9.99949C4.72684 9.03047 5.51527 8.24219 6.48438 8.24219C7.45363 8.24219 8.24219 9.03074 8.24219 10C8.24219 10.9693 7.45363 11.7578 6.48438 11.7578Z" fill="#333333"/>
<path d="M19.4141 16.4844H16.3864C16.1142 15.1487 14.9305 14.1406 13.5156 14.1406C12.1008 14.1406 10.9171 15.1487 10.6449 16.4844H0.585938C0.262344 16.4844 0 16.7467 0 17.0703C0 17.3939 0.262344 17.6562 0.585938 17.6562H10.6449C10.9171 18.9919 12.1008 20 13.5156 20C14.9305 20 16.1141 18.9919 16.3864 17.6562H19.4141C19.7377 17.6562 20 17.3939 20 17.0703C20 16.7467 19.7377 16.4844 19.4141 16.4844ZM13.5156 18.8281C12.5465 18.8281 11.7581 18.0398 11.7578 17.0708C11.7578 17.0707 11.7579 17.0705 11.7579 17.0703C11.7579 17.0701 11.7578 17.07 11.7578 17.0698C11.7581 16.1008 12.5465 15.3125 13.5156 15.3125C14.4849 15.3125 15.2734 16.1011 15.2734 17.0703C15.2734 18.0396 14.4849 18.8281 13.5156 18.8281Z" fill="#333333"/>
</g>
<defs>
<clipPath id="clip0_274_1563">
<rect width="20" height="20" fill="white"/>
</clipPath>
</defs>
</svg>
