<svg width="360" height="146" viewBox="0 0 360 146" fill="none" xmlns="http://www.w3.org/2000/svg">
<g clip-path="url(#clip0_274_1423)">
<mask id="mask0_274_1423" style="mask-type:luminance" maskUnits="userSpaceOnUse" x="332" y="0" width="58" height="145">
<path d="M389.683 0H332.131V144.952H389.683V0Z" fill="white"/>
</mask>
<g mask="url(#mask0_274_1423)">
<path d="M359.806 42.0436C367.124 41.3733 373.325 47.2404 373.325 54.677V82.5356H348.487V54.9849C348.487 48.5054 353.092 42.9558 359.203 42.1098L359.798 42.0436H359.806ZM360.683 52.0138L360.665 52.0164C359.162 52.1554 358.328 53.5638 358.328 54.738V72.5119H363.484V54.6134C363.483 53.2358 362.41 52.0469 360.974 52.0062L360.683 52.0138Z" stroke="#E5E5E5" stroke-width="1.5"/>
<path d="M360.36 108.11L353.408 115.173L346.453 108.11L353.408 101.045L360.36 108.11Z" stroke="#E5E5E5" stroke-width="1.5"/>
<path d="M356.87 37.3108C353.638 38.0663 350.755 39.726 348.461 42.0568C345.301 45.2654 343.331 49.7403 343.331 54.6748V133.564H348.486V118.331H358.327V133.625H363.485V103.1H388.323V143.651H333.428V54.6748C333.429 43.5113 339.871 33.8662 349.155 29.4283L356.87 37.3108ZM376.196 113.129C374.704 113.003 373.388 114.226 373.388 115.729V133.625H378.543V115.851C378.542 114.658 377.782 113.428 376.474 113.167L376.206 113.129H376.196ZM372.653 29.4257C375.518 30.7637 378.101 32.6309 380.347 34.9125C385.296 39.9393 388.384 46.9186 388.384 54.6748V97.8301H348.486V87.8064H378.543V54.6748C378.542 46.1889 372.762 39.0951 364.947 37.2524L372.653 29.4257Z" stroke="#E5E5E5" stroke-width="1.5"/>
<path d="M367.859 26.8105L360.907 33.8732L353.952 26.8105L360.907 19.7452L367.859 26.8105Z" stroke="#E5E5E5" stroke-width="1.5"/>
<path d="M367.862 8.97528L360.907 16.038L353.947 8.91928L360.902 1.85657L367.862 8.97528Z" stroke="#E5E5E5" stroke-width="1.5"/>
</g>
<mask id="mask1_274_1423" style="mask-type:luminance" maskUnits="userSpaceOnUse" x="271" y="0" width="59" height="145">
<path d="M271.15 0H329.535V144.952H271.15V0Z" fill="white"/>
</mask>
<g mask="url(#mask1_274_1423)">
<path d="M301.464 42.0418C294.008 41.3681 287.725 47.2579 287.725 54.6753V82.5339H312.961V54.9832C312.96 48.519 308.297 42.9561 302.075 42.108L301.469 42.0418H301.464ZM300.565 52.0121L300.582 52.0147C302.083 52.151 302.939 53.5453 302.939 54.7363V72.5102H297.746V54.6116C297.747 53.216 298.844 52.0452 300.275 52.0045L300.565 52.0121Z" stroke="#E5E5E5" stroke-width="1.5"/>
<path d="M300.884 108.109L307.95 115.185L315.019 108.109L307.95 101.032L300.884 108.109Z" stroke="#E5E5E5" stroke-width="1.5"/>
<path d="M304.426 37.3077C307.7 38.0609 310.62 39.7185 312.947 42.0483C316.15 45.2556 318.153 49.7333 318.153 54.6741V133.563H312.962V118.33H302.938V133.624H297.745V103.1H272.509V143.65H328.238V54.6741C328.237 43.5122 321.696 33.8603 312.255 29.4227L304.426 37.3077ZM284.834 113.129C286.316 113.005 287.663 114.206 287.663 115.728V133.624H282.469V115.85C282.47 114.642 283.249 113.425 284.555 113.167L284.824 113.129H284.834ZM288.431 29.42C285.513 30.7599 282.886 32.6302 280.601 34.9169C275.579 39.9451 272.448 46.9236 272.448 54.6741V97.8294H312.962V87.8057H282.469V54.6741C282.47 46.1728 288.343 39.0899 296.255 37.2516L288.431 29.42Z" stroke="#E5E5E5" stroke-width="1.5"/>
<path d="M293.277 26.8095L300.343 33.8851L307.412 26.8095L300.343 19.7316L293.277 26.8095Z" stroke="#E5E5E5" stroke-width="1.5"/>
<path d="M293.271 8.97434L300.34 16.0498L307.414 8.91834L300.348 1.8429L293.271 8.97434Z" stroke="#E5E5E5" stroke-width="1.5"/>
</g>
<mask id="mask2_274_1423" style="mask-type:luminance" maskUnits="userSpaceOnUse" x="211" y="0" width="58" height="145">
<path d="M268.554 0H211.002V144.952H268.554V0Z" fill="white"/>
</mask>
<g mask="url(#mask2_274_1423)">
<path d="M238.679 42.0436C245.995 41.3733 252.197 47.2404 252.197 54.677V82.5356H227.358V54.9849C227.361 48.5054 231.965 42.9558 238.074 42.1098L238.671 42.0436H238.679ZM239.556 52.0138L239.538 52.0164C238.035 52.1554 237.2 53.5638 237.2 54.738V72.5119H242.356V54.6134C242.356 53.2358 241.282 52.0469 239.847 52.0062L239.556 52.0138Z" stroke="#E5E5E5" stroke-width="1.5"/>
<path d="M239.232 108.11L232.279 115.173L225.326 108.11L232.279 101.045L239.232 108.11Z" stroke="#E5E5E5" stroke-width="1.5"/>
<path d="M235.741 37.3108C232.51 38.0663 229.627 39.726 227.332 42.0568C224.174 45.2654 222.204 49.7403 222.204 54.6748V133.564H227.358V118.331H237.2V133.625H242.357V103.1H267.196V143.651H212.3V54.6748C212.3 43.5113 218.744 33.8662 228.028 29.4283L235.741 37.3108ZM255.068 113.129C253.576 113.003 252.26 114.226 252.26 115.729V133.625H257.415V115.851C257.415 114.658 256.655 113.428 255.347 113.167L255.078 113.129H255.068ZM251.525 29.4257C254.39 30.7637 256.973 32.6309 259.22 34.9125C264.168 39.9393 267.256 46.9186 267.256 54.6748V97.8301H227.358V87.8064H257.415V54.6748C257.415 46.1889 251.634 39.0951 243.821 37.2524L251.525 29.4257Z" stroke="#E5E5E5" stroke-width="1.5"/>
<path d="M246.729 26.8105L239.779 33.8732L232.824 26.8105L239.779 19.7452L246.729 26.8105Z" stroke="#E5E5E5" stroke-width="1.5"/>
<path d="M246.733 8.97528L239.78 16.038L232.819 8.91928L239.775 1.85657L246.733 8.97528Z" stroke="#E5E5E5" stroke-width="1.5"/>
</g>
<mask id="mask3_274_1423" style="mask-type:luminance" maskUnits="userSpaceOnUse" x="150" y="0" width="59" height="145">
<path d="M208.407 0H150.855V144.952H208.407V0Z" fill="white"/>
</mask>
<g mask="url(#mask3_274_1423)">
<path d="M178.532 42.0436C185.848 41.3733 192.051 47.2404 192.051 54.677V82.5356H167.211V54.9849C167.211 48.5054 171.818 42.9558 177.927 42.1098L178.524 42.0436H178.532ZM179.409 52.0138L179.391 52.0164C177.888 52.1554 177.053 53.5638 177.053 54.738V72.5119H182.21V54.6134C182.207 53.2358 181.135 52.0469 179.7 52.0062L179.409 52.0138Z" stroke="#E5E5E5" stroke-width="1.5"/>
<path d="M179.085 108.11L172.132 115.173L165.179 108.11L172.132 101.045L179.085 108.11Z" stroke="#E5E5E5" stroke-width="1.5"/>
<path d="M175.594 37.3108C172.363 38.0663 169.479 39.726 167.185 42.0568C164.027 45.2654 162.057 49.7403 162.057 54.6748V133.564H167.211V118.331H177.053V133.625H182.21V103.1H207.047V143.651H152.153V54.6748C152.153 43.5113 158.597 33.8662 167.881 29.4283L175.594 37.3108ZM194.922 113.129C193.429 113.003 192.113 114.226 192.113 115.729V133.625H197.268V115.851C197.268 114.658 196.507 113.428 195.199 113.167L194.932 113.129H194.922ZM191.376 29.4257C194.242 30.7637 196.827 32.6309 199.072 34.9125C204.021 39.9393 207.109 46.9186 207.109 54.6748V97.8301H167.211V87.8064H197.268V54.6748C197.268 46.1889 191.485 39.0951 183.673 37.2524L191.376 29.4257Z" stroke="#E5E5E5" stroke-width="1.5"/>
<path d="M186.583 26.8105L179.632 33.8732L172.677 26.8105L179.632 19.7452L186.583 26.8105Z" stroke="#E5E5E5" stroke-width="1.5"/>
<path d="M186.585 8.97528L179.633 16.038L172.672 8.91928L179.627 1.85657L186.585 8.97528Z" stroke="#E5E5E5" stroke-width="1.5"/>
</g>
<mask id="mask4_274_1423" style="mask-type:luminance" maskUnits="userSpaceOnUse" x="90" y="0" width="59" height="145">
<path d="M148.26 0H90.708V144.952H148.26V0Z" fill="white"/>
</mask>
<g mask="url(#mask4_274_1423)">
<path d="M118.385 42.0436C125.704 41.3733 131.904 47.2404 131.904 54.677V82.5356H107.067V54.9849C107.067 48.5054 111.671 42.9558 117.78 42.1098L118.377 42.0436H118.385ZM119.262 52.0138L119.244 52.0164C117.741 52.1554 116.908 53.5638 116.908 54.738V72.5119H122.062V54.6134C122.062 53.2358 120.988 52.0469 119.553 52.0062L119.262 52.0138Z" stroke="#E5E5E5" stroke-width="1.5"/>
<path d="M118.938 108.11L111.987 115.173L105.032 108.11L111.987 101.045L118.938 108.11Z" stroke="#E5E5E5" stroke-width="1.5"/>
<path d="M115.449 37.3108C112.216 38.0663 109.332 39.726 107.038 42.0568C103.879 45.2654 101.91 49.7403 101.91 54.6748V133.564H107.064V118.331H116.905V133.625H122.062V103.1H146.902V143.651H92.0057V54.6748C92.0057 43.5113 98.4499 33.8662 107.733 29.4283L115.449 37.3108ZM134.774 113.129C133.282 113.003 131.966 114.226 131.966 115.729V133.625H137.121V115.851C137.121 114.658 136.36 113.428 135.052 113.167L134.785 113.129H134.774ZM131.232 29.4257C134.097 30.7637 136.679 32.6309 138.924 34.9125C143.874 39.9393 146.962 46.9186 146.962 54.6748V97.8301H107.064V87.8064H137.121V54.6748C137.121 46.1889 131.341 39.0951 123.526 37.2524L131.232 29.4257Z" stroke="#E5E5E5" stroke-width="1.5"/>
<path d="M126.438 26.8105L119.485 33.8732L112.53 26.8105L119.485 19.7452L126.438 26.8105Z" stroke="#E5E5E5" stroke-width="1.5"/>
<path d="M126.441 8.97528L119.485 16.038L112.524 8.91928L119.48 1.85657L126.441 8.97528Z" stroke="#E5E5E5" stroke-width="1.5"/>
</g>
<mask id="mask5_274_1423" style="mask-type:luminance" maskUnits="userSpaceOnUse" x="30" y="0" width="59" height="145">
<path d="M88.1127 0H30.5608V144.952H88.1127V0Z" fill="white"/>
</mask>
<g mask="url(#mask5_274_1423)">
<path d="M58.2377 42.0436C65.5565 41.3733 71.7568 47.2404 71.7568 54.677V82.5356H46.9168V54.9849C46.9194 48.5054 51.5235 42.9558 57.6329 42.1098L58.2299 42.0436H58.2377ZM59.1149 52.0138L59.0967 52.0164C57.594 52.1554 56.7583 53.5638 56.7583 54.738V72.5119H61.9153V54.6134C61.9153 53.2358 60.8408 52.0469 59.4056 52.0062L59.1149 52.0138Z" stroke="#E5E5E5" stroke-width="1.5"/>
<path d="M58.7905 108.11L51.8376 115.173L44.8846 108.11L51.8376 101.045L58.7905 108.11Z" stroke="#E5E5E5" stroke-width="1.5"/>
<path d="M55.2996 37.3108C52.0684 38.0663 49.185 39.726 46.8907 42.0568C43.7321 45.2654 41.7623 49.7403 41.7623 54.6748V133.564H46.9166V118.331H56.7582V133.625H61.9151V103.1H86.7552V143.651H31.8584V54.6748C31.8584 43.5113 38.3027 33.8662 47.5862 29.4283L55.2996 37.3108ZM74.6272 113.129C73.1349 113.003 71.819 114.226 71.819 115.729V133.625H76.9734V115.851C76.9734 114.658 76.2129 113.428 74.9049 113.167L74.6376 113.129H74.6272ZM71.0845 29.4257C73.9472 30.7637 76.5322 32.6309 78.7771 34.9125C83.7265 39.9393 86.8149 46.9186 86.8149 54.6748V97.8301H46.9166V87.8064H76.9734V54.6748C76.9734 46.1889 71.1935 39.0951 63.3789 37.2524L71.0845 29.4257Z" stroke="#E5E5E5" stroke-width="1.5"/>
<path d="M66.291 26.8105L59.3381 33.8732L52.3826 26.8105L59.3381 19.7452L66.291 26.8105Z" stroke="#E5E5E5" stroke-width="1.5"/>
<path d="M66.2935 8.97528L59.3379 16.038L52.3772 8.91928L59.3327 1.85657L66.2935 8.97528Z" stroke="#E5E5E5" stroke-width="1.5"/>
</g>
<mask id="mask6_274_1423" style="mask-type:luminance" maskUnits="userSpaceOnUse" x="-30" y="0" width="58" height="145">
<path d="M27.9654 0H-29.5864V144.952H27.9654V0Z" fill="white"/>
</mask>
<g mask="url(#mask6_274_1423)">
<path d="M-1.90955 42.0436C5.40933 41.3733 11.6096 47.2404 11.6096 54.677V82.5356H-13.2305V54.9849C-13.2279 48.5054 -8.62372 42.9558 -2.51427 42.1098L-1.91735 42.0436H-1.90955ZM-1.03233 52.0138L-1.05051 52.0164C-2.55321 52.1554 -3.38892 53.5638 -3.38892 54.738V72.5119H1.76808V54.6134C1.76808 53.2358 0.693576 52.0469 -0.741652 52.0062L-1.03233 52.0138Z" stroke="#E5E5E5" stroke-width="1.5"/>
<path d="M-4.84761 37.3108C-8.07882 38.0663 -10.9622 39.726 -13.2565 42.0568C-16.4151 45.2654 -18.385 49.7403 -18.385 54.6748V133.564H-13.2306V118.331H-3.38903V133.625H1.76796V103.1H26.608V143.651H-28.2888V54.6748C-28.2888 43.5113 -21.8445 33.8662 -12.561 29.4283L-4.84761 37.3108ZM14.48 113.129C12.9876 113.003 11.6718 114.226 11.6718 115.729V133.625H16.8261V115.851C16.8261 114.658 16.0657 113.428 14.7577 113.167L14.4903 113.129H14.48ZM10.9347 29.4257C13.8 30.7637 16.385 32.6309 18.6299 34.9125C23.5793 39.9393 26.6677 46.9186 26.6677 54.6748V97.8301H-13.2306V87.8064H16.8261V54.6748C16.8261 46.1889 11.0437 39.0951 3.23173 37.2524L10.9347 29.4257Z" stroke="#E5E5E5" stroke-width="1.5"/>
<path d="M6.1438 26.8105L-0.809142 33.8732L-7.76466 26.8105L-0.809142 19.7452L6.1438 26.8105Z" stroke="#E5E5E5" stroke-width="1.5"/>
<path d="M6.14624 8.97528L-0.809316 16.038L-7.77002 8.91928L-0.814504 1.85657L6.14624 8.97528Z" stroke="#E5E5E5" stroke-width="1.5"/>
</g>
</g>
<defs>
<clipPath id="clip0_274_1423">
<rect width="360" height="146" fill="white" transform="matrix(-1 0 0 1 360 0)"/>
</clipPath>
</defs>
</svg>
