<svg width="20" height="20" viewBox="0 0 20 20" fill="none" xmlns="http://www.w3.org/2000/svg">
<path d="M18.3334 9.1665V6.83317C18.3334 5.89975 18.3334 5.43304 18.1517 5.07652C17.9919 4.76292 17.7369 4.50795 17.4233 4.34816C17.0668 4.1665 16.6001 4.1665 15.6667 4.1665H4.33335C3.39993 4.1665 2.93322 4.1665 2.5767 4.34816C2.2631 4.50795 2.00813 4.76292 1.84834 5.07652C1.66669 5.43304 1.66669 5.89975 1.66669 6.83317V9.83317C1.66669 10.7666 1.66669 11.2333 1.84834 11.5898C2.00813 11.9034 2.2631 12.1584 2.5767 12.3182C2.93322 12.4998 3.39993 12.4998 4.33335 12.4998H9.16669M10 8.33317H10.0042M14.1667 8.33317H14.1709M5.83335 8.33317H5.83752M16.0417 14.1665V12.7082C16.0417 11.9028 15.3888 11.2498 14.5834 11.2498C13.7779 11.2498 13.125 11.9028 13.125 12.7082V14.1665M10.2084 8.33317C10.2084 8.44823 10.1151 8.5415 10 8.5415C9.88496 8.5415 9.79169 8.44823 9.79169 8.33317C9.79169 8.21811 9.88496 8.12484 10 8.12484C10.1151 8.12484 10.2084 8.21811 10.2084 8.33317ZM14.375 8.33317C14.375 8.44823 14.2817 8.5415 14.1667 8.5415C14.0516 8.5415 13.9584 8.44823 13.9584 8.33317C13.9584 8.21811 14.0516 8.12484 14.1667 8.12484C14.2817 8.12484 14.375 8.21811 14.375 8.33317ZM6.04169 8.33317C6.04169 8.44823 5.94841 8.5415 5.83335 8.5415C5.71829 8.5415 5.62502 8.44823 5.62502 8.33317C5.62502 8.21811 5.71829 8.12484 5.83335 8.12484C5.94841 8.12484 6.04169 8.21811 6.04169 8.33317ZM13 17.4998H16.1667C16.6334 17.4998 16.8668 17.4998 17.045 17.409C17.2018 17.3291 17.3293 17.2016 17.4092 17.0448C17.5 16.8666 17.5 16.6332 17.5 16.1665V15.4998C17.5 15.0331 17.5 14.7998 17.4092 14.6215C17.3293 14.4647 17.2018 14.3372 17.045 14.2573C16.8668 14.1665 16.6334 14.1665 16.1667 14.1665H13C12.5333 14.1665 12.3 14.1665 12.1217 14.2573C11.9649 14.3372 11.8374 14.4647 11.7575 14.6215C11.6667 14.7998 11.6667 15.0331 11.6667 15.4998V16.1665C11.6667 16.6332 11.6667 16.8666 11.7575 17.0448C11.8374 17.2016 11.9649 17.3291 12.1217 17.409C12.3 17.4998 12.5333 17.4998 13 17.4998Z" stroke="#333333" stroke-width="1.5" stroke-linecap="round" stroke-linejoin="round"/>
</svg>
