<svg width="21" height="20" viewBox="0 0 21 20" fill="none" xmlns="http://www.w3.org/2000/svg">
<path d="M11.1639 12.6506L12.2137 11.6792L11.1639 10.7077C10.6322 10.2157 9.94046 9.94482 9.21605 9.94482H8.5972C8.60076 9.94807 8.60442 9.95122 8.60794 9.9545L10.4718 11.6792L8.60794 13.4039C8.60438 13.4072 8.60072 13.4103 8.59717 13.4136H9.21605C9.94043 13.4135 10.6322 13.1426 11.1639 12.6506Z" fill="#4F4F4F"/>
<path d="M9.21591 8.91897C10.1995 8.91897 11.1388 9.28687 11.8607 9.95489L13.7246 11.6796L11.8607 13.4043C11.1388 14.0723 10.1995 14.4402 9.21591 14.4402H7.65918V16.0283C7.66571 16.1136 7.66903 16.1999 7.66923 16.2869H13.2182C13.4185 15.3599 14.1501 14.6283 15.0772 14.4279V8.93124C14.1501 8.7309 13.4185 7.99928 13.2182 7.07227H7.65918V8.91897H9.21591Z" fill="#4F4F4F"/>
<path d="M7.65918 10.5005V12.8577C7.74699 12.7934 8.96065 11.6791 8.96065 11.6791C8.96065 11.6791 7.74699 10.5648 7.65918 10.5005Z" fill="#4F4F4F"/>
<path d="M19.2536 5.67714V4.6509L7.65907 4.64648V6.05355H14.1898V6.56667C14.1898 7.33888 14.818 7.9671 15.5902 7.9671H16.1033V15.4071H15.5902C14.818 15.4071 14.1898 16.0353 14.1898 16.8075V17.3206H7.51559C7.34626 17.8676 7.04429 18.3568 6.64746 18.7506L19.2536 18.7233V17.6971H17.7389V16.549H19.2536V15.5227H17.7389V14.3746H19.2536V13.3484H17.7389V12.2003H19.2536V11.174H17.7389V10.0259H19.2536V8.99967H17.7389V7.85156H19.2536V6.82532H17.7389V5.67721H19.2536V5.67714Z" fill="#4F4F4F"/>
<path d="M4.20163 4.08154C2.8925 4.08154 1.82016 5.10939 1.74609 6.40026V11.1749C2.37353 10.5312 3.24935 10.1307 4.21708 10.1307C5.17442 10.1307 6.04194 10.5226 6.66786 11.1541V6.40669C6.59681 5.11278 5.51291 4.08154 4.20163 4.08154Z" fill="#4F4F4F"/>
<path d="M4.20163 3.09068C5.16687 3.09068 6.04084 3.48888 6.6679 4.12965V3.7109C6.6679 2.35397 5.56393 1.25 4.207 1.25C2.85006 1.25003 1.74609 2.35397 1.74609 3.7109V4.11891C2.3724 3.4845 3.24182 3.09068 4.20163 3.09068Z" fill="#4F4F4F"/>
<path d="M6.65781 13.3664C6.54747 12.1108 5.49079 11.1226 4.20703 11.1226C2.85006 11.1225 1.74609 12.2265 1.74609 13.5835C1.74609 13.6768 1.7518 13.7688 1.76196 13.8594C2.38748 13.2313 3.2526 12.8419 4.207 12.8419C5.1614 12.8419 6.02651 13.2313 6.65203 13.8594C6.65422 13.8399 6.65607 13.8202 6.65778 13.8006V13.3664H6.65781Z" fill="#4F4F4F"/>
<path d="M4.207 18.7504C5.56612 18.7504 6.6679 17.6486 6.6679 16.2895C6.6679 14.9304 5.56612 13.8286 4.207 13.8286C2.84788 13.8286 1.74609 14.9304 1.74609 16.2895C1.74609 17.6486 2.84788 18.7504 4.207 18.7504Z" fill="#4F4F4F"/>
</svg>
