<svg width="44" height="44" viewBox="0 0 44 44" fill="none" xmlns="http://www.w3.org/2000/svg">
<g clip-path="url(#clip0_303_30244)">
<path d="M22 43.3125C33.7706 43.3125 43.3125 33.7706 43.3125 22C43.3125 10.2294 33.7706 0.6875 22 0.6875C10.2294 0.6875 0.6875 10.2294 0.6875 22C0.6875 33.7706 10.2294 43.3125 22 43.3125Z" fill="#F1F1F1"/>
<path d="M39.1022 34.7014C37.1145 32.0403 34.5335 29.8794 31.5643 28.3906C28.5952 26.9018 25.3196 26.126 21.9981 26.125C18.6766 26.124 15.4006 26.8977 12.4305 28.3846C9.46037 29.8716 6.87803 32.0308 4.88867 34.6907C6.86791 37.3641 9.44604 39.5365 12.4163 41.0338C15.3866 42.531 18.6664 43.3115 21.9927 43.3125C25.319 43.3136 28.5993 42.5352 31.5705 41.0398C34.5418 39.5444 37.1213 37.3736 39.1022 34.7014Z" fill="#D5CCA1"/>
<path d="M22 23.375C26.5563 23.375 30.25 19.6813 30.25 15.125C30.25 10.5687 26.5563 6.875 22 6.875C17.4437 6.875 13.75 10.5687 13.75 15.125C13.75 19.6813 17.4437 23.375 22 23.375Z" fill="#D5CCA1"/>
</g>
<defs>
<clipPath id="clip0_303_30244">
<rect width="44" height="44" fill="white"/>
</clipPath>
</defs>
</svg>
