<svg width="28" height="28" viewBox="0 0 28 28" fill="none" xmlns="http://www.w3.org/2000/svg">
<g clip-path="url(#clip0_6317_3954)">
<path fill-rule="evenodd" clip-rule="evenodd" d="M14 28C6.26818 28 0 21.7318 0 14C0 6.26818 6.26818 0 14 0C21.7318 0 28 6.26818 28 14C28 21.7318 21.7318 28 14 28ZM14 2.32324C7.55097 2.32324 2.32324 7.55097 2.32324 14C2.32324 20.449 7.55097 25.6768 14 25.6768C20.449 25.6768 25.6768 20.449 25.6768 14C25.6768 7.55097 20.449 2.32324 14 2.32324Z" fill="#828282"/>
<path fill-rule="evenodd" clip-rule="evenodd" d="M13.7589 23.2063L8.87988 21.3015V16.4373C8.90268 16.4373 8.92581 16.434 8.94874 16.4272L13.7589 14.9917V23.2063ZM8.87988 15.9446V14.7201L13.7589 12.8525V14.4886L8.87988 15.9446Z" fill="#828282"/>
<path fill-rule="evenodd" clip-rule="evenodd" d="M14.2417 23.2063L19.1207 21.3015V16.4373C19.0979 16.4373 19.0748 16.434 19.0518 16.4272L14.2417 14.9917V23.2063ZM19.1207 15.9446V14.7201L14.2417 12.8525V14.4886L19.1207 15.9446ZM17.8768 21.3044V18.2505L15.5009 18.5479V22.232L17.8768 21.3044Z" fill="#828282"/>
<path fill-rule="evenodd" clip-rule="evenodd" d="M14.0003 4.79492L15.4576 8.02703L16.915 11.2592H14.0003H11.0857L12.543 8.02703L14.0003 4.79492Z" fill="#828282"/>
</g>
<defs>
<clipPath id="clip0_6317_3954">
<rect width="28" height="28" fill="white"/>
</clipPath>
</defs>
</svg>
