<svg width="32" height="32" viewBox="0 0 32 32" fill="none" xmlns="http://www.w3.org/2000/svg">
<g clip-path="url(#clip0_274_2192)">
<path fill-rule="evenodd" clip-rule="evenodd" d="M16 32C7.16363 32 0 24.8364 0 16C0 7.16363 7.16363 0 16 0C24.8364 0 32 7.16363 32 16C32 24.8364 24.8364 32 16 32ZM16 2.65513C8.62968 2.65513 2.65513 8.62968 2.65513 16C2.65513 23.3703 8.62968 29.3449 16 29.3449C23.3703 29.3449 29.3449 23.3703 29.3449 16C29.3449 8.62968 23.3703 2.65513 16 2.65513Z" fill="#8D1B3D" fill-opacity="0.65"/>
<path fill-rule="evenodd" clip-rule="evenodd" d="M15.7244 26.5213L10.1484 24.3445V18.7853C10.1745 18.7853 10.2009 18.7815 10.2271 18.7738L15.7244 17.1332V26.5213ZM10.1484 18.2223V16.8228L15.7244 14.6885V16.5582L10.1484 18.2223Z" fill="#8D1B3D"/>
<path fill-rule="evenodd" clip-rule="evenodd" d="M16.2764 26.5213L21.8524 24.3445V18.7853C21.8263 18.7853 21.7999 18.7815 21.7737 18.7738L16.2764 17.1332V26.5213ZM21.8524 18.2223V16.8228L16.2764 14.6885V16.5582L21.8524 18.2223ZM20.4308 24.3477V20.8575L17.7154 21.1975V25.4078L20.4308 24.3477Z" fill="#8D1B3D"/>
<path fill-rule="evenodd" clip-rule="evenodd" d="M16.0002 5.47949L17.6657 9.17333L19.3312 12.8672H16.0002H12.6692L14.3347 9.17333L16.0002 5.47949Z" fill="#8D1B3D"/>
</g>
<defs>
<clipPath id="clip0_274_2192">
<rect width="32" height="32" fill="white"/>
</clipPath>
</defs>
</svg>
