<svg width="28" height="28" viewBox="0 0 28 28" fill="none" xmlns="http://www.w3.org/2000/svg">
<path d="M3.67402 22.0624L8.6379 18.9707L12.5156 21.3837L10.306 22.7587C10.241 22.7992 10.1659 22.8206 10.0892 22.8206H3.89086C3.70777 22.8206 3.54688 22.6993 3.49651 22.5233C3.44614 22.3472 3.5186 22.1591 3.67402 22.0624Z" fill="#828282"/>
<path d="M0.0994892 5.60788C0.311623 5.21708 0.796429 5.06642 1.19264 5.26816L1.828 5.59169C3.10779 6.15492 4.40602 6.20359 5.76954 6.25472C9.41485 6.24964 11.9984 7.32496 14 10.9123C16.0034 7.3231 18.5851 6.25024 22.2305 6.25472C23.594 6.20354 24.8922 6.15486 26.172 5.59164L26.8074 5.26816C27.2035 5.06647 27.6883 5.21708 27.9005 5.60788C28.1126 5.99868 27.9747 6.48731 27.5897 6.70961C27.3561 6.84447 27.1222 6.9632 26.8886 7.06787L19.5888 10.7847L14.2013 13.5044C14.0619 13.571 13.9212 13.5719 13.7724 13.4966L7.55526 10.3488L1.11143 7.06787C0.877802 6.9632 0.643848 6.84447 0.410334 6.70961C0.0252247 6.48731 -0.112589 5.99868 0.0994892 5.60788Z" fill="#828282"/>
<path d="M15.6236 14.6242L26.6621 9.05188C26.9359 9.7358 26.9953 10.4869 26.8246 11.2221C26.6047 12.1697 26.0309 12.9732 25.209 13.4847L19.499 17.0379L15.6236 14.6242Z" fill="#828282"/>
<path d="M13.1842 15.0381L24.4624 22.0624C24.6178 22.1592 24.6903 22.3473 24.6399 22.5233C24.5895 22.6994 24.4287 22.8207 24.2456 22.8207H18.0472C17.9706 22.8207 17.8955 22.7993 17.8304 22.7588L2.92744 13.485C2.10554 12.9736 1.53176 12.1701 1.31175 11.2224C1.14501 10.5042 1.19735 9.77073 1.45509 9.09961L13.1842 15.0381Z" fill="#828282"/>
</svg>
