<svg width="24" height="24" viewBox="0 0 24 24" fill="none" xmlns="http://www.w3.org/2000/svg">
<path d="M12.677 22.7999H11.3214C10.225 22.7999 9.33293 21.9079 9.33293 20.8115V20.3529C8.8668 20.204 8.41391 20.016 7.97883 19.7908L7.65382 20.1159C6.86664 20.904 5.6057 20.8809 4.84139 20.1156L3.88327 19.1575C3.11761 18.3927 3.09559 17.1321 3.88352 16.3451L4.20828 16.0203C3.98313 15.5852 3.79518 15.1324 3.64622 14.6662H3.18764C2.09127 14.6662 1.19922 13.7742 1.19922 12.6778V11.3221C1.19922 10.2257 2.09127 9.3337 3.18768 9.3337H3.64626C3.79523 8.86753 3.98317 8.41469 4.20833 7.97961L3.88331 7.65464C3.09584 6.86801 3.11757 5.60736 3.88357 4.84221L4.84177 3.88405C5.60785 3.11691 6.8685 3.09776 7.65416 3.8843L7.97888 4.20902C8.41396 3.9839 8.86684 3.79592 9.33297 3.64695V3.18837C9.33297 2.09196 10.225 1.19995 11.3214 1.19995H12.677C13.7735 1.19995 14.6655 2.09196 14.6655 3.18837V3.64699C15.1316 3.79592 15.5845 3.9839 16.0196 4.20906L16.3446 3.88405C17.1317 3.0959 18.3927 3.11902 19.157 3.88434L20.1151 4.84242C20.8808 5.60724 20.9028 6.86776 20.1149 7.65485L19.7901 7.97961C20.0153 8.41469 20.2032 8.86749 20.3522 9.3337H20.8108C21.9072 9.3337 22.7992 10.2257 22.7992 11.3221V12.6778C22.7992 13.7742 21.9072 14.6662 20.8108 14.6662H20.3522C20.2032 15.1324 20.0153 15.5852 19.7901 16.0203L20.1151 16.3453C20.9026 17.1319 20.8809 18.3926 20.1149 19.1577L19.1567 20.1159C18.3906 20.883 17.1299 20.9022 16.3443 20.1156L16.0196 19.7909C15.5845 20.016 15.1316 20.204 14.6655 20.353V20.8116C14.6655 21.9079 13.7735 22.7999 12.677 22.7999ZM8.1904 18.4618C8.79482 18.8193 9.44536 19.0893 10.1239 19.2644C10.4033 19.3365 10.5986 19.5886 10.5986 19.8772V20.8115C10.5986 21.2101 10.9229 21.5343 11.3214 21.5343H12.677C13.0756 21.5343 13.3999 21.2101 13.3999 20.8115V19.8772C13.3999 19.5886 13.5951 19.3365 13.8746 19.2644C14.5531 19.0893 15.2037 18.8193 15.8081 18.4618C16.0568 18.3147 16.3734 18.3547 16.5777 18.5591L17.2395 19.2209C17.5249 19.5066 17.9831 19.5 18.2615 19.2212L19.2203 18.2625C19.498 17.9851 19.5072 17.5268 19.2205 17.2405L18.5584 16.5783C18.3541 16.3741 18.3141 16.0574 18.4612 15.8088C18.8186 15.2044 19.0886 14.5539 19.2637 13.8753C19.3359 13.5958 19.5879 13.4006 19.8765 13.4006H20.8108C21.2093 13.4006 21.5336 13.0764 21.5336 12.6778V11.3222C21.5336 10.9236 21.2093 10.5994 20.8108 10.5994H19.8765C19.5879 10.5994 19.3359 10.4041 19.2637 10.1247C19.0886 9.44613 18.8186 8.7956 18.4612 8.19122C18.3141 7.94257 18.3541 7.62591 18.5584 7.42164L19.2203 6.75976C19.5064 6.47398 19.4989 6.01582 19.2205 5.73776L18.2618 4.77905C17.9839 4.50079 17.5256 4.49264 17.2398 4.7788L16.5777 5.44093C16.3735 5.64525 16.0567 5.68524 15.8081 5.53818C15.2037 5.18072 14.5532 4.91068 13.8746 4.73556C13.5952 4.66346 13.3999 4.41143 13.3999 4.12283V3.18837C13.3999 2.78983 13.0756 2.46558 12.6771 2.46558H11.3215C10.9229 2.46558 10.5986 2.78983 10.5986 3.18837V4.12274C10.5986 4.41135 10.4034 4.66338 10.1239 4.73547C9.4454 4.91059 8.79487 5.18064 8.19045 5.53809C7.94171 5.68511 7.62509 5.64512 7.42082 5.44085L6.75898 4.77897C6.47363 4.49328 6.01534 4.4999 5.73703 4.77867L4.77824 5.73743C4.50056 6.01477 4.49128 6.47305 4.77798 6.75942L5.44012 7.42155C5.64439 7.62582 5.68438 7.94248 5.53736 8.19114C5.1799 8.79551 4.9099 9.44605 4.73478 10.1246C4.66264 10.4041 4.41062 10.5993 4.12205 10.5993H3.18768C2.78914 10.5993 2.46484 10.9236 2.46484 11.3221V12.6778C2.46484 13.0763 2.78914 13.4006 3.18768 13.4006H4.12201C4.41062 13.4006 4.6626 13.5958 4.73474 13.8752C4.90986 14.5538 5.1799 15.2043 5.53732 15.8087C5.68434 16.0574 5.64435 16.374 5.44007 16.5783L4.77819 17.2402C4.49208 17.526 4.49955 17.9841 4.77794 18.2622L5.73665 19.2209C6.01454 19.4992 6.47287 19.5073 6.75865 19.2211L7.42074 18.559C7.57126 18.4085 7.88442 18.2808 8.1904 18.4618Z" fill="#333333"/>
<path d="M11.9992 16.8C9.35245 16.8 7.19922 14.6467 7.19922 12C7.19922 9.35323 9.35245 7.19995 11.9992 7.19995C14.646 7.19995 16.7992 9.35323 16.7992 12C16.7992 14.6467 14.646 16.8 11.9992 16.8ZM11.9992 8.49259C10.0652 8.49259 8.49186 10.066 8.49186 12C8.49186 13.9339 10.0653 15.5073 11.9992 15.5073C13.9332 15.5073 15.5066 13.9339 15.5066 12C15.5066 10.066 13.9332 8.49259 11.9992 8.49259Z" fill="#333333"/>
</svg>
