<svg width="32" height="32" viewBox="0 0 32 32" fill="none" xmlns="http://www.w3.org/2000/svg">
<path d="M4.19902 25.215L9.87202 21.6816L14.3037 24.4394L11.7784 26.0108C11.7041 26.0571 11.6183 26.0816 11.5307 26.0816H4.44684C4.23759 26.0816 4.05371 25.9429 3.99615 25.7417C3.93859 25.5405 4.0214 25.3256 4.19902 25.215Z" fill="#8D1B3D"/>
<path d="M0.113703 6.40942C0.35614 5.9628 0.910204 5.79061 1.36302 6.02117L2.08914 6.39092C3.55177 7.03461 5.03545 7.09024 6.59377 7.14867C10.7598 7.14286 13.7125 8.3718 16 12.4716C18.2896 8.36967 21.2401 7.14355 25.4063 7.14867C26.9646 7.09017 28.4482 7.03455 29.9109 6.39086L30.637 6.02117C31.0897 5.79067 31.6438 5.9628 31.8863 6.40942C32.1287 6.85605 31.9711 7.41449 31.5311 7.66855C31.2641 7.82267 30.9968 7.95836 30.7298 8.07799L22.3872 12.3258L16.23 15.434C16.0707 15.5102 15.9099 15.5111 15.7399 15.4251L8.63458 11.8277L1.2702 8.07799C1.0032 7.95836 0.735826 7.82267 0.468952 7.66855C0.0288277 7.41449 -0.128674 6.85605 0.113703 6.40942Z" fill="#8D1B3D" fill-opacity="0.65"/>
<path d="M17.8555 16.7138L30.4709 10.3455C30.7838 11.1271 30.8517 11.9855 30.6567 12.8257C30.4053 13.9087 29.7495 14.827 28.8102 15.4115L22.2845 19.4723L17.8555 16.7138Z" fill="#8D1B3D"/>
<path d="M15.0674 17.1872L27.9567 25.215C28.1344 25.3256 28.2172 25.5406 28.1596 25.7418C28.1021 25.943 27.9182 26.0816 27.7089 26.0816H20.6251C20.5376 26.0816 20.4517 26.0571 20.3774 26.0109L3.34537 15.4123C2.40606 14.8278 1.75031 13.9095 1.49887 12.8265C1.3083 12.0056 1.36812 11.1674 1.66268 10.4004L15.0674 17.1872Z" fill="#8D1B3D"/>
</svg>
