<svg width="24" height="24" viewBox="0 0 24 24" fill="none" xmlns="http://www.w3.org/2000/svg">
<path d="M15.6816 8.70201C15.4537 8.70201 15.2351 8.61147 15.074 8.45031C14.9128 8.28914 14.8223 8.07056 14.8223 7.84264C14.8223 7.61472 14.9128 7.39613 15.074 7.23497C15.2351 7.0738 15.4537 6.98326 15.6816 6.98326L18.3934 6.98395L18.5894 3.94591C18.6044 3.71867 18.709 3.50668 18.8802 3.35649C19.0514 3.20629 19.2752 3.13018 19.5024 3.14485C19.7297 3.15953 19.9418 3.2638 20.0923 3.43476C20.2427 3.60572 20.3192 3.82941 20.3048 4.05669L20.0568 7.89836C20.0422 8.11613 19.9456 8.32027 19.7864 8.46956C19.6272 8.61885 19.4173 8.70217 19.1991 8.70268L15.6816 8.70201Z" fill="#333333"/>
<path d="M3.75 12.8594C3.52214 12.8592 3.30368 12.7686 3.14256 12.6075C2.98145 12.4463 2.89084 12.2279 2.89063 12C2.89084 9.99471 3.55267 8.0455 4.7735 6.45464C5.99432 4.86378 7.70592 3.72015 9.64288 3.2011C11.5798 2.68205 13.634 2.81658 15.4867 3.58382C17.3394 4.35106 18.8872 5.70815 19.8901 7.44464C19.9655 7.57531 20.0051 7.72347 20.0051 7.87428C20.0052 8.0251 19.9656 8.17327 19.8903 8.30396C19.815 8.43465 19.7067 8.54327 19.5763 8.61893C19.4458 8.6946 19.2978 8.73465 19.1469 8.73508C18.9962 8.73471 18.8482 8.69492 18.7176 8.61967C18.587 8.54441 18.4783 8.43631 18.4024 8.30608C17.5891 6.8968 16.3334 5.79528 14.8302 5.17238C13.3271 4.54948 11.6603 4.44 10.0886 4.86094C8.51684 5.28187 7.12792 6.20969 6.13724 7.50047C5.14657 8.79126 4.60951 10.3729 4.60938 12C4.60916 12.2279 4.51856 12.4463 4.35744 12.6075C4.19632 12.7686 3.97786 12.8592 3.75 12.8594Z" fill="#333333"/>
<path d="M11.9993 21.1094C10.4008 21.1063 8.83102 20.6842 7.44658 19.8851C6.06214 19.0861 4.9114 17.938 4.10914 16.5554C4.03382 16.4247 3.99417 16.2765 3.99414 16.1257C3.99411 15.9749 4.03372 15.8267 4.10899 15.696C4.18426 15.5654 4.29256 15.4567 4.42302 15.3811C4.55349 15.3054 4.70154 15.2654 4.85236 15.2649C5.0032 15.2652 5.15133 15.305 5.28197 15.3804C5.41262 15.4558 5.52121 15.5642 5.59692 15.6946C6.41042 17.1037 7.66613 18.2051 9.16931 18.8278C10.6725 19.4506 12.3392 19.5599 13.9108 19.1389C15.4825 18.7179 16.8714 17.7901 17.862 16.4994C18.8526 15.2086 19.3897 13.6271 19.3899 12C19.3899 11.7721 19.4804 11.5535 19.6416 11.3923C19.8028 11.2312 20.0214 11.1406 20.2493 11.1406C20.4772 11.1406 20.6958 11.2312 20.8569 11.3923C21.0181 11.5535 21.1087 11.7721 21.1087 12C21.1059 14.4151 20.1453 16.7305 18.4375 18.4382C16.7298 20.146 14.4144 21.1066 11.9993 21.1094Z" fill="#333333"/>
<path d="M4.50068 20.8571C4.27275 20.8426 4.05989 20.7382 3.90884 20.5669C3.75779 20.3956 3.68089 20.1713 3.69501 19.9434L3.94309 16.1017C3.9576 15.8839 4.05422 15.6798 4.21342 15.5305C4.37261 15.3812 4.58254 15.2979 4.80079 15.2974L8.31818 15.2981C8.5461 15.2981 8.76469 15.3886 8.92585 15.5498C9.08702 15.7109 9.17756 15.9295 9.17756 16.1574C9.17756 16.3853 9.08702 16.6039 8.92585 16.7651C8.76469 16.9263 8.5461 17.0168 8.31818 17.0168L5.60645 17.0161L5.41038 20.0541C5.39602 20.2718 5.29954 20.476 5.14046 20.6253C4.98137 20.7746 4.77153 20.8579 4.55335 20.8585L4.50068 20.8571Z" fill="#333333"/>
<path d="M11.9993 21.1094C10.4008 21.1063 8.83102 20.6842 7.44658 19.8851C6.06214 19.0861 4.9114 17.938 4.10914 16.5554C4.03382 16.4247 3.99417 16.2765 3.99414 16.1257C3.99411 15.9749 4.03372 15.8267 4.10899 15.696C4.18426 15.5654 4.29256 15.4567 4.42302 15.3811C4.55349 15.3054 4.70154 15.2654 4.85236 15.2649C5.0032 15.2652 5.15133 15.305 5.28197 15.3804C5.41262 15.4558 5.52121 15.5642 5.59692 15.6946C6.41042 17.1037 7.66613 18.2051 9.16931 18.8278C10.6725 19.4506 12.3392 19.5599 13.9108 19.1389C15.4825 18.7179 16.8714 17.7901 17.862 16.4994C18.8526 15.2086 19.3897 13.6271 19.3899 12C19.3899 11.7721 19.4804 11.5535 19.6416 11.3923C19.8028 11.2312 20.0214 11.1406 20.2493 11.1406C20.4772 11.1406 20.6958 11.2312 20.8569 11.3923C21.0181 11.5535 21.1087 11.7721 21.1087 12C21.1059 14.4151 20.1453 16.7305 18.4375 18.4382C16.7298 20.146 14.4144 21.1066 11.9993 21.1094Z" fill="#333333"/>
<path d="M3.75 12.8594C3.52214 12.8592 3.30368 12.7686 3.14256 12.6075C2.98145 12.4463 2.89084 12.2279 2.89063 12C2.89084 9.99471 3.55267 8.0455 4.7735 6.45464C5.99432 4.86378 7.70592 3.72015 9.64288 3.2011C11.5798 2.68205 13.634 2.81658 15.4867 3.58382C17.3394 4.35106 18.8872 5.70815 19.8901 7.44464C19.9655 7.57531 20.0051 7.72347 20.0051 7.87428C20.0052 8.0251 19.9656 8.17327 19.8903 8.30396C19.815 8.43465 19.7067 8.54327 19.5763 8.61893C19.4458 8.6946 19.2978 8.73465 19.1469 8.73508C18.9962 8.73471 18.8482 8.69492 18.7176 8.61967C18.587 8.54441 18.4783 8.43631 18.4024 8.30608C17.5891 6.8968 16.3334 5.79528 14.8302 5.17238C13.3271 4.54948 11.6603 4.44 10.0886 4.86094C8.51684 5.28187 7.12792 6.20969 6.13724 7.50047C5.14657 8.79126 4.60951 10.3729 4.60938 12C4.60916 12.2279 4.51856 12.4463 4.35744 12.6075C4.19632 12.7686 3.97786 12.8592 3.75 12.8594Z" fill="#333333"/>
</svg>
