<svg width="28" height="28" viewBox="0 0 28 28" fill="none" xmlns="http://www.w3.org/2000/svg">
<path d="M26.2461 11.8479C26.2736 11.4935 26.1546 11.1479 25.9121 10.881C25.7748 10.7279 25.6056 10.6098 25.4134 10.531C25.5964 10.4348 25.752 10.2992 25.8755 10.1329C26.0906 9.83979 26.1729 9.48542 26.1089 9.13543C26.0448 8.78106 25.8435 8.47482 25.5369 8.2692C25.3631 8.15108 25.1663 8.07233 24.9604 8.0417C25.3814 7.66546 25.5278 7.05735 25.2807 6.52361C25.029 5.98987 24.4525 5.69676 23.8806 5.74051C24.1872 5.27239 24.1688 4.64678 23.7845 4.19179C23.5466 3.9118 23.2126 3.7368 22.842 3.7018C22.6269 3.67993 22.4119 3.70618 22.2105 3.77618C22.27 3.58368 22.2837 3.37806 22.2426 3.17244C22.1785 2.81807 21.9772 2.51183 21.6706 2.31058C21.3687 2.10059 20.998 2.02184 20.6274 2.08309C20.4124 2.11809 20.2111 2.20121 20.0372 2.32371C20.0418 1.77247 19.694 1.25623 19.1312 1.06374C18.5868 0.866866 17.9919 1.01999 17.6168 1.40935C17.5847 1.22998 17.5161 1.05936 17.4109 0.90624C17.2095 0.604372 16.8984 0.398751 16.5324 0.324378C15.9559 0.210631 15.3839 0.45125 15.0728 0.89749C14.8898 0.390002 14.391 0.0181351 13.8008 0.000635485C13.2014 -0.0168641 12.6752 0.328753 12.4602 0.827492C12.1673 0.359377 11.5908 0.0837585 11.0052 0.188756C10.6391 0.250005 10.3189 0.446875 10.1084 0.739994C9.98484 0.90624 9.90706 1.08999 9.87503 1.28248C9.47696 0.88874 8.85012 0.744369 8.29649 0.980613C7.95332 1.12498 7.68795 1.38748 7.55526 1.72435C7.47747 1.91247 7.45002 2.11371 7.46832 2.31058C7.28988 2.20559 7.08398 2.13559 6.86893 2.11371C6.49832 2.07871 6.13686 2.17934 5.85318 2.40246C5.56034 2.6212 5.37733 2.93619 5.33615 3.29056C5.30869 3.50056 5.33615 3.70618 5.40935 3.89867C4.85572 3.74118 4.2243 3.92492 3.86284 4.39741C3.50595 4.87428 3.52425 5.49989 3.86284 5.9505C3.66152 5.94175 3.4602 5.97675 3.2726 6.0555C2.92486 6.1955 2.65949 6.45361 2.52222 6.78173C2.29345 7.31547 2.45816 7.91046 2.88368 8.27795C2.67321 8.31732 2.47189 8.40482 2.29802 8.53169C2.00062 8.75044 1.81302 9.06543 1.76269 9.4198C1.71236 9.77417 1.81302 10.1242 2.0418 10.4085C2.19736 10.601 2.39868 10.7454 2.62746 10.8329C2.39868 10.9729 2.21566 11.1741 2.10585 11.4148C1.95486 11.7385 1.94571 12.1016 2.0784 12.4297C2.31175 13.0247 2.97519 13.3922 3.64779 13.2697C3.53798 13.506 3.50595 13.7684 3.55628 14.0309C3.62034 14.3809 3.82624 14.6872 4.13737 14.8884C4.6361 15.2253 5.35902 15.1859 5.82115 14.8184C5.83487 15.0284 5.89893 15.234 6.01332 15.4222C6.20091 15.7284 6.50289 15.9472 6.85978 16.0346C7.43629 16.1834 8.03111 15.9559 8.35597 15.5228C8.51611 16.0215 8.97823 16.4065 9.55932 16.459C9.60508 16.4678 9.64168 16.4678 9.68743 16.4678C10.2182 16.4678 10.6895 16.1746 10.9274 15.7459C11.1516 16.2053 11.6457 16.529 12.2314 16.529C12.7988 16.5115 13.2792 16.1703 13.4851 15.7022C13.7276 16.109 14.1851 16.3846 14.6976 16.3846L14.8028 16.3803C14.812 16.3803 14.876 16.3715 14.8898 16.3715C15.3702 16.3278 15.7774 16.0521 15.9879 15.6715C16.1755 16.0521 16.5415 16.3453 17.0036 16.4284H17.0082C17.42 16.4984 17.8318 16.389 18.1384 16.1528C18.1384 16.1746 18.1429 16.1965 18.1475 16.2228C18.1933 16.5771 18.3809 16.8965 18.6783 17.1152C19.0718 17.4084 19.6254 17.474 20.0692 17.2946C19.996 17.5702 20.0189 17.859 20.1287 18.1259C20.2705 18.454 20.5359 18.7165 20.8836 18.8521V18.8565C20.9569 18.8827 21.0346 18.9046 21.1078 18.9177V20.1252C20.6 20.2564 20.1973 20.707 20.1012 21.2933L19.8267 23.0126L18.7835 27.6369C18.7606 27.7244 18.7835 27.8163 18.843 27.8863C18.9025 27.9563 18.9894 28 19.0855 28H23.7525C23.8486 28 23.9355 27.9563 23.995 27.8863C24.0545 27.8163 24.0773 27.7244 24.0545 27.6369L23.0113 23.0126L22.7321 21.2933C22.6406 20.7158 22.2334 20.2652 21.7301 20.1252V18.9133C22.1648 18.8171 22.5354 18.5415 22.7093 18.1434C22.8008 17.9334 22.8328 17.7146 22.8145 17.5046C23.3681 17.6621 24.0224 17.4521 24.361 16.9884C24.5761 16.6953 24.6539 16.3365 24.5898 15.9865C24.5486 15.7809 24.4617 15.5928 24.3336 15.4309H24.3473C24.9421 15.4309 25.4729 15.0678 25.665 14.5297C25.7886 14.1972 25.7657 13.8341 25.6056 13.5103C25.5095 13.3222 25.3722 13.1647 25.2075 13.0422C25.7703 12.8978 26.2004 12.4254 26.2461 11.8479ZM22.119 21.3852L22.3432 22.7676H20.4947L20.7189 21.3852C20.783 20.9783 21.085 20.672 21.419 20.672C21.7072 20.672 22.0504 20.9389 22.119 21.3852ZM22.0641 15.4615C22.0504 15.4747 22.0412 15.4965 22.0321 15.514C21.8674 15.7634 21.7942 16.0521 21.8216 16.3409C21.5196 16.2534 21.1948 16.2709 20.8974 16.3846C20.8974 16.3846 20.8928 16.389 20.8882 16.389C20.9294 16.2271 20.9431 16.0609 20.9157 15.8903C20.8699 15.5359 20.6778 15.2209 20.3849 15.0022C20.1378 14.8228 19.8404 14.7266 19.5339 14.7266C19.4698 14.7266 19.4058 14.7309 19.3417 14.7397C19.0855 14.7703 18.8476 14.8709 18.6508 15.024C18.6096 14.4291 18.1475 13.9128 17.5115 13.8034C16.903 13.6941 16.3082 13.9828 16.0245 14.4816C15.9421 14.3022 15.814 14.1447 15.6493 14.0134C15.3656 13.7859 14.9996 13.6766 14.629 13.7116C14.6152 13.7116 14.5969 13.716 14.5786 13.7203C14.5878 13.716 14.5878 13.716 14.5695 13.716C14.0387 13.7641 13.6041 14.0922 13.4119 14.5297C13.3432 14.4203 13.2609 14.3153 13.1602 14.2234C12.8903 13.9784 12.5425 13.8647 12.1628 13.8559C11.7922 13.8647 11.4444 14.0091 11.1836 14.2672C11.0921 14.3591 11.0143 14.4641 10.9548 14.5734C10.7489 14.1491 10.3189 13.8384 9.80182 13.7991C9.77894 13.7947 9.75607 13.7991 9.73319 13.7991C9.38545 13.7903 9.04687 13.8997 8.77691 14.1184C8.68998 14.1884 8.61677 14.2672 8.55271 14.3547C8.41545 13.9303 8.05856 13.5803 7.57813 13.4578C7.21209 13.366 6.83233 13.4141 6.51205 13.5935C6.44341 13.6328 6.38393 13.6722 6.32445 13.7203C6.31987 13.6635 6.3153 13.6066 6.30615 13.5541C6.23752 13.1997 6.03162 12.8935 5.72506 12.6922C5.4185 12.491 5.04789 12.4122 4.68185 12.4779C4.67728 12.4779 4.66812 12.4779 4.66355 12.4822C4.80081 12.1716 4.82369 11.8129 4.691 11.476C4.54459 11.1173 4.24718 10.8504 3.89487 10.7148C4.23345 10.5091 4.47595 10.1679 4.53544 9.76104C4.59492 9.31042 4.40732 8.88169 4.08246 8.59732C4.54001 8.51419 4.92435 8.2167 5.11195 7.78796C5.29497 7.35047 5.21718 6.86923 4.9518 6.51049C5.40935 6.51486 5.85318 6.32237 6.12771 5.95925C6.40681 5.58738 6.46172 5.12364 6.30615 4.71678C6.7454 4.84803 7.2487 4.76053 7.60101 4.48491C7.97163 4.19617 8.15007 3.7543 8.11347 3.32556C8.48866 3.55743 8.98738 3.60555 9.43121 3.42181C9.87503 3.23369 10.1633 2.8487 10.2411 2.41996C10.4973 2.67807 10.8588 2.83557 11.2523 2.83557C11.3438 2.83557 11.4215 2.82682 11.4993 2.8137C11.8699 2.75245 12.1902 2.55558 12.4007 2.26246C12.4602 2.18371 12.5105 2.10059 12.5471 2.01309C12.7805 2.39371 13.2014 2.65183 13.7047 2.66933H13.755C14.2355 2.66933 14.6656 2.42871 14.9172 2.06996C14.9538 2.17059 15.0041 2.26683 15.0636 2.35871C15.2695 2.6562 15.5807 2.86182 15.9421 2.93619C16.0336 2.95807 16.1297 2.96682 16.2441 2.96682C16.6422 2.96682 17.0082 2.80057 17.2644 2.5337C17.2873 2.65183 17.3239 2.7612 17.3743 2.87057C17.5298 3.19431 17.8089 3.43493 18.1567 3.55743C18.5639 3.71493 19.1038 3.64493 19.4744 3.38243C19.4698 3.8068 19.6803 4.22679 20.0646 4.48928C20.0646 4.48928 20.0692 4.48928 20.0692 4.49366C20.4444 4.74303 20.9431 4.7999 21.3595 4.64678C21.2314 5.05802 21.3137 5.51739 21.6112 5.87175C21.9086 6.21737 22.3615 6.40112 22.8191 6.36174C22.7733 6.43612 22.7321 6.51486 22.7001 6.59361C22.5674 6.93048 22.5766 7.2936 22.7321 7.61734C22.9243 8.02858 23.3178 8.31732 23.7708 8.3917C23.7067 8.44857 23.6472 8.51857 23.5923 8.58857C23.3773 8.88168 23.2904 9.23605 23.3544 9.58604C23.4368 10.041 23.7525 10.4085 24.1734 10.5835C24.0956 10.6273 24.0179 10.6754 23.9447 10.7366C23.661 10.9685 23.4871 11.2923 23.4642 11.6466C23.4322 12.0054 23.5466 12.3466 23.7891 12.6179C23.8531 12.6878 23.9172 12.7491 23.9904 12.8016C23.9035 12.8235 23.8211 12.8541 23.7388 12.8935C23.4002 13.0466 23.1485 13.3178 23.025 13.6591C22.8694 14.0922 22.9609 14.5472 23.2263 14.8884C23.1394 14.8928 23.0524 14.8972 22.9701 14.9103C22.604 14.9715 22.2792 15.1684 22.0641 15.4615Z" fill="#828282"/>
<path d="M26.2461 11.8479C26.2736 11.4935 26.1546 11.1479 25.9121 10.881C25.7748 10.7279 25.6056 10.6098 25.4134 10.531C25.5964 10.4348 25.752 10.2992 25.8755 10.1329C26.0906 9.83979 26.1729 9.48542 26.1089 9.13543C26.0448 8.78106 25.8435 8.47482 25.5369 8.2692C25.3631 8.15108 25.1663 8.07233 24.9604 8.04171C25.3814 7.66546 25.5278 7.05735 25.2807 6.52361C25.029 5.98988 24.4525 5.69676 23.8806 5.74051C24.1872 5.27239 24.1688 4.64678 23.7845 4.19179C23.5466 3.9118 23.2126 3.7368 22.842 3.7018C22.6269 3.67993 22.4119 3.70618 22.2105 3.77618C22.27 3.58368 22.2837 3.37806 22.2426 3.17244C22.1785 2.81807 21.9772 2.51183 21.6706 2.31058C21.3687 2.10059 20.998 2.02184 20.6274 2.08309C20.4124 2.11809 20.2111 2.20121 20.0372 2.32371C20.0418 1.77247 19.694 1.25623 19.1312 1.06374C18.5868 0.866866 17.9919 1.01999 17.6168 1.40935C17.5847 1.22998 17.5161 1.05936 17.4109 0.90624C17.2095 0.604372 16.8984 0.398751 16.5324 0.324378C15.9559 0.210631 15.3839 0.45125 15.0728 0.89749C14.8898 0.390002 14.391 0.0181351 13.8008 0.000635485C13.2014 -0.0168641 12.6752 0.328753 12.4602 0.827492C12.1673 0.359377 11.5908 0.0837585 11.0052 0.188756C10.6391 0.250005 10.3189 0.446875 10.1084 0.739994C9.98484 0.90624 9.90706 1.08999 9.87503 1.28248C9.47696 0.888741 8.85012 0.744369 8.29649 0.980613C7.95332 1.12499 7.68795 1.38748 7.55526 1.72435C7.47747 1.91247 7.45002 2.11371 7.46832 2.31058C7.28988 2.20559 7.08398 2.13559 6.86893 2.11371C6.49832 2.07871 6.13686 2.17934 5.85318 2.40246C5.56034 2.6212 5.37733 2.93619 5.33615 3.29056C5.30869 3.50056 5.33615 3.70618 5.40935 3.89867C4.85572 3.74118 4.2243 3.92492 3.86284 4.39741C3.50595 4.87428 3.52425 5.49989 3.86284 5.9505C3.66152 5.94175 3.4602 5.97675 3.2726 6.0555C2.92486 6.1955 2.65949 6.45362 2.52222 6.78173C2.29345 7.31547 2.45816 7.91046 2.88368 8.27795C2.67321 8.31732 2.47189 8.40482 2.29802 8.53169C2.00062 8.75044 1.81302 9.06543 1.76269 9.4198C1.71236 9.77417 1.81302 10.1242 2.0418 10.4085C2.19736 10.601 2.39868 10.7454 2.62746 10.8329C2.39868 10.9729 2.21566 11.1741 2.10585 11.4148C1.95486 11.7385 1.94571 12.1016 2.0784 12.4297C2.31175 13.0247 2.97519 13.3922 3.64779 13.2697C3.53798 13.506 3.50595 13.7685 3.55628 14.0309C3.62034 14.3809 3.82624 14.6872 4.13737 14.8884C4.6361 15.2253 5.35902 15.1859 5.82115 14.8184C5.83487 15.0284 5.89893 15.234 6.01332 15.4222C6.20091 15.7284 6.50289 15.9472 6.85978 16.0347C7.43629 16.1834 8.03111 15.9559 8.35597 15.5228C8.51611 16.0215 8.97823 16.4065 9.55932 16.459C9.60508 16.4678 9.64168 16.4678 9.68743 16.4678C10.2182 16.4678 10.6895 16.1746 10.9274 15.7459C11.1516 16.2053 11.6457 16.529 12.2314 16.529C12.7988 16.5115 13.2792 16.1703 13.4851 15.7022C13.7276 16.109 14.1851 16.3846 14.6976 16.3846L14.8028 16.3803C14.812 16.3803 14.876 16.3715 14.8898 16.3715C15.3702 16.3278 15.7774 16.0521 15.9879 15.6715C16.1755 16.0521 16.5415 16.3453 17.0036 16.4284H17.0082C17.42 16.4984 17.8318 16.389 18.1384 16.1528C18.1384 16.1746 18.1429 16.1965 18.1475 16.2228C18.1933 16.5771 18.3809 16.8965 18.6783 17.1152C19.0718 17.4084 19.6254 17.474 20.0692 17.2946C19.996 17.5702 20.0189 17.859 20.1287 18.1259C20.2705 18.454 20.5359 18.7165 20.8837 18.8521V18.8565C20.9569 18.8827 21.0346 18.9046 21.1078 18.9177V20.1252H21.7301V18.9133C22.1648 18.8171 22.5354 18.5415 22.7093 18.1434C22.8008 17.9334 22.8328 17.7146 22.8145 17.5046C23.3681 17.6621 24.0224 17.4521 24.361 16.9884C24.5761 16.6953 24.6539 16.3365 24.5898 15.9865C24.5486 15.7809 24.4617 15.5928 24.3336 15.4309H24.3473C24.9421 15.4309 25.4729 15.0678 25.665 14.5297C25.7886 14.1972 25.7657 13.8341 25.6056 13.5103C25.5095 13.3222 25.3722 13.1647 25.2075 13.0422C25.7703 12.8978 26.2004 12.4254 26.2461 11.8479ZM22.0641 15.4615C22.0504 15.4747 22.0412 15.4965 22.0321 15.514C21.8674 15.7634 21.7942 16.0521 21.8216 16.3409C21.5196 16.2534 21.1948 16.2709 20.8974 16.3846C20.8974 16.3846 20.8928 16.389 20.8882 16.389C20.9294 16.2271 20.9431 16.0609 20.9157 15.8903C20.8699 15.5359 20.6778 15.2209 20.3849 15.0022C20.1378 14.8228 19.8404 14.7266 19.5339 14.7266C19.4698 14.7266 19.4058 14.7309 19.3417 14.7397C19.0855 14.7703 18.8476 14.8709 18.6508 15.024C18.6096 14.4291 18.1475 13.9128 17.5115 13.8034C16.903 13.6941 16.3082 13.9828 16.0245 14.4816C15.9421 14.3022 15.814 14.1447 15.6493 14.0134C15.3656 13.786 14.9996 13.6766 14.629 13.7116C14.6152 13.7116 14.5969 13.716 14.5786 13.7203C14.5878 13.716 14.5878 13.716 14.5695 13.716C14.0387 13.7641 13.6041 14.0922 13.4119 14.5297C13.3432 14.4203 13.2609 14.3153 13.1602 14.2234C12.8903 13.9784 12.5425 13.8647 12.1628 13.8559C11.7922 13.8647 11.4444 14.0091 11.1836 14.2672C11.0921 14.3591 11.0143 14.4641 10.9548 14.5734C10.7489 14.1491 10.3189 13.8384 9.80182 13.7991C9.77894 13.7947 9.75607 13.7991 9.73319 13.7991C9.38545 13.7903 9.04687 13.8997 8.77691 14.1184C8.68998 14.1884 8.61677 14.2672 8.55271 14.3547C8.41545 13.9303 8.05856 13.5803 7.57813 13.4578C7.2121 13.366 6.83233 13.4141 6.51205 13.5935C6.44341 13.6328 6.38393 13.6722 6.32445 13.7203C6.31988 13.6635 6.3153 13.6066 6.30615 13.5541C6.23752 13.1997 6.03162 12.8935 5.72506 12.6922C5.4185 12.491 5.04789 12.4122 4.68185 12.4779C4.67728 12.4779 4.66812 12.4779 4.66355 12.4822C4.80081 12.1716 4.82369 11.8129 4.691 11.476C4.54459 11.1173 4.24718 10.8504 3.89487 10.7148C4.23345 10.5091 4.47595 10.1679 4.53544 9.76104C4.59492 9.31043 4.40732 8.88169 4.08246 8.59732C4.54001 8.51419 4.92435 8.2167 5.11195 7.78796C5.29497 7.35047 5.21718 6.86923 4.9518 6.51049C5.40935 6.51486 5.85318 6.32237 6.12771 5.95925C6.40681 5.58738 6.46172 5.12364 6.30615 4.71678C6.7454 4.84803 7.2487 4.76053 7.60101 4.48491C7.97163 4.19617 8.15007 3.7543 8.11347 3.32556C8.48866 3.55743 8.98738 3.60555 9.43121 3.42181C9.87503 3.23369 10.1633 2.8487 10.2411 2.41996C10.4973 2.67808 10.8588 2.83557 11.2523 2.83557C11.3438 2.83557 11.4215 2.82682 11.4993 2.8137C11.8699 2.75245 12.1902 2.55558 12.4007 2.26246C12.4602 2.18371 12.5105 2.10059 12.5471 2.01309C12.7805 2.39371 13.2014 2.65183 13.7047 2.66933H13.755C14.2355 2.66933 14.6656 2.42871 14.9172 2.06996C14.9538 2.17059 15.0042 2.26683 15.0636 2.35871C15.2695 2.6562 15.5807 2.86182 15.9421 2.93619C16.0336 2.95807 16.1297 2.96682 16.2441 2.96682C16.6422 2.96682 17.0082 2.80057 17.2644 2.5337C17.2873 2.65183 17.3239 2.7612 17.3743 2.87057C17.5298 3.19431 17.8089 3.43493 18.1567 3.55743C18.5639 3.71493 19.1038 3.64493 19.4744 3.38243C19.4698 3.8068 19.6803 4.22679 20.0646 4.48928C20.0646 4.48928 20.0692 4.48928 20.0692 4.49366C20.4444 4.74303 20.9431 4.7999 21.3595 4.64678C21.2314 5.05802 21.3137 5.51739 21.6112 5.87175C21.9086 6.21737 22.3615 6.40112 22.8191 6.36174C22.7733 6.43612 22.7321 6.51486 22.7001 6.59361C22.5674 6.93048 22.5766 7.2936 22.7321 7.61734C22.9243 8.02858 23.3178 8.31732 23.7708 8.3917C23.7067 8.44857 23.6472 8.51857 23.5923 8.58857C23.3773 8.88169 23.2904 9.23605 23.3544 9.58605C23.4368 10.041 23.7525 10.4085 24.1734 10.5835C24.0956 10.6273 24.0179 10.6754 23.9447 10.7366C23.661 10.9685 23.4871 11.2923 23.4642 11.6466C23.4322 12.0054 23.5466 12.3466 23.7891 12.6179C23.8531 12.6879 23.9172 12.7491 23.9904 12.8016C23.9035 12.8235 23.8211 12.8541 23.7388 12.8935C23.4002 13.0466 23.1485 13.3178 23.025 13.6591C22.8694 14.0922 22.9609 14.5472 23.2263 14.8884C23.1394 14.8928 23.0524 14.8972 22.9701 14.9103C22.604 14.9715 22.2792 15.1684 22.0641 15.4615Z" fill="#828282"/>
</svg>
