<svg width="18" height="16" viewBox="0 0 18 16" fill="none" xmlns="http://www.w3.org/2000/svg">
<path d="M10.417 9.50293L9.72656 9.44824C8.19571 9.32548 4.89063 9.81417 1.56934 14.7959C1.56178 14.8071 1.55196 14.8168 1.54004 14.8232C1.5279 14.8297 1.51377 14.833 1.5 14.833H1.49902C1.49209 14.833 1.48516 14.8321 1.47852 14.8301L1.47656 14.8291L1.45215 14.8174C1.44505 14.8123 1.43885 14.8059 1.43359 14.7988C1.42824 14.7916 1.42367 14.7838 1.4209 14.7754L1.41699 14.749V13.251C1.41962 11.0547 2.28814 8.94782 3.83398 7.3877C5.37986 5.82756 7.47862 4.93978 9.6748 4.91699L10.417 4.90918V1.25C10.417 1.23369 10.4216 1.21769 10.4307 1.2041C10.4398 1.19041 10.4535 1.17915 10.4688 1.17285C10.4838 1.16675 10.5007 1.16577 10.5166 1.16895L10.5586 1.19141L16.5596 7.19043L16.5771 7.21777C16.5813 7.22785 16.584 7.23909 16.584 7.25C16.5839 7.26075 16.5813 7.27132 16.5771 7.28125C16.573 7.29133 16.5673 7.30088 16.5596 7.30859L10.5586 13.3086C10.5471 13.3201 10.5325 13.3278 10.5166 13.3311C10.5004 13.3343 10.483 13.3334 10.4678 13.3271C10.4526 13.3208 10.4398 13.3095 10.4307 13.2959C10.4216 13.2823 10.417 13.2663 10.417 13.25V9.50293Z" stroke="#333333" stroke-width="1.5"/>
</svg>
