<svg width="24" height="24" viewBox="0 0 24 24" fill="none" xmlns="http://www.w3.org/2000/svg">
<path d="M12.7959 15.181L14.0556 14.0153L12.7959 12.8496C12.1579 12.2592 11.3278 11.9341 10.4585 11.9341H9.71586C9.72013 11.938 9.72452 11.9418 9.72875 11.9457L11.9653 14.0153L9.72875 16.085C9.72448 16.0889 9.72009 16.0927 9.71582 16.0966H10.4585C11.3277 16.0965 12.1578 15.7714 12.7959 15.181Z" fill="#8D1B3D"/>
<path d="M10.4589 10.7026C11.6392 10.7026 12.7664 11.1441 13.6327 11.9457L15.8693 14.0154L13.6327 16.085C12.7663 16.8866 11.6392 17.3281 10.4589 17.3281H8.59082V19.2338C8.59866 19.3362 8.60264 19.4397 8.60288 19.5441H15.2616C15.5021 18.4317 16.38 17.5538 17.4924 17.3134V10.7173C16.38 10.4769 15.5021 9.59898 15.2616 8.48657H8.59082V10.7026H10.4589Z" fill="#8D1B3D"/>
<path d="M8.59082 12.6006V15.4292C8.69619 15.3521 10.1526 14.0149 10.1526 14.0149C10.1526 14.0149 8.69619 12.6777 8.59082 12.6006Z" fill="#8D1B3D"/>
<path d="M22.5043 6.81247V5.58098L8.59088 5.57568V7.26416H16.4277V7.87991C16.4277 8.80656 17.1816 9.56043 18.1082 9.56043H18.724V18.4884H18.1082C17.1816 18.4884 16.4277 19.2423 16.4277 20.1689V20.7847H8.41871C8.21551 21.441 7.85314 22.0281 7.37695 22.5006L22.5043 22.4679V21.2364H20.6867V19.8587H22.5043V18.6272H20.6867V17.2494H22.5043V16.018H20.6867V14.6402H22.5043V13.4087H20.6867V12.031H22.5043V10.7995H20.6867V9.42177H22.5043V8.19028H20.6867V6.81255H22.5043V6.81247Z" fill="#8D1B3D" fill-opacity="0.65"/>
<path d="M4.44176 4.89771C2.8708 4.89771 1.584 6.13112 1.49512 7.68017V13.4097C2.24804 12.6373 3.29902 12.1567 4.4603 12.1567C5.60911 12.1567 6.65013 12.6269 7.40124 13.3848V7.68789C7.31598 6.13519 6.0153 4.89771 4.44176 4.89771Z" fill="#8D1B3D" fill-opacity="0.65"/>
<path d="M4.44176 3.70882C5.60005 3.70882 6.64882 4.18665 7.40128 4.95558V4.45308C7.40128 2.82476 6.07652 1.5 4.4482 1.5C2.81988 1.50004 1.49512 2.82476 1.49512 4.45308V4.94269C2.24668 4.1814 3.28999 3.70882 4.44176 3.70882Z" fill="#8D1B3D" fill-opacity="0.65"/>
<path d="M7.38918 16.0397C7.25676 14.533 5.98875 13.3472 4.44824 13.3472C2.81988 13.3471 1.49512 14.6719 1.49512 16.3003C1.49512 16.4122 1.50197 16.5226 1.51416 16.6314C2.26478 15.8776 3.30292 15.4104 4.4482 15.4104C5.59348 15.4104 6.63162 15.8776 7.38224 16.6314C7.38487 16.608 7.38708 16.5844 7.38914 16.5608V16.0397H7.38918Z" fill="#8D1B3D" fill-opacity="0.65"/>
<path d="M4.4482 22.5006C6.07914 22.5006 7.40128 21.1785 7.40128 19.5476C7.40128 17.9166 6.07914 16.5945 4.4482 16.5945C2.81726 16.5945 1.49512 17.9166 1.49512 19.5476C1.49512 21.1785 2.81726 22.5006 4.4482 22.5006Z" fill="#8D1B3D" fill-opacity="0.65"/>
</svg>
