<svg width="24" height="24" viewBox="0 0 24 24" fill="none" xmlns="http://www.w3.org/2000/svg">
<path d="M22.5541 5.04814L16.2089 4.31032C15.3088 4.20571 14.398 4.4838 13.7101 5.07349L11.899 6.62588C11.7809 6.72714 11.6301 6.78288 11.4746 6.78288H10.8701V5.26114C10.8701 4.18232 9.99239 3.30463 8.91357 3.30463H8.51409L8.22796 2.44624C8.09601 2.05041 7.63149 1.87859 7.27371 2.09324L5.24841 3.30841C2.81755 3.40693 0.870117 5.41527 0.870117 7.86987C0.870117 10.3868 2.91733 12.4346 5.43419 12.4351C6.38888 12.4387 7.34471 12.2136 8.19797 11.7854L8.90462 11.4309C9.29592 11.2345 9.73422 11.1307 10.172 11.1307H11.097C11.3582 11.1307 11.5935 11.2859 11.6964 11.526C12.3858 13.1347 13.9623 14.1742 15.7125 14.1742H22.4787C22.8389 14.1742 23.1309 13.8822 23.1309 13.522V5.69597C23.1309 5.36493 22.8829 5.0864 22.5541 5.04814Z" fill="#8D1B3D"/>
<path d="M22.4787 15.4781H13.1817C12.7942 15.4781 12.4189 15.3645 12.0964 15.1495L10.8021 14.2867C10.2647 13.9284 9.63918 13.739 8.99327 13.739H2.39185C1.55277 13.739 0.870117 14.4217 0.870117 15.2607V20.4781C0.870117 21.3172 1.55277 21.9999 2.39185 21.9999H22.4787C22.8389 21.9999 23.1309 21.7079 23.1309 21.3477V16.1303C23.1309 15.7701 22.8389 15.4781 22.4787 15.4781ZM4.82663 19.3912H4.17446C3.81428 19.3912 3.52228 19.0992 3.52228 18.739C3.52228 18.3788 3.81428 18.0868 4.17446 18.0868H4.82663C5.1868 18.0868 5.4788 18.3788 5.4788 18.739C5.4788 19.0992 5.1868 19.3912 4.82663 19.3912ZM8.73966 19.3912H7.43532C7.07514 19.3912 6.78314 19.0992 6.78314 18.739C6.78314 18.3788 7.07514 18.0868 7.43532 18.0868H8.73966C9.09983 18.0868 9.39183 18.3788 9.39183 18.739C9.39183 19.0992 9.09983 19.3912 8.73966 19.3912ZM12.6527 19.3912H11.3483C10.9882 19.3912 10.6962 19.0992 10.6962 18.739C10.6962 18.3788 10.9882 18.0868 11.3483 18.0868H12.6527C13.0129 18.0868 13.3049 18.3788 13.3049 18.739C13.3049 19.0992 13.0129 19.3912 12.6527 19.3912ZM16.5657 19.3912H15.2614C14.9012 19.3912 14.6092 19.0992 14.6092 18.739C14.6092 18.3788 14.9012 18.0868 15.2614 18.0868H16.5657C16.9259 18.0868 17.2179 18.3788 17.2179 18.739C17.2179 19.0992 16.9259 19.3912 16.5657 19.3912ZM19.8266 19.3912H19.1744C18.8142 19.3912 18.5222 19.0992 18.5222 18.739C18.5222 18.3788 18.8142 18.0868 19.1744 18.0868H19.8266C20.1868 18.0868 20.4788 18.3788 20.4788 18.739C20.4788 19.0992 20.1868 19.3912 19.8266 19.3912Z" fill="#8D1B3D" fill-opacity="0.65"/>
</svg>
