<svg width="20" height="20" viewBox="0 0 20 20" fill="none" xmlns="http://www.w3.org/2000/svg">
<path fill-rule="evenodd" clip-rule="evenodd" d="M15.5157 3.22231C16.8951 5.12486 17.7087 7.46395 17.7087 9.99145C17.7087 12.5135 16.8987 14.8479 15.5246 16.7483C15.2755 17.0927 15.353 17.5746 15.6975 17.8237C16.0419 18.0728 16.5239 17.9954 16.7729 17.6509C18.3306 15.4966 19.2492 12.8504 19.2492 9.99145C19.2491 7.12626 18.3266 4.47478 16.7628 2.31803C16.5133 1.97387 16.0313 1.89704 15.6871 2.14657C15.343 2.39611 15.2661 2.87811 15.5157 3.22227V3.22231ZM4.70722 6.52599L1.92259 6.52596C1.7183 6.52596 1.52239 6.60711 1.37794 6.75156C1.23349 6.89601 1.15234 7.09192 1.15234 7.2962V12.6867C1.15234 13.1121 1.49719 13.457 1.92258 13.457H4.70724C5.5239 14.192 8.33787 16.7245 8.33787 16.7245C8.56396 16.928 8.88862 16.9794 9.16649 16.8556C9.44435 16.7319 9.62336 16.4562 9.62336 16.152V3.83095C9.62336 3.52677 9.44435 3.25109 9.16649 3.12734C8.88862 3.00359 8.56396 3.05496 8.33787 3.25844L4.70722 6.52601V6.52599ZM13.3029 5.44259C14.1421 6.75687 14.6284 8.31783 14.6284 9.99146C14.6284 11.6349 14.1595 13.1697 13.348 14.469C13.1228 14.8295 13.2327 15.3051 13.5932 15.5303C13.9538 15.7555 14.4293 15.6456 14.6545 15.2851C15.614 13.7489 16.1689 11.9345 16.1689 9.99146C16.1689 8.01277 15.5934 6.16741 14.6013 4.61355C14.3725 4.25526 13.8959 4.1501 13.5376 4.37888C13.1793 4.60765 13.0741 5.08428 13.3029 5.44257V5.44259ZM5.00278 8.06645L5.00285 8.06641L5.51805 7.86871C5.51805 7.86871 6.96329 6.568 8.08288 5.56037V14.4225L5.51805 12.1142C5.37662 11.9869 5.19307 11.9165 5.00279 11.9165H2.6928V8.06646L5.00278 8.06648V8.06645ZM10.9731 7.56773C11.3411 8.29647 11.5482 9.11999 11.5482 9.99146C11.5482 10.8303 11.3564 11.6246 11.0138 12.3328C10.8287 12.7155 10.9892 13.1765 11.3718 13.3616C11.7545 13.5467 12.2155 13.3863 12.4006 13.0036C12.8413 12.0925 13.0886 11.0706 13.0886 9.99146C13.0886 8.87026 12.8217 7.81089 12.3482 6.87333C12.1566 6.49386 11.6929 6.34136 11.3134 6.53299C10.934 6.72462 10.7815 7.18827 10.9731 7.56773Z" fill="#65A865"/>
</svg>
