<svg width="360" height="740" viewBox="0 0 360 740" fill="none" xmlns="http://www.w3.org/2000/svg">
<g clip-path="url(#clip0_274_948)">
<rect width="360" height="740" fill="white"/>
<rect width="360" height="740" fill="url(#paint0_linear_274_948)"/>
<rect width="360" height="414" fill="url(#paint1_radial_274_948)"/>
<rect x="360" y="740" width="360" height="267" transform="rotate(-180 360 740)" fill="url(#paint2_radial_274_948)"/>
<rect width="360" height="740" fill="url(#paint3_linear_274_948)"/>
<g clip-path="url(#clip1_274_948)">
<path d="M75.4021 651.675C82.1488 651.068 87.8316 656.374 87.8318 663.051V687.409H65.0007V663.315C65.0007 657.331 69.4782 652.179 75.3992 651.675H75.4021ZM76.2722 661.391L76.2654 661.392C75.3671 661.474 74.8047 662.327 74.8044 663.103V677.642H78.0281V662.998C78.0279 662.079 77.256 661.316 76.2722 661.391Z" stroke="#D5CCA1"/>
<path d="M76.8193 708.597L69.9014 715.491L62.9834 708.597L69.9014 701.704L76.8193 708.597Z" stroke="white"/>
<path d="M74.1672 648.634C71.0267 649.101 68.2273 650.556 66.054 652.722C63.4215 655.345 61.7766 659.008 61.7766 663.051V729.681H65.0002V716.698H74.804V729.734H78.0286V703.714H100.859V739.5H51.9202V663.051L51.925 662.581C52.1089 652.869 57.981 644.529 66.3469 640.794L74.1672 648.634ZM89.6438 713.483C88.7232 713.406 87.8841 714.157 87.884 715.089V729.734H91.1086V715.195C91.1085 714.352 90.5338 713.563 89.6477 713.483H89.6438ZM86.4846 640.791C89.209 641.975 91.6476 643.681 93.7512 645.778C98.1622 650.174 100.912 656.276 100.912 663.051V700.445H65.0002V690.678H91.1086V663.051C91.1086 655.705 85.7255 649.651 78.6682 648.581L86.4846 640.791Z" stroke="#D5CCA1"/>
<path d="M83.3333 639.301L76.4153 646.194L69.4973 639.301L76.4153 632.407L83.3333 639.301Z" stroke="white"/>
<path d="M83.3342 624.1L76.4172 630.994L69.4973 624.049L76.4143 617.156L83.3342 624.1Z" stroke="white"/>
</g>
<g clip-path="url(#clip2_274_948)">
<path d="M179.671 651.675C186.418 651.068 192.1 656.374 192.101 663.051V687.409H169.27V663.315C169.27 657.331 173.747 652.179 179.668 651.675H179.671ZM180.541 661.391L180.534 661.392C179.636 661.474 179.073 662.327 179.073 663.103V677.642H182.297V662.998C182.297 662.079 181.525 661.316 180.541 661.391Z" stroke="#D5CCA1"/>
<path d="M181.088 708.597L174.17 715.491L167.252 708.597L174.17 701.704L181.088 708.597Z" stroke="white"/>
<path d="M178.436 648.634C175.295 649.101 172.496 650.556 170.323 652.722C167.69 655.345 166.045 659.008 166.045 663.051V729.681H169.269V716.698H179.073V729.734H182.297V703.714H205.127V739.5H156.189V663.051L156.194 662.581C156.378 652.869 162.25 644.529 170.616 640.794L178.436 648.634ZM193.913 713.483C192.992 713.406 192.153 714.157 192.153 715.089V729.734H195.377V715.195C195.377 714.352 194.803 713.563 193.917 713.483H193.913ZM190.753 640.791C193.478 641.975 195.916 643.681 198.02 645.778C202.431 650.174 205.181 656.276 205.181 663.051V700.445H169.269V690.678H195.377V663.051C195.377 655.705 189.994 649.651 182.937 648.581L190.753 640.791Z" stroke="#D5CCA1"/>
<path d="M187.602 639.301L180.684 646.194L173.766 639.301L180.684 632.407L187.602 639.301Z" stroke="white"/>
<path d="M187.603 624.1L180.686 630.994L173.766 624.049L180.683 617.156L187.603 624.1Z" stroke="white"/>
</g>
<g clip-path="url(#clip3_274_948)">
<path d="M129.906 651.674C123.268 651.068 117.663 656.367 117.663 663.051V687.409H140.153V663.315C140.153 657.324 135.736 652.178 129.909 651.675L129.906 651.674ZM129.051 661.391L129.058 661.392C129.953 661.475 130.503 662.334 130.503 663.103V677.642H127.311V662.998C127.311 662.086 128.07 661.315 129.051 661.391Z" stroke="#D5CCA1"/>
<path d="M128.515 708.597L135.329 715.486L142.142 708.597L135.329 701.708L128.515 708.597Z" stroke="white"/>
<path d="M131.128 648.635C134.226 649.103 136.987 650.559 139.129 652.725C141.725 655.349 143.345 659.01 143.345 663.051V729.681H140.153V716.698H130.503V729.734H127.311V703.714H104.821V739.5H153.046V663.051L153.042 662.581C152.861 652.868 147.073 644.531 138.834 640.796L131.128 648.635ZM115.868 713.483C116.787 713.405 117.61 714.165 117.61 715.089V729.734H114.417V715.195C114.418 714.358 114.981 713.564 115.864 713.483H115.868ZM118.98 640.794C116.299 641.977 113.899 643.681 111.828 645.775C107.48 650.17 104.769 656.273 104.769 663.051V700.445H140.153V690.678H114.417V663.051C114.417 655.711 119.72 649.653 126.684 648.582L118.98 640.794Z" stroke="#D5CCA1"/>
<path d="M122.094 639.301L128.908 646.19L135.721 639.301L128.908 632.411L122.094 639.301Z" stroke="white"/>
<path d="M122.094 624.1L128.907 630.989L135.723 624.049L128.91 617.161L122.094 624.1Z" stroke="white"/>
</g>
<g clip-path="url(#clip4_274_948)">
<path d="M23.9819 651.675C30.7286 651.068 36.4114 656.374 36.4116 663.051V687.409H13.5806V663.315C13.5806 657.331 18.0581 652.179 23.979 651.675H23.9819ZM24.8521 661.391L24.8452 661.392C23.9469 661.474 23.3845 662.327 23.3843 663.103V677.642H26.6079V662.998C26.6077 662.079 25.8358 661.316 24.8521 661.391Z" stroke="#D5CCA1"/>
<path d="M25.3992 708.597L18.4812 715.491L11.5632 708.597L18.4812 701.704L25.3992 708.597Z" stroke="white"/>
<path d="M22.7471 648.634C19.6065 649.101 16.8071 650.556 14.6338 652.722C12.0013 655.345 10.3564 659.008 10.3564 663.051V729.681H13.5801V716.698H23.3838V729.734H26.6084V703.714H49.4385V739.5H0.5V663.051L0.504883 662.581C0.688715 652.869 6.56088 644.529 14.9268 640.794L22.7471 648.634ZM38.2236 713.483C37.303 713.406 36.4639 714.157 36.4639 715.089V729.734H39.6885V715.195C39.6884 714.352 39.1137 713.563 38.2275 713.483H38.2236ZM35.0645 640.791C37.7889 641.975 40.2274 643.681 42.3311 645.778C46.7421 650.174 49.4922 656.276 49.4922 663.051V700.445H13.5801V690.678H39.6885V663.051C39.6885 655.705 34.3054 649.651 27.248 648.581L35.0645 640.791Z" stroke="#D5CCA1"/>
<path d="M31.9131 639.301L24.9951 646.194L18.0771 639.301L24.9951 632.407L31.9131 639.301Z" stroke="white"/>
<path d="M31.9141 624.1L24.9971 630.994L18.0771 624.049L24.9941 617.156L31.9141 624.1Z" stroke="white"/>
</g>
<g clip-path="url(#clip5_274_948)">
<path d="M233.46 651.674C226.822 651.068 221.218 656.367 221.217 663.051V687.409H243.708V663.315C243.708 657.324 239.29 652.178 233.463 651.675L233.46 651.674ZM232.606 661.391L232.613 661.392C233.507 661.475 234.058 662.334 234.058 663.103V677.642H230.866V662.998C230.866 662.086 231.624 661.315 232.606 661.391Z" stroke="#D5CCA1"/>
<path d="M232.07 708.597L238.883 715.486L245.697 708.597L238.883 701.708L232.07 708.597Z" stroke="white"/>
<path d="M234.683 648.635C237.781 649.103 240.542 650.559 242.684 652.725C245.279 655.349 246.9 659.01 246.9 663.051V729.681H243.708V716.698H234.058V729.734H230.866V703.714H208.375V739.5H256.601V663.051L256.597 662.581C256.416 652.868 250.628 644.531 242.389 640.796L234.683 648.635ZM219.422 713.483C220.342 713.405 221.164 714.165 221.165 715.089V729.734H217.972V715.195C217.972 714.358 218.536 713.564 219.418 713.483H219.422ZM222.535 640.794C219.854 641.977 217.454 643.681 215.382 645.775C211.035 650.17 208.324 656.273 208.324 663.051V700.445H243.708V690.678H217.972V663.051C217.972 655.711 223.275 649.653 230.239 648.582L222.535 640.794Z" stroke="#D5CCA1"/>
<path d="M225.649 639.301L232.463 646.19L239.276 639.301L232.463 632.411L225.649 639.301Z" stroke="white"/>
<path d="M225.648 624.1L232.462 630.989L239.278 624.049L232.465 617.161L225.648 624.1Z" stroke="white"/>
</g>
<g clip-path="url(#clip6_274_948)">
<path d="M284.726 651.674C278.088 651.068 272.483 656.367 272.483 663.051V687.409H294.973V663.315C294.973 657.324 290.556 652.178 284.729 651.675L284.726 651.674ZM283.872 661.391L283.878 661.392C284.773 661.475 285.324 662.334 285.324 663.103V677.642H282.131V662.998C282.132 662.086 282.89 661.315 283.872 661.391Z" stroke="#D5CCA1"/>
<path d="M283.335 708.597L290.149 715.486L296.962 708.597L290.149 701.708L283.335 708.597Z" stroke="white"/>
<path d="M285.949 648.635C289.047 649.103 291.807 650.559 293.95 652.725C296.545 655.349 298.166 659.01 298.166 663.051V729.681H294.973V716.698H285.324V729.734H282.131V703.714H259.641V739.5H307.867V663.051L307.863 662.581C307.682 652.868 301.894 644.531 293.655 640.796L285.949 648.635ZM270.688 713.483C271.607 713.405 272.43 714.165 272.43 715.089V729.734H269.238V715.195C269.238 714.358 269.801 713.564 270.684 713.483H270.688ZM273.8 640.794C271.119 641.977 268.719 643.681 266.648 645.775C262.3 650.17 259.589 656.273 259.589 663.051V700.445H294.973V690.678H269.238V663.051C269.238 655.711 274.541 649.653 281.504 648.582L273.8 640.794Z" stroke="#D5CCA1"/>
<path d="M276.915 639.301L283.728 646.19L290.542 639.301L283.728 632.411L276.915 639.301Z" stroke="white"/>
<path d="M276.914 624.1L283.727 630.989L290.544 624.049L283.73 617.161L276.914 624.1Z" stroke="white"/>
</g>
<g clip-path="url(#clip7_274_948)">
<path d="M336.359 651.674C329.721 651.068 324.116 656.367 324.116 663.051V687.409H346.606V663.315C346.606 657.324 342.189 652.178 336.362 651.675L336.359 651.674ZM335.505 661.391L335.512 661.392C336.406 661.475 336.957 662.334 336.957 663.103V677.642H333.765V662.998C333.765 662.086 334.523 661.315 335.505 661.391Z" stroke="#D5CCA1"/>
<path d="M334.969 708.597L341.782 715.486L348.596 708.597L341.782 701.708L334.969 708.597Z" stroke="white"/>
<path d="M337.582 648.635C340.68 649.103 343.441 650.559 345.583 652.725C348.178 655.349 349.799 659.01 349.799 663.051V729.681H346.606V716.698H336.957V729.734H333.765V703.714H311.274V739.5H359.5V663.051L359.496 662.581C359.315 652.868 353.527 644.531 345.288 640.796L337.582 648.635ZM322.321 713.483C323.241 713.405 324.063 714.165 324.063 715.089V729.734H320.871V715.195C320.871 714.358 321.434 713.564 322.317 713.483H322.321ZM325.434 640.794C322.753 641.977 320.352 643.681 318.281 645.775C313.934 650.17 311.223 656.273 311.223 663.051V700.445H346.606V690.678H320.871V663.051C320.871 655.711 326.174 649.653 333.138 648.582L325.434 640.794Z" stroke="#D5CCA1"/>
<path d="M328.548 639.301L335.362 646.19L342.175 639.301L335.362 632.411L328.548 639.301Z" stroke="white"/>
<path d="M328.547 624.1L335.361 630.989L342.177 624.049L335.364 617.161L328.547 624.1Z" stroke="white"/>
</g>
<rect y="322" width="360" height="418" fill="url(#paint4_linear_274_948)"/>
<g clip-path="url(#clip8_274_948)">
<path d="M178.805 308.351C171.817 308.949 166.561 315.049 166.561 322.105V349.974H193.439V321.806C193.439 313.912 186.749 307.633 178.805 308.351ZM181.254 337.774H178.746V321.866C178.746 321.208 179.223 320.551 179.88 320.491C180.657 320.431 181.254 321.029 181.254 321.747V337.774Z" fill="#D5CCA1"/>
<path d="M172.653 382.029L181.254 373.417L172.653 364.805L164.052 373.417L172.653 382.029Z" fill="white"/>
<path d="M181.254 396.8H178.746V382.029H166.561V396.74H164.052V321.806C164.052 317.381 165.844 313.374 168.711 310.504C171.339 307.872 174.804 306.198 178.686 305.899L168.771 295.912C158.796 300.217 151.808 310.205 151.808 321.806V409H208.132V367.317H181.254V396.8ZM193.498 380.773C193.498 380.055 194.156 379.457 194.872 379.517C195.529 379.577 196.007 380.175 196.007 380.892V396.8H193.498V380.773ZM199.949 301.832C197.441 299.32 194.514 297.287 191.229 295.912L181.314 305.839C189.556 306.497 196.007 313.374 196.007 321.806V352.545H166.561V364.745H208.192V321.806C208.192 313.972 205.026 306.915 199.949 301.832Z" fill="#D5CCA1"/>
<path d="M180 303.507L188.601 294.895L180 286.283L171.399 294.895L180 303.507C180 303.566 180 303.566 180 303.507Z" fill="white"/>
<path d="M180 286.283L188.601 277.672L180 269L171.399 277.612L180 286.283Z" fill="white"/>
</g>
</g>
<defs>
<linearGradient id="paint0_linear_274_948" x1="170.671" y1="4.82743e-05" x2="408.213" y2="86.2654" gradientUnits="userSpaceOnUse">
<stop stop-color="#199C6D"/>
<stop offset="1" stop-color="#158167"/>
</linearGradient>
<radialGradient id="paint1_radial_274_948" cx="0" cy="0" r="1" gradientUnits="userSpaceOnUse" gradientTransform="translate(75.5 -40.5) rotate(74.1177) scale(436.669 402.267)">
<stop stop-color="#2BDC8D"/>
<stop offset="1" stop-color="#1AA96E" stop-opacity="0"/>
</radialGradient>
<radialGradient id="paint2_radial_274_948" cx="0" cy="0" r="1" gradientUnits="userSpaceOnUse" gradientTransform="translate(448.5 728.5) rotate(68.8896) scale(254.05 274.033)">
<stop stop-color="#2BDCB1"/>
<stop offset="1" stop-color="#1AA96E" stop-opacity="0"/>
</radialGradient>
<linearGradient id="paint3_linear_274_948" x1="30.5" y1="169" x2="233" y2="444.5" gradientUnits="userSpaceOnUse">
<stop stop-color="#8D1B3D"/>
<stop offset="1" stop-color="#80082C"/>
</linearGradient>
<linearGradient id="paint4_linear_274_948" x1="152" y1="264.674" x2="105.339" y2="735.167" gradientUnits="userSpaceOnUse">
<stop stop-color="#8D1B3D" stop-opacity="0"/>
<stop offset="1" stop-color="#54061E" stop-opacity="0.7"/>
</linearGradient>
<clipPath id="clip0_274_948">
<rect width="360" height="740" fill="white"/>
</clipPath>
<clipPath id="clip1_274_948">
<rect width="49.9919" height="123.551" fill="white" transform="translate(51.4202 616.449)"/>
</clipPath>
<clipPath id="clip2_274_948">
<rect width="49.9919" height="123.551" fill="white" transform="translate(155.689 616.449)"/>
</clipPath>
<clipPath id="clip3_274_948">
<rect width="49.2777" height="123.551" fill="white" transform="matrix(-1 0 0 1 153.546 616.449)"/>
</clipPath>
<clipPath id="clip4_274_948">
<rect width="49.9919" height="123.551" fill="white" transform="translate(0 616.449)"/>
</clipPath>
<clipPath id="clip5_274_948">
<rect width="49.2777" height="123.551" fill="white" transform="matrix(-1 0 0 1 257.101 616.449)"/>
</clipPath>
<clipPath id="clip6_274_948">
<rect width="49.2777" height="123.551" fill="white" transform="matrix(-1 0 0 1 308.367 616.449)"/>
</clipPath>
<clipPath id="clip7_274_948">
<rect width="49.2777" height="123.551" fill="white" transform="matrix(-1 0 0 1 360 616.449)"/>
</clipPath>
<clipPath id="clip8_274_948">
<rect width="56.3836" height="140" fill="white" transform="translate(151.808 269)"/>
</clipPath>
</defs>
</svg>
