<?xml version="1.0" encoding="utf-8"?>
<svg width="66" height="8" viewBox="0 0 66 8" fill="none" xmlns="http://www.w3.org/2000/svg">
  <path d="M0.203125 4.00719V7.60666H33.0031H65.8031V4.00719V0.407715H33.0031H0.203125V4.00719ZM12.7491 0.615884C12.7491 0.641881 12.6917 0.71987 12.6179 0.78926C12.5113 0.910642 12.1751 0.92804 10.2153 0.92804C8.34572 0.92804 7.91112 0.954036 7.77992 1.05822C7.54212 1.24899 7.31252 1.223 7.36172 1.01483C7.41092 0.806659 7.42732 0.806657 7.07473 0.962834C6.89432 1.04942 6.75492 1.05822 6.67292 1.00603C6.49252 0.884646 4.95092 0.988831 4.81972 1.12761C4.72132 1.2316 4.65572 1.223 4.36872 1.07542C4.07352 0.919441 3.98332 0.910642 3.58152 0.99743C3.26172 1.06682 3.08952 1.06682 2.97472 1.00603C2.79432 0.902043 1.10512 0.824054 0.801725 0.902043C0.629525 0.945436 0.613125 0.997429 0.613125 1.52655C0.613125 1.97749 0.662325 2.21165 0.818125 2.53261L1.01492 2.95754L0.850925 3.07913C0.752525 3.14852 0.629525 3.33929 0.563925 3.49547C0.498325 3.66024 0.416325 3.79022 0.383525 3.79022C0.350725 3.79022 0.334325 3.07033 0.350725 2.18566L0.375325 0.58109H6.55813C9.96112 0.58109 12.7491 0.598487 12.7491 0.615884ZM53.1669 0.92804C53.4703 1.26639 53.4949 1.27499 54.0443 1.27499C54.6839 1.27499 54.8233 1.36178 55.1759 1.9255C55.2907 2.11627 55.5203 2.43722 55.6679 2.63679C55.8237 2.83616 56.0287 3.2439 56.1189 3.54746L56.2911 4.10258L56.0861 4.6577C55.9713 4.96125 55.7581 5.35159 55.6023 5.52497C55.4465 5.68975 55.2661 5.94991 55.1923 6.10608C54.9791 6.55702 54.6839 6.7132 54.0033 6.75659C53.4211 6.79138 53.3883 6.79998 53.1423 7.11214L52.8881 7.43309H33.0195H13.1509L12.8393 7.08614C12.5359 6.74799 12.5113 6.73919 11.9619 6.73919C11.3223 6.73919 11.1829 6.6526 10.8303 6.08869C10.7155 5.89791 10.4859 5.57696 10.3383 5.37759C10.1825 5.17802 9.97752 4.77028 9.88732 4.46672L9.71513 3.9118L9.92012 3.35669C10.0349 3.05313 10.2481 2.66279 10.4039 2.48921C10.5597 2.32444 10.7401 2.06427 10.8139 1.9081C11.0271 1.45716 11.3223 1.30098 12.0029 1.25759C12.5933 1.223 12.6261 1.2142 12.8557 0.902043L13.1017 0.58109H32.9785H52.8553L53.1669 0.92804ZM65.6391 2.27244C65.6391 3.33929 65.6063 3.9638 65.5571 3.9638C65.5161 3.9638 65.4751 3.90301 65.4751 3.81622C65.4751 3.73823 65.3193 3.53006 65.1307 3.33929L64.7863 3.00974L65.0077 2.76677C65.3029 2.44582 65.3931 2.13366 65.3931 1.49176V0.936638L64.2615 0.945438C63.5399 0.945438 63.0561 0.988831 62.9413 1.05822C62.7855 1.13621 62.6871 1.13621 62.4165 1.04082C62.1295 0.936638 62.0311 0.936641 61.7113 1.04942C61.3915 1.16221 61.3177 1.16221 61.1127 1.04942C60.6617 0.797861 60.1451 0.754664 59.5465 0.902043C59.1037 1.01483 58.9479 1.02343 58.8249 0.945438C58.6199 0.806659 58.5953 0.815256 58.6445 0.99743C58.6855 1.1882 58.4149 1.1882 58.0541 0.99743C57.8491 0.884646 57.4883 0.876046 55.7745 0.902043C53.6425 0.945436 53.3883 0.92804 53.3063 0.711272C53.2653 0.598488 53.9705 0.58109 59.4481 0.58109H65.6391V2.27244ZM60.0139 1.27499C60.3501 1.69993 60.3583 2.02948 60.0795 2.71478C59.8007 3.37388 59.7023 3.46927 59.6203 3.13972C59.5793 2.98374 59.6121 2.83616 59.7187 2.67998C59.8089 2.55 59.9073 2.31584 59.9401 2.15966C59.9893 1.9081 59.9647 1.84751 59.6859 1.57855C59.4317 1.32698 59.3989 1.25759 59.4891 1.14481C59.6449 0.954036 59.7761 0.980032 60.0139 1.27499ZM2.10552 1.1882C2.26952 1.2402 2.48272 1.34438 2.58112 1.43117L2.75332 1.57855L2.54012 1.99489C2.41712 2.22045 2.29412 2.38523 2.25312 2.35923C2.22032 2.34183 2.14652 2.20306 2.08912 2.05568C2.01532 1.85611 2.00712 1.76932 2.08092 1.67393C2.20392 1.51775 2.03992 1.43977 1.79393 1.54395C1.67093 1.58714 1.58072 1.56115 1.48232 1.43977C1.37572 1.30099 1.31832 1.29239 1.18712 1.36178C0.973925 1.48316 0.973925 1.62194 1.19533 1.62194C1.34293 1.62194 1.36753 1.66533 1.33473 1.8907C1.29373 2.15106 1.30192 2.15106 1.55612 2.10767C1.85132 2.04688 1.95792 2.14226 2.04812 2.49801C2.12192 2.81876 1.76112 3.2785 1.57252 3.10512C1.47412 3.02693 1.45772 2.94035 1.51512 2.79277C1.58072 2.61059 1.56433 2.5846 1.37573 2.5586C1.06413 2.52401 0.834525 2.14226 0.793525 1.57855L0.760725 1.10161H1.27733C1.56432 1.10161 1.94152 1.14481 2.10552 1.1882ZM6.51712 1.1882C6.62372 1.26639 6.59912 1.31838 6.36952 1.51775C6.13993 1.71733 6.10712 1.80411 6.10712 2.15966C6.10712 2.38523 6.14812 2.5934 6.18912 2.61939C6.23832 2.64539 6.27112 2.83616 6.27112 3.03573L6.26292 3.39988L6.10712 3.20051C6.02512 3.09632 5.89392 2.81876 5.82012 2.576C5.65612 2.05567 5.75452 1.54395 6.08252 1.28359C6.32032 1.07542 6.34492 1.07542 6.51712 1.1882ZM57.1193 1.2402C57.2669 1.31838 57.5129 1.36178 57.7097 1.34438C58.0213 1.31838 58.0541 1.33578 58.0377 1.50916C58.0131 1.76072 58.2591 1.77811 58.3165 1.53515C58.3411 1.43976 58.4313 1.36178 58.5133 1.36178C58.7101 1.36178 58.7101 1.39637 58.4969 1.70873C58.2345 2.08167 58.1935 2.74937 58.4149 3.13972C58.6445 3.55606 58.6363 3.65144 58.3739 3.58205C58.2345 3.53866 58.1115 3.56486 58.0213 3.65144C57.8983 3.77302 57.8491 3.77303 57.6031 3.63425C57.0783 3.36528 56.8487 2.50661 57.2013 2.13367C57.3489 1.97749 57.3899 1.96889 57.5457 2.08167C57.7753 2.23765 57.8491 2.68878 57.6359 2.64539C57.4391 2.61059 57.4063 2.78417 57.5703 2.95754C57.9393 3.34789 58.1525 2.76677 57.8573 2.15966C57.6195 1.67393 57.2669 1.56115 56.9881 1.8821C56.8405 2.05567 56.8405 2.05568 56.6519 1.83871C56.4633 1.62194 56.2501 1.56995 56.0615 1.69133C55.9877 1.74332 56.0533 1.82151 56.2665 1.97749C56.4879 2.12507 56.6191 2.30704 56.7257 2.61939C56.8077 2.85356 56.9307 3.15711 56.9881 3.2785C57.0783 3.48667 57.0701 3.52146 56.8159 3.73823C56.5125 3.98979 56.5289 4.00719 56.2829 3.32189C56.1927 3.04433 55.9549 2.61939 55.7663 2.37643C55.5777 2.12506 55.3399 1.77811 55.2333 1.59594L55.0447 1.26639L55.5203 1.31838C55.8729 1.36178 56.0861 1.34438 56.2911 1.24899C56.6683 1.07542 56.8241 1.07542 57.1193 1.2402ZM60.9077 1.26639C61.0307 1.31838 61.1291 1.40517 61.1291 1.46576C61.1209 1.69133 60.8175 2.28104 60.5961 2.48921L60.3747 2.70618L60.4321 2.34183C60.4813 2.01228 60.4321 1.67393 60.2599 1.2402C60.2107 1.09282 60.2271 1.08422 60.4403 1.12761C60.5715 1.15361 60.7765 1.2142 60.9077 1.26639ZM65.0979 1.15361C65.1881 1.1882 65.2291 1.31838 65.2291 1.54395C65.2291 2.03828 65.0405 2.45462 64.7453 2.61939C64.5321 2.73218 64.4993 2.79277 64.5403 2.96634C64.5813 3.14852 64.5567 3.18311 64.4255 3.18311C64.0647 3.18311 63.8433 2.41122 64.1467 2.23765C64.2287 2.18566 64.3845 2.17706 64.4911 2.20305C64.6633 2.25505 64.6715 2.23765 64.6223 2.02088C64.5731 1.82151 64.5977 1.76932 64.7371 1.73472C64.8273 1.70873 64.9011 1.65653 64.9011 1.61334C64.9011 1.47456 64.6387 1.41377 64.4829 1.51775C64.4009 1.57855 64.2369 1.62194 64.1139 1.62194C63.9499 1.62194 63.9171 1.65653 63.9581 1.78672C64.0073 1.96009 63.8515 2.40263 63.7449 2.40263C63.7039 2.40263 63.6137 2.27244 63.5399 2.11627C63.4661 1.96889 63.3513 1.77812 63.2857 1.69993C63.1791 1.56995 63.2283 1.53515 63.7695 1.33578C64.3599 1.11881 64.8437 1.04942 65.0979 1.15361ZM4.37692 1.26639C4.55732 1.38777 4.34412 1.62194 4.06533 1.62194C3.83572 1.62194 3.48313 1.40517 3.48313 1.26639C3.48313 1.16221 4.22112 1.16221 4.37692 1.26639ZM10.3957 1.28359L10.9615 1.26639L10.6909 1.68273C10.5433 1.9081 10.3055 2.23765 10.1661 2.41122C10.0185 2.5846 9.83812 2.92295 9.76432 3.16571C9.58392 3.72963 9.48552 3.81622 9.17392 3.68624L8.92792 3.59085L9.14932 2.88815C9.36252 2.22045 9.50192 2.02088 9.92832 1.73472C10.0677 1.63934 10.0595 1.63054 9.82992 1.63054C9.69053 1.62194 9.47732 1.69993 9.36252 1.79531C9.18213 1.94289 9.14932 1.95149 9.05912 1.83871C8.83772 1.56115 8.32112 1.72592 8.11612 2.14226C7.97672 2.42862 7.95212 2.97494 8.07512 3.05313C8.23912 3.16571 8.48512 3.00094 8.48512 2.78417C8.48512 2.5934 8.46872 2.576 8.31292 2.67139C8.14892 2.75817 8.14072 2.74937 8.18992 2.52401C8.22272 2.38523 8.32113 2.20306 8.41132 2.12507C8.75572 1.81271 9.05092 2.28984 8.92792 2.96634C8.83772 3.51266 8.15712 4.03319 8.02592 3.66884C7.99312 3.58205 7.90292 3.55606 7.69792 3.59085C7.54212 3.61685 7.41913 3.61685 7.41913 3.59085C7.41913 3.57346 7.49292 3.38268 7.58312 3.17451C7.84552 2.5674 7.77992 1.98629 7.40272 1.55255L7.23053 1.36178H7.44372C7.58312 1.36178 7.67332 1.42237 7.70612 1.53515C7.77992 1.77811 7.99312 1.76072 7.96852 1.50916C7.95212 1.32698 7.97672 1.31838 8.37032 1.34438C8.64092 1.36178 8.82132 1.33578 8.85413 1.27499C8.89512 1.197 9.05093 1.1882 9.37892 1.2316C9.63312 1.26639 10.0923 1.28359 10.3957 1.28359ZM62.4411 1.27499C62.5477 1.35298 62.5395 1.38777 62.3919 1.51775C62.2935 1.59594 62.1459 1.70873 62.0639 1.76932C61.9245 1.8561 61.9573 1.8735 62.2525 1.8735C62.4411 1.8821 62.6953 1.83871 62.8183 1.77812C63.0069 1.68273 63.0479 1.69133 63.1873 1.8735C63.4169 2.16826 63.3841 2.21165 62.9741 2.15966C62.6625 2.12506 62.5641 2.15106 62.4001 2.31584L62.2033 2.50661L62.0229 2.13367C61.9245 1.9255 61.7769 1.64794 61.6949 1.51775C61.5801 1.34438 61.5637 1.27499 61.6375 1.24899C61.8261 1.1708 62.3181 1.1882 62.4411 1.27499ZM5.67252 1.39637C5.70532 1.42237 5.49213 2.14226 5.45113 2.14226C5.42653 2.14226 5.25432 1.98629 5.08212 1.79531C4.81152 1.50056 4.77872 1.43117 4.87712 1.36178C4.96732 1.30099 5.57412 1.32698 5.67252 1.39637ZM7.32072 1.75212C7.54212 2.04688 7.61592 2.52401 7.49292 2.89695L7.39452 3.20911L7.28792 2.94035C7.21412 2.74937 7.12392 2.66279 7.00092 2.66279C6.86152 2.66279 6.84512 2.68878 6.91892 2.78417C7.36172 3.34789 7.00092 4.16317 6.48432 3.76423C6.33672 3.65144 6.34492 3.62545 6.51712 3.04433C6.73852 2.34183 6.81232 2.22905 7.02552 2.22905C7.10752 2.22905 7.15672 2.18566 7.13212 2.14226C7.06652 2.02948 6.71392 2.02948 6.51712 2.14226C6.33672 2.24645 6.24652 2.14226 6.32032 1.9255C6.37772 1.76932 6.78772 1.54395 7.02552 1.53515C7.09932 1.53515 7.23053 1.63054 7.32072 1.75212ZM59.4071 1.67393C59.6203 1.76932 59.7351 1.8647 59.7351 1.96889C59.7351 2.15966 59.6039 2.27244 59.5301 2.14226C59.4645 2.02948 58.9397 2.02948 58.8741 2.14226C58.8495 2.18566 58.8987 2.22905 58.9971 2.22905C59.1693 2.22905 59.1939 2.27244 59.4481 3.08772L59.5875 3.56486L59.3989 3.72963C59.2185 3.88561 59.2103 3.88561 59.0135 3.66884C58.8167 3.46927 58.8085 3.43467 58.9069 3.12252C58.9643 2.94035 59.0299 2.74078 59.0545 2.67998C59.0791 2.602 59.0463 2.5674 58.9479 2.5934C58.8577 2.61059 58.7511 2.74937 58.7019 2.91435L58.6117 3.21791L58.5051 2.88815C58.3821 2.47201 58.4559 2.05568 58.7101 1.76072C58.9397 1.49176 58.9725 1.49176 59.4071 1.67393ZM61.7359 2.00348C61.8999 2.26385 62.0311 2.50661 62.0311 2.55C62.0311 2.5846 61.9163 2.68878 61.7851 2.76677C61.4489 2.97494 61.2029 3.41728 61.2275 3.79902C61.2357 4.00719 61.1865 4.18916 61.0717 4.34534C60.9733 4.47552 60.8831 4.6229 60.8585 4.68369C60.8339 4.76168 60.7929 4.76168 60.6945 4.66629C60.5223 4.51892 60.5141 4.27595 60.6781 4.13717C60.7437 4.07658 60.8011 3.99839 60.8011 3.955C60.8011 3.91181 60.7437 3.87701 60.6781 3.87701C60.5141 3.87701 60.5223 3.66884 60.6945 3.52146C60.8011 3.42608 60.8339 3.42608 60.8585 3.50406C60.9979 3.929 61.3341 2.83616 61.2685 2.22045C61.2193 1.78671 61.2603 1.53515 61.3751 1.53515C61.4079 1.53515 61.5719 1.74332 61.7359 2.00348ZM5.77093 3.05313C5.96772 3.46067 6.02513 3.65144 5.95953 3.72083C5.83652 3.85101 5.61513 3.73823 5.61513 3.53866C5.61513 3.45207 5.48392 3.2525 5.32812 3.11372C5.17232 2.96634 5.02472 2.74938 4.99192 2.62799C4.93452 2.35923 4.91812 2.35923 4.70492 2.5846L4.54092 2.75817L4.74592 2.93155C5.00012 3.14851 5.00832 3.2613 4.78692 3.56486C4.58192 3.84241 4.46712 3.85101 4.46712 3.58205C4.46712 3.46927 4.40973 3.2351 4.34413 3.06173C4.19653 2.68878 4.23752 2.29844 4.48352 1.8821L4.63932 1.59594L5.06572 2.03828C5.30352 2.28984 5.61512 2.74077 5.77093 3.05313ZM3.71272 1.79531C3.94232 1.79531 3.98333 1.82151 3.90953 1.8995C3.72913 2.09027 3.81112 2.16826 4.03252 2.01228C4.22932 1.8735 4.24572 1.8735 4.19652 2.01228C4.16372 2.09027 4.11452 2.30704 4.08992 2.49801C4.02432 2.90555 3.94232 2.92295 3.77012 2.5846C3.61432 2.25505 3.52412 2.19446 3.04852 2.14226L2.65493 2.09887L2.79432 1.8995C2.90092 1.73472 2.97472 1.69993 3.17972 1.74332C3.31092 1.76932 3.55692 1.79531 3.71272 1.79531ZM61.1209 2.41982C61.1127 2.72338 61.0389 2.85356 60.6125 3.35669C60.2927 3.73823 60.2025 3.79022 60.1041 3.70364C60.0385 3.64284 59.9811 3.53866 59.9811 3.46067C59.9811 3.33929 60.9323 2.27244 61.0717 2.23765C61.1045 2.23765 61.1291 2.31584 61.1209 2.41982ZM3.36012 2.41982C3.66352 2.5674 3.61432 2.66279 3.22072 2.66279C2.58932 2.66279 2.40072 3.08773 2.81892 3.53866C3.26992 4.00719 3.40112 4.24136 3.40112 4.54491C3.40112 4.70969 3.46672 4.96125 3.54052 5.10003C3.67172 5.3342 3.67172 5.35159 3.52412 5.52497C3.34372 5.73314 2.99113 5.75053 2.61392 5.55956C2.26953 5.38619 2.17932 5.09123 2.37612 4.77908C2.54012 4.51891 2.93372 4.51012 2.97472 4.77908C2.99932 4.91786 2.97472 4.93525 2.79432 4.88306C2.62212 4.83967 2.58112 4.85706 2.58112 4.98725C2.58112 5.22141 2.74513 5.35159 3.04032 5.35159C3.35192 5.35159 3.45032 5.23881 3.27812 5.09123C3.20432 5.02184 3.15512 4.83107 3.15512 4.5969C3.15512 4.24136 3.11412 4.16317 2.74512 3.78162C2.14652 3.16571 2.10552 2.81017 2.59752 2.48921C2.90912 2.28984 3.06492 2.27244 3.36012 2.41982ZM63.3923 2.45462C63.7367 2.62799 63.8269 2.92295 63.6301 3.2351C63.4661 3.49547 63.0725 3.50406 63.0315 3.2351C63.0069 3.09632 63.0315 3.07913 63.2119 3.13112C63.3841 3.17451 63.4251 3.15711 63.4251 3.02693C63.4251 2.79277 63.2611 2.66279 62.9659 2.66279C62.6543 2.66279 62.5559 2.77557 62.7281 2.92295C62.8019 2.99234 62.8511 3.18311 62.8511 3.42608C62.8511 3.78162 62.8839 3.85961 63.2037 4.17197C63.8105 4.77028 63.9007 5.12603 63.5317 5.42958C63.2365 5.68115 62.9741 5.74174 62.6871 5.61175C62.3427 5.46418 62.3837 5.35159 62.7855 5.35159C63.4169 5.35159 63.6055 4.92646 63.1873 4.47552C62.7363 4.00719 62.6051 3.77303 62.6051 3.46927C62.6051 3.30449 62.5395 3.05313 62.4657 2.91435C62.3345 2.67998 62.3345 2.66279 62.4821 2.48921C62.6625 2.28104 63.0151 2.26385 63.3923 2.45462ZM62.2361 2.91435C62.2607 2.95754 62.2115 3.05313 62.1295 3.11372C62.0475 3.17451 61.8753 3.39128 61.7523 3.59085C61.4161 4.16317 61.2439 4.03319 61.4899 3.40868C61.6539 2.98374 62.1049 2.68878 62.2361 2.91435ZM3.91773 3.01834C4.27853 3.19191 4.40152 3.72083 4.18832 4.12857L4.07352 4.33674L4.01612 4.15457C3.99152 4.04179 3.98332 3.84241 4.01612 3.70364C4.05712 3.49547 4.03252 3.42608 3.85212 3.30449C3.63892 3.15711 3.62252 3.15711 3.36012 3.30449C3.08132 3.46927 2.90913 3.43467 2.90913 3.2265C2.90913 2.94895 3.52413 2.82756 3.91773 3.01834ZM1.38392 3.66884L1.08872 3.9378L1.30192 4.16317C1.53152 4.40613 1.56432 4.52751 1.42492 4.6143C1.23632 4.74428 0.941125 4.56231 0.777125 4.22396L0.613125 3.87701L0.809925 3.53866C1.05593 3.13112 1.15433 3.08772 1.45773 3.2613L1.68732 3.39988L1.38392 3.66884ZM2.16292 3.80762C2.10552 3.91181 2.08912 4.16317 2.11372 4.40613C2.13832 4.6317 2.13832 4.83967 2.11372 4.86586C2.03992 4.94385 1.67912 4.56231 1.67912 4.40613C1.67912 4.32794 1.62172 4.19796 1.55612 4.10258C1.44952 3.955 1.46592 3.90301 1.72012 3.59085C1.87592 3.39988 2.00713 3.20051 2.01533 3.14852C2.01533 3.09632 2.07273 3.18311 2.13832 3.33929C2.22852 3.55606 2.23672 3.66884 2.16292 3.80762ZM64.3271 3.59085C64.3271 3.66024 64.3845 3.79902 64.4583 3.9118C64.5485 4.05918 64.5567 4.13717 64.4911 4.18056C64.4419 4.21536 64.2943 4.39733 64.1631 4.57951L63.9335 4.91786L63.8433 4.6489C63.7777 4.45813 63.7777 4.32794 63.8433 4.19796C63.9007 4.10258 63.9171 3.84242 63.8925 3.60805C63.8679 3.38268 63.8679 3.17451 63.8925 3.14852C63.9663 3.07033 64.3271 3.44327 64.3271 3.59085ZM5.35273 3.37388C5.48392 3.51266 5.47572 3.74683 5.32812 3.87701C5.26252 3.9378 5.20512 4.01579 5.20512 4.05918C5.20512 4.10258 5.26252 4.13717 5.32812 4.13717C5.49212 4.13717 5.48392 4.34534 5.31172 4.49292C5.20512 4.5883 5.17232 4.5883 5.14772 4.50152C5.00832 4.08518 4.67212 5.17802 4.73772 5.79393C4.78692 6.22747 4.74592 6.47903 4.63112 6.47903C4.55732 6.47903 3.97512 5.57696 3.97512 5.46418C3.97512 5.42958 4.08992 5.3254 4.22112 5.24741C4.55732 5.03924 4.80332 4.5969 4.77872 4.21536C4.77052 4.00719 4.81973 3.82502 4.94273 3.66024C5.04113 3.53006 5.12312 3.38268 5.12312 3.34789C5.12312 3.2351 5.23793 3.2525 5.35273 3.37388ZM62.3509 3.46067C62.3345 3.57346 62.3509 3.71223 62.3837 3.76423C62.5067 3.9638 62.3509 4.07658 62.1869 3.9118C62.0065 3.73823 61.9819 3.53006 62.1295 3.37388C62.2853 3.20911 62.3755 3.2525 62.3509 3.46067ZM64.9421 3.40868C65.0159 3.44327 65.1471 3.61685 65.2291 3.79902C65.3931 4.12857 65.3931 4.12857 65.2209 4.44073C64.9831 4.85707 64.8273 4.92646 64.5485 4.74428L64.3189 4.5969L64.6305 4.31934C64.9093 4.07658 64.9257 4.04178 64.8027 3.9638C64.6223 3.84241 64.4665 3.55606 64.5321 3.44327C64.5895 3.34789 64.7453 3.33049 64.9421 3.40868ZM3.81113 3.65144C3.81113 3.71223 3.72912 3.79022 3.63072 3.82502C3.33553 3.90301 3.31092 3.88561 3.41752 3.70364C3.54052 3.50406 3.81113 3.46927 3.81113 3.65144ZM63.6711 3.9204C63.6711 4.28475 63.5727 4.30195 63.2775 3.98979C63.0725 3.77303 63.0725 3.75563 63.2201 3.69484C63.5727 3.54746 63.6711 3.59945 63.6711 3.9204ZM7.50112 4.05918C7.50112 4.08518 7.45192 4.16317 7.39452 4.21536C7.31252 4.28475 7.23872 4.27595 7.12392 4.18916C6.97632 4.06778 6.97632 4.05918 7.13212 3.87701C7.27972 3.70364 7.29612 3.70364 7.39452 3.84242C7.45192 3.929 7.50112 4.02439 7.50112 4.05918ZM9.10012 4.05918C9.10012 4.20656 8.65732 4.25855 8.48512 4.13717C8.37852 4.05918 8.39492 4.02439 8.56712 3.87701C8.73932 3.73823 8.79672 3.72963 8.93612 3.82502C9.02632 3.88561 9.10012 3.99839 9.10012 4.05918ZM58.9971 3.955C58.9971 3.98979 58.9233 4.09378 58.8413 4.17197C58.6855 4.31934 58.6773 4.31935 58.5871 4.13717C58.4559 3.88561 58.6199 3.66884 58.8413 3.79902C58.9233 3.84242 58.9971 3.91181 58.9971 3.955ZM59.9401 3.82502C60.0713 3.929 60.0795 3.9638 59.9893 4.08518C59.8581 4.25856 59.8089 4.25855 59.6121 4.10258C59.4809 3.99839 59.4727 3.9638 59.5629 3.84242C59.6941 3.66884 59.7433 3.66884 59.9401 3.82502ZM61.9983 4.26735C61.9491 4.51892 61.9737 4.5883 62.1623 4.70969C62.3673 4.85706 62.3919 4.85706 62.6461 4.70969C62.9249 4.54491 63.0971 4.57951 63.0971 4.78768C63.0971 4.95245 62.8347 5.09123 62.5313 5.09123C61.8753 5.09123 61.5309 4.54491 61.8015 3.9204C61.8835 3.72963 61.9081 3.71223 61.9737 3.83362C62.0147 3.9118 62.0229 4.11118 61.9983 4.26735ZM2.72872 4.02439C2.93372 4.24136 2.93373 4.25855 2.78612 4.31934C2.43353 4.46672 2.33512 4.41473 2.33512 4.09378C2.33512 3.72963 2.43352 3.71223 2.72872 4.02439ZM6.39412 3.9118C6.52532 4.01579 6.53352 4.05038 6.44332 4.17197C6.31212 4.34534 6.26292 4.34534 6.06612 4.18916C5.93492 4.08518 5.92672 4.05038 6.01692 3.929C6.14812 3.75563 6.19733 3.75563 6.39412 3.9118ZM57.4719 3.84242C57.6523 3.9204 57.6359 4.00719 57.4063 4.17197C57.2177 4.29335 57.1931 4.29335 57.0209 4.14597C56.9225 4.05918 56.8651 3.9464 56.8979 3.89441C56.9635 3.78162 57.2587 3.75563 57.4719 3.84242ZM3.97512 4.39733C3.97512 4.54491 3.75372 4.80507 3.69632 4.73568C3.63892 4.66629 3.58152 4.05918 3.62252 4.01579C3.70452 3.9378 3.97512 4.23256 3.97512 4.39733ZM0.531125 4.19796C0.531125 4.27595 0.686925 4.48412 0.875525 4.67489L1.21992 5.00464L0.998525 5.24741C0.703325 5.56836 0.613125 5.88052 0.613125 6.52242V7.07754L1.74472 7.06874C2.46632 7.06874 2.95012 7.02555 3.06492 6.95616C3.22072 6.87797 3.31912 6.87797 3.58972 6.97336C3.87672 7.07754 3.97512 7.07754 4.29492 6.96476C4.61472 6.85197 4.68852 6.85197 4.89352 6.96476C5.34452 7.21632 5.86112 7.25972 6.45972 7.11214C6.90252 6.99935 7.05832 6.99076 7.18132 7.06874C7.38632 7.20752 7.41092 7.19892 7.36172 7.01675C7.32072 6.82598 7.59132 6.82598 7.95212 7.01675C8.15712 7.12953 8.51792 7.13813 10.2317 7.11214C12.3637 7.06874 12.6179 7.08614 12.6999 7.30311C12.7409 7.41569 12.0357 7.43309 6.55813 7.43309H0.367125V5.74174C0.367125 4.67489 0.399925 4.05038 0.449125 4.05038C0.498325 4.05038 0.531125 4.11118 0.531125 4.19796ZM4.63112 4.18056C4.63112 4.65769 4.13092 5.25601 3.83572 5.13462C3.69632 5.08263 3.70452 5.06523 3.86032 4.92645C3.95872 4.84847 4.13093 4.6143 4.25392 4.41473C4.47533 4.04179 4.63112 3.9464 4.63112 4.18056ZM9.70692 4.6577C9.80532 4.95245 10.0431 5.38619 10.2399 5.63775C10.4285 5.88932 10.6663 6.23626 10.7729 6.41824L10.9697 6.75659L10.5105 6.6958C10.1579 6.64381 9.95292 6.6698 9.64132 6.79138C9.24772 6.93876 9.21492 6.93876 8.91152 6.79138C8.72292 6.7046 8.45232 6.6526 8.27192 6.6698C7.98492 6.6958 7.95212 6.6786 7.96852 6.49643C7.99312 6.25346 7.74712 6.23626 7.68972 6.47903C7.66512 6.57442 7.57492 6.6526 7.49292 6.6526C7.29612 6.6526 7.29612 6.61781 7.50932 6.30565C7.77172 5.93271 7.81273 5.26481 7.59132 4.87446C7.36172 4.45812 7.36992 4.36274 7.63232 4.43213C7.77172 4.47552 7.89472 4.44953 7.98492 4.36274C8.10792 4.24136 8.15712 4.24136 8.40312 4.38014C8.92792 4.6489 9.15752 5.50757 8.80492 5.88052C8.65732 6.03669 8.61632 6.04529 8.46052 5.93271C8.23092 5.77653 8.15712 5.3254 8.37032 5.36879C8.56712 5.40359 8.59993 5.23001 8.43592 5.05664C8.06693 4.66629 7.85372 5.24741 8.14892 5.85452C8.38672 6.34025 8.73932 6.45303 9.01812 6.13208C9.16572 5.95871 9.16572 5.9587 9.35432 6.17547C9.54292 6.39224 9.75612 6.44443 9.94472 6.32285C10.0185 6.27086 9.95292 6.19287 9.73972 6.03669C9.51832 5.88931 9.38713 5.70714 9.28052 5.39479C9.19032 5.15202 9.07552 4.86586 9.02632 4.74428C8.92793 4.54491 8.94432 4.51012 9.17392 4.30195C9.31332 4.17197 9.45272 4.08518 9.47732 4.10258C9.50192 4.11977 9.60852 4.37134 9.70692 4.6577ZM7.07473 4.97845C7.00093 5.20402 6.95172 5.40359 6.96812 5.42098C7.06652 5.52497 7.26332 5.3168 7.31252 5.07403L7.36992 4.78768L7.46832 5.04784C7.61592 5.40359 7.60772 5.66375 7.45192 6.0107C7.25512 6.45303 7.06652 6.52242 6.63192 6.34885C6.38592 6.25346 6.27112 6.15807 6.27112 6.04529C6.27112 5.85452 6.40233 5.74174 6.47612 5.87192C6.54173 5.9847 7.06652 5.9847 7.13212 5.87192C7.15672 5.81993 7.10752 5.78513 7.00912 5.78513C6.83692 5.78513 6.81233 5.74174 6.55813 4.92645L6.41872 4.44953L6.60732 4.28475C6.78772 4.12857 6.79592 4.12857 7.00092 4.35414L7.21412 4.57091L7.07473 4.97845ZM59.5219 4.24995C59.6695 4.36274 59.6613 4.38874 59.4891 4.96985C59.2677 5.67235 59.1939 5.78513 58.9807 5.78513C58.8987 5.78513 58.8495 5.81993 58.8741 5.87192C58.9397 5.9847 59.2923 5.9847 59.4891 5.87192C59.5875 5.81113 59.6613 5.81113 59.6941 5.87192C59.7925 6.0367 59.5629 6.29686 59.2431 6.40104C58.9561 6.49643 58.8987 6.48763 58.7511 6.34885C58.4969 6.10608 58.3903 5.55956 58.5051 5.14342L58.6035 4.79647L58.7183 5.07403C58.7921 5.26481 58.8823 5.35159 59.0053 5.35159C59.1447 5.35159 59.1611 5.3254 59.0873 5.23001C58.6445 4.66629 59.0053 3.85101 59.5219 4.24995ZM62.5887 4.31075C62.4657 4.51012 62.1951 4.54491 62.1951 4.36274C62.1951 4.24996 62.3345 4.17196 62.5887 4.14597C62.6707 4.13717 62.6707 4.17197 62.5887 4.31075ZM5.92672 4.32794C5.98412 4.38873 6.02512 4.48412 6.02512 4.55351C6.02512 4.66629 4.99192 5.78513 4.89352 5.78513C4.86892 5.78513 4.87712 5.64635 4.90172 5.48157C4.93452 5.2822 5.09032 5.00464 5.34452 4.70109C5.77912 4.18056 5.78732 4.18056 5.92672 4.32794ZM56.9553 4.37134C57.0701 4.40613 57.0537 4.50152 56.8569 5.11723C56.6437 5.79393 56.5043 5.9933 56.0779 6.27946C55.9385 6.37504 55.9467 6.38364 56.1763 6.38364C56.3157 6.39224 56.5289 6.31425 56.6437 6.21887C56.8241 6.07149 56.8569 6.06269 56.9471 6.17547C57.1685 6.45303 57.6851 6.28826 57.8901 5.87192C58.0295 5.58576 58.0541 5.03924 57.9311 4.96125C57.7671 4.84847 57.5211 5.01324 57.5211 5.23001C57.5211 5.42098 57.5375 5.43818 57.6933 5.34279C57.8573 5.25601 57.8655 5.26481 57.8163 5.49017C57.7835 5.62895 57.6851 5.81113 57.5949 5.88931C57.2505 6.20147 56.9553 5.72454 57.0783 5.04784C57.1685 4.50152 57.8491 3.98119 57.9803 4.34534C58.0131 4.43213 58.1033 4.45812 58.3083 4.42353C58.4641 4.39733 58.5871 4.39733 58.5871 4.42353C58.5871 4.44073 58.5133 4.6317 58.4231 4.83967C58.1607 5.44698 58.2263 6.02809 58.6035 6.45303L58.7757 6.6526H58.5625C58.4231 6.6526 58.3329 6.59181 58.3001 6.47903C58.2263 6.23626 58.0131 6.25346 58.0377 6.49643C58.0541 6.6786 58.0295 6.6958 57.6605 6.6698C57.4309 6.6526 57.2177 6.6786 57.1521 6.73919C57.0619 6.81738 56.8979 6.82598 56.5945 6.78259C56.3649 6.74799 55.9139 6.72199 55.6105 6.73059L55.0529 6.74799L55.3727 6.24486C55.5531 5.9673 55.7745 5.67235 55.8729 5.57696C55.9631 5.49017 56.1189 5.19542 56.2173 4.92645C56.4223 4.33674 56.5207 4.19796 56.6929 4.27595C56.7667 4.30195 56.8815 4.34534 56.9553 4.37134ZM60.3747 4.45812C60.3911 4.56231 60.5305 4.76168 60.6781 4.90906C60.8339 5.04784 60.9815 5.26481 61.0143 5.38619C61.0717 5.65515 61.0881 5.65515 61.3013 5.42958L61.4653 5.25601L61.2603 5.08263C61.0061 4.86586 60.9979 4.75308 61.2193 4.44953C61.4243 4.17197 61.5391 4.16317 61.5391 4.43213C61.5391 4.54491 61.5965 4.77908 61.6621 4.95245C61.8097 5.3254 61.7687 5.71574 61.5227 6.13208L61.3669 6.41824L60.9569 5.9933C60.5223 5.54237 59.9483 4.51891 60.0221 4.32794C60.0877 4.14597 60.3501 4.24995 60.3747 4.45812ZM65.6555 5.82852L65.6309 7.43309H59.4481C56.0451 7.43309 53.2571 7.41569 53.2571 7.3985C53.2571 7.3725 53.3145 7.29431 53.3883 7.22492C53.4949 7.10354 53.8311 7.08614 55.7909 7.08614C57.6605 7.08614 58.0951 7.06014 58.2263 6.95616C58.4641 6.76519 58.6937 6.79138 58.6445 6.99935C58.5953 7.20752 58.5789 7.20752 58.9315 7.05155C59.1119 6.96476 59.2513 6.95616 59.3333 7.00815C59.5137 7.12953 61.0553 7.02555 61.1865 6.88677C61.2849 6.78259 61.3505 6.79138 61.6375 6.93876C61.9327 7.09494 62.0229 7.10354 62.4247 7.01675C62.7445 6.94736 62.9167 6.94736 63.0315 7.00815C63.2119 7.11214 64.9011 7.19033 65.2127 7.11214C65.3767 7.06874 65.3931 7.01675 65.3931 6.48763C65.3931 6.03669 65.3439 5.80253 65.1881 5.48157L64.9913 5.05664L65.1553 4.93525C65.2537 4.86586 65.3767 4.67489 65.4423 4.51892C65.5079 4.35414 65.5899 4.22396 65.6227 4.22396C65.6555 4.22396 65.6719 4.94385 65.6555 5.82852ZM6.43512 5.03064C6.43512 5.07404 6.36952 5.21281 6.27932 5.3342C6.19732 5.46418 6.09892 5.69834 6.06612 5.85452C6.01692 6.10608 6.04152 6.16688 6.32032 6.43564C6.61552 6.72199 6.62372 6.74799 6.49252 6.88677C6.32852 7.06874 6.17272 6.99075 5.91032 6.61781C5.67252 6.28826 5.69712 5.76773 5.98412 5.14342C6.19732 4.67489 6.22192 4.6403 6.32032 4.78768C6.38592 4.87446 6.43512 4.98725 6.43512 5.03064ZM60.1861 5.43818C60.3501 5.9587 60.2517 6.47043 59.9237 6.73059C59.6859 6.93876 59.6613 6.93876 59.4891 6.82598C59.3825 6.74799 59.4071 6.6958 59.6367 6.49643C59.8663 6.29686 59.8991 6.21007 59.8991 5.85452C59.8991 5.62895 59.8663 5.42098 59.8171 5.39479C59.7761 5.36879 59.7351 5.17802 59.7351 4.97845L59.7433 4.6143L59.8991 4.81367C59.9811 4.91786 60.1123 5.19542 60.1861 5.43818ZM1.87592 5.02184C2.16292 5.45558 1.94972 5.93271 1.51512 5.81113C1.34292 5.75914 1.33472 5.77653 1.38392 5.9933C1.43312 6.19287 1.40852 6.24486 1.26912 6.27946C1.17892 6.30565 1.10513 6.35765 1.10513 6.40104C1.10513 6.53982 1.36752 6.60041 1.52332 6.49643C1.60532 6.43564 1.76932 6.39224 1.89232 6.39224C2.05632 6.39224 2.08912 6.35765 2.04812 6.23626C2.02352 6.14088 2.05632 5.94131 2.12192 5.78513L2.23672 5.49897L2.37612 5.75053C2.45812 5.88931 2.58932 6.10608 2.67132 6.23626L2.82713 6.47043L2.18753 6.6872C1.15433 7.05155 0.777125 6.99075 0.777125 6.47043C0.777125 5.9759 0.965725 5.55956 1.26092 5.39479C1.47412 5.2822 1.50692 5.22141 1.46592 5.04784C1.42492 4.86587 1.44952 4.83107 1.58073 4.83107C1.67913 4.83107 1.81032 4.91786 1.87592 5.02184ZM64.4665 4.92645C64.5321 4.99584 64.5321 5.10003 64.4911 5.23001C64.4255 5.40359 64.4419 5.42958 64.6305 5.45558C64.9421 5.49017 65.1717 5.87192 65.2127 6.43564L65.2455 6.91277H64.7289C64.1221 6.91277 63.6793 6.79998 63.4251 6.58321L63.2529 6.43564L63.4661 6.0193C63.5891 5.79393 63.7121 5.62895 63.7531 5.65515C63.7859 5.67235 63.8597 5.81113 63.9171 5.9587C63.9909 6.15808 63.9991 6.24486 63.9253 6.34025C63.8023 6.49643 63.9663 6.57442 64.2123 6.47043C64.3353 6.42704 64.4255 6.45303 64.5239 6.57442C64.6305 6.7132 64.6879 6.72199 64.8191 6.6526C65.0323 6.53102 65.0323 6.39224 64.8109 6.39224C64.6633 6.39224 64.6387 6.34885 64.6715 6.12348C64.7125 5.86332 64.7043 5.86332 64.4501 5.90651C64.1549 5.9673 64.0483 5.87192 63.9581 5.52497C63.9253 5.36879 63.9581 5.23001 64.0811 5.06523C64.2779 4.80507 64.3353 4.78767 64.4665 4.92645ZM62.2361 5.42958C62.3919 5.76773 62.4821 5.81993 62.9659 5.87192L63.3595 5.91531L63.2119 6.10608C63.0725 6.27946 63.0069 6.29685 62.5395 6.24486C62.1787 6.21007 62.0475 6.16687 62.1049 6.10608C62.2771 5.92391 62.1869 5.85452 61.9737 6.0021C61.7769 6.14088 61.7605 6.14088 61.8097 6.0021C61.8425 5.92391 61.8917 5.70714 61.9163 5.51637C61.9819 5.10863 62.0639 5.09123 62.2361 5.42958ZM5.57412 5.72454C5.54132 5.95871 5.56592 6.22747 5.64792 6.47903C5.71352 6.6872 5.75452 6.87797 5.73812 6.89537C5.68072 6.95616 4.95912 6.73059 4.90992 6.63521C4.82792 6.50503 5.04932 5.94991 5.30352 5.64635C5.44292 5.48157 5.56592 5.35159 5.59052 5.35159C5.60692 5.35159 5.59872 5.51637 5.57412 5.72454ZM4.17193 6.23626C4.39333 6.63521 4.42613 6.73919 4.32772 6.77399C4.13912 6.85198 3.69633 6.83458 3.56512 6.73919C3.45853 6.6612 3.46672 6.62641 3.61432 6.49643C3.71272 6.41824 3.86032 6.30565 3.94232 6.24486C4.08172 6.15808 4.04892 6.14088 3.75372 6.14088C3.56512 6.13208 3.31092 6.17547 3.18792 6.23626C2.99932 6.33165 2.95832 6.32285 2.81892 6.14088C2.58932 5.84592 2.62212 5.80253 3.05672 5.85452C3.37652 5.88052 3.46672 5.85452 3.60612 5.69834C3.72912 5.55096 3.77832 5.53357 3.83572 5.62895C3.86852 5.68974 4.02433 5.9673 4.17193 6.23626ZM60.9241 6.21887C61.1947 6.51383 61.2275 6.58321 61.1291 6.6526C61.0389 6.71319 60.4321 6.6872 60.3337 6.61781C60.3009 6.59181 60.5141 5.87192 60.5551 5.87192C60.5797 5.87192 60.7519 6.0281 60.9241 6.21887ZM62.3427 6.53102C62.6215 6.73919 62.5559 6.82598 62.1377 6.82598C61.6375 6.82598 61.4653 6.72199 61.6129 6.53102C61.7523 6.35765 62.1049 6.35765 62.3427 6.53102Z" fill="#A7805A" fill-opacity="0.65"/>
  <path d="M 13.1 1.065 C 12.832 1.398 12.789 1.416 12.151 1.472 C 11.544 1.517 11.47 1.545 11.289 1.794 C 11.182 1.942 10.927 2.283 10.723 2.56 C 10.279 3.15 10.197 3.363 10.197 3.962 C 10.197 4.543 10.338 4.912 10.739 5.392 C 10.92 5.595 11.125 5.899 11.199 6.056 C 11.378 6.425 11.626 6.536 12.314 6.536 C 12.839 6.536 12.872 6.545 13.11 6.858 L 13.356 7.181 L 33.043 7.191 L 52.721 7.2 L 52.943 6.895 C 53.156 6.6 53.205 6.582 53.845 6.526 C 54.46 6.48 54.534 6.453 54.715 6.204 C 54.821 6.056 55.075 5.715 55.28 5.438 C 55.723 4.848 55.805 4.635 55.805 4.036 C 55.805 3.455 55.666 3.086 55.263 2.606 C 55.084 2.403 54.877 2.099 54.804 1.942 C 54.623 1.573 54.378 1.462 53.688 1.462 C 53.156 1.462 53.132 1.453 52.885 1.121 L 52.623 0.77 L 33.002 0.742 L 13.38 0.724 L 13.1 1.065 Z M 33.255 1.093 L 52.582 1.093 L 52.689 1.333 C 52.754 1.462 52.869 1.61 52.959 1.656 C 53.074 1.73 53.811 1.84 54.312 1.859 C 54.378 1.859 54.484 1.96 54.557 2.09 C 54.632 2.209 54.828 2.486 54.994 2.698 C 55.747 3.658 55.747 4.441 55.003 5.383 C 54.836 5.604 54.616 5.881 54.518 6.019 C 54.361 6.231 54.287 6.259 53.795 6.259 C 53.205 6.259 53.009 6.342 52.737 6.693 L 52.565 6.923 L 33.002 6.905 C 15.301 6.895 13.437 6.886 13.372 6.748 C 13.183 6.379 13.003 6.287 12.363 6.213 C 12.001 6.176 11.699 6.148 11.674 6.148 C 11.592 6.158 11.345 5.862 11.345 5.751 C 11.345 5.696 11.216 5.503 11.051 5.327 C 10.272 4.488 10.238 3.621 10.952 2.689 C 11.174 2.394 11.421 2.062 11.51 1.942 C 11.641 1.767 11.739 1.739 12.208 1.739 C 12.814 1.739 12.937 1.683 13.307 1.268 C 13.495 1.056 13.611 0.992 13.748 1.038 C 13.848 1.065 22.625 1.093 33.255 1.093 Z" fill="#A7805A" fill-opacity="0.65" style="stroke-width: 1;"/>
</svg>