<svg width="16" height="16" viewBox="0 0 16 16" fill="none" xmlns="http://www.w3.org/2000/svg">
<path d="M13.2272 6.39749C12.637 5.80727 11.8522 5.48221 11.0175 5.48221C10.1828 5.48221 9.39803 5.80727 8.80778 6.39749L7.48197 7.7233L5.27225 5.51362C4.54122 4.78255 3.35165 4.78259 2.62056 5.51362C1.8895 6.24468 1.8895 7.43421 2.62059 8.16527L4.90553 10.4502C4.71606 10.5409 4.54128 10.664 4.38837 10.8169C3.65731 11.548 3.65731 12.7375 4.38837 13.4686L5.27225 14.3525C6.33472 15.4149 7.74725 16 9.24975 16C10.7522 16 12.1648 15.4149 13.2272 14.3524C14.2896 13.29 14.8747 11.8775 14.8747 10.375C14.8747 8.87246 14.2896 7.4599 13.2272 6.39749ZM12.3433 13.4686C11.517 14.2949 10.4184 14.75 9.24975 14.75C8.08112 14.75 6.98247 14.2949 6.15618 13.4686L5.27231 12.5847C5.02859 12.341 5.02859 11.9445 5.27231 11.7008C5.5165 11.4566 5.9115 11.4565 6.15587 11.7005L7.04003 12.5846C7.28409 12.8287 7.67987 12.8287 7.92393 12.5846C8.16803 12.3406 8.168 11.9448 7.92393 11.7008L3.5045 7.28137C3.26078 7.03768 3.26078 6.64118 3.50447 6.39749C3.74822 6.1538 4.14468 6.15377 4.38837 6.39749L7.04003 9.04915C7.11631 9.12543 7.2074 9.17787 7.30406 9.20646C7.49734 9.26368 7.71281 9.22552 7.87647 9.09202C7.91497 9.06062 7.88153 9.09152 9.69165 7.28137C10.0458 6.92721 10.5167 6.73221 11.0175 6.73221C11.5183 6.73221 11.9892 6.92724 12.3433 7.2814C13.1697 8.10771 13.6247 9.20637 13.6247 10.375C13.6247 11.5436 13.1697 12.6422 12.3433 13.4686Z" fill="#828282"/>
<path d="M12.25 2.75C11.6129 1.90059 10.7743 1.20066 9.82459 0.725812C8.87494 0.250969 7.81178 0 6.75 0C5.68822 0 4.62506 0.250969 3.67541 0.725812C3.21191 0.957562 2.77509 1.24328 2.375 1.5735V1.25C2.375 0.904812 2.09519 0.625 1.75 0.625C1.40481 0.625 1.125 0.904812 1.125 1.25V3.125C1.125 3.46669 1.40528 3.75 1.75 3.75H3.625C3.97019 3.75 4.25 3.47019 4.25 3.125C4.25 2.77981 3.97019 2.5 3.625 2.5H3.21834C4.20947 1.70294 5.45834 1.25 6.75 1.25C8.51109 1.25 10.1934 2.09112 11.25 3.5C11.4571 3.77609 11.8489 3.83209 12.125 3.625C12.4012 3.41791 12.4571 3.02616 12.25 2.75Z" fill="#828282"/>
</svg>
