<svg width="32" height="32" viewBox="0 0 32 32" fill="none" xmlns="http://www.w3.org/2000/svg">
<path d="M29.9956 13.5404C30.0269 13.1354 29.891 12.7404 29.6138 12.4354C29.457 12.2604 29.2635 12.1255 29.0439 12.0355C29.253 11.9255 29.4308 11.7705 29.572 11.5805C29.8178 11.2455 29.9119 10.8405 29.8387 10.4405C29.7655 10.0355 29.5354 9.68551 29.1851 9.45051C28.9863 9.31552 28.7615 9.22552 28.5262 9.19052C29.0073 8.76053 29.1746 8.06554 28.8922 7.45556C28.6046 6.84557 27.9457 6.51058 27.2921 6.56058C27.6425 6.02559 27.6215 5.31061 27.1823 4.79062C26.9104 4.47062 26.5287 4.27063 26.1051 4.23063C25.8593 4.20563 25.6136 4.23563 25.3835 4.31563C25.4515 4.09563 25.4671 3.86064 25.4201 3.62564C25.3469 3.22065 25.1168 2.87066 24.7664 2.64067C24.4213 2.40067 23.9978 2.31067 23.5742 2.38067C23.3284 2.42067 23.0983 2.51567 22.8996 2.65567C22.9049 2.02568 22.5075 1.43569 21.8643 1.2157C21.242 0.990704 20.5622 1.1657 20.1334 1.61069C20.0968 1.40569 20.0184 1.2107 19.8981 1.0357C19.668 0.690711 19.3125 0.455716 18.8941 0.370718C18.2353 0.240721 17.5816 0.515715 17.226 1.0257C17.0169 0.445716 16.4469 0.0207258 15.7723 0.000726269C15.0873 -0.0192733 14.486 0.375718 14.2402 0.945705C13.9055 0.410717 13.2467 0.095724 12.5773 0.215721C12.159 0.28572 11.793 0.510715 11.5524 0.845707C11.4112 1.0357 11.3224 1.2457 11.2857 1.46569C10.8308 1.0157 10.1144 0.850707 9.4817 1.1207C9.08951 1.2857 8.78622 1.58569 8.63458 1.97068C8.54568 2.18568 8.51431 2.41567 8.53523 2.64067C8.33129 2.52067 8.09598 2.44067 7.85021 2.41567C7.42665 2.37567 7.01355 2.49067 6.68934 2.74566C6.35468 2.99566 6.14551 3.35565 6.09845 3.76064C6.06708 4.00064 6.09845 4.23563 6.18212 4.45563C5.54939 4.27563 4.82777 4.48562 4.41467 5.02561C4.0068 5.5706 4.02772 6.28558 4.41467 6.80057C4.18459 6.79057 3.95451 6.83057 3.74012 6.92057C3.3427 7.08057 3.03941 7.37556 2.88254 7.75055C2.62108 8.36054 2.80933 9.04052 3.29564 9.46051C3.0551 9.50551 2.82502 9.60551 2.62631 9.75051C2.28642 10.0005 2.07202 10.3605 2.0145 10.7655C1.95698 11.1705 2.07202 11.5705 2.33348 11.8955C2.51127 12.1155 2.74135 12.2804 3.00281 12.3804C2.74135 12.5404 2.53219 12.7704 2.40669 13.0454C2.23413 13.4154 2.22367 13.8304 2.37531 14.2054C2.642 14.8854 3.40022 15.3054 4.1689 15.1654C4.04341 15.4354 4.0068 15.7354 4.06432 16.0354C4.13753 16.4354 4.37284 16.7853 4.72842 17.0153C5.2984 17.4003 6.1246 17.3553 6.65274 16.9353C6.66843 17.1753 6.74164 17.4103 6.87236 17.6253C7.08676 17.9753 7.43188 18.2253 7.83975 18.3253C8.49862 18.4953 9.17841 18.2353 9.54968 17.7403C9.7327 18.3103 10.2608 18.7503 10.9249 18.8103C10.9772 18.8203 11.0191 18.8203 11.0714 18.8203C11.6779 18.8203 12.2165 18.4853 12.4884 17.9953C12.7447 18.5203 13.3094 18.8903 13.9787 18.8903C14.6272 18.8703 15.1762 18.4803 15.4115 17.9453C15.6887 18.4103 16.2116 18.7253 16.7972 18.7253L16.9175 18.7203C16.928 18.7203 17.0012 18.7103 17.0169 18.7103C17.5659 18.6603 18.0313 18.3453 18.2719 17.9103C18.4863 18.3453 18.9046 18.6803 19.4327 18.7753H19.438C19.9086 18.8553 20.3792 18.7303 20.7296 18.4603C20.7296 18.4853 20.7348 18.5103 20.74 18.5403C20.7923 18.9453 21.0067 19.3103 21.3466 19.5603C21.7963 19.8953 22.429 19.9703 22.9362 19.7653C22.8526 20.0803 22.8787 20.4103 23.0042 20.7153C23.1663 21.0903 23.4696 21.3902 23.867 21.5452V21.5502C23.9507 21.5802 24.0396 21.6052 24.1233 21.6202V23.0002C23.5428 23.1502 23.0827 23.6652 22.9729 24.3352L22.6591 26.3001L21.4669 31.585C21.4407 31.685 21.4669 31.79 21.5348 31.87C21.6028 31.95 21.7022 32 21.812 32H27.1457C27.2555 32 27.3549 31.95 27.4228 31.87C27.4908 31.79 27.517 31.685 27.4908 31.585L26.2986 26.3001L25.9796 24.3352C25.875 23.6752 25.4096 23.1602 24.8344 23.0002V21.6152C25.3312 21.5052 25.7547 21.1902 25.9535 20.7353C26.058 20.4953 26.0946 20.2453 26.0737 20.0053C26.7064 20.1853 27.4542 19.9453 27.8412 19.4153C28.0869 19.0803 28.1758 18.6703 28.1026 18.2703C28.0556 18.0353 27.9562 17.8203 27.8098 17.6353H27.8255C28.5053 17.6353 29.1118 17.2203 29.3315 16.6054C29.4727 16.2254 29.4465 15.8104 29.2635 15.4404C29.1537 15.2254 28.9968 15.0454 28.8086 14.9054C29.4517 14.7404 29.9433 14.2004 29.9956 13.5404ZM25.2789 24.4402L25.5351 26.0201H23.4226L23.6788 24.4402C23.752 23.9752 24.0971 23.6252 24.4788 23.6252C24.8083 23.6252 25.2005 23.9302 25.2789 24.4402ZM25.2161 17.6703C25.2005 17.6853 25.19 17.7103 25.1795 17.7303C24.9913 18.0153 24.9076 18.3453 24.939 18.6753C24.5939 18.5753 24.2226 18.5953 23.8827 18.7253C23.8827 18.7253 23.8775 18.7303 23.8723 18.7303C23.9193 18.5453 23.935 18.3553 23.9036 18.1603C23.8513 17.7553 23.6317 17.3953 23.2971 17.1453C23.0147 16.9403 22.6748 16.8303 22.3244 16.8303C22.2512 16.8303 22.178 16.8353 22.1048 16.8453C21.812 16.8803 21.5401 16.9953 21.3152 17.1703C21.2682 16.4904 20.74 15.9004 20.0132 15.7754C19.3177 15.6504 18.6379 15.9804 18.3137 16.5504C18.2196 16.3454 18.0732 16.1654 17.8849 16.0154C17.5607 15.7554 17.1424 15.6304 16.7188 15.6704C16.7031 15.6704 16.6822 15.6754 16.6613 15.6804C16.6717 15.6754 16.6718 15.6754 16.6508 15.6754C16.0443 15.7304 15.5475 16.1054 15.3279 16.6054C15.2494 16.4804 15.1553 16.3604 15.0403 16.2554C14.7317 15.9754 14.3343 15.8454 13.9003 15.8354C13.4768 15.8454 13.0793 16.0104 12.7813 16.3054C12.6767 16.4104 12.5878 16.5304 12.5198 16.6553C12.2845 16.1704 11.793 15.8154 11.2021 15.7704C11.1759 15.7654 11.1498 15.7704 11.1236 15.7704C10.7262 15.7604 10.3393 15.8854 10.0308 16.1354C9.9314 16.2154 9.84774 16.3054 9.77453 16.4054C9.61766 15.9204 9.20978 15.5204 8.66072 15.3804C8.24239 15.2754 7.80838 15.3304 7.44234 15.5354C7.3639 15.5804 7.29592 15.6254 7.22794 15.6804C7.22271 15.6154 7.21749 15.5504 7.20703 15.4904C7.12859 15.0854 6.89328 14.7354 6.54293 14.5054C6.19258 14.2754 5.76902 14.1854 5.35069 14.2604C5.34546 14.2604 5.335 14.2604 5.32977 14.2654C5.48664 13.9104 5.51279 13.5004 5.36115 13.1154C5.19381 12.7054 4.85392 12.4004 4.45128 12.2454C4.83823 12.0105 5.11538 11.6205 5.18335 11.1555C5.25133 10.6405 5.03694 10.1505 4.66567 9.8255C5.18858 9.73051 5.62783 9.39051 5.84223 8.90053C6.05139 8.40054 5.96249 7.85055 5.65921 7.44056C6.18212 7.44556 6.68934 7.22556 7.00309 6.81057C7.32207 6.38558 7.38482 5.85559 7.20703 5.3906C7.70902 5.5406 8.28423 5.4406 8.68687 5.12561C9.11043 4.79562 9.31437 4.29063 9.27253 3.80064C9.70132 4.06563 10.2713 4.12063 10.7785 3.91064C11.2857 3.69564 11.6152 3.25565 11.7041 2.76566C11.9969 3.06066 12.41 3.24065 12.8597 3.24065C12.9643 3.24065 13.0532 3.23065 13.1421 3.21565C13.5656 3.14566 13.9317 2.92066 14.1722 2.58567C14.2402 2.49567 14.2977 2.40067 14.3396 2.30067C14.6062 2.73566 15.0873 3.03066 15.6625 3.05066H15.72C16.2691 3.05066 16.7606 2.77566 17.0482 2.36567C17.0901 2.48067 17.1476 2.59067 17.2156 2.69567C17.4509 3.03566 17.8065 3.27065 18.2196 3.35565C18.3242 3.38065 18.434 3.39065 18.5647 3.39065C19.0196 3.39065 19.438 3.20065 19.7308 2.89566C19.7569 3.03066 19.7988 3.15565 19.8563 3.28065C20.0341 3.65064 20.3531 3.92564 20.7505 4.06563C21.2159 4.24563 21.8329 4.16563 22.2565 3.86564C22.2512 4.35063 22.4918 4.83062 22.931 5.13061C22.931 5.13061 22.9362 5.13061 22.9362 5.13561C23.365 5.4206 23.935 5.4856 24.4109 5.31061C24.2644 5.7806 24.3586 6.30558 24.6985 6.71057C25.0384 7.10557 25.556 7.31556 26.079 7.27056C26.0267 7.35556 25.9796 7.44556 25.943 7.53556C25.7913 7.92055 25.8018 8.33554 25.9796 8.70553C26.1992 9.17552 26.6489 9.50551 27.1666 9.59051C27.0934 9.65551 27.0254 9.73551 26.9627 9.8155C26.7169 10.1505 26.6175 10.5555 26.6908 10.9555C26.7849 11.4755 27.1457 11.8955 27.6268 12.0955C27.5379 12.1455 27.449 12.2005 27.3653 12.2704C27.0411 12.5354 26.8424 12.9054 26.8163 13.3104C26.7797 13.7204 26.9104 14.1104 27.1875 14.4204C27.2607 14.5004 27.3339 14.5704 27.4176 14.6304C27.3183 14.6554 27.2241 14.6904 27.13 14.7354C26.743 14.9104 26.4554 15.2204 26.3143 15.6104C26.1365 16.1054 26.2411 16.6253 26.5443 17.0153C26.445 17.0203 26.3456 17.0253 26.2515 17.0403C25.8332 17.1103 25.4619 17.3353 25.2161 17.6703Z" fill="#8D1B3D" fill-opacity="0.65"/>
<path d="M29.9956 13.5404C30.0269 13.1354 29.891 12.7404 29.6138 12.4354C29.457 12.2604 29.2635 12.1255 29.0439 12.0355C29.253 11.9255 29.4308 11.7705 29.572 11.5805C29.8178 11.2455 29.9119 10.8405 29.8387 10.4405C29.7655 10.0355 29.5354 9.68551 29.1851 9.45051C28.9863 9.31552 28.7615 9.22552 28.5262 9.19052C29.0073 8.76053 29.1746 8.06554 28.8922 7.45556C28.6046 6.84557 27.9457 6.51058 27.2921 6.56058C27.6425 6.02559 27.6215 5.31061 27.1823 4.79062C26.9104 4.47062 26.5287 4.27063 26.1051 4.23063C25.8593 4.20563 25.6136 4.23563 25.3835 4.31563C25.4515 4.09563 25.4671 3.86064 25.4201 3.62564C25.3469 3.22065 25.1168 2.87066 24.7664 2.64067C24.4213 2.40067 23.9978 2.31067 23.5742 2.38067C23.3284 2.42067 23.0983 2.51567 22.8996 2.65567C22.9049 2.02568 22.5075 1.43569 21.8643 1.2157C21.242 0.990704 20.5622 1.1657 20.1334 1.61069C20.0968 1.40569 20.0184 1.2107 19.8981 1.0357C19.668 0.690711 19.3125 0.455716 18.8941 0.370718C18.2353 0.240721 17.5816 0.515715 17.226 1.0257C17.0169 0.445716 16.4469 0.0207258 15.7723 0.000726269C15.0873 -0.0192733 14.486 0.375718 14.2402 0.945705C13.9055 0.410717 13.2467 0.095724 12.5773 0.215721C12.159 0.28572 11.793 0.510715 11.5524 0.845707C11.4112 1.0357 11.3224 1.2457 11.2857 1.46569C10.8308 1.0157 10.1144 0.850707 9.4817 1.1207C9.08951 1.2857 8.78622 1.58569 8.63458 1.97068C8.54568 2.18568 8.51431 2.41567 8.53523 2.64067C8.33129 2.52067 8.09598 2.44067 7.85021 2.41567C7.42665 2.37567 7.01355 2.49067 6.68934 2.74566C6.35468 2.99566 6.14551 3.35565 6.09845 3.76064C6.06708 4.00064 6.09845 4.23563 6.18212 4.45563C5.54939 4.27563 4.82777 4.48562 4.41467 5.02561C4.0068 5.5706 4.02772 6.28558 4.41467 6.80057C4.18459 6.79057 3.95451 6.83057 3.74012 6.92057C3.3427 7.08057 3.03941 7.37556 2.88254 7.75055C2.62108 8.36054 2.80933 9.04052 3.29564 9.46051C3.0551 9.50551 2.82502 9.60551 2.62631 9.75051C2.28642 10.0005 2.07202 10.3605 2.0145 10.7655C1.95698 11.1705 2.07202 11.5705 2.33348 11.8955C2.51127 12.1155 2.74135 12.2804 3.00281 12.3804C2.74135 12.5404 2.53219 12.7704 2.40669 13.0454C2.23413 13.4154 2.22367 13.8304 2.37531 14.2054C2.642 14.8854 3.40022 15.3054 4.1689 15.1654C4.04341 15.4354 4.0068 15.7354 4.06432 16.0354C4.13753 16.4354 4.37284 16.7853 4.72842 17.0153C5.2984 17.4003 6.1246 17.3553 6.65274 16.9353C6.66843 17.1753 6.74164 17.4103 6.87236 17.6253C7.08676 17.9753 7.43188 18.2253 7.83975 18.3253C8.49862 18.4953 9.17841 18.2353 9.54968 17.7403C9.7327 18.3103 10.2608 18.7503 10.9249 18.8103C10.9772 18.8203 11.0191 18.8203 11.0714 18.8203C11.6779 18.8203 12.2165 18.4853 12.4884 17.9953C12.7447 18.5203 13.3094 18.8903 13.9787 18.8903C14.6272 18.8703 15.1762 18.4803 15.4115 17.9453C15.6887 18.4103 16.2116 18.7253 16.7972 18.7253L16.9175 18.7203C16.928 18.7203 17.0012 18.7103 17.0169 18.7103C17.5659 18.6603 18.0313 18.3453 18.2719 17.9103C18.4863 18.3453 18.9046 18.6803 19.4327 18.7753H19.438C19.9086 18.8553 20.3792 18.7303 20.7296 18.4603C20.7296 18.4853 20.7348 18.5103 20.74 18.5403C20.7923 18.9453 21.0067 19.3103 21.3466 19.5603C21.7963 19.8953 22.429 19.9703 22.9362 19.7653C22.8526 20.0803 22.8787 20.4103 23.0042 20.7153C23.1663 21.0903 23.4696 21.3902 23.867 21.5452V21.5502C23.9507 21.5802 24.0396 21.6052 24.1233 21.6202V23.0002H24.8344V21.6152C25.3312 21.5052 25.7547 21.1902 25.9535 20.7353C26.058 20.4953 26.0946 20.2453 26.0737 20.0053C26.7064 20.1853 27.4542 19.9453 27.8412 19.4153C28.0869 19.0803 28.1758 18.6703 28.1026 18.2703C28.0556 18.0353 27.9562 17.8203 27.8098 17.6353H27.8255C28.5053 17.6353 29.1118 17.2203 29.3315 16.6054C29.4727 16.2254 29.4465 15.8104 29.2635 15.4404C29.1537 15.2254 28.9968 15.0454 28.8086 14.9054C29.4517 14.7404 29.9433 14.2004 29.9956 13.5404ZM25.2161 17.6703C25.2005 17.6853 25.19 17.7103 25.1795 17.7303C24.9913 18.0153 24.9076 18.3453 24.939 18.6753C24.5939 18.5753 24.2226 18.5953 23.8827 18.7253C23.8827 18.7253 23.8775 18.7303 23.8723 18.7303C23.9193 18.5453 23.935 18.3553 23.9036 18.1603C23.8513 17.7553 23.6317 17.3953 23.2971 17.1453C23.0147 16.9403 22.6748 16.8303 22.3244 16.8303C22.2512 16.8303 22.178 16.8353 22.1048 16.8453C21.812 16.8803 21.5401 16.9953 21.3152 17.1703C21.2682 16.4904 20.74 15.9004 20.0132 15.7754C19.3177 15.6504 18.6379 15.9804 18.3137 16.5504C18.2196 16.3454 18.0732 16.1654 17.8849 16.0154C17.5607 15.7554 17.1424 15.6304 16.7188 15.6704C16.7031 15.6704 16.6822 15.6754 16.6613 15.6804C16.6717 15.6754 16.6718 15.6754 16.6508 15.6754C16.0443 15.7304 15.5475 16.1054 15.3279 16.6054C15.2494 16.4804 15.1553 16.3604 15.0403 16.2554C14.7317 15.9754 14.3343 15.8454 13.9003 15.8354C13.4768 15.8454 13.0793 16.0104 12.7813 16.3054C12.6767 16.4104 12.5878 16.5304 12.5198 16.6553C12.2845 16.1704 11.793 15.8154 11.2021 15.7704C11.1759 15.7654 11.1498 15.7704 11.1236 15.7704C10.7262 15.7604 10.3393 15.8854 10.0308 16.1354C9.9314 16.2154 9.84774 16.3054 9.77453 16.4054C9.61766 15.9204 9.20978 15.5204 8.66072 15.3804C8.24239 15.2754 7.80838 15.3304 7.44234 15.5354C7.3639 15.5804 7.29592 15.6254 7.22794 15.6804C7.22271 15.6154 7.21749 15.5504 7.20703 15.4904C7.12859 15.0854 6.89328 14.7354 6.54293 14.5054C6.19258 14.2754 5.76902 14.1854 5.35069 14.2604C5.34546 14.2604 5.335 14.2604 5.32977 14.2654C5.48664 13.9104 5.51279 13.5004 5.36115 13.1154C5.19381 12.7054 4.85392 12.4004 4.45128 12.2454C4.83823 12.0105 5.11538 11.6205 5.18335 11.1555C5.25133 10.6405 5.03694 10.1505 4.66567 9.8255C5.18858 9.73051 5.62783 9.39051 5.84223 8.90053C6.05139 8.40054 5.96249 7.85055 5.65921 7.44056C6.18212 7.44556 6.68934 7.22556 7.00309 6.81057C7.32207 6.38558 7.38482 5.85559 7.20703 5.3906C7.70902 5.5406 8.28423 5.4406 8.68687 5.12561C9.11043 4.79562 9.31437 4.29063 9.27253 3.80064C9.70132 4.06563 10.2713 4.12063 10.7785 3.91064C11.2857 3.69564 11.6152 3.25565 11.7041 2.76566C11.9969 3.06066 12.41 3.24065 12.8597 3.24065C12.9643 3.24065 13.0532 3.23065 13.1421 3.21565C13.5656 3.14566 13.9317 2.92066 14.1722 2.58567C14.2402 2.49567 14.2977 2.40067 14.3396 2.30067C14.6062 2.73566 15.0873 3.03066 15.6625 3.05066H15.72C16.2691 3.05066 16.7606 2.77566 17.0482 2.36567C17.0901 2.48067 17.1476 2.59067 17.2156 2.69567C17.4509 3.03566 17.8065 3.27065 18.2196 3.35565C18.3242 3.38065 18.434 3.39065 18.5647 3.39065C19.0196 3.39065 19.438 3.20065 19.7308 2.89566C19.7569 3.03066 19.7988 3.15565 19.8563 3.28065C20.0341 3.65064 20.3531 3.92564 20.7505 4.06563C21.2159 4.24563 21.8329 4.16563 22.2565 3.86564C22.2512 4.35063 22.4918 4.83062 22.931 5.13061C22.931 5.13061 22.9362 5.13061 22.9362 5.13561C23.365 5.4206 23.935 5.4856 24.4109 5.31061C24.2644 5.7806 24.3586 6.30558 24.6985 6.71057C25.0384 7.10557 25.556 7.31556 26.079 7.27056C26.0267 7.35556 25.9796 7.44556 25.943 7.53556C25.7913 7.92055 25.8018 8.33554 25.9796 8.70553C26.1992 9.17552 26.6489 9.50551 27.1666 9.59051C27.0934 9.65551 27.0254 9.73551 26.9627 9.8155C26.7169 10.1505 26.6175 10.5555 26.6908 10.9555C26.7849 11.4755 27.1457 11.8955 27.6268 12.0955C27.5379 12.1455 27.449 12.2005 27.3653 12.2704C27.0411 12.5354 26.8424 12.9054 26.8163 13.3104C26.7797 13.7204 26.9104 14.1104 27.1875 14.4204C27.2607 14.5004 27.3339 14.5704 27.4176 14.6304C27.3183 14.6554 27.2241 14.6904 27.13 14.7354C26.743 14.9104 26.4554 15.2204 26.3143 15.6104C26.1365 16.1054 26.2411 16.6253 26.5443 17.0153C26.445 17.0203 26.3456 17.0253 26.2515 17.0403C25.8332 17.1103 25.4619 17.3353 25.2161 17.6703Z" fill="#8D1B3D"/>
</svg>
