<svg width="4" height="32" viewBox="0 0 4 32" fill="none" xmlns="http://www.w3.org/2000/svg">
<g clip-path="url(#clip0_274_2239)">
<path d="M-14.3301 24.2031H-1.9375C-1.73444 24.2031 -1.5397 24.1225 -1.39612 23.9789C-1.25254 23.8353 -1.17188 23.6406 -1.17188 23.4375V12.9375C-1.17188 12.7344 -1.25254 12.5397 -1.39612 12.3961C-1.5397 12.2525 -1.73444 12.1719 -1.9375 12.1719H-19.4375C-19.6406 12.1719 -19.8353 12.2525 -19.9789 12.3961C-20.1225 12.5397 -20.2031 12.7344 -20.2031 12.9375V18.3301C-20.4193 18.3087 -20.638 18.2969 -20.8594 18.2969C-21.6835 18.2977 -22.5 18.4547 -23.2656 18.7597V10.6406H1.89062V25.1875C1.88993 25.7384 1.67076 26.2666 1.28119 26.6562C0.891616 27.0458 0.36344 27.2649 -0.1875 27.2656H-14.7598C-14.4547 26.5 -14.2977 25.6835 -14.2969 24.8594C-14.2969 24.638 -14.3087 24.4192 -14.3301 24.2031Z" fill="#8D1B3D" fill-opacity="0.65"/>
<path d="M-23.2656 5.9375C-23.2649 5.38656 -23.0458 4.85838 -22.6562 4.46881C-22.2666 4.07924 -21.7384 3.86007 -21.1875 3.85938H-19.7656V5.60938C-19.7656 5.81243 -19.685 6.00717 -19.5414 6.15075C-19.3978 6.29434 -19.2031 6.375 -19 6.375C-18.7969 6.375 -18.6022 6.29434 -18.4586 6.15075C-18.315 6.00717 -18.2344 5.81243 -18.2344 5.60938V3.85938H-16.2656V5.60938C-16.2656 5.81243 -16.185 6.00717 -16.0414 6.15075C-15.8978 6.29434 -15.7031 6.375 -15.5 6.375C-15.2969 6.375 -15.1022 6.29434 -14.9586 6.15075C-14.815 6.00717 -14.7344 5.81243 -14.7344 5.60938V3.85938H-6.64062V5.60938C-6.64062 5.81243 -6.55996 6.00717 -6.41638 6.15075C-6.2728 6.29434 -6.07806 6.375 -5.875 6.375C-5.67194 6.375 -5.4772 6.29434 -5.33362 6.15075C-5.19004 6.00717 -5.10938 5.81243 -5.10938 5.60938V3.85938H-3.14062V5.60938C-3.14062 5.81243 -3.05996 6.00717 -2.91638 6.15075C-2.7728 6.29434 -2.57806 6.375 -2.375 6.375C-2.17194 6.375 -1.9772 6.29434 -1.83362 6.15075C-1.69004 6.00717 -1.60938 5.81243 -1.60938 5.60938V3.85938H-0.1875C0.36344 3.86007 0.891616 4.07924 1.28119 4.46881C1.67076 4.85838 1.88993 5.38656 1.89062 5.9375V9.10938H-23.2656V5.9375Z" fill="#8D1B3D"/>
</g>
<defs>
<clipPath id="clip0_274_2239">
<rect width="28" height="28" fill="white" transform="matrix(-1 0 0 1 2 2)"/>
</clipPath>
</defs>
</svg>
