<svg width="322" height="64" viewBox="0 0 322 64" fill="none" xmlns="http://www.w3.org/2000/svg">
<path d="M77.0176 63.9922C76.6791 63.9952 76.34 64 76 64C75.6705 64 75.3417 63.9972 75.0137 63.9961L75.0166 62.998C75.3436 62.9991 75.6715 63 76 63C76.337 63 76.6733 62.9981 77.0088 62.9951L77.0176 63.9922ZM246 63C246.328 63 246.656 62.9991 246.983 62.998L246.986 63.7783V63.9971C246.658 63.9981 246.33 64 246 64C245.66 64 245.321 63.9962 244.982 63.9932L244.991 62.9951C245.327 62.9981 245.663 63 246 63ZM250.895 63.4609L250.902 63.959C250.253 63.9697 249.601 63.978 248.946 63.9844L248.937 62.9854C249.589 62.979 250.239 62.9707 250.886 62.96L250.895 63.4609ZM73.0635 62.9854L73.0537 63.9834C72.3986 63.977 71.7466 63.9688 71.0977 63.958L71.1055 63.46L71.1143 62.96C71.7609 62.9707 72.4106 62.979 73.0635 62.9854ZM240.975 62.8877C241.642 62.9176 242.312 62.9419 242.985 62.96L242.973 63.46L242.96 63.959C242.28 63.9408 241.604 63.9159 240.931 63.8857L240.975 62.8877ZM81.0693 63.8848C80.3959 63.9149 79.7195 63.9398 79.04 63.958L79.0273 63.46V63.459L79.0146 62.96C79.6879 62.9419 80.3582 62.9176 81.0254 62.8877L81.0693 63.8848ZM254.803 63.3682L254.817 63.8662C254.169 63.8862 253.518 63.9035 252.863 63.9189L252.84 62.9209C253.492 62.9055 254.142 62.8881 254.787 62.8682L254.803 63.3682ZM69.1602 62.9209L69.1367 63.918C68.482 63.9025 67.8307 63.8852 67.1826 63.8652L67.2129 62.8682C67.8584 62.8881 68.5079 62.9055 69.1602 62.9209ZM258.71 63.2324L258.731 63.7158C258.084 63.7457 257.434 63.7737 256.779 63.7988L256.741 62.7998C257.393 62.7748 258.041 62.7475 258.686 62.7178L258.71 63.2324ZM65.2588 62.7998L65.2207 63.7979C64.5664 63.7727 63.9157 63.7447 63.2686 63.7148L63.291 63.2178L63.3145 62.7178C63.9589 62.7475 64.6071 62.7748 65.2588 62.7998ZM236.968 62.6357C237.632 62.6896 238.3 62.7381 238.971 62.7803L238.909 63.7764C238.233 63.7339 237.559 63.6861 236.889 63.6318L236.968 62.6357ZM85.0723 63.1348L85.1113 63.6309C84.4409 63.6852 83.7674 63.7329 83.0908 63.7754L83.0293 62.7803C83.6998 62.7381 84.3677 62.6896 85.0322 62.6357L85.0723 63.1348ZM262.644 63.5029C261.997 63.5435 261.347 63.5817 260.693 63.6172L260.639 62.6201C261.29 62.5847 261.938 62.5472 262.581 62.5068L262.644 63.5029ZM61.3613 62.6201L61.334 63.1191L61.3066 63.6162C60.6527 63.5807 60.0026 63.5425 59.3564 63.502L59.4189 62.5068C60.0624 62.5472 60.71 62.5847 61.3613 62.6201ZM232.971 62.2393C233.633 62.3171 234.298 62.3888 234.966 62.4551L234.867 63.4502V63.4512C234.193 63.3843 233.523 63.309 232.855 63.2305L232.971 62.2393ZM89.1318 63.1191L89.1445 63.2295C88.4769 63.308 87.8065 63.3833 87.1328 63.4502L87.0342 62.4551C87.7021 62.3888 88.3674 62.3171 89.0293 62.2393L89.1318 63.1191ZM266.552 63.2236C265.906 63.2758 265.257 63.3253 264.603 63.3721L264.569 62.9072L264.531 62.376C265.182 62.3294 265.829 62.2794 266.472 62.2275L266.552 63.2236ZM57.4688 62.376L57.4326 62.873L57.4336 62.874L57.3975 63.3711C56.7435 63.3243 56.0937 63.2748 55.4482 63.2227L55.4883 62.7266L55.5283 62.2275C56.1707 62.2794 56.8178 62.3294 57.4688 62.376ZM270.455 62.8701C269.81 62.9349 269.161 62.9965 268.507 63.0557L268.416 62.0615C269.067 62.0027 269.713 61.9414 270.354 61.877L270.455 62.8701ZM53.584 62.0615L53.4932 63.0547C52.8391 62.9956 52.1897 62.9339 51.5449 62.8691L51.6455 61.877C52.2868 61.9414 52.9333 62.0027 53.584 62.0615ZM228.989 61.6982C229.649 61.8001 230.313 61.8958 230.979 61.9863L230.845 62.9756C230.173 62.8843 229.504 62.7893 228.838 62.6865L228.989 61.6982ZM93.1621 62.6855C92.4963 62.7883 91.8272 62.8833 91.1553 62.9746L91.0215 61.9863C91.6874 61.8958 92.3508 61.8001 93.0107 61.6982L93.1621 62.6855ZM274.35 62.4375C273.706 62.5162 273.056 62.5914 272.402 62.6641L272.292 61.6719C272.943 61.5996 273.588 61.5246 274.229 61.4463L274.35 62.4375ZM49.708 61.6719L49.5977 62.6631C48.9435 62.5904 48.2944 62.5152 47.6504 62.4365L47.7715 61.4463C48.4117 61.5246 49.0575 61.5996 49.708 61.6719ZM225.032 61.0146C225.688 61.14 226.347 61.2597 227.009 61.374L226.867 62.1924L226.84 62.3584C226.172 62.243 225.507 62.1217 224.845 61.9951L225.032 61.0146ZM97.1455 61.9424L97.1553 61.9941C96.4932 62.1207 95.8282 62.242 95.1602 62.3574L95.0762 61.8672V61.8662L94.9912 61.374C95.6529 61.2597 96.3119 61.14 96.9678 61.0146L97.1455 61.9424ZM278.234 61.917C277.591 62.0112 276.942 62.1018 276.288 62.1895L276.155 61.1992C276.806 61.1121 277.45 61.0213 278.089 60.9277L278.234 61.917ZM45.8447 61.1992L45.7119 62.1885C45.0576 62.1008 44.4087 62.0102 43.7656 61.916L43.9111 60.9277C44.55 61.0213 45.1945 61.1121 45.8447 61.1992ZM282.04 60.9385L282.103 61.2979C281.461 61.4093 280.813 61.5196 280.159 61.624L280.158 61.623L280.001 60.6357C280.651 60.5321 281.294 60.4251 281.931 60.3145L282.04 60.9385ZM41.999 60.6357L41.8408 61.623C41.1867 61.5187 40.5391 61.4083 39.8975 61.2969L40.0693 60.3145C40.7062 60.4251 41.3495 60.5321 41.999 60.6357ZM221.1 60.1904C221.75 60.3387 222.404 60.4826 223.061 60.6201L222.954 61.1299L222.857 61.5986C222.195 61.4598 221.536 61.3136 220.879 61.1641L220.983 60.6982L221.1 60.1904ZM101.121 61.1631C100.464 61.3127 99.8052 61.4589 99.1426 61.5977L99.041 61.1094V61.1084L98.9395 60.6201C99.596 60.4826 100.25 60.3387 100.9 60.1904L101.121 61.1631ZM285.948 60.5713C285.314 60.7011 284.673 60.827 284.024 60.9492L283.84 59.9688C284.483 59.8475 285.118 59.7224 285.747 59.5938L285.948 60.5713ZM38.1602 59.9688L37.9756 60.9482C37.3275 60.826 36.6862 60.7001 36.0518 60.5703L36.2529 59.5938C36.8817 59.7224 37.5175 59.8475 38.1602 59.9688ZM217.196 59.2305C217.843 59.4013 218.492 59.5671 219.145 59.7275L219.023 60.2188L218.906 60.6963C218.249 60.5345 217.593 60.3695 216.941 60.1973L217.196 59.2305ZM105.059 60.1963C104.407 60.3685 103.751 60.5335 103.094 60.6953L102.975 60.2129V60.2119L102.855 59.7275C103.508 59.5671 104.157 59.4013 104.804 59.2305L105.059 60.1963ZM289.765 59.7266C289.14 59.8767 288.507 60.0211 287.867 60.1631L287.768 59.7139L287.65 59.1885C288.285 59.0477 288.912 58.9027 289.531 58.7539L289.765 59.7266ZM32.4688 58.7539C33.0879 58.9027 33.715 59.0477 34.3496 59.1885L34.2402 59.6758L34.2412 59.6768L34.2061 59.834L34.1328 60.1621C33.4929 60.0201 32.8601 59.8757 32.2354 59.7256L32.2949 59.4775L32.4688 58.7539ZM213.329 58.1396C213.969 58.3317 214.612 58.519 215.258 58.7012L214.987 59.6621C214.336 59.4784 213.688 59.2904 213.042 59.0967L213.329 58.1396ZM108.814 58.6182L108.958 59.0957C108.312 59.2894 107.664 59.4774 107.013 59.6611L106.742 58.7012C107.388 58.519 108.031 58.3317 108.671 58.1396L108.814 58.6182ZM293.564 58.7334C292.943 58.9087 292.313 59.0798 291.675 59.2461L291.423 58.2803C292.055 58.1157 292.678 57.9469 293.293 57.7734L293.564 58.7334ZM28.707 57.7734C29.3216 57.9469 29.945 58.1157 30.5771 58.2803L30.4502 58.7637L30.4512 58.7646L30.3252 59.2451C29.6867 59.0788 29.0568 58.9078 28.4355 58.7324L28.707 57.7734ZM209.496 56.9219C210.13 57.1346 210.768 57.3426 211.407 57.5459L211.105 58.499C210.46 58.294 209.818 58.0827 209.179 57.8682L209.496 56.9219ZM112.663 57.3955L112.821 57.8672C112.182 58.0817 111.54 58.293 110.895 58.498L110.593 57.5459C111.232 57.3426 111.87 57.1346 112.504 56.9219L112.663 57.3955ZM297.311 57.5859C296.695 57.7905 296.07 57.9921 295.435 58.1865L295.142 57.2305C295.769 57.0384 296.388 56.8415 296.995 56.6396L297.311 57.5859ZM25.0049 56.6396C25.6124 56.8415 26.2307 57.0384 26.8584 57.2305L26.5654 58.1855C25.93 57.9912 25.3051 57.7895 24.6895 57.585L25.0049 56.6396ZM205.702 55.584C206.331 55.8164 206.962 56.0441 207.596 56.2676L207.264 57.2109C206.625 56.9858 205.99 56.7556 205.356 56.5215L205.702 55.584ZM116.552 56.2715L116.644 56.5205C116.01 56.7546 115.375 56.9848 114.736 57.21L114.571 56.7393H114.57L114.404 56.2676C115.038 56.0441 115.669 55.8164 116.298 55.584L116.552 56.2715ZM300.987 56.2578C300.39 56.4927 299.781 56.7215 299.161 56.9453L298.821 56.0068C299.432 55.7861 300.033 55.5595 300.621 55.3281L300.987 56.2578ZM21.3789 55.3281C21.9673 55.5595 22.5676 55.7861 23.1787 56.0068L22.8389 56.9443C22.2191 56.7205 21.6102 56.4918 21.0127 56.2568L21.3789 55.3281ZM203.82 54.8721L203.641 55.3389L203.461 55.8047C202.83 55.5609 202.203 55.3127 201.577 55.0605L201.95 54.1338C202.571 54.3841 203.194 54.6301 203.82 54.8721ZM120.237 54.5977L120.423 55.0596C119.797 55.3117 119.17 55.5599 118.539 55.8037L118.359 55.3389V55.3379L118.18 54.8721C118.806 54.6301 119.429 54.3841 120.05 54.1338L120.237 54.5977ZM304.592 54.707C304.008 54.9816 303.411 55.2489 302.801 55.5107L302.407 54.5947C303.007 54.3372 303.594 54.0733 304.167 53.8037L304.592 54.707ZM17.833 53.8037C18.4063 54.0733 18.9929 54.3372 19.5928 54.5947L19.1992 55.5098C18.5893 55.2479 17.9921 54.9806 17.4082 54.7061L17.833 53.8037ZM200.088 53.3672L199.843 53.9512L199.702 54.2891C199.078 54.0274 198.457 53.7636 197.838 53.4941V53.4932L198.236 52.5762C198.851 52.8439 199.468 53.1073 200.088 53.3672ZM123.963 53.0342L124.162 53.4932C123.543 53.7626 122.922 54.0264 122.298 54.2881L122.166 53.9736L122.105 53.8291V53.8281L121.912 53.3672C122.532 53.1073 123.149 52.8439 123.764 52.5762L123.963 53.0342ZM307.84 52.5137L308.066 52.9111C307.509 53.229 306.936 53.5392 306.349 53.8428L305.89 52.9551C306.465 52.6577 307.025 52.3537 307.57 52.043L307.84 52.5137ZM14.4297 52.043C14.9745 52.3537 15.5348 52.6577 16.1104 52.9551L15.6514 53.8418C15.0639 53.5382 14.491 53.2281 13.9336 52.9102L14.4297 52.043ZM196.396 51.7598L195.986 52.6709C195.37 52.3928 194.755 52.1124 194.144 51.8271V51.8262L194.354 51.373L194.355 51.374L194.566 50.9199C195.174 51.2034 195.784 51.4835 196.396 51.7598ZM127.856 51.8262C127.245 52.1115 126.63 52.3918 126.014 52.6699L125.604 51.7598C126.216 51.4835 126.826 51.2034 127.434 50.9199L127.856 51.8262ZM311.094 50.4199L311.372 50.8145C310.846 51.1865 310.302 51.5507 309.74 51.9062L309.205 51.0605C309.753 50.7138 310.283 50.3599 310.795 49.998L311.094 50.4199ZM11.2051 49.998C11.7167 50.3599 12.2469 50.7138 12.7949 51.0605L12.2598 51.9053C11.6979 51.5497 11.1541 51.1856 10.6279 50.8135L10.916 50.4062L11.2051 49.998ZM192.745 50.0576L192.312 50.958C191.703 50.6647 191.096 50.3673 190.491 50.0674L190.935 49.1729C191.536 49.471 192.139 49.7661 192.745 50.0576ZM131.41 49.8682L131.508 50.0664C130.903 50.3662 130.297 50.6638 129.688 50.957L129.472 50.5078L129.255 50.0576C129.861 49.7661 130.464 49.471 131.065 49.1729L131.41 49.8682ZM314.435 48.3701C313.958 48.8022 313.46 49.2255 312.941 49.6387L312.94 49.6377L312.317 48.8555C312.82 48.455 313.302 48.0462 313.763 47.6289L314.435 48.3701ZM8.2373 47.6289C8.69784 48.0462 9.17992 48.455 9.68262 48.8555L9.05859 49.6377C8.53985 49.2245 8.04234 48.8012 7.56543 48.3691L8.2373 47.6289ZM189.135 48.2676L188.681 49.1582V49.1592C188.078 48.8521 187.479 48.5406 186.881 48.2275L187.344 47.3418C187.939 47.6532 188.536 47.9621 189.135 48.2676ZM134.888 47.7852L135.119 48.2266C134.521 48.5396 133.922 48.8511 133.319 49.1582L132.865 48.2676C133.464 47.9621 134.061 47.6532 134.656 47.3418L134.888 47.7852ZM185.562 46.3975L185.246 46.9854L185.09 47.2793C184.494 46.9596 183.9 46.6365 183.309 46.3115L183.789 45.4355C184.378 45.7588 184.969 46.0795 185.562 46.3975ZM138.691 46.3105C138.1 46.6355 137.506 46.9586 136.91 47.2783L136.675 46.8389V46.8379L136.438 46.3975C137.031 46.0795 137.622 45.7588 138.211 45.4355L138.691 46.3105ZM317.139 45.542C316.73 46.0406 316.296 46.5286 315.839 47.0059L315.117 46.3135C315.557 45.8543 315.974 45.3861 316.366 44.9082L317.139 45.542ZM5.63477 44.9082C6.02666 45.386 6.44273 45.8544 6.88281 46.3135L6.16113 47.0049C5.70359 46.5276 5.27027 46.0397 4.86133 45.541L5.63477 44.9082ZM182.025 44.457L181.537 45.3291C180.947 44.9981 180.359 44.6647 179.773 44.3291L180.27 43.4609C180.853 43.7951 181.438 44.1275 182.025 44.457ZM142.227 44.3281C141.641 44.6637 141.053 44.9971 140.463 45.3281L140.219 44.8926V44.8916L139.975 44.457C140.562 44.1275 141.147 43.7951 141.73 43.4609L142.227 44.3281ZM319.352 42.3193C319.034 42.884 318.689 43.4372 318.316 43.9785L317.492 43.4121C317.848 42.8947 318.178 42.3664 318.48 41.8281L319.352 42.3193ZM3.51953 41.8281C3.82241 42.3664 4.15179 42.8947 4.50781 43.4121L4.0957 43.6953L3.68359 43.9775C3.31116 43.4362 2.96621 42.8831 2.64844 42.3184L3.51953 41.8281ZM178.522 42.4502L178.188 43.0225L178.02 43.3145C177.436 42.9736 176.854 42.6309 176.273 42.2861L176.783 41.4258C177.361 41.7691 177.941 42.1108 178.522 42.4502ZM145.727 42.2852C145.146 42.6299 144.564 42.9727 143.98 43.3135L143.863 43.1123L143.729 42.8828V42.8818L143.478 42.4502C144.059 42.1108 144.639 41.7691 145.217 41.4258L145.727 42.2852ZM175.051 40.3887L174.535 41.2432C173.956 40.8936 173.38 40.5412 172.805 40.1885L173.325 39.3379C173.899 39.6896 174.474 40.0403 175.051 40.3887ZM149.195 40.1875C148.62 40.5403 148.044 40.8927 147.465 41.2422L146.949 40.3887C147.526 40.0403 148.101 39.6896 148.675 39.3379L149.195 40.1875ZM320.938 38.7461C320.731 39.3664 320.495 39.9744 320.23 40.5703L319.316 40.165C319.568 39.5985 319.792 39.0201 319.988 38.4307L320.938 38.7461ZM2.01172 38.4307C2.20785 39.0201 2.43195 39.5985 2.68359 40.165L1.76953 40.5693C1.50488 39.9734 1.26886 39.3654 1.0625 38.7451L2.01172 38.4307ZM171.606 38.2764L171.08 39.125C170.506 38.7681 169.932 38.4112 169.361 38.0518L169.512 37.8105L169.894 37.2051C170.463 37.5635 171.034 37.9206 171.606 38.2764ZM152.373 37.6279L152.639 38.0508C152.068 38.4102 151.494 38.7671 150.92 39.124L150.784 38.9043L150.394 38.2764C150.966 37.9206 151.537 37.5635 152.106 37.2051L152.373 37.6279ZM168.185 36.123L167.648 36.9658C167.078 36.6026 166.509 36.2381 165.941 35.873L166.481 35.0332C167.048 35.3974 167.615 35.7607 168.185 36.123ZM156.059 35.8721C155.491 36.2371 154.922 36.6016 154.352 36.9648L153.815 36.123C154.385 35.7607 154.952 35.3974 155.519 35.0332L156.059 35.8721ZM321.811 34.9365C321.724 35.5903 321.608 36.2321 321.464 36.8623L320.49 36.6396C320.627 36.0403 320.737 35.4288 320.819 34.8057L321.811 34.9365ZM1.18066 34.8057C1.26287 35.4288 1.37273 36.0403 1.50977 36.6396L0.536133 36.8613C0.392063 36.2311 0.275679 35.5894 0.189453 34.9355L0.685547 34.8711L1.18066 34.8057ZM164.782 33.9365L164.239 34.7744C163.672 34.4063 163.106 34.0381 162.541 33.6689L163.088 32.832C163.652 33.2006 164.216 33.5692 164.782 33.9365ZM159.459 33.668C158.894 34.0371 158.328 34.4054 157.761 34.7734L157.218 33.9365C157.784 33.5692 158.348 33.2006 158.912 32.832L159.459 33.668ZM321.979 31.0137C321.993 31.3397 322 31.6685 322 32C322 32.1739 321.998 32.3471 321.994 32.5195L321.979 32.9873L320.98 32.9453C320.994 32.6332 321 32.3179 321 32C321 31.6821 320.994 31.3668 320.98 31.0547L321.979 31.0137ZM1.01953 31.0547C1.00628 31.3668 1 31.6821 1 32C1 32.3179 1.00628 32.6332 1.01953 32.9453L0.0205078 32.9863C0.00667614 32.6603 0 32.3315 0 32C1.04814e-08 31.8261 0.00204451 31.6529 0.00585938 31.4805L0.0205078 31.0127L1.01953 31.0547ZM162 32C161.697 32.1997 161.393 32.398 161.09 32.5977C161.06 32.5779 161.03 32.5579 161 32.5381C160.97 32.558 160.94 32.5788 160.91 32.5986C160.607 32.3989 160.303 32.1998 160 32C160.303 31.8003 160.607 31.602 160.91 31.4023C160.94 31.4219 160.969 31.4414 160.999 31.4609C161.029 31.441 161.06 31.4213 161.09 31.4014C161.393 31.6011 161.697 31.8002 162 32ZM159.459 30.3311L158.912 31.168C158.348 30.7994 157.784 30.4308 157.218 30.0635L157.761 29.2256C158.328 29.5937 158.894 29.9619 159.459 30.3311ZM164.782 30.0635C164.216 30.4308 163.652 30.7994 163.088 31.168L162.541 30.332C163.106 29.9629 163.672 29.5946 164.239 29.2266L164.782 30.0635ZM1.50977 27.3604C1.37273 27.9597 1.26287 28.5712 1.18066 29.1943L0.189453 29.0635C0.275707 28.4097 0.392035 27.7679 0.536133 27.1377L1.50977 27.3604ZM321.464 27.1387C321.608 27.7689 321.724 28.4106 321.811 29.0645L321.314 29.1289L320.819 29.1943C320.737 28.5712 320.627 27.9597 320.49 27.3604L321.464 27.1387ZM156.059 28.127L155.519 28.9668C154.952 28.6026 154.385 28.2393 153.815 27.877L154.352 27.0342C154.922 27.3974 155.491 27.7619 156.059 28.127ZM168.185 27.877C167.615 28.2393 167.048 28.6026 166.481 28.9668L165.941 28.1279C166.509 27.7629 167.078 27.3984 167.648 27.0352L168.185 27.877ZM152.639 25.9482L152.488 26.1895L152.106 26.7949C151.537 26.4365 150.966 26.0794 150.394 25.7236L150.92 24.875C151.494 25.2319 152.068 25.5888 152.639 25.9482ZM171.216 25.0957L171.606 25.7236C171.034 26.0794 170.463 26.4365 169.894 26.7949L169.627 26.3721L169.361 25.9492C169.932 25.5898 170.506 25.2329 171.08 24.876L171.216 25.0957ZM2.68359 23.835C2.43195 24.4015 2.20785 24.9799 2.01172 25.5693L1.0625 25.2539C1.26889 24.6336 1.50485 24.0256 1.76953 23.4297L2.68359 23.835ZM320.23 23.4307C320.495 24.0266 320.731 24.6346 320.938 25.2549L319.988 25.5693C319.792 24.9799 319.568 24.4015 319.316 23.835L320.23 23.4307ZM149.195 23.8115L148.675 24.6621C148.101 24.3104 147.526 23.9597 146.949 23.6113L147.465 22.7568C148.044 23.1064 148.62 23.4588 149.195 23.8115ZM175.051 23.6113C174.474 23.9597 173.899 24.3104 173.325 24.6621L172.805 23.8125C173.38 23.4597 173.956 23.1073 174.535 22.7578L175.051 23.6113ZM145.727 21.7139L145.217 22.5742C144.639 22.2309 144.059 21.8892 143.478 21.5498L143.812 20.9775L143.98 20.6855C144.564 21.0264 145.146 21.3691 145.727 21.7139ZM178.137 20.8877L178.271 21.1172V21.1182L178.522 21.5498C177.941 21.8892 177.361 22.2309 176.783 22.5742L176.273 21.7148C176.854 21.3701 177.436 21.0273 178.02 20.6865L178.137 20.8877ZM4.50781 20.5879C4.15179 21.1053 3.82241 21.6336 3.51953 22.1719L2.64844 21.6807C2.96622 21.116 3.31115 20.5628 3.68359 20.0215L4.50781 20.5879ZM318.316 20.0225C318.689 20.5638 319.034 21.1169 319.352 21.6816L318.48 22.1719C318.178 21.6336 317.848 21.1053 317.492 20.5879L317.904 20.3047L318.316 20.0225ZM142.227 19.6709L141.73 20.5391C141.147 20.2049 140.562 19.8725 139.975 19.543L140.463 18.6709C141.053 19.0019 141.641 19.3353 142.227 19.6709ZM181.781 19.1074V19.1084L182.025 19.543C181.438 19.8725 180.853 20.2049 180.27 20.5391L179.773 19.6719C180.359 19.3363 180.947 19.0029 181.537 18.6719L181.781 19.1074ZM6.88281 17.6865C6.44264 18.1457 6.02575 18.6139 5.63379 19.0918L4.86133 18.458C5.27028 17.9594 5.70359 17.4714 6.16113 16.9941L6.88281 17.6865ZM315.839 16.9951C316.296 17.4724 316.73 17.9603 317.139 18.459L316.365 19.0918C315.973 18.614 315.557 18.1456 315.117 17.6865L315.839 16.9951ZM138.691 17.6885L138.211 18.5645C137.622 18.2412 137.031 17.9205 136.438 17.6025L136.754 17.0146L136.91 16.7207C137.506 17.0404 138.1 17.3635 138.691 17.6885ZM185.325 17.1611V17.1621L185.562 17.6025C184.969 17.9205 184.378 18.2412 183.789 18.5645L183.309 17.6895C183.9 17.3645 184.494 17.0414 185.09 16.7217L185.325 17.1611ZM135.119 15.7725L134.656 16.6582C134.061 16.3468 133.464 16.0379 132.865 15.7324L133.319 14.8418V14.8408C133.922 15.1479 134.521 15.4594 135.119 15.7725ZM189.135 15.7324C188.536 16.0379 187.939 16.3468 187.344 16.6582L187.112 16.2148L186.881 15.7734C187.479 15.4604 188.078 15.1489 188.681 14.8418L189.135 15.7324ZM9.05957 14.3623L9.68262 15.1445C9.17993 15.545 8.69784 15.9539 8.2373 16.3711L7.56543 15.6299C8.04233 15.1978 8.53986 14.7745 9.05859 14.3613L9.05957 14.3623ZM312.941 14.3623C313.46 14.7755 313.958 15.1988 314.435 15.6309L313.763 16.3711C313.302 15.9538 312.82 15.545 312.317 15.1445L312.941 14.3623ZM131.509 13.9326L131.065 14.8271C130.464 14.529 129.861 14.2339 129.255 13.9424L129.688 13.042C130.297 13.3353 130.904 13.6327 131.509 13.9326ZM192.528 13.4922L192.745 13.9424C192.139 14.2339 191.536 14.529 190.935 14.8271L190.59 14.1318L190.492 13.9336C191.097 13.6338 191.703 13.3362 192.312 13.043L192.528 13.4922ZM12.7949 12.9395C12.2469 13.2862 11.7167 13.6401 11.2051 14.002L10.9062 13.5801L10.6279 13.1855C11.1541 12.8135 11.6979 12.4493 12.2598 12.0938L12.7949 12.9395ZM309.74 12.0947C310.302 12.4503 310.846 12.8144 311.372 13.1865L311.084 13.5938L310.795 14.002C310.283 13.6401 309.753 13.2862 309.205 12.9395L309.74 12.0947ZM127.856 12.1729V12.1738L127.646 12.627L127.645 12.626L127.434 13.0801C126.826 12.7966 126.216 12.5165 125.604 12.2402L126.014 11.3291C126.63 11.6072 127.245 11.8876 127.856 12.1729ZM196.396 12.2402C195.784 12.5165 195.174 12.7966 194.566 13.0801L194.144 12.1738C194.755 11.8885 195.37 11.6082 195.986 11.3301L196.396 12.2402ZM16.1104 11.0449C15.5348 11.3423 14.9745 11.6463 14.4297 11.957L14.1602 11.4863L13.9336 11.0889C14.491 10.771 15.0639 10.4608 15.6514 10.1572L16.1104 11.0449ZM306.349 10.1582C306.936 10.4618 307.509 10.7719 308.066 11.0898L307.57 11.957C307.025 11.6463 306.465 11.3423 305.89 11.0449L306.349 10.1582ZM124.162 10.5059V10.5068L123.764 11.4238C123.149 11.1561 122.532 10.8927 121.912 10.6328L122.157 10.0488L122.298 9.71094C122.922 9.97258 123.543 10.2364 124.162 10.5059ZM199.834 10.0264L199.895 10.1709V10.1719L200.088 10.6328C199.468 10.8927 198.851 11.1561 198.236 11.4238L198.037 10.9658L197.838 10.5068C198.457 10.2374 199.078 9.97356 199.702 9.71191L199.834 10.0264ZM19.5928 9.40527C18.9929 9.6628 18.4063 9.92675 17.833 10.1963L17.4082 9.29297C17.9921 9.01844 18.5893 8.7511 19.1992 8.48926L19.5928 9.40527ZM302.801 8.49023C303.411 8.75208 304.008 9.01941 304.592 9.29395L304.167 10.1963C303.594 9.92675 303.007 9.6628 302.407 9.40527L302.801 8.49023ZM120.423 8.93945L120.05 9.86621C119.429 9.61586 118.806 9.36992 118.18 9.12793L118.359 8.66113L118.539 8.19531C119.17 8.43911 119.797 8.68728 120.423 8.93945ZM203.641 8.66113V8.66211L203.82 9.12793C203.194 9.36992 202.571 9.61586 201.95 9.86621L201.763 9.40234L201.577 8.94043C202.203 8.68825 202.83 8.44009 203.461 8.19629L203.641 8.66113ZM23.1787 7.99316C22.5676 8.21385 21.9673 8.44053 21.3789 8.67188L21.0127 7.74219C21.6102 7.50725 22.2191 7.27851 22.8389 7.05469L23.1787 7.99316ZM299.161 7.05566C299.781 7.27949 300.39 7.50822 300.987 7.74316L300.621 8.67188C300.033 8.44053 299.432 8.21385 298.821 7.99316L299.161 7.05566ZM114.736 6.78906C115.375 7.01423 116.01 7.24439 116.644 7.47852L116.298 8.41602C115.669 8.18363 115.038 7.95587 114.404 7.73242L114.736 6.78906ZM207.429 7.26074H207.43L207.596 7.73242C206.962 7.95587 206.331 8.18364 205.702 8.41602L205.448 7.72852L205.356 7.47949C205.99 7.24536 206.625 7.01521 207.264 6.79004L207.429 7.26074ZM26.8584 6.76953C26.2307 6.96156 25.6124 7.15852 25.0049 7.36035L24.6895 6.41406C25.3051 6.20953 25.93 6.00787 26.5654 5.81348L26.8584 6.76953ZM295.435 5.81445C296.07 6.00885 296.695 6.21051 297.311 6.41504L296.995 7.36035C296.388 7.15852 295.769 6.96156 295.142 6.76953L295.435 5.81445ZM110.895 5.50098C111.54 5.706 112.182 5.91733 112.821 6.13184L112.504 7.07812C111.87 6.86543 111.232 6.65737 110.593 6.4541L110.895 5.50098ZM211.407 6.4541C210.768 6.65737 210.13 6.86543 209.496 7.07812L209.337 6.60449L209.179 6.13281C209.818 5.91831 210.46 5.70698 211.105 5.50195L211.407 6.4541ZM30.5771 5.71973C29.945 5.88434 29.3216 6.05312 28.707 6.22656L28.4355 5.2666C29.0568 5.09126 29.6867 4.9202 30.3252 4.75391L30.5771 5.71973ZM291.675 4.75488C292.313 4.92118 292.943 5.09223 293.564 5.26758L293.293 6.22656C292.678 6.05312 292.055 5.88434 291.423 5.71973L291.55 5.23633L291.549 5.23535L291.675 4.75488ZM107.013 4.33789C107.664 4.52164 108.312 4.70962 108.958 4.90332L108.671 5.86035C108.031 5.66827 107.388 5.48102 106.742 5.29883L107.013 4.33789ZM215.258 5.29883C214.612 5.48102 213.969 5.66827 213.329 5.86035L213.186 5.38184L213.042 4.9043C213.688 4.7106 214.336 4.52262 214.987 4.33887L215.258 5.29883ZM34.2324 4.28613L34.3496 4.81152C33.715 4.95231 33.0879 5.09732 32.4688 5.24609L32.2354 4.27344C32.8601 4.12332 33.4929 3.97889 34.1328 3.83691L34.2324 4.28613ZM287.867 3.83789C288.507 3.97986 289.14 4.12429 289.765 4.27441L289.705 4.52246L289.531 5.24609C288.912 5.09732 288.285 4.95231 287.65 4.81152L287.76 4.32422L287.759 4.32324L287.794 4.16602L287.867 3.83789ZM103.094 3.30371C103.751 3.4655 104.407 3.63054 105.059 3.80273L104.804 4.76953C104.157 4.59874 103.508 4.43291 102.855 4.27246L102.977 3.78125L103.094 3.30371ZM219.025 3.78711V3.78809L219.145 4.27246C218.492 4.43291 217.843 4.59874 217.196 4.76953L216.941 3.80371C217.593 3.63151 218.249 3.46648 218.906 3.30469L219.025 3.78711ZM38.1602 4.03125C37.5175 4.15248 36.8817 4.27758 36.2529 4.40625L36.0518 3.42871C36.6861 3.29889 37.3275 3.17303 37.9756 3.05078L38.1602 4.03125ZM284.024 3.05176C284.673 3.17401 285.314 3.29986 285.948 3.42969L285.747 4.40625C285.118 4.27758 284.483 4.15248 283.84 4.03125L284.024 3.05176ZM99.1426 2.40137C99.8052 2.54016 100.464 2.68636 101.121 2.83594L101.017 3.30176L100.9 3.80957C100.25 3.66133 99.596 3.51743 98.9395 3.37988L99.0459 2.87012L99.1426 2.40137ZM222.959 2.89062V2.8916L223.061 3.37988C222.404 3.51743 221.75 3.66133 221.1 3.80957L220.879 2.83691C221.536 2.68734 222.195 2.54114 222.857 2.40234L222.959 2.89062ZM41.8418 2.37695L41.999 3.36426C41.3495 3.46791 40.7062 3.57493 40.0693 3.68555L39.96 3.06152L39.8975 2.70215C40.5391 2.59069 41.1867 2.48037 41.8408 2.37598L41.8418 2.37695ZM282.103 2.70312L281.931 3.68555C281.294 3.57493 280.651 3.46791 280.001 3.36426L280.159 2.37695C280.813 2.48135 281.461 2.59167 282.103 2.70312ZM45.8447 2.80078C45.1945 2.8879 44.55 2.9787 43.9111 3.07227L43.7656 2.08301C44.4087 1.98881 45.0576 1.89822 45.7119 1.81055L45.8447 2.80078ZM278.234 2.08398L278.089 3.07227C277.45 2.9787 276.806 2.8879 276.155 2.80078L276.288 1.81152C276.942 1.8992 277.591 1.98979 278.234 2.08398ZM95.1602 1.6416C95.8282 1.75699 96.4932 1.87835 97.1553 2.00488L96.9678 2.98535C96.3119 2.86001 95.653 2.74028 94.9912 2.62598L95.1328 1.80762L95.1602 1.6416ZM226.924 2.13281V2.13379L227.009 2.62598C226.347 2.74028 225.688 2.86001 225.032 2.98535L224.854 2.05762L224.845 2.00586C225.507 1.87932 226.172 1.75797 226.84 1.64258L226.924 2.13281ZM49.708 2.32812C49.0575 2.40038 48.4117 2.47545 47.7715 2.55371L47.6504 1.5625C48.2944 1.48378 48.9435 1.4086 49.5977 1.33594L49.708 2.32812ZM274.35 1.56348L274.229 2.55371C273.588 2.47545 272.943 2.40038 272.292 2.32812L272.402 1.33691C273.056 1.40957 273.706 1.48476 274.35 1.56348ZM91.1553 1.02441C91.8271 1.11575 92.4963 1.21071 93.1621 1.31348L93.0107 2.30176C92.3508 2.19989 91.6874 2.10421 91.0215 2.01367L91.1553 1.02441ZM230.979 2.01367C230.313 2.10421 229.649 2.19989 228.989 2.30176L228.838 1.31445C229.504 1.21169 230.173 1.11673 230.845 1.02539L230.979 2.01367ZM53.584 1.93848C52.9333 1.99729 52.2868 2.05861 51.6455 2.12305L51.5449 1.12988C52.1897 1.0651 52.8391 1.00346 53.4932 0.944336L53.584 1.93848ZM270.455 1.13086L270.354 2.12305C269.713 2.05861 269.067 1.99729 268.416 1.93848L268.507 0.945312C269.161 1.00443 269.81 1.06607 270.455 1.13086ZM57.4307 1.09277L57.4688 1.62402C56.8178 1.67061 56.1707 1.72059 55.5283 1.77246L55.4482 0.776367C56.0937 0.724243 56.7435 0.674733 57.3975 0.62793L57.4307 1.09277ZM266.552 0.777344L266.512 1.27344L266.472 1.77246C265.829 1.72059 265.182 1.67061 264.531 1.62402L264.567 1.12695L264.566 1.12598L264.603 0.628906C265.257 0.67571 265.906 0.725219 266.552 0.777344ZM87.1328 0.548828C87.8065 0.615719 88.4769 0.691029 89.1445 0.769531L89.0293 1.76074C88.3674 1.68291 87.7021 1.61124 87.0342 1.54492L87.1328 0.549805V0.548828ZM234.966 1.54492C234.298 1.61124 233.633 1.68291 232.971 1.76074L232.868 0.880859L232.855 0.770508C233.523 0.692005 234.193 0.616696 234.867 0.549805L234.966 1.54492ZM61.3613 1.37988C60.71 1.41525 60.0624 1.4528 59.4189 1.49316L59.3564 0.49707C60.0026 0.456531 60.6527 0.418329 61.3066 0.382812L61.3613 1.37988ZM262.644 0.498047L262.581 1.49316C261.938 1.4528 261.29 1.41525 260.639 1.37988L260.666 0.880859L260.693 0.383789C261.347 0.419306 261.997 0.457508 262.644 0.498047ZM83.0908 0.223633C83.7674 0.266143 84.4409 0.313853 85.1113 0.368164L85.0322 1.36426C84.3677 1.31042 83.6998 1.26187 83.0293 1.21973L83.0908 0.223633ZM238.971 1.21973C238.3 1.26187 237.632 1.31042 236.968 1.36426L236.928 0.865234L236.889 0.369141C237.559 0.314829 238.233 0.26712 238.909 0.224609L238.971 1.21973ZM65.2588 1.2002C64.6071 1.22521 63.9589 1.25247 63.3145 1.28223L63.29 0.767578L63.2686 0.28418C63.9157 0.254302 64.5664 0.226284 65.2207 0.201172L65.2588 1.2002ZM258.731 0.285156L258.709 0.782227L258.686 1.28223C258.041 1.25247 257.393 1.22521 256.741 1.2002L256.779 0.202148C257.434 0.227261 258.084 0.255278 258.731 0.285156ZM69.1602 1.0791C68.5079 1.09449 67.8584 1.11193 67.2129 1.13184L67.1973 0.631836L67.1826 0.133789C67.8307 0.113804 68.482 0.0965028 69.1367 0.0810547L69.1602 1.0791ZM254.817 0.134766L254.787 1.13184C254.142 1.11193 253.492 1.09449 252.84 1.0791L252.863 0.0820312C253.518 0.0974795 254.169 0.11478 254.817 0.134766ZM79.04 0.0410156C79.7195 0.0591915 80.3959 0.0841119 81.0693 0.114258L81.0254 1.1123C80.3582 1.08243 79.6879 1.05806 79.0146 1.04004L79.0273 0.540039L79.04 0.0410156ZM242.973 0.540039V0.541016L242.985 1.04004C242.312 1.05806 241.642 1.08243 240.975 1.1123L240.931 0.115234C241.604 0.0850881 242.28 0.0601683 242.96 0.0419922L242.973 0.540039ZM73.0635 1.01465C72.4106 1.02105 71.7609 1.02932 71.1143 1.04004L71.1055 0.539062L71.0977 0.0410156C71.7466 0.0302595 72.3986 0.0220462 73.0537 0.015625L73.0635 1.01465ZM250.902 0.0419922L250.895 0.540039L250.886 1.04004C250.239 1.02932 249.589 1.02105 248.937 1.01465L248.946 0.0166016C249.601 0.0230229 250.253 0.031236 250.902 0.0419922ZM77.0176 0.00683594L77.0088 1.00488C76.6733 1.00189 76.337 1 76 1C75.6715 1 75.3436 1.0009 75.0166 1.00195L75.0137 0.22168V0.00292969C75.3417 0.00187002 75.6705 0 76 0C76.34 0 76.6791 0.00381694 77.0176 0.00683594ZM246.986 0.00390625L246.983 1.00195C246.656 1.0009 246.329 1 246 1C245.663 1 245.327 1.00189 244.991 1.00488L244.982 0.0078125C245.321 0.00479349 245.66 2.28722e-08 246 0C246.33 2.88067e-08 246.658 0.00284654 246.986 0.00390625Z" fill="#828282"/>
</svg>
