<svg width="20" height="20" viewBox="0 0 20 20" fill="none" xmlns="http://www.w3.org/2000/svg">
<path d="M12.5 3.125H7.5C7.00276 3.12513 6.52592 3.32272 6.17432 3.67432C5.82272 4.02592 5.62513 4.50276 5.625 5V15C5.62513 15.4972 5.82272 15.9741 6.17432 16.3257C6.52592 16.6773 7.00276 16.8749 7.5 16.875H12.5C12.9972 16.8749 13.4741 16.6773 13.8257 16.3257C14.1773 15.9741 14.3749 15.4972 14.375 15V5C14.3749 4.50276 14.1773 4.02592 13.8257 3.67432C13.4741 3.32272 12.9972 3.12513 12.5 3.125ZM13.125 15C13.125 15.1658 13.0592 15.3247 12.9419 15.4419C12.8247 15.5592 12.6658 15.625 12.5 15.625H7.5C7.33424 15.625 7.17527 15.5592 7.05806 15.4419C6.94085 15.3247 6.875 15.1658 6.875 15V5C6.875 4.83424 6.94085 4.67527 7.05806 4.55806C7.17527 4.44085 7.33424 4.375 7.5 4.375H12.5C12.6658 4.375 12.8247 4.44085 12.9419 4.55806C13.0592 4.67527 13.125 4.83424 13.125 5V15Z" fill="#333333"/>
<path d="M1.25 8.125C1.08424 8.125 0.925268 8.19085 0.808058 8.30806C0.690848 8.42527 0.625 8.58424 0.625 8.75V11.25C0.625 11.4158 0.690848 11.5747 0.808058 11.6919C0.925268 11.8092 1.08424 11.875 1.25 11.875C1.41576 11.875 1.57473 11.8092 1.69194 11.6919C1.80915 11.5747 1.875 11.4158 1.875 11.25V8.75C1.875 8.58424 1.80915 8.42527 1.69194 8.30806C1.57473 8.19085 1.41576 8.125 1.25 8.125Z" fill="#333333"/>
<path d="M18.75 8.125C18.5842 8.125 18.4253 8.19085 18.3081 8.30806C18.1908 8.42527 18.125 8.58424 18.125 8.75V11.25C18.125 11.4158 18.1908 11.5747 18.3081 11.6919C18.4253 11.8092 18.5842 11.875 18.75 11.875C18.9158 11.875 19.0747 11.8092 19.1919 11.6919C19.3092 11.5747 19.375 11.4158 19.375 11.25V8.75C19.375 8.58424 19.3092 8.42527 19.1919 8.30806C19.0747 8.19085 18.9158 8.125 18.75 8.125Z" fill="#333333"/>
<path d="M3.75 5.625C3.58424 5.625 3.42527 5.69085 3.30806 5.80806C3.19085 5.92527 3.125 6.08424 3.125 6.25V13.75C3.125 13.9158 3.19085 14.0747 3.30806 14.1919C3.42527 14.3092 3.58424 14.375 3.75 14.375C3.91576 14.375 4.07473 14.3092 4.19194 14.1919C4.30915 14.0747 4.375 13.9158 4.375 13.75V6.25C4.375 6.08424 4.30915 5.92527 4.19194 5.80806C4.07473 5.69085 3.91576 5.625 3.75 5.625Z" fill="#333333"/>
<path d="M16.25 5.625C16.0842 5.625 15.9253 5.69085 15.8081 5.80806C15.6908 5.92527 15.625 6.08424 15.625 6.25V13.75C15.625 13.9158 15.6908 14.0747 15.8081 14.1919C15.9253 14.3092 16.0842 14.375 16.25 14.375C16.4158 14.375 16.5747 14.3092 16.6919 14.1919C16.8092 14.0747 16.875 13.9158 16.875 13.75V6.25C16.875 6.08424 16.8092 5.92527 16.6919 5.80806C16.5747 5.69085 16.4158 5.625 16.25 5.625Z" fill="#333333"/>
</svg>
