<svg width="24" height="24" viewBox="0 0 24 24" fill="none" xmlns="http://www.w3.org/2000/svg">
<path d="M12 12.75C12.4142 12.75 12.75 12.4142 12.75 12C12.75 11.5858 12.4142 11.25 12 11.25C11.5858 11.25 11.25 11.5858 11.25 12C11.25 12.4142 11.5858 12.75 12 12.75Z" fill="#8D1B3D"/>
<path d="M21.0001 12C20.9909 10.3995 20.5595 8.82975 19.7494 7.44935C18.9394 6.06895 17.7793 4.92677 16.3866 4.1382C15.2679 3.51505 14.027 3.14257 12.7501 3.04658V1.5C12.7501 1.30109 12.6711 1.11032 12.5304 0.96967C12.3898 0.829018 12.199 0.75 12.0001 0.75C11.8012 0.75 11.6104 0.829018 11.4698 0.96967C11.3291 1.11032 11.2501 1.30109 11.2501 1.5V3.04658C9.97396 3.14236 8.73389 3.51445 7.61583 4.13707C6.25834 4.89339 5.12001 5.98857 4.31184 7.31584C3.50366 8.6431 3.05322 10.1571 3.00443 11.7103C2.95565 13.2635 3.31019 14.8028 4.03348 16.1782C4.75677 17.5536 5.82413 18.718 7.13148 19.5581L4.71985 21.9697C4.57925 22.1104 4.50026 22.3011 4.50026 22.5C4.50026 22.6989 4.57925 22.8896 4.71985 23.0303C4.86319 23.1657 5.05293 23.2412 5.25014 23.2412C5.44736 23.2412 5.63709 23.1657 5.78043 23.0303L8.5141 20.2966C9.61771 20.7609 10.8029 21 12.0002 21C13.1974 21 14.3827 20.7609 15.4863 20.2966L18.2199 23.0303C18.3615 23.1689 18.5519 23.2465 18.7501 23.2465C18.9483 23.2465 19.1387 23.1689 19.2804 23.0303C19.35 22.9606 19.4053 22.878 19.443 22.787C19.4807 22.696 19.5001 22.5985 19.5001 22.5C19.5001 22.4015 19.4807 22.304 19.443 22.213C19.4053 22.122 19.35 22.0394 19.2804 21.9697L16.8687 19.5581C18.1347 18.7444 19.1762 17.6262 19.898 16.3057C20.6198 14.9853 20.9987 13.5048 21.0001 12ZM12.0001 14.25C11.4699 14.2513 10.9563 14.0648 10.5504 13.7236C10.1446 13.3824 9.87259 12.9085 9.78274 12.3859C9.69288 11.8633 9.79094 11.3258 10.0595 10.8686C10.3281 10.4115 10.7499 10.0641 11.2501 9.88823V7.5C11.2501 7.30109 11.3291 7.11032 11.4698 6.96967C11.6104 6.82902 11.8012 6.75 12.0001 6.75C12.199 6.75 12.3898 6.82902 12.5304 6.96967C12.6711 7.11032 12.7501 7.30109 12.7501 7.5V9.88823C13.1876 10.0423 13.5666 10.328 13.8352 10.7061C14.1037 11.0842 14.2487 11.5362 14.2501 12C14.2474 12.2504 14.2023 12.4986 14.1169 12.7339L16.2185 14.4139C16.2954 14.4755 16.3595 14.5515 16.407 14.6378C16.4546 14.7241 16.4847 14.8188 16.4956 14.9167C16.5065 15.0146 16.498 15.1137 16.4706 15.2084C16.4433 15.303 16.3975 15.3913 16.336 15.4682C16.2745 15.5452 16.1984 15.6092 16.1122 15.6568C16.0259 15.7043 15.9311 15.7344 15.8332 15.7453C15.7353 15.7562 15.6362 15.7478 15.5416 15.7204C15.447 15.693 15.3587 15.6473 15.2817 15.5858L13.1811 13.9065C12.8274 14.1295 12.4182 14.2485 12.0001 14.25Z" fill="#8D1B3D"/>
<path d="M21.0148 2.98506C20.4835 2.47595 19.7873 2.17407 19.0526 2.13417C18.3178 2.09427 17.5931 2.31898 17.0098 2.76756C17.0473 2.79006 17.0848 2.80506 17.1223 2.82756C18.8248 3.77509 20.2279 5.18072 21.1723 6.88506C21.1927 6.91849 21.2103 6.95362 21.2248 6.99006C21.6953 6.41643 21.9345 5.68775 21.8957 4.94687C21.8568 4.20599 21.5427 3.50634 21.0148 2.98506Z" fill="#8D1B3D" fill-opacity="0.65"/>
<path d="M6.88463 2.8275C6.91807 2.80703 6.95319 2.78947 6.98963 2.775C6.4094 2.32353 5.68591 2.09626 4.95174 2.13483C4.21756 2.1734 3.52187 2.47522 2.99213 2.985C2.70835 3.26064 2.48305 3.59067 2.3297 3.95535C2.17635 4.32004 2.0981 4.71189 2.09963 5.1075C2.09968 5.79298 2.33535 6.45761 2.76713 6.99C2.78963 6.9525 2.80463 6.915 2.82713 6.8775C3.77467 5.17492 5.1803 3.77189 6.88463 2.8275Z" fill="#8D1B3D" fill-opacity="0.65"/>
</svg>
