<svg width="21" height="20" viewBox="0 0 21 20" fill="none" xmlns="http://www.w3.org/2000/svg">
<path d="M11.8347 11.9012C14.6454 11.9012 16.9321 9.59624 16.9321 6.76311C16.9321 3.92999 14.6454 1.625 11.8347 1.625C9.02398 1.625 6.7373 3.92995 6.7373 6.76308C6.7373 9.59621 9.02398 11.9012 11.8347 11.9012ZM10.1967 8.36644C10.345 8.13979 10.649 8.07616 10.8756 8.2245C11.2059 8.44053 11.3305 8.46044 11.7663 8.4574C12.1917 8.45459 12.4385 8.13753 12.4878 7.84412C12.5118 7.7014 12.521 7.35289 12.0891 7.2002C11.5825 7.02109 11.064 6.81638 10.7033 6.53346C10.3426 6.25054 10.1774 5.76212 10.2722 5.25889C10.3751 4.71335 10.7556 4.27908 11.2654 4.12554C11.27 4.12417 11.2745 4.12306 11.2791 4.12168V3.93577C11.2791 3.66492 11.4987 3.44533 11.7696 3.44533C12.0404 3.44533 12.26 3.66492 12.26 3.93577V4.09079C12.5931 4.1703 12.8258 4.3227 12.9202 4.39329C13.1372 4.5555 13.1816 4.86281 13.0194 5.07978C12.8572 5.29675 12.5499 5.34116 12.3329 5.17892C12.2324 5.10378 11.9547 4.94226 11.5483 5.06471C11.3109 5.13625 11.2493 5.37048 11.2361 5.44055C11.2102 5.57824 11.2393 5.70729 11.3086 5.76163C11.5586 5.95774 12.0087 6.13139 12.416 6.27535C13.167 6.54081 13.5846 7.23659 13.4551 8.00672C13.3916 8.38459 13.2015 8.73515 12.9198 8.99395C12.728 9.17024 12.5047 9.29593 12.26 9.3677V9.59039C12.26 9.86125 12.0404 10.0808 11.7696 10.0808C11.4987 10.0808 11.2791 9.86125 11.2791 9.59039V9.41661C10.962 9.37816 10.6958 9.27899 10.3386 9.04534C10.112 8.89707 10.0485 8.59309 10.1967 8.36644Z" fill="#4F4F4F"/>
<path d="M3.98372 13.5493H2.86544C2.59459 13.5493 2.375 13.7689 2.375 14.0398V17.8845C2.375 18.1554 2.59459 18.375 2.86544 18.375H3.98375L3.98372 13.5493Z" fill="#4F4F4F"/>
<path d="M18.481 13.5149C17.5618 12.5956 16.066 12.5956 15.1468 13.5149L13.6776 14.984L13.0755 15.5862C12.8321 15.8296 12.502 15.9663 12.1579 15.9663H9.22977C8.96533 15.9663 8.73776 15.7631 8.7253 15.4989C8.71203 15.2169 8.93675 14.984 9.21588 14.984H12.1921C12.7905 14.984 13.3095 14.558 13.4124 13.9685C13.436 13.8332 13.4483 13.694 13.4483 13.5519C13.4484 13.2806 13.2285 13.0604 12.9572 13.0604H11.3264C10.7935 13.0604 10.2817 12.8187 9.7398 12.5627C9.17144 12.2942 8.58376 12.0166 7.89659 11.9709C7.29556 11.9308 6.69317 11.9966 6.10604 12.1661C5.47739 12.3477 5.0255 12.9062 4.9707 13.551C4.96861 13.5509 4.96648 13.5508 4.96436 13.5507V18.3731L13.4139 18.3754C13.9949 18.3754 14.5411 18.1492 14.952 17.7383L18.4809 14.2094C18.6728 14.0177 18.6728 13.7067 18.481 13.5149Z" fill="#4F4F4F"/>
</svg>
